<svg width="451" height="218" viewBox="0 0 451 218" fill="none" xmlns="http://www.w3.org/2000/svg">
<path d="M73.4856 168.965C73.4856 151.03 73.2469 133.24 75.2049 115.401C76.2417 105.954 76.701 98.0102 75.5487 88.5039" stroke="#F18284" stroke-width="8" stroke-linecap="round"/>
<path d="M74.8605 126.326C81.6119 118.417 89.525 112.701 99.1976 109.477C101.733 108.632 104.552 107.07 107.183 107.07" stroke="#F18284" stroke-width="8" stroke-linecap="round"/>
<path d="M92.7414 76.1245C95.2908 74.8498 98.244 70.6544 97.8992 67.7574C97.0789 60.8671 88.2664 61.4816 85.8643 56.5632C84.6146 54.0042 86.0788 51.8688 83.8012 49.2659C80.1426 45.0846 70.7348 39.7728 70.7348 49.3041C70.7348 50.0615 71.1459 55.0329 70.0471 53.1246C67.9985 49.5665 62.6974 47.5753 58.7 47.2792C51.6399 46.7562 58.0575 67.8721 52.7781 67.8721C49.5611 67.8721 46.3874 68.8745 44.9077 71.9983C43.7836 74.3714 43.5219 78.3606 44.0672 80.9384C44.9002 84.8763 54.3744 88.3587 57.3246 85.4085C59.0161 83.717 58.3461 87.2289 58.7 88.5032C60.1546 93.7396 62.9882 95.9315 68.1369 92.1709C69.8067 90.9513 79.9315 80.4538 81.7381 83.4218C82.6635 84.9421 83.2679 86.4867 84.4889 87.8155C86.2332 89.7136 90.0043 93.0742 92.7032 90.3753C95.6358 87.4427 98.1406 75.8612 92.7414 74.0614" stroke="#F1A382" stroke-width="4" stroke-linecap="round"/>
<path d="M140.88 100.882C145.817 97.7634 147.533 89.9584 140.039 88.4268C138.792 88.172 133.474 90.2042 133.353 88.9999C133.167 87.135 133.562 85.1965 133.277 83.3454C132.781 80.1227 130.04 77.3488 127.126 76.2774C121.338 74.1496 120.102 78.8178 119.561 83.6893C119.366 85.445 119.781 92.3442 117.46 89.1527C115.638 86.6475 109.407 83.7419 106.494 85.9052C101.93 89.2961 106.995 101.94 104.508 102.295C102.892 102.526 102.436 105.86 102.368 107.071C102.174 110.57 101.081 111.715 104.431 113.948C108.431 116.614 111.323 116.124 114.785 112.878C115.134 112.551 116.704 110.374 116.81 111.503C116.993 113.457 117.458 115.033 118.185 116.852C119.279 119.585 123.492 122.98 126.476 119.908C127.424 118.932 130.468 110.893 131.405 111.732C132.239 112.48 132.797 113.556 133.697 114.292C135.629 115.873 141.248 117.192 143.478 115.706C146.7 113.557 143.864 102.876 142.255 100.194" stroke="#F1A382" stroke-width="4" stroke-linecap="round"/>
<path d="M89.9155 65.314C90.6571 66.0272 92.0809 67.0676 92.2333 68.2911C92.4222 69.8077 90.565 70.3782 89.456 70.1294C88.9231 70.0099 87.9388 69.3784 87.9574 68.6908C87.9741 68.0728 88.6263 69.7627 88.7466 70.3692C89.1599 72.4526 88.1836 74.461 85.8194 73.3064C85.5192 73.1598 84.4853 71.9605 85.4298 72.7869C86.5547 73.7712 87.4899 75.1147 88.1172 76.4634C88.3441 76.9512 89.4524 81.4351 87.4179 79.7902C86.8913 79.3644 86.9709 78.7051 87.7975 78.8811C88.9763 79.132 89.9064 80.134 90.2252 81.2688C91.0892 84.3434 87.8899 84.1323 86.0792 83.1171C84.9861 82.5042 84.9997 81.8379 84.151 81.089C81.995 79.1866 78.7739 77.235 75.9488 76.6232C72.321 75.8376 75.6985 82.0303 72.1724 81.4986C70.4137 81.2334 69.0432 79.1566 68.2361 77.7821C67.9147 77.2348 67.5275 75.2563 68.2461 77.0129C68.7008 78.1242 69.8481 83.6173 67.317 83.5167C65.9598 83.4627 65.0803 81.405 64.7794 80.3996C64.6441 79.9475 64.5383 79.4724 64.5596 79.001C64.5953 78.2123 65.1042 78.2658 65.4388 78.8411C66.0767 79.9381 67.0035 85.2936 64.6995 85.3949C63.0934 85.4655 61.5988 82.5811 61.023 81.5585C60.3328 80.3328 58.8897 77.8583 59.5444 76.3035C60.002 75.2167 62.1809 77.3974 60.2637 78.2017C57.7907 79.2393 54.5334 75.8951 54.8688 73.4662C54.9226 73.077 55.3188 72.442 55.8479 72.5871C56.8351 72.8578 57.0842 74.5123 57.1766 75.2945C57.3571 76.8218 57.2195 76.6603 57.9459 74.2854C58.7628 71.6146 60.4343 68.0651 60.0839 65.1841C59.9863 64.382 59.214 64.1498 58.8251 63.5756C58.1607 62.5948 57.8982 61.0421 58.5653 59.979C60.0231 57.6561 65.2572 59.8878 64.3998 62.3967C64.187 63.0194 63.2792 63.1507 62.7813 62.9762C61.4563 62.5118 60.9773 60.9245 60.8432 59.6993C60.4265 55.8941 64.3857 56.3677 66.5677 58.0809C66.8003 58.2634 67.8752 59.1597 67.7566 59.7792C67.6086 60.5519 66.0628 59.3468 65.6786 58.6603C63.0916 54.0381 68.9149 53.1485 72.1524 53.685C73.8045 53.9588 75.6571 54.6208 76.9878 55.6831C77.8 56.3315 79.5064 58.3251 78.2066 59.4196C77.2337 60.2389 76.9846 58.6984 77.1077 58.1608C77.42 56.7967 78.3663 55.487 79.5354 54.734C80.2767 54.2566 80.9619 54.0284 81.8332 54.1446C82.9171 54.2891 82.7032 54.5975 82.3427 55.0637C80.873 56.9648 82.0896 61.1617 82.2528 63.0561C82.283 63.4061 83.7796 71.448 80.2048 69.6099C79.3033 69.1464 78.0373 67.4344 77.5872 66.5128C77.1043 65.5239 77.4596 64.7767 78.3865 65.7036C79.0309 66.3481 79.7972 67.7796 78.8261 68.5709C77.5432 69.6161 75.362 68.6912 74.2104 68.0114C73.109 67.3612 72.353 66.6538 71.6529 65.6037C71.4414 65.2865 71.2623 64.9401 71.1534 64.5747C71.0608 64.264 71.1867 63.778 71.5929 64.235C73.006 65.8247 71.947 70.6952 69.2951 68.9905C68.731 68.6278 68.1883 67.7016 68.0163 67.0723C67.7518 66.1041 68.3544 65.6433 69.0853 66.4829C71.3316 69.063 70.6843 74.2109 66.3679 72.8168C65.3539 72.4893 64.5933 71.9983 63.9502 71.1684C63.4673 70.5453 63.7221 69.9197 64.0201 70.589C64.9286 72.6286 63.4797 75.1979 61.3826 73.1265C60.5683 72.3222 60.77 72.2146 60.3237 71.2883C60.2846 71.2072 60.2085 71.007 60.1538 71.0785C51.6708 82.1716 78.3749 49.4167 58.6852 73.9058C56.7097 76.3628 54.3126 76.9688 51.6519 78.3216C51.1974 78.5527 50.7454 78.8221 50.3931 79.1908C50.0224 79.5787 50.1411 80.3102 49.7337 80.6594C49.451 80.9017 49.0965 80.1919 48.9744 79.8402C48.6071 78.7813 48.4089 77.15 49.2142 76.2036C50.932 74.1849 54.3087 78.0122 53.3703 78.4815C51.8412 79.246 50.7627 75.9964 50.6129 75.0847C50.4706 74.2192 50.8562 73.4629 50.3631 75.0447C49.4208 78.0679 53.6631 79.2998 55.6881 80.3597C57.8492 81.4908 61.1276 82.7151 62.4416 84.9953C62.7675 85.5607 63.107 86.3644 63.141 87.0333C63.1627 87.4609 62.5132 88.4053 62.3217 88.0224C61.9273 87.2334 64.3601 87.0532 64.3798 87.0533C65.8208 87.0636 67.3053 87.6102 68.1562 88.8216C68.3597 89.1113 68.6615 90.07 68.376 89.8606C66.8208 88.7201 71.0432 86.864 72.8517 86.1941C77.8 84.3613 84.1458 82.6883 89.4659 83.7864C90.0489 83.9067 90.6028 84.2457 91.0145 84.6756C91.2432 84.9144 91.178 85.7239 90.8546 85.6546C90.5909 85.5981 90.5708 84.9689 90.5949 84.8554C90.7343 84.1979 91.3506 84.0088 91.9136 83.8763C92.7812 83.6722 92.2049 83.2785 91.7538 82.5776C90.4089 80.4882 89.2753 78.3825 88.2971 76.0937C87.688 74.6687 87.2342 73.0627 86.229 71.8278C84.4718 69.669 81.7295 69.1621 79.1657 68.5909C77.4426 68.2069 74.9154 68.1167 73.3213 67.1822C73.2379 67.1333 73.5223 67.1339 73.611 67.1722C74.7236 67.6522 75.5732 68.2728 76.3484 69.2502C77.3255 70.4822 78.0101 71.9947 78.3465 73.5262C78.5483 74.4445 78.4245 76.7519 77.6272 76.2536C75.5276 74.9413 75.0474 69.903 78.5463 70.549C79.1492 70.6603 80.8315 71.4187 80.2347 71.2783C78.3078 70.8249 75.776 67.7107 74.7899 66.4129C72.8291 63.8325 70.5026 60.1879 70.2842 56.8121C70.1657 54.9803 71.7977 55.9564 72.3322 56.6822C72.5505 56.9785 72.8795 57.9778 71.8927 57.7412C69.0084 57.0497 73.8088 53.3312 73.8308 53.3154C74.7712 52.6391 75.8003 52.0763 76.8679 51.627C77.7212 51.2679 79.604 50.6821 79.6453 51.607C79.7146 53.1596 77.1008 51.9272 76.788 51.6769C75.8476 50.9246 75.1963 49.1545 76.9478 49.9086C77.1828 50.0098 77.4057 50.1487 77.1177 49.8287C76.6065 49.2608 76.713 50.2224 76.6481 50.588C75.6395 56.2693 71.5266 60.8466 65.3189 60.3487C62.6526 60.1348 59.664 58.7469 58.3855 56.2626C58.0523 55.6151 58.1693 55.0774 58.7851 55.1137C58.9198 55.1216 58.7257 54.8492 58.6752 54.724C58.4948 54.2773 58.0076 53.2323 58.4854 52.7859C59.2311 52.0891 59.9628 53.8896 60.0639 54.3444" stroke="#82ABF1" stroke-width="4" stroke-linecap="round"/>
<path d="M139.369 93.1877C139.681 93.7287 139.582 93.4389 139.589 94.3266C139.607 96.6771 139.478 95.9786 139.809 98.7824C139.978 100.216 142.057 107.16 139.249 107.394C139.056 107.41 139.566 107.623 139.699 107.764C140.02 108.104 141.148 109.522 140.029 109.832C139.286 110.038 138.45 109.475 137.951 109.053C136.998 108.246 137.299 107.837 136.052 107.914C134.024 108.038 131.914 107.116 131.167 105.056C131.082 104.821 130.905 103.843 131.617 104.037C132.694 104.331 132.794 106.077 132.236 106.815C130.535 109.064 126.14 107.464 125.013 105.376C124.949 105.258 124.929 104.978 125.063 104.976C125.338 104.973 125.594 105.175 125.792 105.366C126.842 106.377 127.736 108.296 127.161 109.772C126.851 110.567 126.133 110.499 125.542 110.212C125.249 110.069 124.633 109.303 124.923 109.452C126.023 110.019 126.728 113.461 125.832 114.358C125.016 115.174 123.299 112.713 123.125 112.909C122.928 113.131 123.132 113.53 122.985 113.788C122.454 114.719 121.093 112.73 120.327 111.98C118.204 109.899 117.548 109.272 115.152 107.414C114.466 106.882 113.773 106.353 113.034 105.896C111.952 105.225 112.367 105.778 112.515 106.435C112.786 107.644 112.945 111.618 110.497 110.361C109.983 110.098 109.668 109.686 109.498 109.153C109.293 108.514 109.785 109.059 109.777 109.572C109.772 109.949 109.645 110.741 109.238 110.971C108.111 111.607 107.353 109.292 107.25 108.773C106.853 106.789 107.935 105.28 110.007 105.536C110.422 105.587 110.846 106.118 111.206 105.906C111.301 105.85 111.2 105.684 111.176 105.576C110.864 104.193 110.753 104.472 110.637 102.799C110.552 101.582 110.605 100.501 110.896 99.3219C110.936 99.1614 111.486 98.1856 111.326 98.143C110.795 98.0014 108.519 96.0148 109.578 95.4855C110.346 95.1011 109.943 98.7684 109.098 95.8352C108.796 94.7868 108.773 93.6949 109.058 92.6382C109.193 92.1384 110.054 90.4608 110.736 91.6691C110.769 91.7261 111.04 92.6773 110.437 92.5083C109.352 92.2046 109.058 90.4079 110.127 89.8309C111.628 89.0211 113.981 89.5778 115.392 89.8808C116.428 90.1033 117.433 90.45 118.449 90.75C119.238 90.9831 120.358 91.8966 120.867 91.2495C121.808 90.052 119.541 91.2163 121.187 89.9308C121.838 89.4222 122.936 89.5037 123.644 89.671C123.876 89.7258 125.195 90.1349 125.203 90.75C125.214 91.5792 123.638 89.8342 123.394 89.0416C123.155 88.2643 123.004 87.1779 123.444 86.4042C123.864 85.6666 124.853 85.8637 125.323 86.3942C125.474 86.5653 125.498 86.9635 125.103 86.7538C124.461 86.4135 123.96 85.4923 124.094 84.7657C124.382 83.2055 126.59 84.984 126.042 86.1744C125.89 86.5046 125.232 85.9862 125.083 85.6549C124.622 84.6349 124.399 82.9038 125.393 82.0783C125.908 81.6503 126.529 81.7747 127.061 82.0283C127.811 82.3863 127.535 82.8663 127.141 82.358C126.87 82.0088 126.539 81.3141 126.661 80.8394C126.858 80.0722 128.166 81.6874 128.42 82.4379C129.252 84.9053 128.426 87.3871 128.639 89.9008C128.76 91.3226 129.123 92.7874 129.419 94.1768C129.64 95.2178 129.465 96.5402 130.618 96.045C131.948 95.4738 133.332 95.4444 134.474 96.4746C135.873 97.7372 135.426 100.989 133.015 100.401C132.864 100.364 131.609 99.7503 131.996 99.162C132.335 98.6479 133.461 99.1157 133.715 99.222C134.15 99.4044 134.511 100.152 134.933 99.9413C135.062 99.8772 134.952 99.655 134.953 99.5117C134.967 98.4873 134.85 97.9981 135.303 96.9641C135.747 95.9499 136.295 95.364 137.341 95.006C137.911 94.811 139.717 95.3964 139.129 95.2657C138.406 95.105 138.916 93.1219 139.969 94.1967C141.531 95.7915 138.164 96.6399 137.321 96.7643C135.94 96.9682 134.527 96.9038 133.145 97.104C130.963 97.4199 129.32 98.3394 127.301 99.0621C124.666 100.005 124.849 94.5559 126.541 94.5264C129.945 94.4672 130.46 104.01 125.662 103.218C124.235 102.983 122.726 101.544 121.906 100.461C121.061 99.3451 121.356 98.3991 122.216 99.8514C123.3 101.683 122.807 104.83 121.766 106.615C121.386 107.266 118.712 104.59 118.509 104.067C118.471 103.968 118.483 103.749 118.589 103.758C118.735 103.77 118.842 103.953 118.869 104.097C119.094 105.339 117.661 105.73 116.731 105.296C115.815 104.869 115.225 103.945 115.212 102.938C115.208 102.607 115.319 102.208 115.592 102.019C115.781 101.889 116.144 102.016 116.251 102.219C117.736 105.046 112.711 108.238 111.586 104.607C111.338 103.807 111.492 102.669 112.285 102.179C113.053 101.704 114.179 102.928 113.534 103.538C113.103 103.945 112.315 103.004 112.135 102.439C111.577 100.69 111.926 98.2578 113.913 97.5635C114.816 97.2481 115.794 97.5422 116.461 98.163C116.584 98.2771 116.755 98.5577 116.611 98.6425C116.074 98.9575 115.465 97.9607 115.232 97.3837C114.892 96.5423 114.737 95.2948 115.472 94.5464C116.362 93.6402 117.846 94.2771 118.439 95.1359C118.48 95.195 118.447 95.3888 118.389 95.3457C118.237 95.2315 118.109 95.054 118.079 94.8661C117.863 93.5084 119.239 92.9249 120.387 93.2676C121.272 93.5316 121.917 94.2044 122.186 95.0659C122.548 96.2286 121.422 95.6428 122.405 95.3756C123.694 95.0254 125.106 95.4277 126.342 95.6653C128.883 96.1544 130.319 96.6731 132.925 96.7543C141.429 97.0191 131.741 96.5201 136.602 96.1849C137.895 96.0957 137.132 99.3332 137.031 99.6016C136.572 100.834 135.812 101.608 134.494 101.8C132.939 102.026 132.986 100.538 134.124 101.33C135.055 101.978 135.91 103.114 135.723 104.357C135.311 107.09 131.784 106.264 130.158 105.676C129.189 105.325 128.448 104.321 127.421 104.237C127.138 104.214 126.888 104.441 126.651 104.597C124.917 105.737 125.328 105.989 123.055 106.815C121.644 107.327 120.22 107.62 118.789 107.025C117.377 106.437 118.409 105.582 118.829 106.315C119.232 107.019 118.527 106.995 118.149 106.635C116.212 104.786 115.44 101.812 114.743 99.3419C114.465 98.3583 114.47 97.2544 113.933 96.3847C113.664 95.9486 113.174 97.0571 113.114 97.1439" stroke="#82ABF1" stroke-width="4" stroke-linecap="round"/>
<path d="M196.293 108.965C159.293 108.965 168.292 118.516 128.292 136.49C88.2926 154.464 88.2932 127.964 35.7933 108.965C-16.7066 89.9652 5.7925 216.965 5.7925 216.965H438.293C447.141 191.498 459.528 181.086 438.293 148.964C417.057 116.843 338.891 118.087 307.339 136.49C251.747 151.547 233.292 108.965 196.293 108.965Z" fill="#FFEADE" stroke="#FF9668"/>
<path d="M374.258 201.471C374.258 172.85 374.638 144.462 371.514 115.995C369.859 100.919 369.126 88.2431 370.965 73.0732" stroke="#79A864" stroke-width="8" stroke-linecap="round"/>
<path d="M372.063 133.431C361.289 120.81 348.662 111.689 333.227 106.544C329.181 105.196 324.682 102.703 320.484 102.703" stroke="#79A864" stroke-width="8" stroke-linecap="round"/>
<path d="M343.53 53.3195C339.461 51.2853 334.749 44.5904 335.299 39.9676C336.608 28.9722 350.671 29.9527 354.504 22.104C356.498 18.0205 354.162 14.6128 357.796 10.4592C363.634 3.78685 378.647 -4.6896 378.647 10.5202C378.647 11.7288 377.991 19.6621 379.744 16.6169C383.014 10.939 391.473 7.76139 397.852 7.28888C409.118 6.45434 398.877 40.1505 407.302 40.1505C412.436 40.1505 417.5 41.7502 419.861 46.735C421.655 50.5219 422.073 56.8878 421.202 61.0014C419.873 67.2853 404.754 72.8425 400.047 68.1346C397.347 65.4354 398.417 71.0396 397.852 73.073C395.531 81.4291 391.009 84.9269 382.793 78.9259C380.128 76.9797 363.971 60.228 361.088 64.9643C359.612 67.3903 358.647 69.8551 356.699 71.9756C353.915 75.0046 347.897 80.3673 343.591 76.0604C338.911 71.3807 334.914 52.8992 343.53 50.0272" stroke="#82F198" stroke-width="4" stroke-linecap="round"/>
<path d="M266.711 92.827C258.832 87.8506 256.094 75.3956 268.053 72.9515C270.042 72.5449 278.53 75.7878 278.722 73.866C279.019 70.8901 278.389 67.7967 278.844 64.8428C279.635 59.7 284.009 55.2736 288.66 53.5638C297.895 50.1684 299.867 57.6177 300.731 65.3915C301.043 68.1932 300.381 79.2027 304.084 74.1099C306.992 70.1122 316.935 65.4755 321.582 68.9277C328.866 74.3387 320.783 94.5157 324.752 95.0828C327.331 95.4511 328.059 100.771 328.167 102.704C328.477 108.288 330.221 110.114 324.874 113.678C318.493 117.932 313.877 117.15 308.352 111.971C307.795 111.449 305.29 107.974 305.121 109.776C304.829 112.893 304.087 115.409 302.926 118.312C301.181 122.673 294.457 128.09 289.696 123.189C288.183 121.631 283.326 108.802 281.831 110.142C280.5 111.335 279.61 113.051 278.173 114.227C275.091 116.749 266.124 118.855 262.565 116.482C257.423 113.054 261.949 96.0091 264.516 91.7296" stroke="#82F198" stroke-width="4" stroke-linecap="round"/>
<path d="M348.038 36.069C346.855 37.2071 344.582 38.8673 344.339 40.8198C344.038 43.2399 347.001 44.1502 348.771 43.7533C349.622 43.5625 351.192 42.5549 351.163 41.4575C351.136 40.4713 350.095 43.1682 349.903 44.1359C349.244 47.4605 350.802 50.6655 354.574 48.823C355.053 48.5891 356.703 46.6752 355.196 47.994C353.401 49.5647 351.909 51.7087 350.908 53.8609C350.546 54.6392 348.777 61.7946 352.024 59.1697C352.864 58.4903 352.737 57.4381 351.418 57.719C349.537 58.1194 348.053 59.7184 347.544 61.5292C346.165 66.4355 351.27 66.0987 354.16 64.4786C355.904 63.5006 355.882 62.4373 357.237 61.2423C360.677 58.2066 365.817 55.0922 370.326 54.1159C376.115 52.8623 370.725 62.7444 376.352 61.8959C379.158 61.4727 381.345 58.1586 382.633 55.9653C383.146 55.0919 383.764 51.9346 382.617 54.7377C381.892 56.5112 380.061 65.2769 384.1 65.1163C386.266 65.0302 387.669 61.7466 388.149 60.1422C388.365 59.4207 388.534 58.6626 388.5 57.9103C388.443 56.6518 387.631 56.737 387.097 57.6552C386.079 59.4058 384.6 67.9519 388.277 68.1135C390.84 68.2262 393.225 63.6234 394.144 61.9916C395.245 60.0356 397.548 56.0869 396.503 53.6058C395.773 51.8714 392.296 55.3513 395.355 56.6349C399.302 58.2905 404.5 52.954 403.964 49.0781C403.879 48.457 403.246 47.4436 402.402 47.6751C400.827 48.1071 400.429 50.7474 400.282 51.9956C399.994 54.4329 400.213 54.175 399.054 50.3854C397.751 46.1233 395.083 40.4591 395.642 35.8617C395.798 34.5817 397.03 34.2112 397.651 33.295C398.711 31.7298 399.13 29.252 398.066 27.5556C395.739 23.8487 387.387 27.4101 388.755 31.4137C389.095 32.4073 390.543 32.6169 391.338 32.3384C393.452 31.5973 394.217 29.0644 394.431 27.1092C395.096 21.0369 388.778 21.7927 385.296 24.5265C384.925 24.8179 383.209 26.2481 383.399 27.2368C383.635 28.4698 386.101 26.5467 386.715 25.4512C390.843 18.0752 381.55 16.6557 376.384 17.5118C373.747 17.9487 370.791 19.0051 368.668 20.7003C367.371 21.735 364.649 24.9163 366.723 26.6628C368.275 27.9703 368.673 25.512 368.476 24.6541C367.978 22.4773 366.468 20.3873 364.602 19.1858C363.419 18.4238 362.326 18.0598 360.935 18.2452C359.206 18.4758 359.547 18.9679 360.122 19.7119C362.468 22.7456 360.526 29.4428 360.266 32.4659C360.218 33.0245 357.83 45.8575 363.534 42.9243C364.973 42.1846 366.993 39.4527 367.711 37.9821C368.482 36.404 367.915 35.2117 366.436 36.6907C365.407 37.7191 364.185 40.0036 365.734 41.2662C367.781 42.9342 371.262 41.4583 373.1 40.3734C374.857 39.3358 376.064 38.2071 377.181 36.5313C377.518 36.025 377.804 35.4723 377.978 34.8892C378.126 34.3935 377.925 33.6179 377.277 34.3472C375.022 36.884 376.712 44.6562 380.943 41.9358C381.844 41.3571 382.71 39.8791 382.984 38.8748C383.406 37.3299 382.445 36.5945 381.278 37.9342C377.694 42.0516 378.727 50.2665 385.615 48.0418C387.233 47.5192 388.446 46.7355 389.473 45.4113C390.243 44.4169 389.837 43.4186 389.361 44.4866C387.911 47.7415 390.223 51.8414 393.57 48.536C394.869 47.2524 394.548 47.0808 395.26 45.6026C395.322 45.4733 395.444 45.1538 395.531 45.2678C409.068 62.97 366.454 10.7006 397.874 49.7796C401.027 53.7003 404.852 54.6675 409.098 56.8262C409.823 57.1949 410.545 57.6249 411.107 58.2132C411.698 58.8323 411.509 59.9995 412.159 60.5567C412.61 60.9434 413.176 59.8108 413.371 59.2494C413.957 57.5597 414.273 54.9565 412.988 53.4463C410.247 50.2249 404.858 56.3325 406.356 57.0813C408.796 58.3013 410.517 53.1156 410.756 51.6608C410.983 50.2796 410.368 49.0727 411.154 51.597C412.658 56.4213 405.889 58.3871 402.657 60.0785C399.208 61.8835 393.977 63.8371 391.88 67.4758C391.36 68.3781 390.818 69.6606 390.764 70.7281C390.729 71.4103 391.766 72.9174 392.071 72.3064C392.701 71.0474 388.819 70.7597 388.787 70.76C386.488 70.7764 384.119 71.6487 382.761 73.5818C382.436 74.0441 381.955 75.5739 382.41 75.2398C384.892 73.4198 378.154 70.4579 375.268 69.3889C367.372 66.4641 357.245 63.7944 348.755 65.5468C347.825 65.7388 346.941 66.2797 346.284 66.9656C345.919 67.3467 346.023 68.6386 346.539 68.528C346.96 68.4378 346.992 67.4337 346.954 67.2526C346.731 66.2034 345.748 65.9017 344.849 65.6902C343.465 65.3645 344.385 64.7362 345.104 63.6177C347.251 60.2836 349.06 56.9234 350.621 53.271C351.593 50.9969 352.317 48.4341 353.921 46.4635C356.725 43.0185 361.101 42.2096 365.192 41.2981C367.942 40.6855 371.975 40.5414 374.518 39.0502C374.652 38.9722 374.198 38.9732 374.056 39.0343C372.281 39.8002 370.925 40.7905 369.688 42.3503C368.129 44.3162 367.036 46.7299 366.499 49.1737C366.177 50.6392 366.375 54.3213 367.647 53.5261C370.998 51.432 371.764 43.3921 366.181 44.4229C365.218 44.6005 362.534 45.8107 363.486 45.5867C366.561 44.8632 370.601 39.8935 372.175 37.8226C375.304 33.7048 379.016 27.8889 379.365 22.5018C379.554 19.5788 376.95 21.1364 376.097 22.2946C375.749 22.7674 375.223 24.362 376.798 23.9845C381.401 22.8811 373.741 16.9472 373.705 16.9219C372.205 15.8428 370.563 14.9446 368.859 14.2276C367.497 13.6546 364.493 12.7198 364.427 14.1958C364.316 16.6734 368.487 14.7067 368.986 14.3074C370.487 13.1068 371.526 10.2821 368.731 11.4855C368.356 11.6469 368.001 11.8687 368.46 11.358C369.276 10.4517 369.106 11.9863 369.21 12.5696C370.819 21.6358 377.382 28.9401 387.288 28.1455C391.543 27.8042 396.312 25.5894 398.353 21.625C398.884 20.5917 398.698 19.7338 397.715 19.7916C397.5 19.8042 397.81 19.3695 397.89 19.1698C398.178 18.457 398.956 16.7894 398.193 16.077C397.003 14.9651 395.836 17.8383 395.674 18.564" stroke="#C3F182" stroke-width="4" stroke-linecap="round"/>
<path d="M269.122 80.5494C268.625 81.4127 268.782 80.9502 268.771 82.3669C268.742 86.1177 268.948 85.0031 268.42 89.4772C268.15 91.765 264.833 102.846 269.313 103.22C269.622 103.245 268.808 103.585 268.596 103.81C268.083 104.352 266.284 106.615 268.07 107.11C269.254 107.438 270.589 106.54 271.386 105.866C272.905 104.58 272.425 103.927 274.415 104.049C277.652 104.247 281.019 102.775 282.211 99.4892C282.347 99.1131 282.629 97.5534 281.493 97.863C279.775 98.3317 279.615 101.118 280.505 102.295C283.219 105.885 290.233 103.331 292.031 99.9993C292.133 99.8108 292.166 99.3644 291.951 99.3616C291.512 99.356 291.104 99.6782 290.788 99.9834C289.113 101.597 287.686 104.659 288.604 107.014C289.098 108.283 290.243 108.174 291.186 107.716C291.655 107.488 292.638 106.265 292.175 106.504C290.419 107.409 289.294 112.901 290.724 114.332C292.026 115.634 294.767 111.707 295.044 112.02C295.359 112.374 295.033 113.012 295.268 113.423C296.114 114.909 298.287 111.734 299.508 110.537C302.897 107.218 303.944 106.216 307.767 103.252C308.862 102.402 309.968 101.559 311.146 100.828C312.873 99.7583 312.211 100.641 311.975 101.689C311.542 103.618 311.289 109.959 315.196 107.955C316.015 107.534 316.518 106.877 316.79 106.026C317.116 105.007 316.332 105.876 316.344 106.695C316.352 107.296 316.554 108.56 317.205 108.927C319.003 109.943 320.212 106.247 320.377 105.42C321.01 102.254 319.283 99.8454 315.977 100.254C315.315 100.336 314.639 101.183 314.064 100.844C313.912 100.755 314.073 100.49 314.112 100.318C314.609 98.1107 314.787 98.556 314.973 95.8862C315.108 93.9452 315.023 92.2192 314.558 90.3381C314.495 90.0821 313.617 88.5249 313.873 88.4569C314.72 88.231 318.352 85.0609 316.662 84.2162C315.436 83.6027 316.08 89.4549 317.428 84.7742C317.91 83.1011 317.947 81.3588 317.491 79.6726C317.276 78.875 315.901 76.1978 314.813 78.1261C314.762 78.217 314.329 79.7349 315.291 79.4653C317.022 78.9806 317.492 76.1134 315.786 75.1927C313.391 73.9005 309.636 74.7888 307.384 75.2724C305.731 75.6274 304.127 76.1806 302.505 76.6594C301.246 77.0314 299.459 78.4891 298.647 77.4566C297.146 75.5456 300.764 77.4034 298.137 75.3521C297.098 74.5405 295.345 74.6706 294.215 74.9376C293.846 75.0249 291.741 75.6779 291.728 76.6594C291.711 77.9826 294.225 75.198 294.614 73.9332C294.996 72.6929 295.238 70.9591 294.534 69.7244C293.864 68.5475 292.287 68.862 291.537 69.7085C291.295 69.9816 291.257 70.617 291.888 70.2824C292.912 69.7393 293.712 68.2693 293.498 67.1098C293.038 64.6201 289.514 67.4581 290.389 69.3577C290.632 69.8847 291.681 69.0575 291.92 68.5287C292.655 66.901 293.011 64.1386 291.425 62.8213C290.604 62.1383 289.612 62.3368 288.763 62.7416C287.565 63.3128 288.006 64.0788 288.635 63.2677C289.068 62.7104 289.595 61.6018 289.401 60.8444C289.086 59.6201 286.999 62.1976 286.595 63.3952C285.266 67.3325 286.585 71.293 286.244 75.3043C286.051 77.5732 285.472 79.9106 285.001 82.1277C284.647 83.7889 284.927 85.8992 283.087 85.109C280.965 84.1974 278.755 84.1506 276.934 85.7945C274.701 87.8093 275.414 92.9992 279.261 92.0599C279.502 92.0012 281.506 91.0218 280.887 90.0831C280.347 89.2627 278.55 90.0091 278.145 90.1787C277.451 90.4698 276.874 91.6633 276.2 91.3266C275.996 91.2243 276.171 90.8698 276.168 90.6411C276.147 89.0063 276.333 88.2258 275.61 86.5757C274.902 84.9572 274.028 84.0223 272.358 83.451C271.449 83.1398 268.566 84.074 269.504 83.8655C270.659 83.609 269.845 80.4443 268.165 82.1596C265.672 84.7045 271.045 86.0583 272.39 86.2568C274.595 86.5821 276.848 86.4795 279.054 86.7989C282.536 87.3031 285.158 88.7703 288.38 89.9236C292.585 91.4288 292.293 82.7327 289.592 82.6857C284.161 82.5913 283.339 97.8198 290.995 96.5557C293.272 96.1798 295.68 93.8845 296.989 92.1556C298.337 90.3752 297.867 88.8656 296.495 91.1831C294.765 94.1067 295.551 99.1271 297.213 101.976C297.819 103.015 302.086 98.7453 302.41 97.9109C302.471 97.7522 302.452 97.4025 302.282 97.4166C302.049 97.4361 301.878 97.7284 301.836 97.9587C301.476 99.9401 303.764 100.564 305.248 99.8718C306.709 99.19 307.65 97.7153 307.671 96.1093C307.678 95.5804 307.5 94.9437 307.065 94.6426C306.764 94.434 306.183 94.637 306.013 94.9615C303.643 99.4718 311.663 104.566 313.458 98.7718C313.854 97.495 313.607 95.68 312.342 94.8977C311.116 94.1396 309.32 96.0926 310.349 97.0659C311.037 97.7161 312.294 96.2136 312.581 95.3122C313.472 92.5206 312.915 88.6401 309.743 87.5323C308.302 87.0289 306.742 87.4983 305.678 88.4888C305.482 88.6709 305.208 89.1188 305.439 89.254C306.295 89.7567 307.267 88.1661 307.639 87.2453C308.181 85.9025 308.43 83.9119 307.256 82.7176C305.836 81.2715 303.468 82.2879 302.521 83.6582C302.456 83.7526 302.509 84.0618 302.601 83.993C302.844 83.8108 303.048 83.5276 303.095 83.2278C303.441 81.0611 301.245 80.1301 299.413 80.6769C298.001 81.0983 296.972 82.1718 296.543 83.5466C295.964 85.402 297.761 84.4672 296.192 84.0408C294.136 83.482 291.882 84.1239 289.911 84.5032C285.855 85.2836 283.564 86.1114 279.405 86.2409C265.835 86.6635 281.294 85.8671 273.538 85.3322C271.475 85.1899 272.693 90.3562 272.852 90.7845C273.586 92.7515 274.799 93.9857 276.902 94.2919C279.383 94.6531 279.308 92.2781 277.492 93.5426C276.006 94.5764 274.642 96.3897 274.941 98.3732C275.598 102.734 281.226 101.416 283.821 100.478C285.368 99.9181 286.55 98.3153 288.189 98.1819C288.639 98.1452 289.039 98.5077 289.417 98.7558C292.184 100.575 291.528 100.977 295.156 102.295C297.408 103.113 299.68 103.58 301.963 102.63C304.216 101.693 302.57 100.329 301.9 101.498C301.256 102.621 302.381 102.583 302.984 102.008C306.076 99.0574 307.307 94.3122 308.42 90.37C308.863 88.8005 308.855 87.0389 309.712 85.651C310.141 84.9551 310.923 86.7241 311.019 86.8627" stroke="#C3F182" stroke-width="4" stroke-linecap="round"/>
</svg>
