<?xml version="1.0" encoding="UTF-8"?>
<svg xmlns="http://www.w3.org/2000/svg" xmlns:xlink="http://www.w3.org/1999/xlink" viewBox="0 0 1334 1000">
  <defs>
    <style>
      .cls-1 {
        fill: #7f7f7e;
      }

      .cls-2, .cls-3, .cls-4, .cls-5, .cls-6, .cls-7, .cls-8 {
        fill: none;
      }

      .cls-3 {
        stroke-width: .58px;
      }

      .cls-3, .cls-4, .cls-5, .cls-9, .cls-6, .cls-10, .cls-7, .cls-11, .cls-12, .cls-8 {
        stroke-miterlimit: 10;
      }

      .cls-3, .cls-4, .cls-5, .cls-6 {
        stroke: #7e7e7e;
      }

      .cls-4 {
        stroke-width: .61px;
      }

      .cls-5 {
        stroke-width: .64px;
      }

      .cls-9 {
        fill: #973664;
      }

      .cls-9, .cls-11 {
        stroke: #881848;
        stroke-width: .25px;
      }

      .cls-13 {
        fill: #010101;
      }

      .cls-6 {
        stroke-width: .73px;
      }

      .cls-14 {
        fill: #fce5ef;
      }

      .cls-15 {
        fill: #b2a06c;
      }

      .cls-16 {
        fill: #d78a28;
      }

      .cls-10 {
        fill: url(#linear-gradient-2);
      }

      .cls-10, .cls-8 {
        stroke: #7f7f7f;
      }

      .cls-17 {
        fill: #995f3e;
      }

      .cls-18 {
        fill: #24343a;
      }

      .cls-19 {
        fill: url(#linear-gradient);
      }

      .cls-7 {
        stroke: #000;
        stroke-linecap: round;
      }

      .cls-20 {
        fill: #f2eef7;
      }

      .cls-21 {
        fill: #914a3b;
      }

      .cls-22 {
        fill: #804840;
      }

      .cls-23 {
        fill: #804841;
      }

      .cls-24 {
        fill: #e2ac91;
      }

      .cls-25 {
        fill: #0d0d0d;
      }

      .cls-26 {
        fill: #4a2b12;
      }

      .cls-27 {
        fill: #050505;
      }

      .cls-28 {
        fill: #575757;
      }

      .cls-29 {
        fill: #fff;
      }

      .cls-30 {
        fill: #3e7d3b;
      }

      .cls-11 {
        fill: #f171ab;
      }

      .cls-12 {
        fill: #a09167;
        stroke: #604934;
      }

      .cls-31 {
        fill: #19194a;
      }

      .cls-32 {
        fill: #d94f3b;
      }

      .cls-33 {
        fill: #fffffb;
      }

      .cls-34 {
        fill: #bf4e9d;
      }

      .cls-35 {
        fill: #bcbcbc;
      }

      .cls-36 {
        fill: #513835;
      }

      .cls-37 {
        fill: #7e7e7e;
      }

      .cls-38 {
        fill: #d5d6c5;
      }

      .cls-39 {
        fill: #e9dbb0;
      }

      .cls-40 {
        fill: #18723a;
      }

      .cls-41 {
        fill: #262828;
      }

      .cls-42 {
        fill: #8e6528;
      }

      .cls-43 {
        fill: #f2ebd1;
      }

      .cls-44 {
        fill: #cf9c7c;
      }

      .cls-45 {
        fill: #f8aca6;
      }

      .cls-46 {
        fill: #926847;
      }

      .cls-47 {
        fill: #d4bdb1;
      }

      .cls-48 {
        fill: #241f20;
      }

      .cls-49 {
        fill: #4b2c1d;
      }

      .cls-50 {
        fill: #556b30;
      }

      .cls-51 {
        fill: #50423a;
      }

      .cls-52 {
        fill: #a73028;
      }

      .cls-53 {
        fill: #471137;
      }

      .cls-54 {
        fill: #4f2e25;
      }

      .cls-55 {
        fill: #a38978;
      }

      .cls-56 {
        fill: #161312;
      }

      .cls-57 {
        fill: #604933;
      }
    </style>
    <linearGradient id="linear-gradient" x1="-4249.68" y1="-12955.98" x2="-3065.63" y2="-12955.98" gradientTransform="translate(-12315.92 4122.54) rotate(90)" gradientUnits="userSpaceOnUse">
      <stop offset=".21" stop-color="#f1ebe1"/>
      <stop offset=".62" stop-color="#e8dcca"/>
      <stop offset=".98" stop-color="#e2d2bb"/>
    </linearGradient>
    <linearGradient id="linear-gradient-2" x1="600.79" y1="-207.79" x2="626.14" y2="1345.61" gradientUnits="userSpaceOnUse">
      <stop offset=".47" stop-color="#cec6be"/>
      <stop offset=".58" stop-color="#cac2bb"/>
      <stop offset=".67" stop-color="#c0b9b2"/>
      <stop offset=".76" stop-color="#afa9a3"/>
      <stop offset=".84" stop-color="#97928e"/>
      <stop offset=".91" stop-color="#787673"/>
      <stop offset=".98" stop-color="#565656"/>
    </linearGradient>
  </defs>
  <g id="Layer_1" data-name="Layer 1">
    <polyline class="cls-19" points="-240.81 1056.91 1520.93 1056.91 1520.93 -127.14 -240.81 -127.14"/>
    <g>
      <path class="cls-30" d="M1429.6,351.78s25.99-25.99,4.14-44.31c-7.09-3.54-9.54,24.81-18.95,22.15-9.41-2.66,8.65-22.74,1.69-29.83-6.96-7.09-17.45-11.22-21.07-6.5-3.62,4.73,1.7,40.17-9.52,41.35-11.22,1.18,1.77-40.67-4.14-43.38-5.91-2.71-24.81-1.52-27.77,3.2-2.95,4.73,20.68,40.76,4.14,39.58-16.54-1.18-12.66-31.9-18.73-32.49-6.08-.59-22.03,3.54-20.85,8.27,1.18,4.73,18.9,24.81,10.63,26.58-8.27,1.77-14.77-18.9-23.04-18.9s-22.45,28.95-32.49,31.31c-10.04,2.36-16.54-2.95-16.54-2.95,0,0,15.36,17.72,23.63,20.09,8.27,2.36,36.04-17.72,41.95-11.82,5.91,5.91-25.99,17.13-23.63,21.27,2.36,4.14,13,11.22,21.86,8.86,8.86-2.36,25.4-36.04,33.08-29.54,7.68,6.5-18.28,28.95-14.45,33.08,3.82,4.14,13.86,12.22,20.36,6.99,6.5-5.22,12.41-41.85,20.68-37.71,8.27,4.14-10.63,36.44-1.18,37.71,9.45,1.28,22.45,1.28,26.58-2.86,4.14-4.14-4.73-31.31,2.36-31.9,7.09-.59,4.47,30.13,8.14,28.95,3.67-1.18,19.03-18.31,13.12-37.22Z"/>
      <path class="cls-30" d="M1385.49,410.1s-4.43-18.17-37.22-12.41c-13.29,2.66-34.56,20.82-34.56,20.82,0,0,23.93-5.32,21.71,6.2-2.22,11.52-30.13,8.86-39.88,14.18-9.75,5.32-10.63,18.61-7.09,18.17s23.93-11.52,25.7-4.87c1.77,6.65-.89,9.75-10.19,14.18-9.3,4.43-23.04,12.41-23.93,14.18-.89,1.77-2.22,19.94-2.22,19.94,0,0,18.17-19.94,23.48-12.41,5.32,7.53-22.15,29.69-23.48,33.67-1.33,3.99,3.99,18.61,4.43,24.37.44,5.76-2.22,13.74-2.22,13.74l28.36-24.37s-4.87-46.08,5.32-44.75c10.19,1.33,8.42,27.47,11.08,27.47s17.72-6.65,17.28-12.41c-.44-5.76-6.65-56.71,10.19-59.82,16.84-3.1,2.66,45.64,7.53,47.41,4.87,1.77,30.13-19.94,31.9-23.04,1.77-3.1-18.17-38.1-8.86-42.98,9.3-4.87,19.94,1.77,27.91,26.58,0,3.1,31.02-27.47,10.19-44.31-15.06-13.09-35.45.44-35.45.44Z"/>
    </g>
    <g id="freepik--Plant--inject-2">
      <path class="cls-40" d="M-79.54,456.93c-.22,5.12,17.12-67.29,107.3-155.82,83.91-82.4,121.43-85.39,121.43-85.39,0,0-86.68,11.46-144.86,73.31-51.36,54.61-81.35,115.81-83.87,167.89Z"/>
      <g>
        <path class="cls-29" d="M-11.83,1011.49c30.04-26.89,35.01-73.27,24.51-112.18-10.5-38.92-33.49-73.06-52.67-108.53l-109.39-.76c-19.64,35.21-43.18,69-54.19,107.77-11.01,38.76-6.7,85.24,22.98,112.54l168.75,1.17Z"/>
        <path class="cls-35" d="M-10.52,1011.37c10.51-9.45,18.22-21.56,23.02-34.82,4.86-13.44,6.84-27.84,6.64-42.09-.22-15.15-3.01-30.06-7.65-44.46-5.36-16.61-12.86-32.43-21.06-47.81-8.3-15.56-17.33-30.7-25.86-46.13-1.04-1.88-2.07-3.77-3.1-5.66-.09-.16-.35-.18-.5-.18-3.64-.03-7.28-.05-10.92-.08-8.69-.06-17.39-.12-26.08-.18-10.56-.07-21.11-.15-31.67-.22l-27.26-.19c-4.42-.03-8.85-.13-13.27-.09-.06,0-.13,0-.19,0-.64,0-2.02.19-2.37.83-11.44,20.5-24.07,40.32-34.93,61.15-10.21,19.58-19.05,40.3-22.77,62.18-3.24,19.07-2.88,39.07,2.64,57.69,2.67,9.03,6.6,17.72,11.89,25.52,2.64,3.89,5.62,7.56,8.9,10.94.76.78,1.54,1.55,2.33,2.3.42.4.67.74,1.24.83.09.01.2,0,.29,0,4.76.12,9.54.07,14.3.1,10.04.07,20.07.14,30.11.21,12.68.09,25.36.18,38.04.26l38.35.27c10.33.07,20.66.14,30.98.21,5.32.04,10.63.07,15.95.11h.71c.64,0,1.53-.14,2.05-.54.38-.3.47-.58-.16-.59-3.68-.03-7.36-.05-11.04-.08-9.26-.06-18.51-.13-27.77-.19-12.4-.09-24.81-.17-37.21-.26-12.91-.09-25.82-.18-38.73-.27-10.91-.08-21.82-.15-32.73-.23-6.38-.04-12.75-.09-19.13-.13-.56,0-1.21.08-1.77-.01-.09-.02-.26.04-.35,0,0,0-.02,0-.02,0,.37.2-.33-.76-.12-.41-.27-.44-.94-.9-1.31-1.26-.43-.42-.86-.85-1.28-1.29-6.63-6.82-11.93-14.85-15.88-23.49-8.01-17.55-10.44-37.33-9.08-56.46,1.52-21.34,8.21-41.74,17.1-61.08,9.77-21.26,22.09-41.2,33.87-61.37,2.84-4.86,5.64-9.73,8.38-14.64l-2.37.83c3.64.03,7.28.05,10.92.08,8.69.06,17.39.12,26.08.18,10.56.07,21.11.15,31.67.22l27.26.19,8.99.06,2.8.02c.45,0,1.03.11,1.47.01.06-.01.13,0,.19,0l-.5-.18c8.32,15.37,17.28,30.39,25.67,45.71,8.34,15.23,16.16,30.82,22.06,47.18,5.22,14.48,8.8,29.47,9.71,44.87.86,14.39-.44,29.02-4.61,42.85s-10.89,26.11-20.74,36.2c-1.22,1.25-2.49,2.46-3.79,3.63-.48.43.43.44.67.43.62-.04,1.47-.25,1.94-.68Z"/>
      </g>
    </g>
    <path class="cls-10" d="M1394.26,843.77v-59.37c-.03-22-10.76-44.69-24.61-57.39-9.48-8.69-21.3-13.8-33.65-15.03-5.92-23.09-6.21-62-1.06-85.03,24.79-13.88,41.75-41.97,41.75-74.39,0-46.19-34.43-83.64-76.9-83.64-.04,0-.09,0-.13,0-.6-.09-1.2-.21-1.81-.27-26.13,0-114.54-1.32-123.34,6.04-2.44-126.1,9.51-222.5-87.75-222.52l-45.17.05-424.14,1.3-424.14-1.3-45.17-.05c-97.26.02-85.31,96.42-87.75,222.52-8.8-7.36-97.21-6.04-123.34-6.04-.61.07-1.21.18-1.81.27-.04,0-.09,0-.13,0-42.47,0-76.9,37.45-76.9,83.64,0,32.42,16.97,60.5,41.75,74.39,5.15,23.02,4.86,65.67-1.06,88.76-12.35,1.23-24.16,6.34-33.65,15.03-13.85,12.7-24.58,29.23-24.61,51.23v61.8c.08,19.95,10.39,37.4,25.23,42.68l-12.79,161.18,759.26.76s0,0,0,.01h5.11s5.11,0,5.11,0c0,0,0,0,0-.01l759.26-.76-12.79-161.18c14.84-5.28,25.15-22.72,25.23-42.68Z"/>
    <path class="cls-1" d="M-125.38,889.13h1432.54c19.35,0,38.72.26,58.07,0,.85-.01,1.69,0,2.54,0,.28,0,1.63-.54.95-.54H431.43c-67.17,0-134.33,0-201.5,0H-63.82c-19.35,0-38.72-.26-58.07,0-.85.01-1.69,0-2.54,0-.28,0-1.63.54-.95.54h0Z"/>
    <path class="cls-1" d="M-94.27,718.87c12.83-.02,25.65-.04,38.48-.06,34.59-.06,69.19-.12,103.78-.17,51.49-.09,102.98-.17,154.47-.26,62.39-.1,124.78-.21,187.17-.31,68.8-.12,137.6-.23,206.4-.35l206.94-.35c64.76-.11,129.51-.22,194.27-.33,54.36-.09,108.71-.18,163.07-.27l118.07-.2c18.51-.03,37.06.3,55.57-.09.81-.02,1.62,0,2.43,0,.49,0,1.56-.74.59-.74-12.83.02-25.65.04-38.48.06-34.59.06-69.19.12-103.78.17-51.49.09-102.98.17-154.47.26-62.39.1-124.78.21-187.17.31-68.8.12-137.6.23-206.4.35l-206.94.35c-64.76.11-129.51.22-194.27.33-54.36.09-108.71.18-163.07.27l-118.07.2c-18.51.03-37.06-.3-55.57.09-.81.02-1.62,0-2.43,0-.49,0-1.56.74-.59.74h0Z"/>
    <path class="cls-1" d="M66.23,478.89c4.71,7.14,8.45,14.92,11.86,22.74,3.61,8.28,6.83,16.75,9.59,25.36,3.11,9.71,4.87,19.58,5.67,29.75.64,8.17.86,16.37,1.1,24.56.39,13.75.65,27.5.89,41.26.28,15.9.52,31.81.76,47.72.2,13.29.39,26.57.64,39.86.02,1.21.05,2.43.07,3.64,0,.3,1.46.06,1.45-.39-.25-12.62-.43-25.24-.62-37.86-.24-15.9-.48-31.79-.75-47.69-.24-14.27-.5-28.53-.87-42.79-.46-17.55-.34-35.64-5.12-52.66-2.36-8.41-5.38-16.66-8.66-24.75-3.37-8.31-7.08-16.54-11.57-24.31-.95-1.64-1.93-3.25-2.97-4.82-.25-.38-1.6.16-1.45.39h0Z"/>
    <path class="cls-1" d="M1268.05,469.44c-13.42-.44-25.13,9.52-33.16,19.28-3.81,4.64-7.2,9.72-9.76,15.17-2.15,4.59-3.82,9.4-5.31,14.24-4.32,14.05-7.04,28.63-8.66,43.23-1.23,11.06-1.53,22.09-1.54,33.21,0,4.2,0,8.4-.01,12.6,0,7.44-.01,14.87-.02,22.31,0,9.05-.02,18.1-.03,27.15,0,8.9-.02,17.8-.03,26.69,0,7.13-.01,14.27-.02,21.4,0,3.62-.14,7.27-.01,10.89,0,.16,0,.32,0,.48,0,.38,1.45.13,1.45-.39,0-2.46,0-4.92,0-7.38,0-6.26.01-12.52.02-18.78,0-8.45.02-16.9.03-25.35,0-9.07.02-18.14.03-27.21,0-7.99.02-15.99.02-23.98,0-5.36.01-10.73.02-16.09,0-6.38-.07-12.75.22-19.12.73-15.86,2.89-31.69,6.54-47.15,2.48-10.48,5.4-21.38,10.74-30.83,3.34-5.92,7.51-11.43,12.29-16.26,4.87-4.92,10.58-9.36,17.14-11.78,3.03-1.12,6.23-1.69,9.46-1.59.5.02,1.55-.72.58-.75h0Z"/>
    <path class="cls-1" d="M1172.11,478.41c-5.21,7.65-9.28,16.09-12.98,24.55-3.7,8.46-7.01,17.12-9.72,25.95-5.33,17.29-5.22,35.76-5.68,53.7-.37,14.4-.61,28.79-.84,43.19-.26,16.36-.49,32.72-.72,49.08-.19,13.05-.36,26.1-.61,39.15-.02,1.12-.04,2.25-.07,3.37-.01.72,1.45.49,1.46-.13.25-12.3.42-24.6.59-36.9.23-16.18.46-32.36.71-48.55.23-14.88.47-29.76.82-44.63.13-5.39.26-10.79.45-16.18.4-11.24.83-22.56,3.11-33.6,1.97-9.52,5.46-18.77,9.1-27.76,3.61-8.91,7.61-17.72,12.51-26,1.03-1.74,2.1-3.44,3.23-5.11.43-.63-1.04-.63-1.38-.14h0Z"/>
    <path class="cls-1" d="M-20.84,472.82c14.22-.49,26.95,9.94,35.08,20.68,6.63,8.75,10.17,19.08,13.06,29.55,3.87,14.04,6.36,28.47,7.81,42.95,1.07,10.71,1.32,21.39,1.32,32.14,0,4.13,0,8.25,0,12.38,0,7.24,0,14.49,0,21.73,0,8.74,0,17.48,0,26.22,0,8.61,0,17.22,0,25.83,0,6.83,0,13.67,0,20.5,0,3.5,0,7.01,0,10.51,0,.16,0,.32,0,.48,0,.61,1.45.31,1.45-.18,0-2.47,0-4.93,0-7.4,0-6.29,0-12.58,0-18.87,0-8.44,0-16.88,0-25.33,0-8.93,0-17.85,0-26.78,0-7.71,0-15.42,0-23.14,0-4.91,0-9.81,0-14.72,0-7.95,0-15.89-.51-23.83-.99-15.41-3.21-30.79-6.81-45.82-2.44-10.17-5.26-20.79-10.46-29.96-6.68-11.76-17.78-22.78-31.05-26.61-3.03-.88-6.18-1.3-9.34-1.19-.55.02-1.53.87-.56.84h0Z"/>
    <g>
      <rect class="cls-29" x="791.01" y="-33.18" width="212.21" height="196.53"/>
      <path class="cls-26" d="M790.45-32.36h209.02c.93,0,1.91.1,2.83,0,.12-.01.24,0,.36,0l-.89-.64v5.24c0,4.78,0,9.55,0,14.33,0,7.04,0,14.07,0,21.11,0,8.62,0,17.25,0,25.87v121.97c0,2.52-.25,5.18,0,7.69.01.11,0,.22,0,.33l2.01-1h-209.02c-.93,0-1.91-.1-2.83,0-.12.01-.24,0-.36,0l.89.64V-9.2c0-5.38,0-10.77,0-16.15,0-2.56,0-5.12,0-7.69,0-.11,0-.22,0-.33,0-1.2-2.9-.59-2.9.36V7.68c0,8.62,0,17.25,0,25.87v121.97c0,2.56,0,5.12,0,7.69,0,.11,0,.22,0,.33,0,.49.45.64.89.64h203.55c2.77,0,5.53.03,8.3,0,.12,0,.24,0,.36,0,.45,0,2.01-.28,2.01-1,0-1.75,0-3.49,0-5.24,0-4.78,0-9.55,0-14.33,0-7.04,0-14.07,0-21.11,0-8.62,0-17.25,0-25.87,0-9.41,0-18.81,0-28.22V-9.2c0-5.38,0-10.77,0-16.15,0-2.56,0-5.12,0-7.69,0-.11,0-.22,0-.33,0-.49-.45-.64-.89-.64h-203.55c-2.77,0-5.53-.03-8.3,0-.12,0-.24,0-.36,0-.58,0-1.62.19-1.91.79-.28.58.24.85.79.85Z"/>
    </g>
    <rect class="cls-43" x="842.21" y="4.88" width="110.63" height="124.76"/>
    <path class="cls-39" d="M841.81,45.05c5.67.27,11.26,1.42,16.28,3.44,13.58,5.45,22.52,16.55,36.9,20.65,10.96,3.12,23.48,1.56,34.06-2.25,8.57-3.08,16.11-7.52,23.38-12.17V1.16h-110.63v43.89Z"/>
    <g>
      <rect class="cls-29" x="1058.72" y="-33.18" width="212.21" height="196.53"/>
      <path class="cls-26" d="M1058.16-32.36h209.02c.93,0,1.91.1,2.83,0,.12-.01.24,0,.36,0l-.89-.64V-13.43c0,7.04,0,14.07,0,21.11,0,8.62,0,17.25,0,25.87,0,9.41,0,18.81,0,28.22v55.16c0,7.48,0,14.96,0,22.44v16.15c0,2.52-.25,5.18,0,7.69.01.11,0,.22,0,.33l2.01-1h-209.02c-.93,0-1.91-.1-2.83,0-.12.01-.24,0-.36,0l.89.64v-19.57c0-7.04,0-14.07,0-21.11V13.25c0-7.48,0-14.96,0-22.44v-16.15c0-2.56,0-5.12,0-7.69,0-.11,0-.22,0-.33,0-1.2-2.9-.59-2.9.36V116.93c0,7.48,0,14.96,0,22.44,0,5.38,0,10.77,0,16.15,0,2.56,0,5.12,0,7.69,0,.11,0,.22,0,.33,0,.49.45.64.89.64h203.55c2.77,0,5.53.03,8.3,0,.12,0,.24,0,.36,0,.45,0,2.01-.28,2.01-1v-19.57c0-7.04,0-14.07,0-21.11,0-8.62,0-17.25,0-25.87V-25.35c0-2.56,0-5.12,0-7.69,0-.11,0-.22,0-.33,0-.49-.45-.64-.89-.64h-203.55c-2.77,0-5.53-.03-8.3,0-.12,0-.24,0-.36,0-.58,0-1.62.19-1.91.79s.24.85.79.85Z"/>
    </g>
    <rect class="cls-39" x="1109.92" y="4.88" width="110.63" height="124.76"/>
    <path class="cls-43" d="M1109.73,66.46s0,.05,0,.08c0,0,7.56,5.21,15.2,4.11,10.26-1.48,12.83-4.65,15.23-5.98,9.89-5.49,20.29-9.9,32.82-7.66,6.29,1.12,16.58,7.79,22.46,8.88,6.81,1.27,10.83,1.09,17.21-.79,1.86-.55,6.29-3.2,7.67-4.31l-.19-59.62c-.14,0-110.63,0-110.63,0l.22,65.3Z"/>
    <path class="cls-38" d="M301.04,469.16c-4.74-11.56-34.98-12.76-34.98-12.76-32.88-1.67-70.07-4.21-102.91-1.83-42.73,3.1-84.85-.6-105.15,25.33-17.06,21.79-3.95,53.32-2.01,84.39,1.87,30,5.7,59.88,11.94,89.28,3.65,17.2.79,41.52,14.19,52.91,10.52,8.93,32.3,8.75,46.1,8.51,82.48-1.42,99.72-1.42,176.09-4.12,8.76-.31,15.01-8.93,16.17-17.61,10.07-75.74,10.53-151-19.44-224.1Z"/>
    <path class="cls-15" d="M300.16,470.06c-1.74-4.11-5.96-6.49-9.9-8.12-4.78-1.97-9.91-3.07-15-3.86-3.33-.52-6.69-.89-10.05-1.08-7.15-.39-14.3-.75-21.45-1.13-18.93-.98-37.87-1.84-56.83-1.68-9.13.08-18.23.48-27.34,1.1-8.61.58-17.24.92-25.86,1.31-15.54.7-31.4,1.36-46.52,5.33-12.84,3.37-25.3,9.75-32.94,20.98-8.89,13.08-7.87,29.61-5.81,44.56,1.19,8.61,2.8,17.16,3.96,25.78,1.26,9.41,1.63,18.9,2.45,28.36,1.72,19.96,4.35,39.84,8.02,59.54,1.52,8.17,3.45,16.24,4.3,24.52.74,7.16,1.14,14.38,2.47,21.47,1.2,6.37,3.2,12.9,7.43,17.96,4.17,4.98,10.17,7.61,16.35,9.14,14.68,3.64,30.35,2.43,45.32,2.17,15.82-.27,31.65-.52,47.47-.79,12.44-.21,24.89-.44,37.33-.73,12.77-.29,25.54-.64,38.31-1.03,7.69-.24,15.38-.49,23.07-.75,4.38-.15,8.76-.3,13.14-.45,3.83-.13,7.55-.06,11.02-1.93,6.2-3.33,9.68-10.15,10.59-16.92,1.27-9.48,2.36-18.98,3.28-28.5,1.82-18.87,2.88-37.82,2.83-56.78-.05-18.72-1.19-37.46-3.73-56.01-2.59-18.89-6.64-37.58-12.3-55.78-2.81-9.03-6.01-17.92-9.59-26.67-.26-.64-1.7-.22-1.45.39,7.18,17.56,12.82,35.72,16.89,54.24,3.97,18.06,6.46,36.43,7.72,54.87,1.26,18.54,1.27,37.15.37,55.71-.9,18.63-2.71,37.2-5.1,55.7-.52,3.99-1.09,7.79-3.02,11.39-1.72,3.23-4.28,6.14-7.6,7.78-3.71,1.83-8.11,1.42-12.13,1.56-4.24.15-8.48.29-12.72.44-13.92.47-27.85.91-41.78,1.28-11.86.32-23.73.58-35.59.81-13.35.26-26.7.48-40.04.7-8.3.14-16.6.27-24.9.41s-16.01.4-24.01.3c-7.3-.1-14.7-.52-21.82-2.19-6.3-1.47-12.47-4.01-16.68-9.11-4.22-5.12-6.14-11.7-7.3-18.13-1.25-6.92-1.66-13.95-2.37-20.93-.83-8.11-2.71-16-4.21-24.01-1.8-9.59-3.35-19.23-4.66-28.89-1.33-9.75-2.42-19.54-3.29-29.35-.83-9.29-1.16-18.63-2.31-27.88-1.07-8.59-2.65-17.1-3.91-25.66-1.18-8.02-2.12-16.17-1.61-24.28.46-7.4,2.29-14.71,6.28-21.02,3.57-5.65,8.65-10.33,14.32-13.82,12.15-7.49,26.86-9.86,40.83-11.21,16.42-1.59,32.94-1.7,49.39-2.81,18.42-1.25,36.82-1.3,55.26-.69,16.62.55,33.22,1.5,49.83,2.39,8.11.43,16.54,1.62,24.14,4.58,3.88,1.51,8.32,3.79,10.03,7.84.27.63,1.71.22,1.45-.39Z"/>
    <path class="cls-15" d="M109.51,708.52c-.56-33.19-1.13-66.38-1.69-99.58-.27-16.17-.28-32.41-1.94-48.51-1.46-14.09-4.33-28.07-9.02-41.45-5.16-14.72-12.58-28.67-22.56-40.7-.38-.46-1.77.09-1.33.61,17.95,21.63,27.3,49.08,30.86,76.68,2.07,16.08,2.18,32.34,2.45,48.52.28,16.43.56,32.86.84,49.29.31,18.42.62,36.84.94,55.26.01.7,1.47.45,1.46-.14h0Z"/>
    <path class="cls-12" d="M885.18,576.22c2.67-6.52,19.73-7.2,19.73-7.2,18.55-.94,193.3-2.37,211.82-1.03,24.1,1.75,47.86-.34,59.3,14.29,9.62,12.29,2.23,30.07,1.13,47.6-1.05,16.92-3.21,33.77-6.74,50.36-2.06,9.7-.44,23.42-8.01,29.84-5.93,5.04-18.22,4.94-26,4.8-46.52-.8-210.02-.8-253.1-2.32-4.94-.17-8.47-5.03-9.12-9.93-5.68-42.72-5.94-85.17,10.97-126.4Z"/>
    <path class="cls-57" d="M1164.39,573.48c-2.14,3.31-3.93,6.87-5.64,10.41-4.32,8.95-7.77,18.33-10.39,27.91-7.23,26.48-7.12,54.54-4.29,81.67.7,6.73,1.52,13.5,2.79,20.15.08.43,1.54.08,1.45-.39-1.02-5.35-1.72-10.77-2.35-16.17-1.48-12.74-2.26-25.58-2.14-38.4.13-14.29,1.43-28.56,4.81-42.47,2.48-10.24,5.93-20.25,10.32-29.83,2.01-4.4,4.16-8.83,6.79-12.9.33-.51-1.1-.34-1.34.02h0Z"/>
  </g>
  <g id="Layer_3" data-name="Layer 3">
    <path class="cls-37" d="M754.98,541.09h0c.26,3.94-3.54,7.28-7.28,7.28-4.12,0-7.02-3.36-7.28-7.28-.56-8.54-.53-65.96.15-74.48.37-4.58.92-9.15,1.62-13.69.52-3.39,1.36-6.83,3.16-9.8,4.53-7.48,12.74-8.78,20.79-8.27,8.62.55,17.21,1.61,25.73,3.04,3.9.65,6.04,5.46,5.08,8.95-1.12,4.06-5.08,5.73-8.95,5.08-6.77-1.14-13.51-1.93-20.42-2.42-1.55-.11-3.11-.23-4.67-.25-.77-.01-1.53.01-2.29.04-1.25.05.02-.08-.67.1-.36.07-.72.16-1.07.28.48-.26.5-.28.05-.04-.31.16-1.38.9-.61.35-.53.58-.65.7-.36.35.28-.36.21-.21-.23.45-.55,1.1-.05-.12-.29.59-2.04,5.99-2.22,12.92-2.58,19.19"/>
    <path class="cls-55" d="M775.83,488.06l-159.38-9.9-8.25-73.32-58.88,70.13s-5.43,37.32,28.06,56.28c24.64,13.95,177.94,8.68,199.47,8.29-8.2-23.13-6.2-34.48-1.01-51.47Z"/>
    <g>
      <path class="cls-37" d="M959.92,540.92h0c.26,3.94-3.54,7.28-7.28,7.28-4.12,0-7.02-3.36-7.28-7.28-.56-8.54-.53-65.96.15-74.48.37-4.58.92-9.15,1.62-13.69.52-3.39,1.36-6.83,3.16-9.8,4.53-7.48,12.74-8.78,20.79-8.27,8.62.55,17.21,1.61,25.73,3.04,3.9.65,6.04,5.46,5.08,8.95-1.12,4.06-5.08,5.73-8.95,5.08-6.77-1.14-13.51-1.93-20.42-2.42-1.55-.11-3.11-.23-4.67-.25-.77-.01-1.53.01-2.29.04-1.25.05.02-.08-.67.1-.36.07-.72.16-1.07.28.48-.26.5-.28.05-.04-.31.16-1.38.9-.61.35-.53.58-.65.7-.36.35.28-.36.21-.21-.23.45-.55,1.1-.05-.12-.29.59-2.04,5.99-2.22,12.92-2.58,19.19-.42,7.23-.35,63.33.12,70.55h0Z"/>
      <path class="cls-41" d="M703.44,721.89l28.23-219.56s228.59-3.48,228.57,9.57c-.01,9.85-4.14,199.79,0,209.99h-256.81Z"/>
    </g>
    <path class="cls-55" d="M633.34,528.37c11.95-8.01-28.37-24.33-14.39-28.96-5.49-37.36,23.48-141.53,12.23-166.61-12.48-27.83-47.41-45.97-51.62-46.99,0,0-40.38,87.82-38.12,147.98,1.29,34.34,14.65,59.44,30.31,89.74,4.75,9.2,12.88,10.95,23.31,9.75,14.06-1.61,33.68-1.83,38.28-4.91Z"/>
    <path class="cls-55" d="M298,523.37s-43.16,66.81-32.11,144.23c1.78,12.47,15.62,40.42,32.1,47.78l140.09,5.85s22.11-108.71,61.57-131.29c46.45-26.58,65.29-16.1,65.29-16.1,0,0-17.13-38.17-38.83-42.11-21.7-3.94-228.1-8.36-228.1-8.36Z"/>
    <path class="cls-55" d="M551.89,506.51c4.17-6.32,1.43-9.74,6.3-15.53,0,0,6.48-4.41,8.55-4.69,10.14-7.29,24.2-17.17,27.89-25.43,7.68-17.21,10.76-36.07,18.69-53.19,4.04-8.71,9.61-16.39,16.55-23.02,2.98-2.85-15.69,10.45-12.42,7.95.01-.03,9.26-18.29,9.28-18.32,1.88-3.13,2.47-6.84,2.53-10.44.12-6.66,2.25-16.19.41-22.55-1.5-5.2,1.39-9.97-.91-14.86l-12.61-20.02-19.15-4.64-34.21-44.1-63.46-40.04s-52.57,8.4-64.33,10.38c-14.38,2.39-56.28,96.18-56.28,96.18l-19.7,108.21c-.33.36-30.53,44.79-30.88,45.15-1.1,1.11-35.04,52.31-34.3,53.57,2.29,3.92,8.96,14.62,12.08,17.91,6.35,6.7,12.65-20.96,20.13-15.64,10.18,7.23,20.61,14.16,31.47,20.33,10.13,5.76,21.91,9.32,31.64,15.57l122.87,18.95s10.12-23.38,10.12-23.38c1.72-6.66,15.66-20.78,17.66-27.4,2.08-6.89-.08-2.3,2.89-8.85,1.45-3.2-4.57,11.94-2.89,8.85.21-.38,11.84-30.57,12.08-30.93Z"/>
    <line class="cls-42" x1="543.33" y1="425.2" x2="542.7" y2="426.41"/>
    <path class="cls-55" d="M385.61,461.43c-8.27,1.27-16.46,3.03-24.66,4.67-.79-5.47-3.57-21.76-3.85-26.87-1.2-21.77,3.33-125.97,13.15-159.73,11.88-45.34,62.4-50.58,62.4-50.58l10.24,123.18-1.23,100.06c-13.9,3.97-41.75,7.07-56.04,9.27Z"/>
    <path class="cls-24" d="M552.39,996.84c1.42,6.05-1.36,19.28-3.29,25.86-2.22,7.58.98,13.58,9.51,17.29,7.18,3.12,10.94,3.16,18.9,3.19,10.4.03,21.56-1.21,31.96-1.18,8.91.03,36.98-.76,45.63,1.21,13.46,3.07,21.93,1.6,28.05-.15,1.69-.48,2.73-.34,3.57-1.53,2.17-3.08,2.09-6.6-2.24-9.53-5.46-3.69-12.45.62-17.5-3.65-.9-.76-1.73-1.6-2.78-2.17-2.06-1.11-4.62-1.02-7.02-1.12-11.97-.52-10.82-5.48-26.3-10.22-4.54-1.39-33.45-18.03-37.62-20.17"/>
    <path class="cls-24" d="M473.43,982.78c-.02,7.26-5.59,14.57-12.08,28.46-3.28,7.02-7.03,19.21-.23,24.52,8.09,6.31,28.06,5.79,33.61,7.6,11.7,3.82,21.72,5.06,32.86,9.76,11.3,4.76,13.67,4.22,12.59,3.97-1.73-.39,13.13,2.74,14.75,3.32,1.5.54,7.05.67,8.13.24,3.8-1.54,4.89,1.1,9.09.93,1.85-.08,3.59-.75,5.34-1.25,4.65-1.31,9.62-1.44,14.46-2.03,4.85-.58,9.83-1.72,13.41-4.64,3.59-2.91,5.29-8.02,2.76-11.79-3.84-5.71-9.68-3.06-15.48-4.06-5.78-1.01-7.9-2.11-12.84-4.87-12.63-7.06-14.55-8.44-25.23-14.04-8.29-4.34-31.41-15.14-42.83-24.38l3.09-11.43"/>
    <path class="cls-25" d="M533.45,761.27c-1.32,8.22-3.02,22.78-3.11,31.17-.23,22.69,1.04,55.95,2.37,67.45,2.26,19.46,7.11,71.1,8.07,77.93l-.93,56.32c2.84.32,23.3,3.62,35.42,3.47s27.07-2.74,30.86-8.21c.38-36.79,8.56-170.35,11.86-240.48,2.63-55.99,1-100.31,1-100.31l-93.29-23.25,10.28,120.18-2.52,15.74Z"/>
    <path class="cls-25" d="M488.05,754.49c-2.52,7.94-6.36,22.08-7.68,30.37-3.58,22.4-7.24,55.49-7.62,67.06-.64,19.58-3.48,71.37-3.54,78.26l-4.89,52.33c2.71,3.04,16.54,9.82,27.86,11.37,13.05,1.79,48.81,3.16,51.57.02,5.81-36.33,16.11-170.26,29.74-239.14,10.88-54.98,15.82-99.06,15.82-99.06l-98.22-56.16,1.79,139.76-4.82,15.19Z"/>
    <path class="cls-55" d="M355.32,709.55l73.56,12.37-6.9,72.03s63.21,24.16,116.66,19.38c53.44-4.78,103.75,9.24,103.75,9.24,0,0,35.99-138.78,31.39-168.94-4.6-30.16-12.51-45.98-75.76-83.46-53.63-31.77-70.35-51.22-70.35-51.22l-172.34,190.59Z"/>
    <path class="cls-21" d="M579.92,275.07s-8.41-7.02-13.25-10.71c-4.84-3.69-14.24-7.21-30.97-38.1,0,0-2.81,28.31,26.9,46.89,0,0,8.74,5.93,14.65,6.93l2.67-5.01Z"/>
    <path class="cls-29" d="M695.19,157.75c-2.49,16.47-10.4,32.66-20.91,52.31-15.83,30.53-37.6,57.58-64.03,79.58l-37.86,4.01-.86-17.23c32.53-13.26,54.77-15.46,72.61-45.74,4.11-6.97,28.65-39.24,29.01-40.28,7.02-20.52,6.27-14.58-.3-30.56-5.39-12.99-36.94-23.98-47.45-26.64-9.26-2.36-19.19-9.89-39.9,2.69-13.76,8.46-14.09.89-29.1,20.58l34.44-84.39,56.9,16.2,30.73,25.77c12.85,10.63,19.2,27.22,16.73,43.72Z"/>
    <path class="cls-24" d="M662.46,214.29c2.61-4.34,9.96-15.35,15.62-25.58h0c5.43-9.91,2.78-22.28-2.07-32.63l-1.01-1.77c-.05-.1-1.85-2.2-1.92-2.28-14.42-14.77-26.75-22.73-47.79-24.5-10.27-.87-22.41-3.04-31.95.63-9.92,3.82-24.64,17.31-35.31,19.38,3.41-8.44,20.29-19.01,24.12-26.25-.63,1.19-1,1.93-1,1.93-13.15,2.81-24.68,16.41-27.14,21.89-2.45,5.49-9.87,16.22-9.87,16.22-.48-2.73-1.59-8.63-1.32-11.34.12-2.43,0-4.77.11-7.2-.37-5.87-5.03-7.42-9.76-6.3l-1.02.64c-11.83,3.88-10.69,29.94-10.31,37.54-1.8,2.56-3.03,20.35,11.46,15.56l-2.16,9.71,4.63,26.7c5.51,18.27,18.62,36.58,37.28,45.78,12.67,6.25,13.89,6.19,20.7,4.09,10.35-3.18,21.16-6.3,30.32-11.58,8.79-5.06,13.35-8.66,19.99-16.36,6.87-7.96,8.07-10.37,11.7-19.96,1.62-4.28,4.44-10.59,6.71-14.34Z"/>
    <path class="cls-16" d="M527.09,184.85c-3.43-1.3-7.54.09-8.98,3.61-.63,1.54-.7,3.6.09,5.11.43.81,1.13,1.55,1.83,2.12,1.5,1.22,3.35,1.7,5.26,1.46.15-.02.32-.18.06-.15-2.71.33-5.27-1.07-6.69-3.35-.64-1.03-.77-2.5-.62-3.67.22-1.68,1.13-3.22,2.49-4.24,1.83-1.37,4.16-1.52,6.25-.72.09.03.41-.1.3-.15h0Z"/>
    <path class="cls-13" d="M585.22,121.53l-9.21,7.93c-10.67,9.19-19.98,19.92-27.63,31.82l-2.18,3.39c-.63.98-2.09.64-2.2-.51l-1.28-14.22s18.34-39.41,42.5-28.42Z"/>
    <path class="cls-48" d="M535.69,156.88c-2.55-.13-4.56,1.82-5.99,3.72-1.73,2.3-2.79,4.64-3.01,7.56-.13,1.74.09,7.52,3.18,6.63,1.95-.57,2.48-2.59,2.7-4.39.16-1.28.13-2.62.47-3.87.12-.44.3-.98.69-1.26.82-.6,2.09.07,2.85.45.07.03.35-.01.35-.11.31-4.75.43-9.66-.2-14.38-.3-2.26-.86-5.38-3.46-6.1-2.84-.78-5.18,2.32-6.34,4.44-1.78,3.25-2.55,7.32-2.17,11.01,0,.06.37,0,.36-.1-.27-2.64.09-5.47.89-7.99.97-3.06,5-10.29,8.72-6.02,1.43,1.64,1.61,4.18,1.8,6.26.25,2.72.27,5.46.22,8.19-.03,1.6-.08,3.19-.18,4.79l.35-.11c-1.1-.55-2.78-1.22-3.75-.06-1.06,1.26-.79,3.63-.99,5.16-.13.99-.33,2.05-.91,2.89-.41.59-1.2,1.27-1.98,1.15-.69-.11-1.17-.85-1.46-1.42-1.42-2.83-1.07-7.1.37-9.83s3.87-6.62,7.25-6.45c.08,0,.41-.14.24-.14h0Z"/>
    <path class="cls-13" d="M625.92,169.86c.11-.15-.09-1.4.02-1.55-10.04-9.03-21.05-15.24-24.49-16.7-2.61-1.11-5.38-1.79-8.19-2.12,0,0-9.74.71-11.13,1.33-1.39.63,4.03,1.72,4.03,1.72,1.09.35,1.91.47,2.96.94,5.77,2.58,10.6,3.77,15.65,7.62,4.34,3.27,13.68,10.53,17.28,14.61,1.21-1.68,2.51-4.31,3.87-5.86Z"/>
    <path class="cls-13" d="M674.98,193.96c-.32-.22-4.83-3.79-5.18-4.01-3.1-1.97-7.73-3.8-20.37-6.99-.9,2.1-2.97,4.31-3.89,6.4,5.43.69,10.61,1.93,15.81,3.68,3.46,1.17,7.18,3.74,11.07,5.55l2.55-4.63Z"/>
    <path class="cls-52" d="M605.18,235.69c-7.81-4.32-20.51-13.01-20.51-13.01,0,0-7.53,20.77,10.58,30.78,18.11,10.02,26.49-8.71,26.49-8.71,0,0-8.75-4.74-16.56-9.06Z"/>
    <path class="cls-56" d="M605.26,235.73c-3.71-2.05-17.59-9.84-17.59-9.84,0,0-2.16,12.93,11.27,20.36,14.56,8.06,20.06-2.39,20.06-2.39l-13.75-8.14Z"/>
    <path class="cls-20" d="M605.11,236.38c-3.71-2.05-14.66-8.94-14.66-8.94,0,0,1.78,6.39,12.92,12.55,11.14,6.16,16.9,4.1,16.9,4.1l-15.16-7.71Z"/>
    <path class="cls-52" d="M624.05,244.87c-.33-.31-1.36-.51-2.9-1.74-2.78-2.22-3.55-4.13-5.62-5.5-3.53-2.34-6.72-2.11-8.32-3-1.61-.89-3.11-3.71-6.97-5.46-2.26-1.02-6-2.12-9.14-3.5-1.88-.83-5.86-3.96-6.29-4.07-.61-.16-1.63,4.71,18.55,15.87,20.18,11.17,21.14,7.84,20.69,7.41Z"/>
    <path class="cls-29" d="M621.41,313.99s-.45-2.91-12.06-34.22l5.05-7.41s-16.53,17.96-44.18-3.1c-22.85-17.45-28.35-43.54-25.7-66.34,4.57-39.31,39.76-86.73,68.4-103.38,26.83-15.61,71.53,65.24,82.16,48.04,0,0-.3-60.06-52.96-84.65-30.56-14.32-55.93-14.47-96.04,19.04-12.82,11.26-15.63,19.37-26.93,32.34-10.05,12.05-23.94,36.4-31.17,55.08-3.17,7.96-6.12,24.68-5.65,32.97l-16.41,4.78s-18.56,6.54-28.99,18.25l-1.91,2.61s31.08,48.64,85.4,67.86c50.48,15.88,70.94-5.24,101,18.13"/>
    <path class="cls-46" d="M537.54,259.06c-1.29-3.24-2.92-6.31-4.31-9.51-1.32-3.05-2.53-6.14-3.62-9.28-2-5.74-3.67-11.6-4.91-17.55-2.34-11.17-3.21-22.63-2.64-34.02,1.14-23.1,8.17-45.78,20.1-65.58,3.56-5.91,7.57-11.53,11.91-16.89,2.36-2.91,4.82-5.73,7.38-8.45,2.54-2.7,5.3-5.19,7.75-7.98.62-.7-.68-.8-1.09-.55-.59.37-1.11.8-1.6,1.29-.64.64.75.89,1.21.43.42-.41.86-.75,1.35-1.06l-1.09-.55c-2.25,2.56-4.76,4.84-7.11,7.3s-4.64,5.04-6.84,7.68c-3.91,4.7-7.55,9.63-10.88,14.76-6.38,9.86-11.53,20.51-15.3,31.64-7.35,21.73-9.4,45.2-5.48,67.83,1.14,6.57,2.8,13.03,4.87,19.37,1.18,3.61,2.5,7.18,3.98,10.68,1.54,3.65,3.4,7.14,4.86,10.82.26.65,1.7.24,1.45-.39h0Z"/>
    <path class="cls-46" d="M571.37,140.85c3.5-5.21,7.59-10.1,11.85-14.69,7.67-8.26,16.89-16.62,27.85-20.07,6.12-1.92,12.92-1.77,19.26-1.35,6.76.45,13.51,1.75,19.84,4.23,13.18,5.17,23.14,15.45,28.45,28.52,3.95,9.72,5.73,20.85,4.73,31.33-.02.18-.03.36-.06.55-.07.56,1.39.29,1.45-.19.34-2.73.33-5.53.23-8.27-.22-6.57-1.29-13.15-3.31-19.41-4.42-13.74-13.61-25.37-26.73-31.65-6.12-2.93-12.77-4.66-19.48-5.49-3.5-.43-7.03-.63-10.55-.62-3.29,0-6.67.05-9.91.63-11.53,2.06-21.44,10-29.53,18.04-5.54,5.51-10.86,11.56-15.21,18.08-.07.11-.15.22-.23.33-.36.54,1.09.41,1.35.02h0Z"/>
    <path class="cls-46" d="M487.23,211.88c.78,3.72,2.02,7.38,3.34,10.94,3.09,8.37,7.16,16.42,12.27,23.74,6.49,9.32,14.75,17.39,24.63,23.06,6.49,3.72,13.45,6.55,20.66,8.53,6.16,1.69,12.47,2.75,18.79,3.66,10.72,1.55,22.45,2.53,31.42,9.24,1.11.83,2.16,1.74,3.15,2.72.42.41,1.8-.16,1.33-.61-7.76-7.6-18.33-9.8-28.71-11.34-6.17-.92-12.35-1.69-18.46-2.96-7.04-1.47-13.94-3.58-20.48-6.6-11.3-5.23-20.91-13-28.5-22.86-5.71-7.42-10.24-15.73-13.69-24.42-1.16-2.92-2.21-5.9-3.1-8.91-.41-1.39-.6-3.03-1.16-4.36-.03-.06-.03-.14-.04-.2-.13-.6-1.58-.23-1.45.39h0Z"/>
    <path class="cls-46" d="M622.14,313.79c-.87-6.14-2.98-12.24-5.18-18-.54-1.41-1.1-2.81-1.68-4.2-.31-.74-.63-1.49-.96-2.23-.17-.38-.34-.76-.51-1.14-.27-.6-.53-.86-.12-1.38.74-.94,1.94-1.73,2.83-2.54.96-.88,1.92-1.77,2.87-2.67,4.04-3.81,7.97-7.75,11.8-11.78,8.19-8.62,15.94-17.67,23.13-27.14,6.52-8.59,12.62-17.55,17.67-27.09,5.89-11.12,11.15-22.56,15.51-34.37,1.99-5.4,3.8-10.87,5.3-16.42,1.46-5.39,2.73-10.87,2.99-16.46.32-7.1-.65-14.22-2.2-21.14-3.02-13.44-8.66-26.36-16.94-37.4-5.3-7.07-11.68-13.3-18.86-18.45-7.65-5.49-16.17-9.55-24.87-13.07-7.1-2.88-14.49-5.23-22.14-6.01s-15.27.11-22.55,2.43c-9.35,2.98-17.94,7.99-25.91,13.65-8.37,5.93-16.25,12.51-23.2,20.07-6.78,7.38-12.97,15.3-18.84,23.42-6.03,8.33-11.73,16.92-16.98,25.76-4.71,7.94-8.63,16.16-12.58,24.49-3.8,8.01-7.53,15.99-8.68,24.88-.66,5.16-.65,10.39-.42,15.59l.84-.54c-4.4.84-8.74,2.1-12.98,3.5-8.46,2.79-16.8,6.41-24.1,11.57-4.24,3-8.12,6.58-11,10.92-.33.5,1.1.33,1.33-.02,5.07-7.64,13.1-12.86,21.23-16.77,6.73-3.24,13.87-5.69,21.11-7.53,1.38-.35,3.02-.74,4.19-.97.25-.05.85-.19.84-.54-.4-9.11.07-18.14,3.17-26.79,1.4-3.91,3.17-7.69,4.95-11.44,1.98-4.2,3.89-8.44,5.93-12.6,3.74-7.62,8.09-14.93,12.65-22.08,5.22-8.2,10.78-16.19,16.67-23.93,5.35-7.02,10.96-13.88,17.12-20.2,7.01-7.18,15.07-13.47,23.41-19.02,7.45-4.96,15.51-9.27,24.2-11.59,6.9-1.84,14.06-2.25,21.12-1.22,7.22,1.05,14.16,3.43,20.87,6.23,8.14,3.39,16.09,7.23,23.28,12.39,12.59,9.03,22.46,21.35,28.89,35.41,4.34,9.48,7.23,19.68,8.51,30.03.27,2.16.47,4.33.53,6.51.23,8.18-1.5,16.04-3.76,23.85-3.11,10.72-7.19,21.17-11.78,31.34-4.42,9.76-9.3,19.37-15.09,28.39-11.58,18.02-25.7,34.58-40.92,49.62-3.51,3.47-7.11,6.84-10.82,10.11-.05.05-.2.18-.15.27,2.87,6.25,5.35,12.7,7.18,19.34.67,2.43,1.32,4.9,1.67,7.4.06.41,1.52.09,1.45-.39h0Z"/>
    <path class="cls-22" d="M635.25,199.44c-1.94,2.01-2.94,4.91-3.79,7.51-1.2,3.64-2.06,7.39-2.83,11.15-.65,3.19-1.21,6.4-1.78,9.61-.16.92-.31,1.86-.52,2.77-.36,1.54-2.06,1.93-3.5,1.77-2.26-.27-4.52-1.19-6.53-2.2-2.23-1.12-4.82-2.54-6.23-4.68-.24-.37-1.58.19-1.45.39,1.29,1.96,3.49,3.29,5.51,4.38s3.97,1.88,6.1,2.41c2.35.58,6.86.66,7.55-2.4.62-2.72.99-5.5,1.5-8.24.76-4.07,1.59-8.14,2.69-12.13.96-3.47,2.02-7.76,4.6-10.43.32-.33-1.06-.17-1.32.09h0Z"/>
    <path class="cls-22" d="M607.18,215.37c-1.34-.44-2.88-.1-3.99.75-.58.45-1.04,1.03-1.41,1.66s-.73,1.37-.76,2.12c-.05,1.49.91,2.61,2.03,3.47,1.2.92,2.51,1.78,3.99,2.17.34.09.78,0,1.02-.27.2-.24.16-.56-.17-.65-1.2-.31-2.23-.96-3.23-1.68-.91-.66-1.84-1.4-2.11-2.55s.41-2.42,1.16-3.27c.66-.75,1.63-1.15,2.61-.83.33.11.79,0,1.02-.27.22-.25.14-.54-.17-.65h0Z"/>
    <path class="cls-29" d="M607.46,188.09s-14.43-.56-21.13-9.93c-2.41-3.37-2.55-5.58.48-8.15,6.02-5.1,14.2-.7,18.06,3.44,4.19,4.49,5.37,10.99,2.58,14.64Z"/>
    <g>
      <path class="cls-50" d="M607.02,181.37c-1.15,4.69-5.22,5.97-10.08,4.49-4.86-1.48-8.67-5.17-7.52-9.86,1.15-4.69,4.86-7.47,9.71-5.99,4.86,1.48,9.03,6.67,7.88,11.36Z"/>
      <path class="cls-27" d="M602.97,179.67c-.64,2.6-3.34,4.05-6.04,3.22-2.69-.82-4.36-3.6-3.72-6.2.64-2.6,3.34-4.05,6.04-3.22,2.69.82,4.36,3.6,3.72,6.2Z"/>
    </g>
    <path class="cls-29" d="M637.14,203.32s6.81,11.89,18.27,13.46c4.11.57,5.47.69,6.36-3.16,1.77-7.67-3.96-11.48-9.44-12.98-5.94-1.62-11.57-3.35-15.19,2.68Z"/>
    <g>
      <path class="cls-50" d="M645.13,201.32c-3.65,3.19-2.91,7.36.66,10.96,3.57,3.6,8.61,5.26,12.27,2.07,3.65-3.19,3.46-6.64-.11-10.24-3.57-3.6-9.16-5.98-12.81-2.79Z"/>
      <path class="cls-27" d="M648.52,204.11c-2.03,1.77-2.06,4.82-.08,6.81,1.98,2,5.23,2.18,7.25.41,2.03-1.77,2.06-4.82.08-6.81-1.98-2-5.23-2.18-7.25-.41Z"/>
    </g>
    <ellipse class="cls-29" cx="596.74" cy="175.37" rx="1.02" ry="1.09" transform="translate(155.18 613.41) rotate(-61.15)"/>
    <path class="cls-13" d="M608.88,186.48s-1.66-10.06-12.17-14.28c-10.51-4.22-12.42,1.83-12.42,1.83,0,0,1.76-7.49,10.23-6.17,6.09.95,16.64,5.82,14.36,18.62Z"/>
    <path class="cls-13" d="M637.41,202.57s8.04-4.08,17.54,2.73c9.51,6.81,5.37,11.63,5.37,11.63,0,0,5.45-5.46-.43-12.04-4.23-4.73-14.9-10.89-22.49-2.32Z"/>
    <path class="cls-13" d="M584.73,173.45s-4.82-4.12-3.97-8.33c0,0,2.59,4.6,9.98,3.45,0,0-4.73,2.48-5.37,3.68l-.64,1.2Z"/>
    <ellipse class="cls-29" cx="654.22" cy="211.07" rx="1.02" ry="1.09" transform="translate(153.66 682.22) rotate(-61.15)"/>
    <path class="cls-51" d="M613,381.14c-3.18,3.1-6.13,6.66-8.35,10.5-2.18,3.78-2.68,7.99-3.5,12.21-2.28,11.75-4.6,23.51-7.46,35.13-1.4,5.68-2.96,11.32-5.44,16.64-2.78,5.94-6.49,11.43-10.93,16.25-5.23,5.67-11.53,10.71-18.5,14.08-.24.11-.47.22-.71.33-.04.02-.09.04-.13.06.31-.15-.2.1-.31.25-.19.25-.26.74-.36,1.03l-.85,2.44c-1.39,3.98-2.77,7.96-4.16,11.93-.1.29-.2.57-.3.86s1.3.14,1.43-.25c1.89-5.42,3.78-10.85,5.67-16.27l-.46.31c3.76-1.6,7.3-3.93,10.56-6.37,7.46-5.57,13.81-12.64,18.37-20.77,4.93-8.81,7.16-18.66,9.35-28.43,2.16-9.61,4.08-19.27,5.95-28.94.31-1.58.61-3.17.92-4.75.46-2.36,1.38-4.49,2.63-6.54,2.16-3.56,4.92-6.88,7.9-9.79.32-.31-1.05-.17-1.32.09h0Z"/>
    <path class="cls-8" d="M583.54,801.5c-10.51,36.72-39.79,192.41-39.79,192.41,0,0-10.21,2.7-24.64,2.01"/>
    <path class="cls-22" d="M759.64,594.94c-1.85-3.43-2.29-7.92-.85-11.54,1.27-3.19,3.18-6.58,5.73-8.95.26-.25-.23-.32-.37-.33-.33-.03-.73.15-.96.37-2.59,2.41-4.55,5.88-5.84,9.13-1.46,3.67-1.03,8.24.84,11.71.23.43,1.62-.07,1.45-.39h0Z"/>
    <path class="cls-51" d="M617.74,477.86c-4.24.55-8.28,2.3-11.49,5.13-1.74,1.53-2.99,3.21-3.88,5.35s-1.75,4.33-1.69,6.69c.02.79,1.49.6,1.47-.09-.06-2.17.69-4.15,1.5-6.13s1.91-3.65,3.57-5.11c2.91-2.56,6.56-4.23,10.41-4.73.82-.11,1.09-1.25.11-1.12h0Z"/>
    <g>
      <path class="cls-51" d="M434.79,228.63c-14.83,1.18-30.32,7.31-42.09,16.26-10.72,8.15-18.51,19.4-22.16,32.39-3.1,11.03-4.8,22.38-6.24,33.73-3.72,29.28-5.58,58.84-6.73,88.33-.43,11-.8,22.03-.67,33.05.03,2.45-1.28,3.86-2.63,5.84-1.69,2.47-3.37,4.94-5.06,7.41-3.87,5.67-7.73,11.34-11.6,17.01-11.64,17.06-23.27,34.07-34.41,51.54-1.72,2.7-3.43,5.4-5.1,8.12l1.18-.43c-1.86-.04-2.87,3.01-3.63,4.32-2.87,4.98-5.5,10.1-7.96,15.29-8.62,18.18-15.18,37.41-19.22,57.13-2.48,12.1-3.98,24.4-4.33,36.74-.2,7-.01,14.01.57,20.99.43,5.15.87,10.39,2.31,15.37,2.79,9.65,7.69,18.94,13.6,27.03,2.89,3.95,6.11,7.7,9.87,10.85,2.12,1.78,5.06,4.33,7.84,4.9,2.23.46,4.86.2,7.13.3,5.38.22,10.76.45,16.14.67,15.26.64,30.52,1.27,45.78,1.91,13.66.57,27.32,1.14,40.98,1.71l10.83.45c.41.02,1.29.05,1.45.06,1.38.15,2.75.46,4.12.69.62.1,3.98.43,4.11.63.26.38-.21,2.15-.25,2.59l-.65,6.74c-.67,6.94-1.33,13.88-2,20.83-1.26,13.17-2.52,26.33-3.79,39.5-.08.79-.15,1.58-.23,2.37.03.05.07.09.13.09,22.19,8.46,45.9,14.16,69.36,17.51,9.13,1.31,18.32,2.18,27.54,2.43,9.97.27,19.78-.73,29.73-1.23,21.1-1.05,42.32.44,63.17,3.67,10.26,1.59,20.59,3.44,30.61,6.22.28.08,1.22-.05,1.31-.41,3.85-14.75,7.46-29.56,10.96-44.4,6.47-27.39,12.65-54.92,17.17-82.71,1.72-10.59,3.36-21.31,3.65-32.05.24-8.81-1.47-17.8-4.15-26.17-8.6-26.84-35.27-43.44-57.85-57.57-18.41-11.53-37.46-22.03-55.53-34.1-3.11-2.08-6.19-4.2-9.2-6.42-1.23-.91-2.45-1.83-3.65-2.77-1.86-1.46-1.56-2.05-.77-4.18,2.7-7.32,5.17-14.73,7.66-22.13.75-2.24,1.62-4,2.63-6.13l-1.44.32c4.58,11.33,12.67,20.64,23.21,26.84,3.85,2.26,8.2,3.42,12.54,4.37,14.18,3.1,28.89,4.08,43.35,4.97,36.36,2.25,72.86,2.34,109.28,2.03,11.86-.1,23.72-.29,35.58-.51.16,0,1.14-.2,1.03-.5-3.17-9.06-5.62-18.49-5.53-28.15.07-8.31,2.11-16.35,4.51-24.25.05-.15-.14-.18-.25-.18-12.72-.79-25.44-1.58-38.17-2.37-24.23-1.51-48.46-3.01-72.69-4.52-9.99-.62-19.97-1.24-29.96-1.86-3.38-.21-6.77-.42-10.15-.63-1.59-.1-4.04.21-5.54-.34-1.06-.39-.24.51-.44-.61-.27-1.55.25-3.66.39-5.24.17-2.07.37-4.14.58-6.21.9-8.74,2.08-17.44,3.34-26.13,2.56-17.68,5.51-35.31,7.85-53.02,1.85-14.04,3.85-28.53,2.81-42.72-.29-3.91-.73-8.25-2.56-11.78-2.34-4.51-5.16-8.82-7.72-13.21-.77-1.31-1.53-2.62-2.3-3.94-.22-.37-1.58.16-1.45.39,3.36,5.75,7.15,11.41,10.15,17.36,3.41,6.78,2.83,16.06,2.57,23.38-.96,26.7-6.26,53.24-10.16,79.61-2.09,14.13-4.1,28.31-4.97,42.57,0,.09.23.11.26.11,22.48,1.4,44.95,2.79,67.43,4.19,28.61,1.78,57.21,3.55,85.82,5.33.82.05,2.79-.2,3.52.22.64.37.19-.46.24.34.02.29-.61,1.54-.72,1.9-.3,1.04-.6,2.07-.88,3.12-.41,1.51-.8,3.02-1.14,4.55-3.31,14.57-1.15,28.51,3.74,42.48l1.03-.5c-26.96.49-53.91.77-80.87.49-18.5-.19-37.01-.6-55.5-1.55-15.45-.8-31.04-1.74-46.3-4.43-5.17-.91-10.66-1.9-15.42-4.22-11.44-5.57-20.32-16.1-25.04-27.77-.15-.37-1.31.05-1.44.32-4.7,9.92-7.39,20.8-11.35,31.07-.02.05-.01.09.03.13,11.63,9.47,24.66,17.25,37.45,25.02,17.86,10.85,36.14,21.08,53.13,33.29,10.43,7.49,20.81,15.78,28.44,26.23,5.46,7.47,8.92,15.93,10.93,24.92,1.75,7.83,2.53,15.34,2.01,23.34-.69,10.7-2.35,21.35-4.15,31.91-4.36,25.62-10.02,51.03-15.96,76.32-2.37,10.08-4.81,20.13-7.31,30.18-.83,3.34-1.67,6.68-2.53,10.02-.42,1.64-1.42,3.81-1.41,5.51,0,.22-.13.48-.18.7l1.31-.41c-18.13-5.03-37.18-7.7-55.88-9.21-17.06-1.38-33.91-1.02-50.96.18-15.67,1.11-31.47-.11-46.96-2.48-21.61-3.29-43.05-8.72-63.65-16.03-.63-.22-2.76-.92-2.81-1.04-.38-.8.32-3.3.4-4.14.7-7.32,1.4-14.63,2.1-21.95,1.47-15.3,2.93-30.59,4.4-45.89-.03-.05-.07-.09-.13-.09-4.79-.81-9.22-1.47-14.03-1.67-8.48-.35-16.96-.71-25.44-1.06-23.12-.97-46.23-1.93-69.35-2.9-6.82-.28-13.63-.57-20.45-.85-2.88-.12-5.04-1.77-7.36-3.51-6.58-4.94-11.7-11.77-15.9-18.77-3.87-6.44-7.2-13.38-9.26-20.62-2.42-8.51-2.65-17.91-2.84-26.69-.41-19.64,2.25-39.26,7.2-58.25,3.78-14.51,8.9-28.69,15.17-42.31,3.29-7.15,7.4-13.81,10.92-20.81.16-.32.39-.63.58-.93l-1.18.43c1.75.04,2.39-2.21,3.17-3.45,1.84-2.94,3.71-5.87,5.59-8.78,4.09-6.36,8.23-12.69,12.41-19,3.98-6.02,8.07-11.96,12.16-17.91,6.93-10.1,13.81-20.23,20.72-30.35,1.56-2.28,3.12-4.57,4.68-6.85.49-.71,1.24-1.5,1.43-2.32.19-.82-.03-1.96-.04-2.8-.04-4.86.03-9.72.14-14.58.62-28.72,2.31-57.48,5.09-86.07,1.3-13.35,2.79-26.73,5.28-39.92,2.35-12.47,5.91-24.63,13.93-34.73,11.99-15.1,31.38-24.1,50.33-26.36.36-.04.72-.08,1.08-.11.4-.03,1.57-.68.62-.61h0Z"/>
      <path class="cls-51" d="M543,530.3c-.08-.07-.16-.13-.25-.2l.03.13c.24-.57.5-1.13.75-1.7.19-.42.38-.84.57-1.26.05-.11.1-.21.15-.32.01-.03.03-.05.04-.08,0,0,.01-.02.01-.03,0,.03-.1.11-.14.13l-.87.27h0c-.12-.02-.25-.04-.37-.05.05.03-.05-.08-.04-.05-.03-.09.02-.07,0-.05,0,.02-.01.05-.02.07-.02.08-.05.15-.07.22-.09.27-.19.53-.28.8-.3.83-.62,1.66-.92,2.49-.09.25.48.18.58.16.19-.04.38-.09.55-.17.1-.05.25-.12.29-.23.28-.74.55-1.47.82-2.21.16-.42.33-.85.45-1.28.01-.04.03-.09.03-.13,0-.19-.28-.17-.41-.16-.4.03-.9.16-1.09.54-.29.57-.53,1.17-.8,1.75-.23.51-.46,1.03-.68,1.54-.02.05-.01.09.03.13.08.07.16.13.25.2s.28.06.37.05c.19-.01.39-.06.56-.13.1-.04.63-.26.43-.43Z"/>
    </g>
    <g>
      <path class="cls-31" d="M228.14,719.34h-56.66c-9.03,0-16.34-7.32-16.34-16.34h0c0-9.03,7.32-16.34,16.34-16.34h56.66c1.2,0,2.18.97,2.18,2.18v28.33c0,1.2-.97,2.18-2.18,2.18Z"/>
      <path class="cls-31" d="M214.03,713.92h132.61c.49,0,.9.4.9.9v3.63c0,.49-.4.9-.9.9h-132.61v-5.43h0Z"/>
      <path class="cls-31" d="M213.38,686.78h132.61c.49,0,.9.4.9.9v3.63c0,.49-.4.9-.9.9h-132.61v-5.43h0Z"/>
      <path class="cls-33" d="M343.56,713.92h-114.63c-6.03,0-10.92-4.89-10.92-10.92h0c0-6.03,4.89-10.92,10.92-10.92h114.63c-3.07,7.28-3.07,14.56,0,21.83Z"/>
      <path class="cls-31" d="M218.01,719.34h-46.71c-8.93,0-16.17-7.24-16.17-16.17h0c0-9.12,7.39-16.52,16.52-16.52h47.6c-11.83,7.17-10.95,24.34-1.24,32.68Z"/>
      <path class="cls-7" d="M327.69,702.08c0,.08-23.53.15-52.54.15-29.03,0-52.55-.07-52.55-.15"/>
      <path class="cls-7" d="M338.51,706.93c0,.08-23.53.15-52.54.15-29.03,0-52.55-.07-52.55-.15"/>
      <path class="cls-7" d="M335.32,697.58c0,.08-23.53.15-52.54.15-29.03,0-52.55-.07-52.55-.15"/>
    </g>
    <g>
      <path class="cls-47" d="M556.83,493.21s-39.33-.94-69.73-10.89c-8.49,1.16-120.94-49.2-129.45-48.13l-14,20.51c12.18,14.51,83.6,38.17,100.23,43.19,45.66,13.78,104.52,18.85,104.52,18.85l8.43-23.53Z"/>
      <path class="cls-51" d="M557.29,492.88c-6.69-.16-13.38-.7-20.03-1.36-14.05-1.38-28.1-3.51-41.75-7.18-1.8-.48-3.59-1-5.38-1.55-.78-.24-1.64-.65-2.45-.78-.28-.04-.5-.01-.49-.01-.27,0-.97-.08-1.44-.17-1.87-.36-3.71-.95-5.53-1.54-6.25-2.01-12.38-4.38-18.5-6.75-8.36-3.24-16.68-6.6-25-9.97-9.02-3.65-18.02-7.34-27.04-10.99-8.34-3.38-16.69-6.75-25.07-10.02-6.17-2.4-12.36-4.8-18.66-6.86-1.87-.61-3.76-1.22-5.69-1.62-1.13-.23-2.68-.62-3.48.41-2.01,2.61-3.75,5.49-5.61,8.22-2.33,3.41-4.65,6.82-6.98,10.23-.4.59-.81,1.18-1.21,1.78-.06.09-.09.14-.02.23,3.04,3.58,7.38,6.11,11.4,8.41,5.99,3.42,12.26,6.36,18.57,9.14,14.42,6.35,29.21,11.85,44.08,17.04,11.9,4.15,23.88,8.18,36.06,11.43,19.89,5.3,40.2,9.01,60.56,11.96,11.22,1.63,22.48,3.07,33.77,4.09.17.02.35.03.52.05.32.03,1.05-.08,1.18-.45,2.46-6.87,4.92-13.74,7.39-20.62.35-.97.7-1.94,1.04-2.92.13-.35-1.29-.18-1.44.23-2.46,6.87-4.92,13.74-7.39,20.62-.35.97-.7,1.94-1.04,2.92l1.18-.45c-12.49-1.08-24.95-2.73-37.35-4.59-23.11-3.46-46.25-7.83-68.61-14.72-14.51-4.47-28.88-9.49-43.09-14.83-8.82-3.32-17.59-6.8-26.21-10.61-7.21-3.19-14.42-6.56-21.12-10.75-2.33-1.46-4.63-3.02-6.64-4.9-.4-.37-.75-.86-1.17-1.19-.06-.05-.35-.49-.35-.17,0-.06.12-.15.14-.2.34-.78,1.03-1.52,1.51-2.22,3.81-5.59,7.63-11.18,11.44-16.76.3-.44.6-.88.9-1.32l-.78.35c-.16.02.21,0,.25,0,.23.02.45.05.68.08.6.09,1.19.23,1.77.38,1.8.45,3.57,1.02,5.33,1.61,5.42,1.8,10.75,3.84,16.08,5.9,14.85,5.74,29.57,11.81,44.32,17.81,14.08,5.73,28.15,11.52,42.39,16.84,4.5,1.68,9.03,3.38,13.66,4.68,1.25.35,2.54.72,3.83.84.23.02.46,0,.69.03.61.06,1.11.32,1.86.55,3.06.95,6.15,1.81,9.26,2.58,18.77,4.67,38.31,7,57.63,7.7.37.01.73.03,1.1.04.29,0,.82-.03,1.02-.27.14-.17.26-.38-.1-.39Z"/>
    </g>
  </g>
  <g id="Layer_4" data-name="Layer 4">
    <path class="cls-44" d="M706.6,587.67s-11.82,13.62-21.8,15.4c-15.03,2.67-21.38-3.6-21.38-3.6l19.36-39.83,23.81,28.03Z"/>
    <path class="cls-54" d="M579.56,504.63l-.18-.02"/>
    <path class="cls-49" d="M765.05,459.46c-7.41,5.26-14.78,11.4-18.06,19.87-2.01,5.17-2.33,10.82-3.61,16.21-1.28,5.39-3.87,10.94-8.77,13.52,1.04.35,2.16.3,3.25.24,6.72-.35,13.43-.69,20.15-1.04,2.41-.12,4.85-.26,7.12-1.07,4.57-1.65,7.71-5.79,10.52-9.76,1.11-1.56,2.23-3.18,2.65-5.05.43-1.87.13-3.81-.17-5.7-1.24-7.79-2.49-15.58-3.73-23.38"/>
    <line class="cls-6" x1="676.58" y1="870.71" x2="525.72" y2="880.89"/>
    <path class="cls-37" d="M578.42,651.41c.42-4.58,1.04-9.15,1.84-13.69.59-3.39,1.55-6.83,3.6-9.8,4.24-6.15,13.21-7.79,20.69-8.46,8.45-.76,44.83-.61,59.68-.35,8.41-.25,16.85-.41,25.23.35,7.47.68,16.45,2.32,20.69,8.46,2.05,2.97,3,6.41,3.6,9.8.8,4.54,1.42,9.11,1.84,13.69.78,8.53.81,65.95.17,74.48-.3,3.92-3.6,7.28-8.29,7.28-4.26,0-8.59-3.34-8.29-7.28.54-7.22.61-63.32.14-70.55-.41-6.26-.62-13.19-2.94-19.19-.04-.1-.03-.1-.04-.13-.02-.02-.08-.1-.28-.45-.99-1.3-2.67-1.41-4.41-1.48-7.63-.3-15.27-.48-22.91-.6-1.32,0-2.65-.03-3.94-.05-1.77.03-3.62.12-5.4.03-13.77.12-49.45.33-57.01.63-1.74.07-3.42.17-4.41,1.48-.2.35-.26.44-.28.45-.01.03,0,.03-.04.13-2.32,5.99-2.53,12.92-2.94,19.19-.47,7.23-.4,63.33.14,70.55.3,3.94-4.03,7.28-8.29,7.28-4.69,0-8-3.36-8.29-7.28-.64-8.54-.61-65.96.17-74.48Z"/>
    <line class="cls-6" x1="668.49" y1="938.34" x2="525.72" y2="804.15"/>
    <line class="cls-6" x1="671.59" y1="772.4" x2="543.38" y2="994.85"/>
    <line class="cls-6" x1="676.58" y1="832.43" x2="521.74" y2="933.17"/>
    <line class="cls-3" x1="642.27" y1="729.67" x2="639.64" y2="980.29"/>
    <line class="cls-4" x1="601.64" y1="710.77" x2="655.86" y2="968.74"/>
    <line class="cls-5" x1="657.88" y1="703.39" x2="605.62" y2="1029.87"/>
    <g>
      <path class="cls-2" d="M589.09,719.33c-17.94,0-36.96,14.5-52.44,40.1-16.81,27.77-27.94,65.35-31.34,105.79-6.82,81.06,20.8,151.24,60.3,153.24,18.39.98,38.15-13.66,54.12-40.05,16.81-27.78,27.94-65.35,31.34-105.79,6.82-81.06-20.8-151.24-60.3-153.24-.56-.03-1.11-.04-1.67-.04h0Z"/>
      <path class="cls-37" d="M611.5,1025.45c-.77,0-1.55-.02-2.32-.06-45.87-2.33-76.01-72.88-68.64-160.62,3.47-41.29,14.9-79.75,32.17-108.29,17.88-29.54,40.2-45.14,62.79-44.03,45.87,2.33,76.01,72.88,68.64,160.62h0c-3.47,41.29-14.9,79.75-32.17,108.29-17.26,28.53-38.65,44.09-60.47,44.09h0ZM633.24,719.33c-17.94,0-36.96,14.5-52.44,40.1-16.81,27.77-27.94,65.35-31.34,105.79-6.82,81.06,20.8,151.24,60.3,153.24,18.39.98,38.15-13.66,54.12-40.05,16.81-27.78,27.94-65.35,31.34-105.79,6.82-81.06-20.8-151.24-60.3-153.24-.56-.03-1.11-.04-1.67-.04h0Z"/>
      <g>
        <g>
          <path class="cls-13" d="M691.68,745.42c-15.31-37.27-39.61-58.6-68.43-60.06-28.73-1.48-56.48,17.23-77.91,52.64-19.61,32.41-32.58,75.95-36.5,122.6-3.93,46.64,1.64,91.12,15.65,125.24,15.31,37.27,39.61,58.6,68.43,60.06,1.05.05,2.09.08,3.14.08,27.68,0,54.13-18.6,74.77-52.72,19.61-32.41,32.58-75.95,36.5-122.6,3.93-46.64-1.64-91.12-15.65-125.24h0ZM680.57,869.31c-3.71,44.11-15.79,84.98-34.01,115.1-15.93,26.33-35.3,41.57-51.89,40.71-16.56-.84-33.24-17.89-44.63-45.61-13.02-31.7-18.15-73.45-14.44-117.56,3.71-44.11,15.79-84.98,34.01-115.1,15.52-25.64,34.31-40.74,50.58-40.74.44,0,.88,0,1.31.03,16.56.84,33.24,17.89,44.63,45.61,13.02,31.7,18.15,73.45,14.44,117.56h0Z"/>
          <g>
            <path class="cls-2" d="M691.68,745.42c-15.31-37.27-39.61-58.6-68.43-60.06-28.73-1.48-56.48,17.23-77.91,52.64-19.61,32.41-32.58,75.95-36.5,122.6-3.93,46.64,1.64,91.12,15.65,125.24,15.31,37.27,39.61,58.6,68.43,60.06,1.05.05,2.09.08,3.14.08,27.68,0,54.13-18.6,74.77-52.72,19.61-32.41,32.58-75.95,36.5-122.6,3.93-46.64-1.64-91.12-15.65-125.24h0ZM680.57,869.31c-3.71,44.11-15.79,84.98-34.01,115.1-15.93,26.33-35.3,41.57-51.89,40.71-16.56-.84-33.24-17.89-44.63-45.61-13.02-31.7-18.15-73.45-14.44-117.56,3.71-44.11,15.79-84.98,34.01-115.1,15.52-25.64,34.31-40.74,50.58-40.74.44,0,.88,0,1.31.03,16.56.84,33.24,17.89,44.63,45.61,13.02,31.7,18.15,73.45,14.44,117.56h0Z"/>
            <path class="cls-18" d="M680.57,869.31s.1-.62.21-1.84c.11-1.25.26-3.06.47-5.41.33-4.76.76-11.78.78-20.84.04-9.05-.3-20.14-1.7-32.96-.7-6.41-1.67-13.25-3.1-20.46-1.41-7.21-3.2-14.81-5.7-22.68-2.51-7.86-5.56-16.04-9.79-24.27-4.28-8.19-9.48-16.61-17.32-24.06-3.95-3.65-8.53-7.22-14.45-9.35-2.88-1.17-6.18-1.7-9.48-1.84-3.32.03-6.62.57-9.72,1.53-6.16,2.02-11.5,5.34-16.24,9.06-4.74,3.75-8.92,8-12.73,12.48-15.14,18.06-25.13,39.51-32.73,62.01-7.47,22.59-12.09,46.56-14.22,71.22-2.02,24.67-1.45,48.91,2.17,72.07,3.77,23.09,10.1,45.36,22.06,64.81,3.02,4.83,6.49,9.45,10.54,13.66,4.04,4.2,8.83,8,14.61,10.6,5.71,2.68,12.95,3.36,19.08,1.66,6.23-1.51,11.36-4.6,15.89-7.81,9.02-6.6,15.58-14.43,21.19-22.12,5.57-7.73,9.96-15.54,13.77-23.08,3.8-7.55,6.85-14.9,9.45-21.91,2.63-7.01,4.74-13.69,6.51-19.98,3.54-12.57,5.73-23.53,7.21-32.5,1.5-8.98,2.25-15.98,2.72-20.73.19-2.35.34-4.16.44-5.41.09-1.22.1-1.85.1-1.85,0,0-.11.62-.26,1.84-.14,1.25-.34,3.05-.6,5.4-.57,4.74-1.42,11.73-3.01,20.69-1.57,8.96-3.85,19.89-7.46,32.42-1.8,6.26-3.95,12.93-6.61,19.91-2.63,6.98-5.71,14.3-9.52,21.82-3.83,7.5-8.23,15.26-13.79,22.93-5.6,7.62-12.15,15.38-21.03,21.84-4.45,3.15-9.48,6.14-15.42,7.56-5.86,1.6-12.53.97-18.01-1.6-5.52-2.5-10.21-6.2-14.16-10.34-3.97-4.14-7.39-8.7-10.37-13.49-11.82-19.27-18.11-41.46-21.84-64.46-3.58-23.08-4.14-47.25-2.13-71.85,2.13-24.59,6.73-48.49,14.15-71,7.55-22.42,17.49-43.79,32.45-61.69,3.76-4.44,7.88-8.64,12.53-12.33,4.65-3.67,9.87-6.9,15.76-8.84,2.96-.92,6.08-1.44,9.19-1.47,3.09.13,6.18.61,8.94,1.72,5.65,2.01,10.14,5.48,14.02,9.06,7.72,7.3,12.93,15.65,17.2,23.77,4.24,8.17,7.3,16.31,9.84,24.13,2.53,7.83,4.35,15.4,5.79,22.59,1.47,7.19,2.48,14.01,3.22,20.41,1.48,12.79,1.91,23.86,1.96,32.9.08,9.04-.26,16.06-.48,20.82-.14,2.35-.24,4.16-.31,5.41-.06,1.22-.05,1.85-.05,1.85h0Z"/>
          </g>
        </g>
        <path class="cls-2" d="M596.06,1045.98c-1.05,0-2.09-.03-3.14-.08-28.82-1.46-53.12-22.79-68.43-60.06-14.01-34.12-19.57-78.6-15.65-125.24,3.92-46.65,16.89-90.18,36.5-122.6,21.43-35.41,49.18-54.12,77.91-52.64,28.82,1.46,53.12,22.79,68.43,60.06,14.01,34.12,19.57,78.6,15.65,125.24l-13.38-.68,13.38.68c-3.92,46.65-16.89,90.18-36.5,122.6-20.64,34.12-47.09,52.72-74.77,52.72h0ZM620.19,706.11c-16.27,0-35.06,15.1-50.58,40.74-18.22,30.11-30.3,70.99-34.01,115.1-3.71,44.11,1.42,85.86,14.44,117.56,11.39,27.72,28.07,44.77,44.63,45.61,16.59.86,35.96-14.38,51.89-40.71,18.22-30.11,30.3-70.99,34.01-115.1,3.71-44.11-1.42-85.86-14.44-117.56-11.39-27.72-28.07-44.77-44.63-45.61-.44-.02-.87-.03-1.31-.03h0Z"/>
      </g>
      <path class="cls-28" d="M635.02,868.73c1.8-21.43-5.52-39.24-16.35-39.79-10.83-.55-21.07,16.38-22.87,37.8-1.8,21.43,5.52,39.24,16.35,39.79,10.83.55,21.07-16.38,22.87-37.8h0Z"/>
    </g>
    <path class="cls-41" d="M575.91,730.94c0,6.96,7.08,12.65,15.97,12.83l117.69,2.45c9.23.19,16.85-5.61,16.85-12.83l16.03-70.76c0-7.09-7.35-12.84-16.41-12.84h-133.71c-9.06,0-16.41,5.75-16.41,12.84v68.31h0Z"/>
    <path class="cls-37" d="M793.63,824.6c0-8.2,12.73-8.19,12.73,0v191.91c0,8.2-12.73,8.19-12.73,0v-191.91h0Z"/>
    <path class="cls-37" d="M586.03,810.59c0-8.2,12.73-8.19,12.73,0v191.91c0,8.2-12.73,8.19-12.73,0v-191.91h0Z"/>
    <path class="cls-41" d="M968.07,434.58s5.85,10.36-.22,14.5l36.17,4.66s6.3-6.63,3.33-14.04c-2.96-7.41-39.28-5.13-39.28-5.13Z"/>
    <path class="cls-37" d="M623,804.19c0-6.01,9.33-6,9.33,0v140.68c0,6.01-9.33,6-9.33,0v-140.68h0Z"/>
    <path class="cls-37" d="M619.87,956.68c-.2-.11-3.26,11.24-3.46,11.14-2.94-1.54-6.03-2.93-9.17-4.19,5.99-22.36,14.86-56.17,20.75-78.56,1.48-5.63,2.95-11.26,4.38-16.9,1.52-6.01,2.63-12.19,4.71-18.05,2.43-6.84,6.73-13.95,13.6-17.76,8.76-4.86,38.02-3.9,47.63-2.46,2.87.43,4.44,3.74,3.74,6.11-.83,2.79-3.73,3.89-6.59,3.47-5.31-.79-29.78-1.22-34.42-.26-1.02.21-2.01.49-2.99.8-.12.04-.18.06-.26.08-.06.03-.1.05-.19.09-.33.15-.65.3-.97.46-.54.27-1.04.59-1.54.91-.07.09-1.08.83-1.29,1.02-.46.42-.88.87-1.31,1.32-.19.2-.23.23-.3.3-.02.04-.04.09-.2.29-1.4,1.89-2.72,3.79-3.68,5.92-1.97,4.39-2.88,9.16-3.99,13.78-6.25,26.04-13.54,51.87-20.48,77.76-1.32,4.91-2.65,9.83-3.99,14.74Z"/>
    <path class="cls-41" d="M571.95,827.06l3.96-111.97,380.84,20.88.53,95.58-140.82,12.07c-182.53,32.04-243.51-13.55-244.51-16.56h0Z"/>
    <g>
      <path class="cls-28" d="M529.87,1033.68c0,21.53,18.81,38.98,42.02,38.98,23.2,0,42.02-17.45,42.02-38.98s-18.81-38.98-42.02-38.98c-23.2,0-42.02,17.45-42.02,38.98Z"/>
      <path class="cls-18" d="M577.26,932.73v32.72h4.37s3.12,33.3,0,41.41c-2.18,5.66-9.68,15.13-14.01,20.33-1.88,2.26-2.05,5.35-.42,7.77h0c2.37,3.53,7.56,4.3,10.98,1.62,8.53-6.68,22.8-18.25,26.24-23.64,4.99-7.82,7.49-50.09,7.49-50.09h-12.17s0-30.11,0-30.11h-22.47s0,0,0,0Z"/>
      <path class="cls-13" d="M577.26,932.73v32.72h4.37s3.12,33.3,0,41.41c-2.18,5.66-9.68,15.13-14.01,20.33-1.88,2.26-2.05,5.35-.42,7.77h0c2.37,3.53,7.56,4.3,10.98,1.62,8.53-6.68,22.8-18.25,26.24-23.64,4.99-7.82,7.49-50.09,7.49-50.09h-12.17s0-30.11,0-30.11h-22.47s0,0,0,0Z"/>
    </g>
    <path class="cls-37" d="M713.5,988.65c4.65-20.66,9.34-42.69,13.72-59.37,1.76-6.69,3.51-13.38,5.2-20.08,1.81-7.14,3.13-14.5,5.6-21.46,2.89-8.13,7.99-16.58,16.16-21.11,10.41-5.77,45.2-4.63,56.62-2.93,3.41.51,5.28,4.45,4.45,7.26-.98,3.31-4.44,4.63-7.83,4.12-6.31-.94-35.4-1.45-40.92-.31-1.21.25-2.38.58-3.55.95-.14.05-.22.07-.31.09-.07.03-.11.06-.22.11-.39.18-.78.36-1.16.55-.64.33-1.24.7-1.83,1.08-.08.1-1.28.99-1.53,1.22-.55.5-1.05,1.04-1.56,1.57-.22.23-.28.28-.35.35-.03.05-.05.1-.23.34-1.66,2.25-3.23,4.51-4.37,7.04-2.34,5.22-3.42,10.88-4.74,16.38-6.8,28.35-12.35,56.51-19.57,84.69-4.53-.16-9.06-.35-13.59-.48Z"/>
    <polygon class="cls-41" points="744.72 912.51 731.96 970.16 593.58 943.2 604.82 888.47 744.72 912.51"/>
    <path class="cls-13" d="M786.24,936.25v32.6s-2.14.79-2.14.79c0,0,2.7,44.98,8.11,53.44,3.73,5.83,19.17,18.37,28.41,25.59,3.71,2.9,9.33,2.07,11.89-1.75h0c1.76-2.62,1.57-5.97-.46-8.41-4.69-5.63-12.81-15.88-15.17-22.01-3.38-8.78,0-44.83,0-44.83h-6.31v-35.42"/>
    <path class="cls-53" d="M817.02,559.44c-1.02,1.05-1.81,2.39-2.52,3.66-2.11,3.81-3.43,8.03-4.29,12.29-1.38,6.86-1.55,13.95-1.1,20.91.36,5.58,1.2,11.16,2.71,16.55.63,2.23,1.31,4.52,2.36,6.6.03.06.17.03.21.02,2.07-.31,4.15-.63,6.22-.94.21-.03.48-.24.1-.18-1.78.27-3.56.54-5.34.81-.21.03-.63.19-.83.13-.05-.02.22.11.13-.05-.14-.24-.24-.52-.35-.78-1.52-3.56-2.51-7.38-3.26-11.17-1.48-7.53-1.95-15.33-1.48-22.99.38-6.28,1.51-12.65,4.04-18.45.97-2.23,2.15-4.69,3.87-6.46.1-.1-.39-.04-.48.05h0Z"/>
    <polygon class="cls-41" points="739.33 983.11 506.62 941.49 504.08 955.52 736.79 997.14 739.33 983.11"/>
    <path class="cls-49" d="M878.81,469.26c-6.28,5.93-18.87,9.33-27.17,11.85-8.49,2.57-11.85,2.59-20.03.1-15.94-4.85-30.86-13.68-41.57-26.72-11.05-13.45-16.55-30.59-15.72-48.24.58-12.33,3.39-24.05,8.09-34.97.66-1.06,1.74-2.78,2.4-3.84,15.81-18.66,26.28-25.19,48.82-21.68,13.89,2.02,27.67-2.18,45.2,12.64,3.78,3.19,5.21,12.9,9.84,17.61,6.97,7.09,13.64,17.48,14.7,25.89,1.53,12.3-3.18,26.6-7.56,40.15-3.31,10.27-9.02,19.64-16.85,27.07-.05.05-.1.09-.15.14Z"/>
    <path class="cls-44" d="M777.01,476.94c6.83-.14,31.99,1.38,38.7.12,3.07-.57,26.42-6.48,29.33-7.7-14.8,19.61-17.54,34.94-7.73,38.53l-18.45,21.52c-78.74,55.77-57.09,18.13-66.46-29.3l19.56-8.76,5.04-14.41Z"/>
    <path class="cls-44" d="M767.91,419.38c1.05-2.97,2.29-6.41,3.81-10.55.44-1.2.9-2.34,1.35-3.47.29-.56.53-1.14.72-1.73,8.45-19.78,19.14-27.68,19.14-27.68,13.61-9.98,31.48-11.96,46.92-5.2,18.33,7.57,30.62,25.3,34.92,39.99,2.14,7.28,1.52,15.09-1.74,21.94-2.77,5.86-6.52,8.86-10.69,14.78,6.57,2.22,14.25,5.43,6.1,15.58-8.98,11.19-19.43,13.32-23.41,6.33-2.13.36-5.1,5.28-7.46,9.82-.46.19-.89.49-1.26.97-3.78,4.88-10.96,6.2-16.71,7.05-6.04.89-12.27,1.29-18.37,1.31-8.59.02-17.61-.84-26.03-3.33l.46-1.01c-3.52-1.66-2.02-.58-6.1-3.21-13.38-9.64-10.26-40.65-8.19-48.45,1.76-6.61,4.21-9.61,6.53-13.11Z"/>
    <path class="cls-23" d="M774.77,483.73s18.65,11.13,44.94,3.3c0,0-9.08,6.65-22.51,6.22-13.42-.42-23.6-6.54-23.6-6.54l1.17-2.99Z"/>
    <path class="cls-49" d="M783.13,386.05c22.63,1.55,28.95-7.77,41.3-2.76,14.33,5.74,16.4,4.01,25.63,14.02,8.42,9.16,8.83,14.35,8.83,14.35-.36,2.72.35,5.45.47,8.17.12,2.68-.48,5.24-1.33,7.77-1.75,5.18-3.3,10.43-5.82,15.33-1.57,3.04-3.98,6.95-1.61,10.26,1.05,1.48,0-.58,1.74-.49.07-.08,1.07-3.96-1.02.47-1.05,2.22,4.77-4.09,7.28-4.91,1.15-.38,2.49-.76,3.76-.81,1.27-.04,2.65-.12,3.91.18,1.84.25,5.07,4.25,6.55,5.33.23.22-1.12-2.9-.88-2.68,9.71-11.26,16.09-21.15,12.56-40.84-1.02-5.68-6.63-13.64-8.31-16.16-2.31-3.42-4.75-6.34-7.31-8.88-8.79-8.7-19.14-12.84-31.8-16.37-18.95-5.29-39.92-4.7-51.3,10.81"/>
    <path class="cls-22" d="M863.66,462.54c1.46-1.73,2.67-3.94,2.61-6.27-.01-.64-.06-.93-.53-1.33-1.7-1.45-4.15-1.1-5.98-.11-2.53,1.38-4.46,3.73-6.12,6.02-.39.54.26.88.75.75.38-.1.87-.19,1.3-.05.72.22.58,1.14.39,1.71-.66,2.03-2.74,2.33-4.58,1.82-.35-.1-.79-.03-1.02.27-.19.25-.15.64.2.74,2.62.72,5.91.2,6.84-2.76.31-.99.32-2.22-.77-2.72-.79-.36-1.8-.28-2.62-.06l.75.75c1.38-1.91,2.91-3.81,4.86-5.16.9-.62,2.07-1.15,3.07-1.09.67.04,1.2.24,1.7.62.07.06.14.12.22.18.13.11-.06-.08.07.07.07.08.03.07-.02-.08.03.08.04.21.04.27.06,2.23-.92,4.25-2.35,5.95-.59.71.78.99,1.22.46h0Z"/>
    <path class="cls-49" d="M813.99,414.64c.06-.14.52.07.58-.06,7.95,1.83,13.41,4.41,15.19,5.79,1.35,1.05,2.5,2.39,3.46,3.91,0,0,2.69,4.14,2.71,5.26.02,1.12-2.09-1.62-2.09-1.62-.5-.49-.79-.92-1.35-1.33-3.07-2.26-6.74-3.55-10.34-4.8-3.07-1.08-6.88-2.65-10.21-2.92.63-1.49,1.53-2.71,2.05-4.24Z"/>
    <path class="cls-49" d="M793.29,407.67c.05-.14-.37-.28-.32-.42-6.09-3.81-11.1-5.43-13.08-5.56-1.5-.1-3.06.15-4.62.67,0,0-1.57.62-2.29,1.44-.72.82-.12,1.4-.12,1.4.62-.04,2.57-.06,3.18,0,3.33.32,4.85,1.11,7.87,2.53,2.59,1.19,5.72,2.49,7.96,4.45.55-1.53.76-3.02,1.41-4.5Z"/>
    <path class="cls-45" d="M771,491.35c-7.64.64-32.03,4.86-36.77,6.43-18.85,6.22-38.32,25.03-45.54,44.05-2.19,5.77.57,30.77,3.07,36.41,7.84,17.71,21.7,18.84,21.7,18.84,0,0-3.7,37.49-4.18,54.69-.33.93-4.5,20.14-4.83,21.92,19.82,3.02,43.72-8.29,63.6-8.6,16.22-.25,26.05,9.69,41.95,6.13,11.67-2.61,38.2-2.39,50.02-3.9-1.36-2.01-.65-2.44-1.22-6.24-2.67-17.84-9.08-45.49-1.17-61.42,3.67-7.39,3.86-15.84,6.34-17.5,0,0,28-47.51-1.77-70.73-8.65-6.75-15.62-14.38-28.32-18.32,0,0-15.33,28.86-50.07,25.88-27.57-2.37-12.82-27.62-12.82-27.62Z"/>
    <path class="cls-32" d="M718.66,538.32c-.78,3.79-1.1,7.69-1.53,11.53-.73,6.6-1.39,13.21-2.03,19.83-1.29,13.43-2.5,26.86-3.67,40.3-.26,2.96-.51,5.92-.77,8.88-.02.21,1.41.05,1.45-.39.7-8.19,1.42-16.38,2.16-24.57,1.26-14,2.53-28,4.04-41.97.5-4.61.85-9.31,1.78-13.86.07-.34-1.36-.12-1.43.25h0Z"/>
    <g>
      <path class="cls-13" d="M860.8,405.82c-1.04,1.62-.4,4.07,1.29,4.98.33.18.71.31.95.61.5.61.14,1.51.12,2.3-.04,1.78,1.71,3.07,3.38,3.7,1.07.4,2.41.98,2.39,2.12,0,.45-.25.89-.19,1.33.18,1.18,2.29,1.43,2.21,2.62-.03.55-.56.96-.63,1.5-.13,1.15,1.66,1.48,2.21,2.5.25.48.2,1.05.14,1.59-.18,1.64-.35,3.27-.53,4.91-.04.4-.06.87.24,1.14.52.45,1.27-.15,1.66-.71,2.19-3.15,3.55-6.87,3.92-10.69.09-.95-.05-2.18-.97-2.46-.3-.09-.67-.06-.89-.29-.37-.36-.06-.97.17-1.44.94-1.93-.44-4.58-2.55-4.91-.57-.09-1.27-.1-1.55-.61-.19-.34-.09-.75-.12-1.13-.09-.98-1.04-1.65-1.97-2s-1.95-.55-2.68-1.21c-.92-.83-1.22-2.26-2.3-2.87-1.3-.74-3.31,0-4.2-1.21"/>
      <path class="cls-13" d="M860.68,405.81c-.55.96-.66,2.06-.29,3.11.18.51.46.98.83,1.37.73.75,1.82.76,1.95,2.05.11,1.1-.33,1.91.3,2.95.66,1.09,1.85,1.74,2.99,2.21.72.3,1.64.58,2.09,1.28.5.76-.08,1.36.06,2.13.16.9,1.16,1.16,1.74,1.71,1.15,1.1-.69,1.97.04,3.12.24.38.69.62,1.05.88,1.13.81,1.2,1.64,1.07,2.97-.1.98-.21,1.96-.32,2.94-.07.61-.3,1.47-.17,2.09.15.71.7.88,1.32.6,1.01-.46,1.7-2.07,2.18-2.97.74-1.39,1.34-2.85,1.78-4.36s.88-3.2.84-4.78c-.03-.99-.33-1.43-1.08-1.95l-.32-.07c-.55-.54-.66-1.05-.33-1.55.05-.2.16-.39.21-.59.1-.39.12-.81.07-1.21-.13-1.11-.79-2.18-1.74-2.77-.48-.3-.95-.33-1.47-.48-1.4-.41-1.03-1.36-1.48-2.27-.61-1.21-2.11-1.46-3.24-1.9s-1.64-1.11-2.23-2.06c-.36-.58-.71-1.17-1.32-1.52-1.3-.75-3.11.01-4.18-1.19-.08-.08-.32.02-.23.11.59.66,1.32.76,2.17.83.6.05,1.24.04,1.8.28.86.37,1.24,1.16,1.7,1.89.55.88,1.16,1.44,2.14,1.82.72.28,1.48.44,2.14.84.32.2.63.42.85.74.4.56.17,1.04.35,1.62.24.79.7.85,1.45.99,1.51.3,2.67,1.28,2.99,2.84.15.71.04,1.34-.22,2.01-.13.35-.4.7-.33,1.1.06.36.2.38.48.59.02.01,1.17.48.34.07.95.46,1.19.85,1.22,1.85.09,2.92-1.1,6.16-2.41,8.71-.39.75-.81,1.49-1.29,2.19-.29.41-1.22,1.98-1.92.25-.12-.28.1-.99.13-1.29.16-1.52.62-3.24.47-4.76-.1-.99-.7-1.38-1.46-1.93-.82-.59-1.1-1.06-.62-2.04.18-.38.39-.69.26-1.13-.2-.69-1.02-.98-1.53-1.39-1.12-.91-.02-2.03-.72-3.07-.66-1-2.11-1.22-3.09-1.75-1.58-.85-2.53-2.07-2.34-3.91.16-1.54-.24-1.6-1.44-2.44-1.51-1.06-1.89-3.16-1-4.73.07-.12-.19-.12-.24-.03h0Z"/>
    </g>
    <g>
      <path class="cls-13" d="M864.29,404.81c1.8,1.84,5.55-.45,7.31,1.44.85.91.99,2.62,2.21,2.87.56.11,1.18-.16,1.69.1,1.06.54.18,2.21.57,3.33.49,1.4,2.77,1.43,3.29,2.82.15.39.12.83.24,1.23.22.75.9,1.26,1.44,1.82.55.56,1.01,1.39.68,2.1,2.51-1.94,3.29-5.79,1.73-8.55-.17-.3-.36-.59-.41-.93-.05-.33.05-.66.12-.99.33-1.65-.31-3.45-1.59-4.53-.45-.38-.99-.7-1.21-1.25-.31-.76.14-1.62.14-2.44,0-1.93-2.28-2.96-3.21-4.65-.39-.7-.53-1.51-.86-2.24-.36-.78-.94-1.45-1.66-1.92-.57-.37-1.36-.6-1.91-.19-.38.28-.52.77-.83,1.12-.77.9-2.21.64-3.32.25-1.11-.4-2.43-.84-3.4-.16-1.37.97-.75,3.18-1.56,4.65-.35.64-.98,1.12-1.27,1.79-.27.62-.23,1.32-.18,1.99.08,1.19.16,2.37.24,3.56"/>
      <path class="cls-13" d="M864.16,404.86c1.56,1.41,3.79.46,5.65.68,1.6.19,1.99,1.32,2.69,2.56.4.7.82,1.02,1.6,1.11,1.05.13,1.78.02,1.82,1.18.02.63-.17,1.27-.05,1.9.17.87.88,1.27,1.61,1.67.46.25.97.46,1.34.84.57.58.44,1.3.71,1.99.54,1.37,2.55,2.01,2.06,3.75-.03.09.22.01.24,0,1.34-1.1,2.21-2.61,2.48-4.33.12-.78.11-1.59-.03-2.37-.18-.98-.82-1.74-1.05-2.66-.21-.85.24-1.85.1-2.76s-.52-1.75-1.11-2.43c-.87-1.01-1.96-1.36-1.76-2.92.13-1.02.32-1.76-.26-2.69-.4-.65-.99-1.17-1.52-1.7-.83-.84-1.36-1.69-1.75-2.82-.48-1.4-1.6-3.38-3.36-3.29-.28.01-.57.09-.81.26-.22.16-.32.36-.47.57-.6.81-.46,1.2-2.19,1.08-.37-.03-.76-.16-1.11-.27-1.19-.37-2.62-.98-3.77-.16-.67.47-.87,1.25-.99,2.01-.2,1.21-.24,2.23-1,3.26-.59.8-1.05,1.35-1.08,2.4-.04,1.44.17,2.93.27,4.37,0,.07.28.01.28-.07-.11-1.57-.6-3.61-.18-5.16.24-.88.97-1.39,1.39-2.15.26-.48.37-1.01.45-1.55.1-.63.11-1.29.31-1.91.48-1.5,2.25-1.53,3.58-1.11.89.29,1.82.64,2.77.45,1.02-.2,1.08-.89,1.75-1.51,1.04-.95,2.36.21,2.98.99s.78,1.57,1.11,2.43c.44,1.13,1.21,1.9,2.05,2.74.5.51,1.05,1.06,1.31,1.74.34.9-.05,1.64-.07,2.53-.03,1.33,1.07,1.69,1.83,2.57.54.63.91,1.41,1.07,2.23.17.86-.1,1.58-.12,2.43-.03,1.07.9,2.09,1.1,3.17.27,1.43.07,2.96-.55,4.28-.15.32-.91,1.92-1.34,1.9-.3-.01-.22-.69-.43-1.06-.31-.55-.82-.91-1.23-1.37-.21-.23-.45-.5-.58-.78-.23-.49-.15-1.04-.36-1.53-.32-.78-1.11-1.12-1.81-1.49-1.55-.83-1.56-1.6-1.52-3.22.03-1.35-.47-1.48-1.62-1.56-1.29-.09-1.55-.55-2.06-1.57-.26-.53-.51-1.09-.98-1.48-2.02-1.68-5.1.57-7.11-1.24-.06-.06-.31.05-.26.1h0Z"/>
    </g>
    <path class="cls-45" d="M731.13,644.32s7.53,13.66,45.64,14.41c38.11.75,75.76,0,75.76,0,0,0,9.1,15.68,8.37,38.79-.73,23.11.15,56.95-58,55.49-58.15-1.46-104.82-75.7-104.82-75.7,0,0,7.03,11.41,10.02-9.99,2.99-21.4,23.04-23,23.04-23Z"/>
    <path class="cls-44" d="M623.76,934.8s-35.02,5.82-45.78,4c-10.76-1.82-14.42.17-14.42.17,0,0,31.6-16.32,35.55-20.55,2.21-2.37,9.17-94.1,11.93-138.84,1.92-31.08,9.04-54.77,9.04-54.77l48.58,13.53-10.07,46.04.62,8.87c.33,4.64,2.12,13.75,1.63,18.38-1.32,12.53-2.76,29.28-4.38,35.51-2.74,10.56-8.98,24.43-10.05,28.13l-23.92,50.25,1.27,9.26Z"/>
    <path class="cls-44" d="M668.67,941.69s-48.1,14.9-58.8,12.75c-10.7-2.15-5.87-7.09-5.87-7.09,0,0,40.31-17.61,44.09-22.15,2.07-2.49,5.44-93.47,9.57-138.1,2.87-31.01,7.55-55.2,7.55-55.2l48.14,15.02-4.01,45.31.35,8.89c.18,4.64.1,12.8-.53,17.42-1.71,12.48-5.11,33.37-6.91,39.56-3.06,10.47-15.22,35.27-16.4,38.93l-12.05,32.18-5.12,12.48Z"/>
    <path class="cls-45" d="M836.13,749.99s-66.68,4.77-76.1,5.51c-9.42.74-14.12,22.79-14.82,26.48-.7,3.7,0,27.36,0,27.36,0,0-46.98,17.39-62.78,8.88-15.8-8.51-18.56-15.16-26.9-14.79-8.34.37-10.78,9.61-26.83,9.24-16.05-.37-30.48-14.53-30.48-14.53,0,0,14.31-75.46,20.15-88.99,5.84-13.54,11.31-28.28,33.3-32.71,10.2-2.06,24.51-6.22,36.92-10.09,14.33-4.47,26.12-8.55,26.12-8.55l133.22,19.76-11.78,72.43Z"/>
    <path class="cls-22" d="M651.81,859.56c.02-5.31.03-10.61.04-15.92.02-9.52.04-19.05.02-28.57,0-3.61,0-7.23-.06-10.84,0-.28-1.46-.05-1.45.39.12,7.67.07,15.35.07,23.03,0,8.86-.02,17.72-.05,26.58,0,1.91-.01,3.81-.02,5.72,0,.27,1.45.06,1.45-.39h0Z"/>
    <path class="cls-32" d="M852.12,630.06c-7.23,3.48-15.52,4.89-23.39,6.04-9.06,1.32-18.23,2.06-27.39,2.21-8.88.14-17.75-.68-26.61-1.25-10.65-.68-21.36-1.5-31.81-3.82-11.62-2.58-22.76-7.16-31.93-14.88-.33-.28-1.36-.18-1.4.37-.33,4.42-.65,8.84-.98,13.26-.15,2.09-.34,4.17-.46,6.26-.01.25-.04.46.01.7.21.94,1.15,1.79,1.84,2.39,2.18,1.88,4.88,3.15,7.51,4.26,5.54,2.32,11.37,3.91,17.21,5.29,10.03,2.36,20.26,4.14,30.5,5.35,20.73,2.45,41.78,2.18,62.52.02,6.5-.68,12.98-1.54,19.43-2.66,1.68-.29,3.36-.6,5.03-.93.72-.14,1.38-.26,2.04-.57,1.01-.47,2-.97,3-1.46.22-.11.45-.28.42-.55-.29-3.11-.61-6.21-.97-9.31-.27-2.32-.55-4.63-.9-6.94-.22-1.47-.38-3.08-.94-4.48-.15-.37-.75-.3-1.03-.16l-1.71.85c-.89.44-.08,1.05.6.71.57-.28,1.14-.57,1.71-.85l-1.03-.16c.54,1.36.7,2.93.92,4.36.36,2.34.65,4.7.92,7.05.36,3.1.68,6.21.97,9.31l.42-.55c-1,.49-2,.96-3,1.46-.25.12-.44.19-.26.14-.08.02-.17.04-.26.06-1.1.22-2.21.45-3.31.65-5.44,1.01-10.93,1.81-16.42,2.48-19.52,2.38-39.32,3.04-58.93,1.45-10.95-.89-21.84-2.57-32.6-4.78-6.79-1.39-13.58-3.01-20.11-5.36-3.23-1.16-6.53-2.5-9.35-4.49-.96-.67-2.25-1.74-2.64-2.67-.07-.16-.13-.31-.16-.48.04.22.04-.4.05-.54.07-.88.13-1.77.2-2.65.38-5.13.76-10.27,1.14-15.4.03-.4.06-.81.09-1.21l-1.4.37c16.81,14.13,38.95,17.23,60.13,18.72,5.46.38,10.93.68,16.4,1.05,3.98.27,7.93.52,11.91.52,9.13,0,18.29-.64,27.34-1.81,5.12-.66,10.24-1.51,15.26-2.7,4.1-.97,8.21-2.15,12.01-3.98.9-.43.09-1.04-.6-.71Z"/>
    <path class="cls-37" d="M817.63,662.79c.41-4.04,1.02-8.08,1.8-12.09.58-2.99,1.51-6.03,3.52-8.65,4.15-5.43,12.92-6.88,20.23-7.47,8.27-.68,43.85-.54,58.37-.31,8.23-.23,16.48-.36,24.67.31,7.31.6,16.08,2.05,20.23,7.47,2,2.62,2.93,5.66,3.52,8.65.78,4.01,1.39,8.05,1.8,12.09.03.3.06,11.5.09,11.94-5.31-.12-10.88-.33-16.15.28-.34-4.96-.74-21.04-2.73-25.69-.04-.09-.03-.09-.04-.12-.02-.02-.08-.09-.28-.4-.97-1.15-2.61-1.24-4.31-1.3-7.46-.27-14.93-.42-22.4-.53-1.3,0-2.59-.03-3.85-.05-1.73.03-3.54.1-5.28.02-13.46.1-48.36.29-55.76.55-1.7.06-3.34.15-4.31,1.3-.2.31-.25.38-.28.4-.01.03,0,.03-.04.12-2.27,5.29-2.48,11.41-2.88,16.94-.46,6.38-.39,55.93.14,62.31.29,3.48-3.94,6.43-8.11,6.43-4.59,0-7.82-2.96-8.11-6.43-.63-7.54-.59-58.25.17-65.78Z"/>
    <path class="cls-41" d="M957.28,753.1s5.6-72.44,0-86.12c-12.39-6.55-140.79-1.18-149.68,8.23-11.19,14.33-10.68,85.18-10.68,85.18l160.36-7.28Z"/>
    <path class="cls-29" d="M807.13,432.81s8.03,8.41,17.32,8.29c3.34-.04,5.39-1.14,5.35-4.09-.1-5.87-7.15-9.05-11.74-9.54-4.98-.53-9.26.48-10.93,5.34Z"/>
    <g>
      <path class="cls-50" d="M810.28,428.23c-2.25,2.76-.86,5.77,2.63,8.02,3.49,2.26,7.77,2.92,10.02.15,2.25-2.76,1.97-6.21-1.52-8.47-3.5-2.26-8.88-2.47-11.13.29Z"/>
      <path class="cls-27" d="M813.47,429.91c-1.25,1.53-.69,3.79,1.25,5.05,1.94,1.25,4.52,1.03,5.77-.51,1.25-1.53.69-3.79-1.25-5.04-1.94-1.25-4.52-1.03-5.77.51Z"/>
    </g>
    <path class="cls-13" d="M808.53,430.03s7.03-3.45,15.21.99c8.18,4.44,5.5,8.25,5.5,8.25,0,0,3.63-4.37-1.69-8.86-3.83-3.23-12.43-7.41-19.01-.39Z"/>
    <ellipse class="cls-29" cx="815.53" cy="429.7" rx=".84" ry=".89" transform="translate(108.57 1021.26) rotate(-67.71)"/>
    <path class="cls-29" d="M768.23,417.85s5.23,8.09,14.23,7.86c3.23-.08,5.23-1.2,5.22-4.13-.02-5.84-6.81-8.93-11.25-9.36-4.81-.47-6.53.77-8.2,5.63Z"/>
    <g>
      <path class="cls-50" d="M770.63,413.6c-2.21,2.78-.9,5.75,2.45,7.96,3.35,2.21,7.49,2.81,9.7.03,2.21-2.78,1.98-6.21-1.37-8.41-3.35-2.21-8.56-2.36-10.77.42Z"/>
      <path class="cls-27" d="M773.7,415.24c-1.23,1.54-.71,3.78,1.15,5.01,1.86,1.22,4.36.97,5.59-.57,1.23-1.54.71-3.78-1.15-5.01-1.86-1.22-4.36-.97-5.59.57Z"/>
    </g>
    <path class="cls-13" d="M769.07,415.54s4.95-4.17,12.81.15c7.86,4.33,5.22,8.15,5.22,8.15,0,0,3.57-4.39-1.53-8.8-3.67-3.17-13.86-7.6-16.5.5Z"/>
    <ellipse class="cls-29" cx="775.44" cy="415.26" rx=".84" ry=".86" transform="translate(63.65 932.08) rotate(-64.15)"/>
    <path class="cls-22" d="M790.83,419.24c-.13,2.28-1.74,4.48-3.01,6.27-1.73,2.43-3.67,4.69-5.66,6.9-1.29,1.43-2.68,2.8-3.9,4.29-1.4,1.72,1.16,3.72,2.46,4.57,2.77,1.8,6.56,3.55,9.94,3.38.37-.02,1.58-.6.64-.55-2.32.12-14.73-4.06-11.42-7.89,3.12-3.61,6.5-6.97,9.29-10.87,1.34-1.87,2.97-4.12,3.11-6.5.01-.17-1.42-.02-1.45.39h0Z"/>
    <path class="cls-22" d="M797.13,442.03c.68.39,1.15,1.05,1.26,1.83.06.45-.03.88-.18,1.3-.13.36-.3.77-.61,1.02-.22.18-.5.14-.77.11-.45-.05-.9-.17-1.33-.29-.9-.24-1.78-.54-2.56-1.06-.24-.16-.69-.02-.94.07-.08.03-.65.28-.43.43.97.64,2.1.98,3.21,1.26,1.19.29,2.42.33,3.54-.23.95-.47,1.46-1.5,1.53-2.54.07-.98-.52-1.92-1.36-2.41-.26-.15-.68-.02-.94.07-.07.03-.66.3-.43.43h0Z"/>
    <path class="cls-32" d="M831.74,495.73c-1.43,2.18-3.21,4.17-5.02,6.03-4.32,4.48-9.35,8.3-14.88,11.19-7.68,4.01-16.25,5.98-24.91,5.8-5.65-.12-12.5-.84-16.91-4.8-3.71-3.33-2.91-8.61-1.84-12.99.81-3.33,1.99-6.65,3.54-9.72.14-.28-.53-.23-.6-.22-1.6.2-3.19.41-4.79.61-.81.1-1.46.15-1.87.91-1.35,2.52-2.45,5.2-3.36,7.91-2.55,7.6-3.94,18.2,4.45,22.71,6.15,3.3,13.74,4.36,20.62,4.5,5.7.11,11.42-.5,17-1.66,3.62-.75,6.96-1.92,10.32-3.45,4.68-2.13,9.26-4.61,13.47-7.58,1.84-1.3,3.64-2.72,5.17-4.38,1.02-1.11,2.36-2.69,2.47-4.29.08-1.17-.31-2.51-.47-3.67-.28-1.98-.55-3.96-.83-5.94l-.17-1.19c-.05-.39-1.51-.07-1.45.39.4,2.88.8,5.76,1.21,8.64.15,1.08.4,1.95,0,2.99-.57,1.49-1.7,2.75-2.83,3.86-3.24,3.17-7.27,5.59-11.23,7.75-3.56,1.95-7.26,3.76-11.1,5.09-3.22,1.11-6.72,1.64-10.08,2.09-5.96.8-12.04.93-18,.06-3.42-.5-6.8-1.33-10.03-2.57-2.24-.86-4.36-1.89-6-3.69-2.57-2.84-3.26-6.79-3.06-10.51.33-6.07,2.58-12.35,5.52-17.65l-.84.44c1.88-.24,3.75-.48,5.63-.72l-.6-.22c-1.41,2.81-2.51,5.83-3.32,8.86-1.02,3.79-2.15,8.95.22,12.47,3.15,4.66,9.84,5.96,15.09,6.44,16.28,1.47,32.12-4.44,43.91-15.64,2.51-2.38,4.99-4.99,6.89-7.89.32-.48-1.11-.3-1.33.04Z"/>
    <g>
      <path class="cls-45" d="M712.43,604.45s-.87,2.48-9.84-2.52c-8.97-5-14.5-13.58-14.5-13.58l3.46-8.62s2.77,6.7,13.46,12.62c8.65,4.79,8.45,2.96,8.45,2.96l-.69,5.35-.34,3.78Z"/>
      <path class="cls-32" d="M711.71,604.57c-.05.13-.22.18-.08.14-.77.2-1.87-.16-2.63-.41-4.28-1.35-8.3-3.93-11.71-6.8-2.69-2.27-5.13-4.86-7.27-7.66-.3-.39-1.1-1.15-1.19-1.66-.03-.19.51-1.29.66-1.66.93-2.3,1.85-4.61,2.78-6.91l-1.44.31c1.33,3.18,4.18,5.94,6.75,8.1,3.09,2.59,6.6,4.66,10.23,6.4,1.42.68,3.16,1.64,4.79,1.56.41-.02,1.64-.21,1.58-.85-.03-.33-1.4-.01-1.44.31-.4,3.07-.76,6.12-1.04,9.2-.02.24,1.41.08,1.45-.39.28-3.08.62-5.95,1.02-9.05l-1.44.31s.04,0,0,.02c-.13.08.56-.28.56-.2,0,.11-1.77-.42-1.84-.45-3.73-1.36-7.38-3.51-10.57-5.86s-6.98-5.63-8.6-9.49c-.16-.38-1.32.02-1.44.31-.93,2.3-1.85,4.61-2.78,6.91-.19.46-.75,1.33-.67,1.82.09.58,1.05,1.49,1.39,1.93,2.53,3.29,5.48,6.3,8.78,8.81,2.2,1.68,4.58,3.09,7.08,4.28,1.54.73,3.16,1.44,4.85,1.69.94.14,3.2.22,3.65-.97.12-.31-1.28-.16-1.43.24Z"/>
    </g>
    <path class="cls-44" d="M538.74,935.4c2.37-3.88,9.08-.55,11.91-2.06.5-.27.97-.58,1.55-.75,1.14-.32,2.52-.01,3.81.18,6.47.97,5.97-1.5,14.43-2.17,2.4-.19,23.47-8.86,26.94-9.97.76-2.6,8.43-12.36,9.53-23.01l3.69-9.77c3.65,2.1-1.39,9.66,2.72,10.48,2.96.6,5.96,1.26,8.97,1.58,2.7.29,5.42.32,8.13.49l-1.94,5.19-6.18,20.52-.8,4.45c-.31,5.04-.09,13.19.69,16.15,1.01,3.82-.85,6.33-5.55,7.23-3.95.75-14.34-3.48-18.64-4.27-1.51-.28-3.18-.47-4.92-.63-1.06.14-2.07.17-2.97-.06-.24-.06-.52-.15-.78-.23-3.64-.24-7.34-.46-10.38-1.03-4.81-.89-8.91-.56-16.59-2.05-7.2-1.4-19.93-3.47-23.19-4.92-.9-.4-1.46-.44-1.89-1.08-1.09-1.68.09-2.08,1.44-4.29Z"/>
    <path class="cls-9" d="M628.1,951.83s1.26,1.6.21,5.92c-1.41,5.78-25.79-.68-31.86-1.77-6.07-1.09-26-2.4-39.52-5.4-13.52-3-27.51-10.07-25.84-16.63.91-3.55,1.62-4.84,4.73-5s84.47,17.26,84.47,17.26l7.8,5.63Z"/>
    <g>
      <path class="cls-14" d="M582.17,920.24l3.25-1.2c.19-1.08,1.25-2.03,2.43-2.16,1.49-.16,2.93.64,4.04,1.62,1.04.92,1.9,2.03,2.53,3.25l1.07,2.32c1.45-.69,2.98.98,3.25,2.53.27,1.55,0,3.27.91,4.57.7,1.01,2.05,1.64,2.27,2.84.2,1.09-.67,2.17-.48,3.26.16.94,1.05,1.62,1.29,2.54.18.7-.04,1.43-.21,2.13-.22.88-.02,2.02.2,3.17,1.43.66,3.06,2.13,4.59,1.72.61-.16,1.09-.62,1.65-.92,1.67-.92,4.07-.19,4.91,1.49.31-1.6,2.44-1.99,4.12-2.03,1.85-.04,3.7-.09,5.56-.13,0,0,1.26,1.61.46,3.56s-2.23,4.28-11.95,3.08c-9.72-1.2-17.75-3.58-17.75-3.58l.06-.22-.17-.03s4.53-19.68-12.02-27.8Z"/>
      <path class="cls-34" d="M582.26,920.3c.93-.34,1.86-.68,2.79-1.02.43-.16.55-.14.7-.59.47-1.4,1.95-1.93,3.31-1.59,2.19.56,4.01,2.62,5.04,4.54.43.81.78,1.67,1.17,2.5.04.09.27.02.33,0,1.37-.57,2.58,1.17,2.86,2.29.31,1.2.13,2.48.45,3.68s1.15,1.8,1.96,2.62c.37.38.72.82.82,1.35.13.72-.2,1.4-.38,2.08-.13.5-.19,1.01-.01,1.52.2.57.62,1.03.92,1.54.72,1.26-.06,2.49-.03,3.81,0,.39.06.78.12,1.16.04.27.03.76.18.99.08.12.51.27.65.35.31.18.61.36.92.54.85.5,1.81,1.02,2.84.92,1.31-.13,2.13-1.34,3.47-1.38s2.64.68,3.26,1.85c.06.11.45,0,.48-.11.49-2.06,3.35-1.88,4.98-1.91,1.21-.03,2.42-.06,3.62-.08.37,0,.52-.11.73.15.18.23.3.56.39.84.57,1.72-.3,3.8-1.83,4.75-.93.58-2.05.8-3.13.91-1.79.19-3.6.08-5.38-.09-4.35-.43-8.68-1.24-12.94-2.19-1.5-.34-3-.7-4.49-1.09-.4-.11-.81-.22-1.21-.33-.07-.02-.23-.03-.28-.08-.1-.09-.03.02.02-.19,0-.03-.01-.05-.04-.06-.21-.04-.09.08-.1-.08,0-.11.05-.26.07-.37.09-.48.16-.97.22-1.46.21-1.68.29-3.37.24-5.06-.15-5-1.46-10.04-4.44-14.12-2.11-2.9-4.95-5.14-8.15-6.73-.13-.06-.52.13-.45.17,5.4,2.68,9.43,7.21,11.27,12.97,1.26,3.93,1.55,8.16,1.13,12.26-.09.85-.2,1.7-.39,2.54,0,.03,0,.05.04.06.16.03.11.04.06.19,0,.03.01.05.04.06,2.11.62,4.25,1.13,6.4,1.6,4.68,1.04,9.48,1.97,14.27,2.26,2.5.15,5.62.25,7.79-1.25,1.64-1.13,2.44-3.43,1.55-5.27-.08-.16-.19-.46-.33-.56-.26-.18-1.04-.01-1.34,0-1.5.03-3.01.05-4.51.11s-3.88.38-4.3,2.17l.48-.11c-.92-1.73-3.18-2.36-4.95-1.62-.49.2-.89.54-1.35.8-.97.57-1.98.12-2.87-.36-.55-.3-1.17-.6-1.68-.96-.59-.42-.59-1.69-.6-2.39,0-.75.29-1.43.36-2.18.06-.7-.15-1.26-.52-1.83-.32-.5-.72-.98-.82-1.58-.12-.75.23-1.47.41-2.18.3-1.23-.28-2.02-1.14-2.82-.47-.43-.95-.85-1.25-1.43-.32-.6-.43-1.28-.5-1.96-.13-1.4-.06-2.8-.98-3.96-.7-.88-1.73-1.29-2.79-.85h.33c-.35-.76-.68-1.52-1.04-2.26-.74-1.52-1.92-2.93-3.3-3.9-1.26-.89-2.91-1.44-4.4-.82-.62.26-1.18.7-1.52,1.28-.07.12-.2.31-.21.45,0,.07.02.25.04.23-.07.08-.34.12-.43.16-.93.34-1.86.68-2.79,1.02-.32.12-.02.19.17.12Z"/>
    </g>
    <path class="cls-11" d="M583.06,920.41s-21.76,3.83-29.49,3.33c-7.74-.49-16.97-.79-18.59,5.8,0,0-.74,3.64,11.66,9.79,12.39,6.15,47.74,6.72,47.74,6.72,0,0,.89-9.79-1.84-16.09-2.42-5.59-3.5-8.52-9.47-9.55Z"/>
    <path class="cls-9" d="M672.86,959.11s1.2,1.83-.07,6.98c-1.7,6.89-26.06.35-32.15-.66-6.09-1.02-26.19-1.67-39.73-4.61-13.53-2.94-27.36-10.66-25.35-18.48,1.09-4.24,1.87-5.79,5.02-6.12,3.15-.33,84.64,16.59,84.64,16.59l7.63,6.3Z"/>
    <path class="cls-44" d="M586.58,936.48c2.6-1.79,4.41-.47,7.74.21,3.32.68,4.6.6,7.59.33,7.64-.69,8.83-.93,15.26-1.34,4.99-.32,14.34-5.75,21.47-7.64l8.35-3.84c.68-.83,1.21-8.84,3.56-24.61l.43.08c3.68,2.33,8.01,3.19,12.35,4.04,3.24.63,6.48,1.21,9.76,1.57,2.79.31,8.96-15.01,11.71-14.46l-10.32,31.51-1.85,6.85-.6,5.33c-.56,3.23-.63,1.93-.36,14.79.07,3.21,1.26,11.22-2.91,12.35-7.39,2-15.86-1.35-19.02-2.21-6.61-1.8-12.28-2.09-18.91-2.16-6.71-.08-14.67-1.27-21.95-2.9-1.01-.23-2.06-.54-2.91-1.15-.57-.4-1-.91-1.57-1.31-2.01-1.42-4.68-1-7.02-1.9-1.03-.4-1.95-1.03-2.9-1.59-2.5-1.49-2.1-2.35-4.78-3.55-2.67-1.2-1.99-1.6-3.77-3.6-1.78-1.99-1.08-3.6.64-4.79Z"/>
    <g>
      <path class="cls-14" d="M626.48,929.7l3.51-1.15c.19-1.08,1.32-2.01,2.6-2.12,1.62-.14,3.19.69,4.41,1.69,1.14.94,2.1,2.07,2.8,3.3l1.2,2.35c1.56-.67,3.25,1.04,3.56,2.59.32,1.56.05,3.28,1.06,4.6.78,1.02,2.25,1.68,2.51,2.88.23,1.1-.69,2.16-.47,3.26.19.94,1.17,1.64,1.44,2.57.21.7-.02,1.43-.19,2.13-.22.88.02,2.03.27,3.18,1.56.68,3.35,2.19,5.01,1.8.66-.15,1.18-.6,1.77-.9,1.8-.9,4.41-.13,5.35,1.57.31-1.6,2.62-1.96,4.43-1.97,2.01-.01,4.01-.03,6.02-.04,0,0,1.4,1.64.56,3.58-.83,1.94-2.35,4.26-12.9,2.89-10.56-1.37-19.31-3.88-19.31-3.88l.06-.22-.18-.03s4.58-19.67-13.51-28.09Z"/>
      <path class="cls-34" d="M626.57,929.76l2.22-.72c.38-.12.77-.24,1.15-.37s.3-.33.47-.67c1.1-2.32,4.07-1.42,5.71-.29,1.4.97,2.66,2.31,3.47,3.81.41.76.79,1.55,1.19,2.32.05.09.27.02.33,0,1.42-.53,2.78,1.08,3.15,2.27.4,1.25.19,2.61.6,3.87s1.39,1.83,2.26,2.68c.41.4.76.86.82,1.44.08.71-.28,1.38-.44,2.05-.31,1.31.53,2,1.14,3.04.73,1.26-.13,2.61-.01,3.95.03.33.08.66.14.99.05.25.05.73.2.94.11.15.66.32.83.41.32.17.63.35.94.52.97.53,2.05,1.08,3.19.92.5-.07.94-.27,1.37-.52.78-.46,1.46-.82,2.39-.79,1.35.05,2.7.73,3.39,1.91.06.1.45,0,.48-.11.51-2.18,3.94-1.82,5.6-1.84,1.28,0,2.57-.02,3.85-.03.4,0,.5-.09.71.22.19.29.34.6.45.93.58,1.76-.44,3.78-2.03,4.63-1.03.55-2.24.73-3.39.82-1.99.15-4.01,0-5.99-.21-4.65-.51-9.28-1.37-13.84-2.38-1.64-.36-3.28-.75-4.91-1.18-.43-.11-.86-.23-1.29-.34-.08-.02-.25-.04-.32-.09-.11-.09-.05.06.02-.19,0-.03-.01-.05-.04-.06-.22-.04-.1.08-.12-.09-.01-.11.05-.27.07-.38.09-.48.16-.96.21-1.44.2-1.7.26-3.41.17-5.12-.25-5.08-1.83-10.1-4.99-14.13-2.38-3.03-5.54-5.33-9.01-6.96-.13-.06-.52.14-.45.17,5.71,2.68,10.27,7.19,12.44,13.17,1.42,3.92,1.84,8.2,1.44,12.35-.08.84-.18,1.7-.37,2.53,0,.03,0,.05.04.06.17.03.12.03.08.2,0,.03.01.05.04.06,2.24.64,4.51,1.17,6.78,1.67,5.05,1.11,10.21,2.11,15.38,2.51,2.74.21,6.15.44,8.61-1.05,1.75-1.05,2.7-3.35,1.73-5.25-.09-.17-.23-.52-.4-.63-.12-.07-.13-.04-.33-.04-.4,0-.8,0-1.2,0-1.54.01-3.09.01-4.63.03s-4.32.2-4.77,2.11l.48-.11c-1.05-1.79-3.5-2.42-5.39-1.69-.66.26-1.2.74-1.89.94-.89.26-1.79-.13-2.58-.53-.61-.31-1.19-.67-1.8-.98-.42-.21-.53-.43-.62-.9-.09-.44-.17-.88-.2-1.33-.05-.77.2-1.45.31-2.21.1-.7-.04-1.28-.43-1.86-.35-.53-.83-1.01-1.01-1.63-.22-.73.11-1.44.31-2.13.35-1.24-.09-2.06-1.02-2.88-.48-.42-1-.81-1.38-1.32-.46-.61-.66-1.34-.76-2.08-.2-1.47-.11-2.93-1.11-4.13-.78-.94-1.9-1.38-3.06-.94h.33c-.39-.77-.77-1.55-1.18-2.31-.85-1.58-2.18-3-3.68-3.98-1.39-.91-3.2-1.48-4.81-.81-.64.27-1.23.71-1.58,1.33-.09.17-.14.34-.21.51-.13.35.2-.09.06.07-.08.09-.4.13-.51.17-.98.32-1.96.64-2.94.96-.33.11-.02.18.17.12Z"/>
    </g>
    <path class="cls-11" d="M630.5,928.65s-24.55,3.68-32.33,3.39c-7.78-.28-17.08-.26-19,7.81,0,0-.9,4.45,11.33,11.41,12.23,6.96,51.83,6.97,51.83,6.97,0,0-1.29-13.75-5.13-20.23-3.83-6.49-6.7-9.35-6.7-9.35Z"/>
    <path class="cls-44" d="M766.89,613.94c6.15,6.39,15.97,8,18.74,16.42,1.18,3.59.59,8.27.78,12.16,17-9.92,50.3-38.84,63.87-54.68l14.06-52.51c-18.56-20.53-36.57,12.1-36.57,12.1-5.04,7.56-55.6,46.69-68.43,58.1,1.42,1.12,6.33,7.13,7.56,8.4Z"/>
    <path class="cls-44" d="M803.02,628.96s-11.82,13.62-21.8,15.4c-15.03,2.67-21.38-3.6-21.38-3.6l19.36-39.83,23.81,28.03Z"/>
    <path class="cls-45" d="M875.04,509.81s17.79,17.74,10.72,47.88c-3.12,13.32-9.04,22.28-14.22,30.82-6.93,11.42-23.13,20.03-35.45,16.76-11.21-2.97-26.27-16.52-37.78-27.72-18.3-17.8,46.22-73.55,46.22-73.55"/>
    <path class="cls-32" d="M860.84,506.62c-5.45-1.94-11.43-.58-16.62,1.55-6.91,2.83-13.16,7.26-18.79,12.11-12.34,10.64-22.27,24.53-27.85,39.89-1.08,2.97-1.5,6.25-1.46,9.4.04,2.82.42,6.38,2.79,8.27.41.32,1.75-.25,1.34-.57-2-1.59-2.48-4.42-2.64-6.83-.19-2.88.13-5.85.85-8.64.79-3.08,2.23-6.06,3.58-8.92,1.64-3.46,3.47-6.83,5.49-10.08,8.01-12.92,19.38-24.73,32.88-31.94,5.66-3.03,12.87-5.8,19.28-3.52.45.16,1.76-.5,1.15-.71h0Z"/>
    <path class="cls-49" d="M826.8,366.36s4.51,23.66,19.03,41.83c14.52,18.16,11.12,37.43,11.12,37.43,0,0,7.52-9.29,16.33-4.18,8.81,5.12,7.02,5.87,4.39,13.47-2.64,7.6-6.21,24.93-29.35,21.17,0,0-9-2.97-13.82,9.35-4.82,12.33-4.33,16.21-3.17,35.27,1.16,19.06-8.45,35.72-18.51,39.45,0,0,15.99,2.81,25.71-10.45,9.72-13.26,11.42-18.28,11.42-18.28,0,0-4.53,11.51,2.87,20.45,0,0,.63-19.31,8.25-22.56,3.66-1.56,10.68,12.8,10.68,12.8,0,0,21.03-14.38,23.47-33.48,2.44-19.1-6.36-28.57,2.59-48.07,8.95-19.5,17.31-34.9,14.82-50.45-2.49-15.54-2.61-34.57-26.23-40.92-23.62-6.35-59.62-2.85-59.62-2.85Z"/>
    <g>
      <path class="cls-45" d="M834.37,605.27l-8.78,9.49s-17.01-8.98-23.98-16.05c-6.97-7.07-13.64-18.34-13.64-18.34l9.29-8.85s7.47,13.24,17.42,20.57c9.95,7.34,19.69,13.17,19.69,13.17Z"/>
      <path class="cls-32" d="M833.78,605.13c-2.93,3.16-5.86,6.33-8.78,9.49l1.16-.23c-4.9-2.59-9.68-5.44-14.3-8.5-3.29-2.19-6.59-4.5-9.4-7.29-3.39-3.37-6.3-7.24-9.03-11.15-1.67-2.4-3.3-4.85-4.79-7.37l-.09.42c3.1-2.95,6.2-5.9,9.29-8.85l-1.26.16c2.54,4.49,5.66,8.73,9.03,12.62,6.08,7.01,13.88,12.06,21.61,17.07,2.17,1.4,4.35,2.79,6.56,4.12.43.26,1.75-.36,1.15-.72-5.79-3.47-11.42-7.24-16.91-11.16-3.78-2.7-7.24-5.6-10.34-9.07-2.43-2.72-4.66-5.63-6.72-8.65-1.06-1.56-2.11-3.15-3.04-4.79-.21-.37-1.05-.04-1.26.16-3.1,2.95-6.2,5.9-9.29,8.85-.14.13-.18.26-.09.42,3.67,6.2,7.91,12.28,12.86,17.53,5.36,5.68,12.41,9.83,19.11,13.72,1.9,1.1,3.81,2.19,5.75,3.22.32.17.92.03,1.16-.23,2.93-3.16,5.86-6.33,8.78-9.49.58-.63-.82-.64-1.17-.27Z"/>
    </g>
    <path class="cls-32" d="M870.11,446.71s17.91-59.92-32.23-75.15c0,0-21.57-11.25-48.16-1.96,0,0,10.66-10.17,24.08-12.49,0,0,42.28-2.32,62.06,30.46,19.77,32.78-1.52,62.8-1.52,62.8l-4.22-3.67Z"/>
    <path class="cls-36" d="M522.54,619.14c-.05.02-.11.04-.17.04,0-.14,0-.29.01-.43.05.13.11.26.16.39Z"/>
    <line class="cls-6" x1="981.32" y1="703" x2="918.59" y2="1059.36"/>
    <line class="cls-6" x1="913.81" y1="712.89" x2="978.89" y2="1022.51"/>
    <line class="cls-6" x1="1011.38" y1="776.29" x2="875.31" y2="1012.38"/>
    <line class="cls-6" x1="1021.91" y1="874.59" x2="871.05" y2="884.77"/>
    <line class="cls-6" x1="1021.91" y1="833.54" x2="867.07" y2="934.28"/>
    <line class="cls-6" x1="1013.81" y1="942.23" x2="871.05" y2="808.03"/>
    <g>
      <g>
        <g>
          <path class="cls-13" d="M1016.91,752.06c-13.9-39.62-35.96-62.29-62.12-63.84-26.08-1.58-51.27,18.31-70.72,55.95-17.8,34.45-29.57,80.73-33.13,130.31-3.56,49.58,1.48,96.85,14.21,133.12,13.9,39.62,35.96,62.29,62.12,63.84.95.06,1.9.08,2.85.08,25.13,0,49.13-19.77,67.87-56.03,17.8-34.45,29.57-80.73,33.13-130.31,3.56-49.58-1.48-96.85-14.21-133.12h0ZM1006.83,883.74c-3.37,46.88-14.33,90.33-30.87,122.34-14.46,27.99-32.04,44.18-47.1,43.27-15.03-.89-30.18-19.02-40.51-48.48-11.82-33.69-16.47-78.07-13.11-124.95,3.37-46.88,14.33-90.33,30.87-122.34,14.08-27.25,31.15-43.31,45.91-43.31.4,0,.8,0,1.19.03,15.03.89,30.18,19.02,40.51,48.48,11.82,33.69,16.47,78.07,13.11,124.95h0Z"/>
          <path class="cls-2" d="M1016.91,752.06c-13.9-39.62-35.96-62.29-62.12-63.84-26.08-1.58-51.27,18.31-70.72,55.95-17.8,34.45-29.57,80.73-33.13,130.31-3.56,49.58,1.48,96.85,14.21,133.12,13.9,39.62,35.96,62.29,62.12,63.84.95.06,1.9.08,2.85.08,25.13,0,49.13-19.77,67.87-56.03,17.8-34.45,29.57-80.73,33.13-130.31,3.56-49.58-1.48-96.85-14.21-133.12h0ZM1006.83,883.74c-3.37,46.88-14.33,90.33-30.87,122.34-14.46,27.99-32.04,44.18-47.1,43.27-15.03-.89-30.18-19.02-40.51-48.48-11.82-33.69-16.47-78.07-13.11-124.95,3.37-46.88,14.33-90.33,30.87-122.34,14.08-27.25,31.15-43.31,45.91-43.31.4,0,.8,0,1.19.03,15.03.89,30.18,19.02,40.51,48.48,11.82,33.69,16.47,78.07,13.11,124.95h0Z"/>
        </g>
        <path class="cls-2" d="M952.02,710.27c-14.77,0-31.83,16.05-45.91,43.31-16.54,32.01-27.51,75.46-30.87,122.34-3.37,46.88,1.29,91.26,13.11,124.95,10.34,29.46,25.48,47.59,40.51,48.48,15.06.91,32.64-15.28,47.1-43.27,16.54-32.01,27.51-75.46,30.87-122.34,3.37-46.88-1.29-91.26-13.11-124.95-10.34-29.46-25.48-47.59-40.51-48.48-.4-.02-.79-.03-1.19-.03h0Z"/>
      </g>
      <path class="cls-37" d="M958.9,1049.7c-.7,0-1.41-.02-2.11-.06-41.63-2.47-69-77.47-62.31-170.73,3.15-43.89,13.52-84.77,29.2-115.11,16.23-31.4,36.49-47.98,57-46.8,41.63,2.47,69,77.47,62.31,170.73h0c-3.15,43.89-13.52,84.77-29.2,115.11-15.67,30.32-35.09,46.86-54.89,46.86h0ZM978.64,724.33c-16.29,0-33.55,15.41-47.61,42.62-15.26,29.52-25.36,69.46-28.45,112.45-6.19,86.16,18.88,160.75,54.74,162.88,16.69,1.04,34.63-14.52,49.13-42.57,15.26-29.52,25.36-69.46,28.45-112.45,6.19-86.16-18.88-160.75-54.74-162.88-.5-.03-1.01-.05-1.52-.05h0Z"/>
      <path class="cls-28" d="M950.64,840.83c-9.83-.58-19.13,17.41-20.76,40.18-1.64,22.78,5.01,41.71,14.84,42.3,9.83.58,19.13-17.41,20.76-40.18,1.64-22.78-5.01-41.71-14.84-42.3Z"/>
    </g>
    <g>
      <path class="cls-45" d="M745.21,809.35s-26.83,10.92-52.14,11.18c-25.3.27-22.49-17.18-37.55-17.1-15.06.08-9.04,14.27-33.6,8.55-24.56-5.72-23.72-13.84-23.72-13.84l2.94-19.69s5.49,12.53,19.27,16.28c13.78,3.76,19.79-13.9,39.33-9.71,19.54,4.2,12.37,17.47,36.5,17.72,24.13.25,48.96-9.77,48.96-9.77v16.36"/>
      <path class="cls-32" d="M744.94,809.1c-4.48,1.82-9.12,3.3-13.75,4.67-10.18,3.01-20.66,5.29-31.26,6.1-8.42.65-17.45.6-24.61-4.49-4.12-2.93-6.96-7.37-11.23-10.07-4.38-2.77-10.45-2.98-15.17-.93-3.9,1.7-6.27,5.48-10.07,7.31-2.78,1.34-5.99,1.43-9.02,1.18-5.28-.44-10.55-1.83-15.56-3.51-3.55-1.18-7.11-2.61-10.22-4.71-1.6-1.08-3.19-2.39-4.22-4.05-1.06-1.7-.88-2.65-.61-4.46.82-5.49,1.64-10.98,2.46-16.47.07-.44.13-.88.2-1.32l-1.45.3c1.16,2.62,2.97,5.06,4.85,7.2,4.04,4.55,9.47,8.12,15.46,9.44,10.05,2.21,17.4-6.9,26.31-9.57,6.09-1.83,12.88-.9,18.61,1.74,4.02,1.85,6.83,4.89,9.81,8.05,3.02,3.21,6.46,5.47,10.78,6.55,7.49,1.87,15.7,1.18,23.28.26,12.02-1.47,24.05-4.49,35.36-8.85.2-.08.39-.15.59-.23l-1-.05c0,5.45,0,10.9,0,16.36,0,.36,1.45.12,1.45-.39,0-5.45,0-10.9,0-16.36,0-.33-.9-.09-1-.05-9.37,3.78-19.42,6.34-29.37,8.02-8.14,1.37-16.79,2.35-25.02,1.22-4.82-.66-9.09-2.42-12.58-5.84-2.85-2.79-5.25-5.92-8.7-8.04-4.83-2.96-10.98-4.4-16.61-4.04-5.19.33-9.88,2.35-14.31,4.97-3.86,2.28-7.79,5.25-12.37,5.78-5.88.69-12.11-2.84-16.38-6.57-3-2.62-5.63-5.84-7.44-9.41-.1-.19-.2-.39-.28-.58-.18-.4-1.39-.09-1.45.3-.73,4.86-1.45,9.72-2.18,14.58-.25,1.67-.67,3.41-.76,5.1-.03.47.07.94.23,1.38,1.32,3.86,5.76,6.29,9.18,7.92,4.34,2.07,8.99,3.44,13.65,4.56,4.29,1.04,8.77,1.88,13.2,1.5,2.61-.23,5.16-.96,7.37-2.38,1.72-1.1,3.15-2.56,4.68-3.9,1.73-1.51,3.62-2.69,5.89-3.19,2.88-.63,6.09-.51,8.85.58,4.72,1.87,7.67,6.39,11.4,9.6,5.74,4.94,12.99,6.58,20.43,6.56,10.94-.03,21.88-1.99,32.45-4.71,6.66-1.71,13.27-3.75,19.69-6.22.32-.12.65-.25.97-.38.94-.38.07-.74-.54-.49h0Z"/>
    </g>
    <path class="cls-17" d="M785.18,453.35c5.9,2.42,16.42,5.61,16.42,5.61,0,0-8.2,13.48-21.88,7.87-13.68-5.61-6.99-18.65-6.99-18.65,0,0,6.55,2.75,12.45,5.17Z"/>
    <path class="cls-56" d="M785.12,453.33c2.81,1.15,13.34,5.4,13.34,5.4,0,0-6.24,6.98-16.38,2.82-11-4.51-7.64-12.24-7.64-12.24l10.68,4.02Z"/>
    <path class="cls-20" d="M784.83,453.71c2.81,1.15,11.54,4.17,11.54,4.17,0,0-4.35,1.87-12.77-1.59-8.42-3.45-9.84-7.58-9.84-7.58l11.07,5Z"/>
    <path class="cls-17" d="M771.63,446.95c.32.04.89.53,2.27.84,2.48.55,3.89.13,5.58.67,2.88.92,4.18,2.8,5.39,3.3,1.21.5,3.46.07,6.16,1.44,1.58.8,3.87,2.4,6.04,3.52,1.3.68,4.82,1.49,5.08,1.69.36.27-1.89,3.01-17.14-3.24-15.25-6.25-13.82-8.28-13.38-8.21Z"/>
    <path class="cls-32" d="M835.66,605.73c2.26.68,4.59,1.06,6.95.94,1.67-.09,3.28-.47,4.92-.74,1.43-.23,2.7-.33,4.08-.82,1.5-.53,3.08-1.39,4.66-1.62.77-.11,1.14-1.13.15-.98-1.49.21-2.92.9-4.32,1.42-.74.28-1.48.57-2.25.76-.59.14-1.2.13-1.79.21-1.52.21-3.01.6-4.55.74-2.39.23-4.72-.13-7.01-.82-.57-.17-1.71.66-.85.92h0Z"/>
    <g>
      <path class="cls-32" d="M855.12,631.07c-.76-7.59-1.05-15.38.54-22.89.34-1.61.77-3.2,1.3-4.75.32-.95.42-1.36,1.32-1.86.78-.44,1.55-.9,2.3-1.38,3.16-2.02,6.07-4.48,8.55-7.31,2.2-2.52,3.86-5.39,5.59-8.24s3.41-5.67,4.95-8.6c3.61-6.85,6.32-14.17,7.72-21.8,1.51-8.24,1.33-16.73-.79-24.85-.18-.69-1.63-.31-1.45.39,3.96,15.12.78,30.98-6.18,44.73-1.51,2.98-3.19,5.88-4.91,8.74s-3.43,5.93-5.62,8.56c-2.46,2.95-5.42,5.49-8.64,7.57-.82.53-1.66,1.03-2.52,1.5-.78.42-1.04.56-1.35,1.39-.54,1.46-.99,2.95-1.36,4.46-2.01,8.07-1.7,16.52-.87,24.73.07.69,1.52.33,1.45-.39h0Z"/>
      <path class="cls-32" d="M860.59,666.43c-.91-6.08-1.99-12.13-2.92-18.2-.11-.69-1.56-.33-1.45.39.93,6.07,2.01,12.13,2.92,18.2.1.69,1.56.33,1.45-.39h0Z"/>
      <path class="cls-32" d="M771.29,490.52c-4.98.43-9.95,1.28-14.88,2.09-5.66.93-11.31,1.92-16.92,3.11-13.02,2.76-24.47,10.47-33.79,19.78-5.62,5.61-10.55,11.99-14.3,19.01-1.37,2.57-2.93,5.38-3.54,8.26-.44,2.06-.47,4.22-.47,6.31,0,5.77.53,11.56,1.32,17.27.64,4.67,1.32,9.43,3.43,13.69,2.77,5.57,6.82,10.6,12.16,13.88,1.67,1.03,3.46,1.89,5.32,2.52,1.03.35,2.24.8,3.34.85.16,0,.32.05.48.06l-.49-.5c-1.55,15.73-2.98,31.5-3.86,47.28-.13,2.36-.06,4.8-.32,7.15-.1.95-.42,1.92-.64,2.86-.45,1.97-.89,3.95-1.32,5.92l.6-.57c-17.04,5.68-34.24,11.31-51.77,15.31-3.86.88-7.72,1.58-11.44,2.98-3.18,1.19-6.21,2.77-8.96,4.76-4.91,3.56-8.63,8.38-11.53,13.67-4.64,8.46-7.8,17.46-10.23,26.75-2.93,11.19-5.37,22.51-7.73,33.83-.97,4.67-1.92,9.35-2.84,14.03-.48,2.41-1.2,4.91-1.43,7.35-.01.11-.04.23-.06.34-.14.74,1.34.58,1.47-.1,1.94-10.25,4.03-20.47,6.24-30.67,1.71-7.9,3.49-15.79,5.5-23.62,1.5-5.81,3.12-11.54,5.48-17.06,3.26-7.61,6.72-15.4,12.88-21.16,3.58-3.34,7.87-5.82,12.48-7.44,5.33-1.87,11.03-2.69,16.5-4.09,12.65-3.23,25.13-7.12,37.55-11.15,2.61-.85,5.26-1.62,7.83-2.58,1.14-.42,1.04-1.12,1.3-2.28.33-1.51.67-3.01,1.01-4.51.37-1.6.6-2.97.66-4.6.08-1.96.18-3.92.29-5.88.87-15.23,2.25-30.45,3.72-45.63.03-.33.06-.66.1-.99.03-.27-.24-.47-.49-.5-2.06-.18-4.14-.97-5.99-1.84-4.97-2.32-9.05-6.24-12.05-10.8-1.55-2.36-3.01-4.92-3.81-7.64-.61-2.08-1.01-4.23-1.37-6.36-.95-5.63-1.55-11.34-1.78-17.04-.1-2.42-.14-4.85.05-7.26.17-2.21.72-4.02,1.6-6.06,3.07-7.09,7.49-13.56,12.6-19.33s11.3-11.19,17.99-15.42c4.99-3.16,10.43-5.87,16.2-7.22s11.54-2.33,17.34-3.31c5.45-.92,10.94-1.88,16.44-2.35.83-.07,1.1-1.19.12-1.1h0Z"/>
    </g>
  </g>
  <g id="Layer_2" data-name="Layer 2">
    <path class="cls-44" d="M678.78,594.84c1.93-7.62,1.22-15.91-.7-23.47-.96-3.76-2.23-7.37-4.02-10.78-.75-1.42,2.1,2.5,1.28,1.35-.23.1-4.31-2.73-8.43-5.67-5.98-4.25-12.43-7.81-19.2-10.62l-64.57-26.76-13.7,14.77s72.75,66.45,100.78,68.95c1.73.15,4.9-4.5,7.63-4.81.36-.96.68-1.95.94-2.97Z"/>
    <path class="cls-24" d="M584.88,520.46l-8.9,13.7-1.9,13.77s33.26,21.16,41.02,22.01c7.76.85,25.69,5.08,25.69,5.08-1.41,1.96-2.1,4.34-1.94,6.75.38,2.75,1.86,5.23,4.12,6.86l10.5-10.13c.95,5.98,6.81,2.95,6.81,2.95l8.03-9.18c.84,7.46,8.54,3.71,8.54,3.71l6.53-13.91c1.3,2.8,3.13,5.32,5.4,7.42,3.03,2.34,5.44-3.21,5.44-3.21l-7.7-25.66-32.13-17.95-58.23,1.06-11.28-3.25Z"/>
    <path class="cls-22" d="M683.61,562.68c-.21-.2.39-2.36.46-2.72.32-1.85.63-3.72.82-5.6.2-2.02-.35-3.26-1.64-4.77s-2.69-2.95-4.17-4.28c-3.01-2.73-6.32-5.13-9.56-7.57-3.08-2.32-6.11-4.2-9.95-4.96-.45-.09-1.7.61-.89.78,4.09.82,7.17,3,10.44,5.46s6.38,4.74,9.27,7.46c1.4,1.32,2.71,2.72,3.94,4.19,1.53,1.82,1.15,3.71.85,5.91-.23,1.65-.51,3.28-.8,4.92-.06.34-.43,1.44-.11,1.75.36.35,1.73-.2,1.35-.56h0Z"/>
    <path class="cls-22" d="M669.22,572.65c.18-1.02.8-1.92,1.33-2.79.76-1.26,1.36-2.54,1.7-3.98.37-1.55.42-3.13.28-4.72-.13-1.41-.09-3.27-.97-4.44s-2.17-2.04-3.38-2.91c-1.39-.99-2.8-1.94-4.23-2.87-2.41-1.57-4.87-3.06-7.16-4.81-.49-.37-1.77.32-1.12.82,2.11,1.61,4.38,3,6.6,4.44,1.28.83,2.56,1.67,3.81,2.54,1.33.92,2.86,1.81,3.88,3.08s.97,3.02,1.12,4.52c.16,1.64.03,3.3-.41,4.9-.62,2.26-2.51,4.02-2.92,6.32-.13.7,1.35.51,1.47-.12h0Z"/>
    <path class="cls-22" d="M671.49,570c-.15-.21.74-1.27.85-1.43.7-1.04,1.41-2.14,1.91-3.29.91-2.1.87-4.48-.64-6.29-1.51-1.81-4.31-2.69-6.54-3.17-1.12-.24-2.22-.55-3.33-.83-1.61-.41-3.2-.96-4.82-1.34-.31-.07-.74.03-1.01.18-.12.06-.5.3-.18.38,2.56.6,5.07,1.46,7.63,2.06,2.1.49,4.41,1.08,6.13,2.47,2,1.61,2.34,4.23,1.44,6.54-.5,1.28-1.31,2.49-2.08,3.63-.14.21-1.03,1.19-.81,1.48.26.35,1.56-.23,1.45-.39h0Z"/>
    <path class="cls-22" d="M661.64,568.86c-.27,1.07,3.23,2.3,3.83,2.57,3.33,1.52,6.75,2.83,10.18,4.09,3.69,1.35,7.6.37,11.2-.92,1.7-.61,3.38-1.37,4.87-2.4.41-.28,1.55-.95,1.39-1.59s-1.61-.23-1.45.39c-.03-.12-.58.41-.76.54-.54.39-1.12.72-1.71,1.02-1.53.79-3.15,1.4-4.81,1.84s-3.32.88-4.98.87c-1.78-.01-3.5-.88-5.14-1.5-2.63-.99-5.25-2.02-7.8-3.19-.38-.17-3.44-1.5-3.35-1.85.16-.64-1.31-.45-1.46.14h0Z"/>
    <path class="cls-44" d="M775.2,636.13c1.93-7.62,1.22-15.91-.7-23.47-.96-3.76-2.23-7.37-4.02-10.78-.75-1.42,2.1,2.5,1.28,1.35-.23.1-4.31-2.73-8.43-5.67-5.98-4.25-12.43-7.81-19.2-10.62l-64.57-26.76-13.7,14.77s72.75,66.45,100.78,68.95c1.73.15,4.9-4.5,7.63-4.81.36-.96.68-1.95.94-2.97Z"/>
    <path class="cls-22" d="M765.57,599.28c1.79,2.69,3.01,5.38,3.01,8.67s-.96,6.33-1.89,9.37c-.14.45,1.3.25,1.44-.2.95-3.11,1.9-6.27,1.9-9.56,0-3.35-1.29-6.09-3.11-8.82-.24-.36-1.65.1-1.35.55h0Z"/>
    <path class="cls-51" d="M433.48,264.56c5.55,1.03,8.76,6.15,10.68,11.04,2.09,5.33,3.08,11.06,3.76,16.72,1.08,8.98.67,18.16.25,27.17-.6,12.68-1.65,25.33-2.76,37.98-1.22,13.88-2.55,27.74-3.8,41.62-1.15,12.8-2.26,25.6-2.97,38.43-.08,1.38-.15,2.76-.21,4.14-.03.66,1.43.4,1.46-.15.6-12.71,1.67-25.39,2.78-38.06,1.24-14.05,2.59-28.09,3.85-42.14,1.16-13.02,2.27-26.06,2.97-39.11.5-9.4.99-18.95.1-28.34-.51-5.39-1.4-10.84-3.04-16.01-1.55-4.89-4.02-10.35-8.74-12.93-1.08-.59-2.24-.99-3.45-1.21-.53-.1-1.71.71-.87.87h0Z"/>
    <g>
      <path class="cls-55" d="M440.3,441.98l152.64,82.49-2.77,18.76c-3.5,14.62-12.79,29.06-12.79,29.06,0,0-30.58-11.71-61.02-23.64-27.73-10.87-21.34-7.9-48.68-16.88-17.86-5.87-35.39-14.03-53.29-19.62-12.92-4.03-49.97-14.67-55.4-48.65l-1.1-32.57"/>
      <path class="cls-51" d="M439.72,442.31c1.96,1.06,3.92,2.12,5.88,3.18,5.21,2.81,10.42,5.63,15.63,8.44,7.42,4.01,14.84,8.02,22.26,12.03,8.66,4.68,17.31,9.36,25.97,14.03,8.93,4.83,17.87,9.66,26.8,14.48,8.18,4.42,16.35,8.84,24.53,13.25,6.39,3.45,12.78,6.91,19.17,10.36,3.66,1.98,7.31,3.95,10.97,5.93.36.19.72.42,1.09.59.44.2.19.22.2,0-.3,3.69-1.09,7.4-1.64,11.06-.31,2.09-.62,4.18-.93,6.27s-.91,4.17-1.56,6.21c-2.32,7.28-5.63,14.26-9.43,20.87-.63,1.1-1.27,2.19-1.96,3.26l1.25-.34c-19.91-7.62-39.78-15.32-59.63-23.09-8.8-3.45-17.59-7-26.59-9.93-9.47-3.08-19.03-5.88-28.43-9.18-14.59-5.12-28.74-11.38-43.39-16.33-6.88-2.32-13.86-4.27-20.58-7.05-16.68-6.89-32.49-18.38-38.06-36.32-.86-2.76-1.53-5.55-1.63-8.44-.1-3.07-.21-6.14-.31-9.21-.23-6.78-.46-13.55-.69-20.33-.02-.45-.03-.9-.05-1.35-.01-.39-1.47-.12-1.45.39.18,5.43.37,10.86.55,16.29l.37,11.01c.06,1.75.01,3.53.18,5.27.23,2.47,1,5.02,1.77,7.37s1.72,4.66,2.86,6.87c2.16,4.21,4.95,8.07,8.2,11.5,6.05,6.4,13.56,11.28,21.46,15.09,6.22,3,12.73,5.3,19.31,7.35,13.28,4.14,26.13,9.42,39.1,14.4,11.52,4.43,23.25,8.17,35.02,11.86,7.21,2.26,14.29,4.82,21.34,7.55,22.74,8.78,45.42,17.71,68.18,26.44.44.17.87.33,1.31.5.34.13,1.04,0,1.25-.34,4.21-6.55,7.69-13.74,10.36-21.04,1.21-3.29,2.26-6.62,2.77-10.09.47-3.2.95-6.4,1.42-9.6.35-2.39.71-4.78,1.06-7.18.02-.12-.04-.17-.14-.22-1.35-.73-2.71-1.46-4.06-2.2-3.71-2-7.42-4.01-11.13-6.01-5.46-2.95-10.92-5.9-16.39-8.85-6.7-3.62-13.4-7.24-20.09-10.86-7.3-3.95-14.6-7.89-21.9-11.84-7.41-4-14.81-8-22.22-12.01-6.87-3.71-13.74-7.43-20.62-11.14-5.81-3.14-11.62-6.28-17.43-9.42-4.2-2.27-8.4-4.54-12.6-6.81-1.97-1.06-3.91-2.28-5.94-3.21-.09-.04-.17-.09-.26-.14-.37-.2-1.71.36-1.17.65h0Z"/>
    </g>
    <path class="cls-51" d="M438.48,440.34c-1.88-.02-3.73-.38-5.6-.47-1.69-.08-3.33.17-4.95.64-3.19.93-6.36,2.13-9.29,3.7-3.03,1.61-5.72,3.75-8.33,5.96-1.29,1.09-2.6,2.17-3.56,3.57-1.04,1.52-1.9,3.2-2.83,4.79-.32.55,1.12.38,1.34,0,.82-1.41,1.61-2.84,2.47-4.23.9-1.45,2.09-2.55,3.39-3.65,2.41-2.05,4.87-4.07,7.63-5.64s5.85-2.76,8.92-3.71c1.8-.56,3.53-.78,5.41-.61,1.61.14,3.21.4,4.83.42.51,0,1.55-.76.58-.77h0Z"/>
    <path class="cls-44" d="M698.01,571.95l-8.57,10.61-8.56,1.63s-18.19,2.65-22.7-.65-16.03-9.7-16.03-9.7c-.2,1.72-.99,3.31-2.23,4.5-1.53,1.28-3.51,1.87-5.49,1.64l-.67-10.42c-3.39,2.71-5.02-1.72-5.02-1.72l.18-8.73c-4.04,3.54-6.3-2.16-6.3-2.16l3.25-10.51c-2.04.86-4.22,1.3-6.43,1.32-2.73-.22-1.33-4.32-1.33-4.32l16.45-9.86,25.64,6,30.28,28.63,7.53,3.72Z"/>
    <path class="cls-22" d="M693.47,564.85c-1.47-.61-2.93-1.22-4.4-1.82s-3.26-1.07-4.62-1.91c.2.13-.19-.21-.26-.27-.35-.34-.7-.67-1.06-1-1.17-1.11-2.34-2.22-3.51-3.32-5.95-5.63-11.9-11.25-17.85-16.88-.37-.35-.71-.77-1.18-.96-.86-.35-1.91-.45-2.81-.66-4.2-.98-8.41-1.97-12.61-2.95-3.28-.77-6.55-1.66-9.86-2.3-.71-.14-1.19.09-1.79.45l-4.33,2.6c-3.56,2.13-7.12,4.27-10.69,6.4-.9.54-1.2.77-1.39,1.87-.14.83-.22,1.82.23,2.58.65,1.1,1.97.99,3.08.91,1.97-.15,3.89-.64,5.72-1.38l-1-.18c-.47,1.51-.94,3.03-1.41,4.54-.57,1.85-1.35,3.74-1.75,5.64-.21.99.76,2.1,1.43,2.77,1.82,1.81,4.25,1.23,6.07-.28h-1.3c-.03,1.24-.05,2.49-.08,3.74-.03,1.56-.25,3.24-.1,4.8.08.86.71,1.74,1.36,2.3,1.53,1.32,3.5.7,4.96-.39l-1.3.09c.22,3.47.44,6.95.67,10.42,0,.11.2.18.28.18,4.34.38,8.26-2.16,8.89-6.62l-1.3.44c3.56,1.98,7.1,4.03,10.58,6.15,1.21.74,2.41,1.49,3.59,2.27.85.56,1.65,1.25,2.56,1.69,2.34,1.15,5.26,1.22,7.81,1.27,3.54.08,7.09-.17,10.61-.52l-.57-.1c5.5,4.76,11.07,9.45,16.7,14.07.38.31,1.72-.25,1.35-.56-4.39-3.6-8.75-7.25-13.06-10.94-.89-.76-1.77-1.52-2.66-2.29s-1.03-.99-2.11-.89c-2.16.21-4.32.36-6.48.42-3.5.1-8.16.44-11.21-1.63s-6.01-3.9-9.11-5.72c-2.27-1.33-4.55-2.64-6.84-3.92-.3-.17-1.24.02-1.3.44-.2,1.41-.71,2.73-1.64,3.82-.64.76-1.51,1.29-2.45,1.59-.4.13-.81.22-1.23.26-.06,0-1.03.08-.96.16-.11-.11-.05-.75-.06-.9-.04-.67-.09-1.34-.13-2.01-.16-2.5-.32-5-.48-7.5-.03-.48-1.13-.04-1.3.09-1.59,1.19-2.83,0-3.57-1.46-.24-.47-.14-1.12-.12-1.86.05-2.37.1-4.75.15-7.12.01-.57-1.07-.19-1.3,0-1.13.94-2.19,1.13-3.34.14-.58-.5-1.03-1.14-1.39-1.81-.2-.38-.25-.45-.22-.65.06-.51.33-1.07.48-1.56.91-2.92,1.81-5.85,2.72-8.77.14-.45-.85-.24-1-.18-1.1.45-2.24.8-3.42.99-.96.16-2.5.59-3.25-.21-.69-.74-.47-2.08-.27-2.96.11-.48.39-.7-.1-.36.07-.05.17-.11.25-.15.49-.23.96-.58,1.43-.86,3.81-2.29,7.63-4.57,11.44-6.86,1.11-.66,2.22-1.33,3.32-1.99l-.89.18c4.39,1.03,8.79,2.06,13.18,3.08,2.92.68,5.84,1.37,8.77,2.05l2.83.66c.23.05.45.11.68.16.33.08,0-.02,0-.03,1.06.87,2.02,1.91,3.01,2.85,2.12,2.01,4.24,4.01,6.36,6.02,4.22,4,8.45,7.99,12.67,11.99.97.92,1.58,1.52,2.81,2.03,2.63,1.09,5.27,2.18,7.9,3.28.41.17,1.73-.44,1.16-.68h0Z"/>
    <path class="cls-22" d="M625.57,547.53c1.15-.17,1.7-1.72,2.25-2.56.68-1.06,1.36-2.15,2.15-3.13,1.1-1.37,3.59-1.24,5.21-1.29,2.88-.07,5.75.23,8.61.5s5.65.61,8.26,2.16c.4.24,1.74-.35,1.15-.69-2.5-1.49-5.09-1.92-7.94-2.19-3.24-.31-6.49-.68-9.75-.58-2.3.07-5.19-.03-6.78,1.91-.87,1.07-1.62,2.27-2.37,3.44-.27.42-.53.84-.79,1.25-.08.12-.27.34-.31.48-.13.39-.7.09.5-.09-.69.1-1.21.93-.2.79h0Z"/>
    <path class="cls-22" d="M629.3,559.34c.88-1.4.74-3.23,1.48-4.71.47-.92,1.08-1.75,1.83-2.46.69-.66,1.61-1.75,2.59-1.89,1.07-.15,2.23.1,3.29.24s2.18.32,3.27.5c1.89.31,3.78.67,5.69.84.69.06,1.49-.93.51-1.02-2.19-.2-4.36-.63-6.53-.98-1.23-.2-2.46-.35-3.7-.51-1.06-.13-2.33-.3-3.36.09-.95.36-1.77,1.23-2.5,1.9-.77.7-1.45,1.46-2.01,2.34-.62.98-1.01,2.05-1.25,3.18-.17.79-.25,1.63-.69,2.33-.42.66,1.06.66,1.38.15h0Z"/>
    <path class="cls-22" d="M634.28,569.92c.57-.23.56-.46.57-1.02.01-1.03,0-2.09.18-3.11s.68-2.21,1.6-2.83c1-.68,2.32-.33,3.41-.05,1.25.32,2.48.87,3.7,1.32s2.44.79,3.63,1.25c.32.12,1.62-.4,1.19-.56-1.32-.51-2.69-.91-4.02-1.4-1.6-.59-3.16-1.25-4.87-1.47-2.01-.26-4.31.33-5.4,2.18-.61,1.03-.74,2.16-.82,3.33-.04.53-.04,1.06-.04,1.59,0,.19.06.56-.06.72l.46-.29h-.03c-.15.07-.57.21-.43.43.12.18.81-.03.93-.08h0Z"/>
  </g>
</svg>