<?xml version="1.0" encoding="UTF-8"?>
<svg xmlns="http://www.w3.org/2000/svg" xmlns:xlink="http://www.w3.org/1999/xlink" viewBox="0 0 1334 1000">
  <defs>
    <style>
      .cls-1 {
        fill: #4f2f25;
      }

      .cls-2 {
        fill: #8f8f8f;
      }

      .cls-3 {
        fill: #a5765f;
      }

      .cls-4 {
        fill: #151312;
      }

      .cls-5 {
        fill: #755545;
      }

      .cls-6 {
        fill: #30231b;
      }

      .cls-7 {
        fill: #010101;
      }

      .cls-8 {
        stroke: #a29575;
      }

      .cls-8, .cls-9, .cls-10, .cls-11, .cls-12 {
        fill: none;
        stroke-miterlimit: 10;
      }

      .cls-13 {
        fill: #f1ebd4;
      }

      .cls-14 {
        fill: #030303;
      }

      .cls-15 {
        fill: #7d604e;
      }

      .cls-16 {
        fill: #c3d4df;
      }

      .cls-17 {
        fill: #8e8e8e;
      }

      .cls-18 {
        fill: #bfb79c;
      }

      .cls-9 {
        stroke: #878787;
      }

      .cls-19 {
        fill: #090808;
      }

      .cls-20 {
        fill: url(#linear-gradient);
      }

      .cls-21 {
        fill: #884e3f;
      }

      .cls-22 {
        fill: #392a1a;
      }

      .cls-10 {
        stroke: #4f2f25;
        stroke-width: .37px;
      }

      .cls-23 {
        fill: #2e817e;
      }

      .cls-24 {
        fill: #848281;
      }

      .cls-25 {
        fill: #e7b469;
      }

      .cls-26 {
        fill: #060606;
      }

      .cls-27 {
        fill: #694931;
      }

      .cls-28 {
        fill: #0d0d0d;
      }

      .cls-29 {
        fill: #050505;
      }

      .cls-30 {
        fill: #361f19;
      }

      .cls-31 {
        fill: #020202;
      }

      .cls-32, .cls-33 {
        fill: #b7b7b7;
      }

      .cls-11 {
        stroke: #fff;
        stroke-width: .51px;
      }

      .cls-34 {
        fill: #7d7d7d;
      }

      .cls-35 {
        fill: #fff;
      }

      .cls-36 {
        fill: #e4dd55;
      }

      .cls-37 {
        fill: #9a392f;
      }

      .cls-38 {
        fill: #67442e;
      }

      .cls-39 {
        fill: #e7dcb5;
      }

      .cls-40 {
        fill: #dce6ec;
      }

      .cls-41 {
        fill: #d39f7d;
      }

      .cls-42 {
        fill: #163e3c;
      }

      .cls-43 {
        fill: #9b8d5c;
      }

      .cls-44 {
        fill: #614231;
      }

      .cls-12 {
        stroke: #7d7d7d;
      }

      .cls-33 {
        opacity: .74;
      }

      .cls-45 {
        fill: #f1eef6;
      }

      .cls-46 {
        fill: #794b42;
      }

      .cls-47 {
        fill: #a29575;
      }

      .cls-48 {
        fill: #462d17;
      }

      .cls-49 {
        fill: #e0b694;
      }

      .cls-50 {
        fill: #b69442;
      }

      .cls-51 {
        fill: #787878;
      }
    </style>
    <linearGradient id="linear-gradient" x1="-3410.62" y1="-1238.01" x2="-2399.05" y2="-1238.01" gradientTransform="translate(1996.27 3392.11) rotate(90) scale(1 -1)" gradientUnits="userSpaceOnUse">
      <stop offset=".21" stop-color="#f0ece2"/>
      <stop offset=".61" stop-color="#e6ddcc"/>
      <stop offset=".98" stop-color="#dfd3bd"/>
    </linearGradient>
  </defs>
  <g id="Layer_7" data-name="Layer 7">
    <polyline class="cls-20" points="1540.26 989.72 -23.73 989.72 -23.73 -21.85 1540.26 -21.85"/>
  </g>
  <g id="Layer_1" data-name="Layer 1">
    <polyline class="cls-48" points="1628.57 1365.89 -23.35 1365.89 -23.35 946.06 1628.57 946.06"/>
    <g>
      <rect class="cls-5" x="1064.48" y="674.75" width="287.95" height="42.11" transform="translate(2416.91 1391.61) rotate(-180)"/>
      <rect class="cls-44" x="1064.48" y="674.75" width="119.31" height="42.11" transform="translate(2248.27 1391.61) rotate(-180)"/>
      <polygon class="cls-5" points="1192.21 945.06 1183.91 945.06 1183.91 716.86 1198.77 716.86 1192.21 945.06"/>
      <polygon class="cls-44" points="1183.91 945.06 1175.62 945.06 1169.06 716.86 1183.91 716.86 1183.91 945.06"/>
      <polygon class="cls-44" points="1337.19 945.06 1329.04 945.06 1322.47 716.86 1337.19 716.86 1337.19 945.06"/>
      <polygon class="cls-44" points="1247.06 945.06 1239.06 945.06 1239.06 716.86 1253.62 716.86 1247.06 945.06"/>
      <polygon class="cls-44" points="1239.06 945.06 1231.06 945.06 1224.49 716.86 1239.06 716.86 1239.06 945.06"/>
      <polygon class="cls-5" points="1088.75 945.06 1079.9 945.06 1079.9 716.86 1095.31 716.86 1088.75 945.06"/>
      <polygon class="cls-44" points="1079.9 945.06 1071.05 945.06 1064.48 716.86 1079.9 716.86 1079.9 945.06"/>
      <path class="cls-5" d="M1352.43,674.75s6.11-98.2,15.14-139.27c9.03-41.07,33.85-145.12,33.85-145.12h-22.16s-24,106.41-31.38,142.2c-7.39,35.79-15.23,142.2-15.23,142.2h19.79Z"/>
      <path class="cls-44" d="M1340.42,674.75s5.25-98.2,13.01-139.27c7.76-41.07,33.84-145.12,33.84-145.12h-15.7s-24.7,106.41-31.05,142.2c-6.35,35.79-17.12,142.2-17.12,142.2h17.01Z"/>
      <path class="cls-5" d="M1213.5,674.75s6.11-98.2,15.14-139.27c8.63-39.24,5.74-36.14,37.14-145.12h-25.45s-24,106.41-31.38,142.2c-7.39,35.79-15.23,142.2-15.23,142.2h19.79Z"/>
      <path class="cls-44" d="M1201.49,674.75s5.25-98.2,13.01-139.27c7.76-41.07,33.84-145.12,33.84-145.12h-15.7s-24.7,106.41-31.05,142.2c-6.35,35.79-17.12,142.2-17.12,142.2h17.01Z"/>
      <rect class="cls-44" x="1196.4" y="604.83" width="142.65" height="11.41" transform="translate(2535.45 1221.07) rotate(-180)"/>
    </g>
    <g>
      <rect class="cls-5" x="686.9" y="678.19" width="287.95" height="42.11"/>
      <rect class="cls-44" x="855.54" y="678.19" width="119.31" height="42.11"/>
      <polygon class="cls-5" points="847.12 948.5 855.42 948.5 855.42 720.3 840.56 720.3 847.12 948.5"/>
      <polygon class="cls-44" points="855.42 948.5 863.71 948.5 870.27 720.3 855.42 720.3 855.42 948.5"/>
      <polygon class="cls-5" points="695.29 948.5 702.13 948.5 702.13 720.3 687.41 720.3 695.29 948.5"/>
      <polygon class="cls-44" points="702.13 948.5 710.29 948.5 716.85 720.3 702.13 720.3 702.13 948.5"/>
      <polygon class="cls-44" points="792.27 948.5 800.27 948.5 800.27 720.3 785.71 720.3 792.27 948.5"/>
      <polygon class="cls-44" points="800.27 948.5 808.27 948.5 814.84 720.3 800.27 720.3 800.27 948.5"/>
      <polygon class="cls-5" points="950.58 948.5 959.43 948.5 959.43 720.3 944.02 720.3 950.58 948.5"/>
      <polygon class="cls-44" points="959.43 948.5 968.28 948.5 974.85 720.3 959.43 720.3 959.43 948.5"/>
      <path class="cls-5" d="M686.9,678.19s-6.11-98.2-15.14-139.27c-9.03-41.07-33.85-145.12-33.85-145.12h22.16s24,106.41,31.38,142.2c7.39,35.79,15.23,142.2,15.23,142.2h-19.79Z"/>
      <path class="cls-44" d="M698.91,678.19s-5.25-98.2-13.01-139.27c-7.76-41.07-33.84-145.12-33.84-145.12h15.7s24.7,106.41,31.05,142.2c6.35,35.79,17.12,142.2,17.12,142.2h-17.01Z"/>
      <path class="cls-5" d="M825.83,678.19s-6.11-98.2-15.14-139.27c-8.63-39.24-5.74-36.14-37.14-145.12h25.45s24,106.41,31.38,142.2c7.39,35.79,15.23,142.2,15.23,142.2h-19.79Z"/>
      <path class="cls-44" d="M837.84,678.19s-5.25-98.2-13.01-139.27c-7.76-41.07-33.84-145.12-33.84-145.12h15.7s24.7,106.41,31.05,142.2c6.35,35.79,17.12,142.2,17.12,142.2h-17.01Z"/>
      <path class="cls-44" d="M661.46,412.61h145.23s10.04,41.3,9.9,40.9c-.14-.4-146.38-1.66-146.38-1.66l-8.75-39.24Z"/>
      <path class="cls-44" d="M675.74,476.6h145.23s10.04,41.3,9.9,40.9c-.14-.4-146.38-1.66-146.38-1.66l-8.75-39.24Z"/>
      <rect class="cls-44" x="700.28" y="608.26" width="142.65" height="11.41"/>
    </g>
    <g>
      <polygon class="cls-18" points="-166.23 1249.55 1667.78 1249.55 1594.69 936.18 -93.15 936.18 -166.23 1249.55"/>
      <polygon class="cls-8" points="-141.23 1232.13 1642.04 1232.13 1575.83 946.84 -75.02 946.84 -141.23 1232.13"/>
      <polygon class="cls-8" points="-123.73 1221.53 1625.56 1220.41 1565.24 957.03 -63.41 957.03 -123.73 1221.53"/>
      <path class="cls-47" d="M-105.18,1206.13l1712.65-1-52.9-236.16H-52.28s-52.9,237.16-52.9,237.16ZM1581.43,1185.38l-1659.56.86,43.93-191.55h1571.71s43.93,190.69,43.93,190.69Z"/>
      <path class="cls-11" d="M1332.49,977.49c0,1.97,2.22,8.51,4.96,8.51s4.96-6.55,4.96-8.51-2.22-3.56-4.96-3.56c-2.74,0-4.96,1.59-4.96,3.56Z"/>
      <path class="cls-35" d="M1297.62,978.38c0,1,.9,4.33,2.01,4.33,1.11,0,2.01-3.33,2.01-4.33,0-1-.9-1.81-2.01-1.81s-2.01.81-2.01,1.81Z"/>
      <path class="cls-11" d="M1294.67,977.49c0,1.97,2.22,8.51,4.96,8.51s4.96-6.55,4.96-8.51-2.22-3.56-4.96-3.56-4.96,1.59-4.96,3.56Z"/>
      <path class="cls-11" d="M1301.85,974.28s3.66.82,5.99,5.58c2.34,4.76,6.9,5.4,9.85,5.03,0,0,2.45.03,2.57-2.66.12-2.68-1.31-2.75-1.55-2.61s-1.48.12-1.49,2.72,2.37,2.55,2.37,2.55c2.94.37,7.51-.27,9.85-5.03,2.34-4.76,5.99-5.58,5.99-5.58"/>
      <path class="cls-35" d="M1259.42,978.38c0,1,.9,4.33,2.01,4.33s2.01-3.33,2.01-4.33c0-1-.9-1.81-2.01-1.81s-2.01.81-2.01,1.81Z"/>
      <path class="cls-11" d="M1256.47,977.49c0,1.97,2.22,8.51,4.96,8.51,2.74,0,4.96-6.55,4.96-8.51s-2.22-3.56-4.96-3.56c-2.74,0-4.96,1.59-4.96,3.56Z"/>
      <path class="cls-11" d="M1263.66,974.28s3.66.82,5.99,5.58c2.34,4.76,6.9,5.4,9.85,5.03,0,0,2.45.03,2.57-2.66.12-2.68-1.31-2.75-1.55-2.61s-1.48.12-1.49,2.72c0,2.6,2.37,2.55,2.37,2.55,2.94.37,7.51-.27,9.85-5.03,2.34-4.76,5.99-5.58,5.99-5.58"/>
      <path class="cls-35" d="M1221.6,978.38c0,1,.9,4.33,2.01,4.33s2.01-3.33,2.01-4.33-.9-1.81-2.01-1.81-2.01.81-2.01,1.81Z"/>
      <path class="cls-11" d="M1218.65,977.49c0,1.97,2.22,8.51,4.96,8.51,2.74,0,4.96-6.55,4.96-8.51s-2.22-3.56-4.96-3.56-4.96,1.59-4.96,3.56Z"/>
      <path class="cls-11" d="M1225.84,974.28s3.66.82,5.99,5.58c2.34,4.76,6.9,5.4,9.85,5.03,0,0,2.45.03,2.57-2.66.12-2.68-1.31-2.75-1.55-2.61s-1.48.12-1.49,2.72c0,2.6,2.37,2.55,2.37,2.55,2.94.37,7.51-.27,9.85-5.03,2.34-4.76,5.99-5.58,5.99-5.58"/>
      <path class="cls-11" d="M1297.24,974.28s-3.66.82-5.99,5.58c-2.34,4.76-6.9,5.4-9.85,5.03"/>
      <path class="cls-35" d="M1183.79,978.05c0,1,.9,4.33,2.01,4.33s2.01-3.33,2.01-4.33c0-1-.9-1.81-2.01-1.81s-2.01.81-2.01,1.81Z"/>
      <path class="cls-11" d="M1180.83,977.16c0,1.97,2.22,8.51,4.96,8.51s4.96-6.55,4.96-8.51-2.22-3.56-4.96-3.56c-2.74,0-4.96,1.59-4.96,3.56Z"/>
      <path class="cls-11" d="M1188.02,973.96s3.66.82,5.99,5.58c2.34,4.76,6.9,5.4,9.85,5.03,0,0,2.45.03,2.57-2.66s-1.31-2.75-1.55-2.61-1.48.12-1.49,2.72c0,2.6,2.37,2.55,2.37,2.55,2.94.37,7.51-.27,9.85-5.03,2.34-4.76,5.99-5.58,5.99-5.58"/>
      <path class="cls-35" d="M1145.59,978.05c0,1,.9,4.33,2.01,4.33s2.01-3.33,2.01-4.33c0-1-.9-1.81-2.01-1.81s-2.01.81-2.01,1.81Z"/>
      <path class="cls-11" d="M1142.64,977.16c0,1.97,2.22,8.51,4.96,8.51,2.74,0,4.96-6.55,4.96-8.51s-2.22-3.56-4.96-3.56c-2.74,0-4.96,1.59-4.96,3.56Z"/>
      <path class="cls-11" d="M1149.83,973.96s3.66.82,5.99,5.58c2.34,4.76,6.9,5.4,9.85,5.03,0,0,2.45.03,2.57-2.66s-1.31-2.75-1.55-2.61-1.48.12-1.49,2.72,2.37,2.55,2.37,2.55c2.94.37,7.51-.27,9.85-5.03,2.34-4.76,5.99-5.58,5.99-5.58"/>
      <path class="cls-35" d="M1107.77,978.05c0,1,.9,4.33,2.01,4.33s2.01-3.33,2.01-4.33-.9-1.81-2.01-1.81c-1.11,0-2.01.81-2.01,1.81Z"/>
      <path class="cls-11" d="M1104.82,977.16c0,1.97,2.22,8.51,4.96,8.51,2.74,0,4.96-6.55,4.96-8.51s-2.22-3.56-4.96-3.56c-2.74,0-4.96,1.59-4.96,3.56Z"/>
      <path class="cls-11" d="M1112.01,973.96s3.66.82,5.99,5.58c2.34,4.76,6.9,5.4,9.85,5.03,0,0,2.45.03,2.57-2.66.12-2.68-1.31-2.75-1.55-2.61s-1.48.12-1.49,2.72c0,2.6,2.37,2.55,2.37,2.55,2.94.37,7.51-.27,9.85-5.03,2.34-4.76,5.99-5.58,5.99-5.58"/>
      <path class="cls-11" d="M1183.41,973.96s-3.66.82-5.99,5.58c-2.34,4.76-6.9,5.4-9.85,5.03"/>
      <path class="cls-35" d="M1069.95,978.38c0,1,.9,4.33,2.01,4.33s2.01-3.33,2.01-4.33c0-1-.9-1.81-2.01-1.81s-2.01.81-2.01,1.81Z"/>
      <path class="cls-11" d="M1067,977.49c0,1.97,2.22,8.51,4.96,8.51s4.96-6.55,4.96-8.51-2.22-3.56-4.96-3.56-4.96,1.59-4.96,3.56Z"/>
      <path class="cls-11" d="M1074.19,974.28s3.66.82,5.99,5.58c2.34,4.76,6.9,5.4,9.85,5.03,0,0,2.45.03,2.57-2.66s-1.31-2.75-1.55-2.61-1.48.12-1.49,2.72c0,2.6,2.37,2.55,2.37,2.55,2.94.37,7.51-.27,9.85-5.03,2.34-4.76,5.99-5.58,5.99-5.58"/>
      <path class="cls-35" d="M1031.76,978.38c0,1,.9,4.33,2.01,4.33s2.01-3.33,2.01-4.33c0-1-.9-1.81-2.01-1.81s-2.01.81-2.01,1.81Z"/>
      <path class="cls-11" d="M1028.8,977.49c0,1.97,2.22,8.51,4.96,8.51,2.74,0,4.96-6.55,4.96-8.51s-2.22-3.56-4.96-3.56c-2.74,0-4.96,1.59-4.96,3.56Z"/>
      <path class="cls-11" d="M1035.99,974.28s3.66.82,5.99,5.58c2.34,4.76,6.9,5.4,9.85,5.03,0,0,2.45.03,2.57-2.66.12-2.68-1.31-2.75-1.55-2.61s-1.48.12-1.49,2.72c0,2.6,2.37,2.55,2.37,2.55,2.94.37,7.51-.27,9.85-5.03,2.34-4.76,5.99-5.58,5.99-5.58"/>
      <path class="cls-35" d="M993.94,978.38c0,1,.9,4.33,2.01,4.33s2.01-3.33,2.01-4.33c0-1-.9-1.81-2.01-1.81s-2.01.81-2.01,1.81Z"/>
      <path class="cls-11" d="M990.98,977.49c0,1.97,2.22,8.51,4.96,8.51,2.74,0,4.96-6.55,4.96-8.51s-2.22-3.56-4.96-3.56c-2.74,0-4.96,1.59-4.96,3.56Z"/>
      <path class="cls-11" d="M998.17,974.28s3.66.82,5.99,5.58c2.34,4.76,6.9,5.4,9.85,5.03,0,0,2.45.03,2.57-2.66.12-2.68-1.31-2.75-1.55-2.61s-1.48.12-1.49,2.72c0,2.6,2.37,2.55,2.37,2.55,2.94.37,7.51-.27,9.85-5.03s5.99-5.58,5.99-5.58"/>
      <path class="cls-11" d="M1069.58,974.28s-3.66.82-5.99,5.58c-2.34,4.76-6.9,5.4-9.85,5.03"/>
      <path class="cls-35" d="M956.12,978.38c0,1,.9,4.33,2.01,4.33s2.01-3.33,2.01-4.33-.9-1.81-2.01-1.81-2.01.81-2.01,1.81Z"/>
      <path class="cls-11" d="M953.17,977.49c0,1.97,2.22,8.51,4.96,8.51s4.96-6.55,4.96-8.51-2.22-3.56-4.96-3.56-4.96,1.59-4.96,3.56Z"/>
      <path class="cls-11" d="M960.35,974.28s3.66.82,5.99,5.58c2.34,4.76,6.9,5.4,9.85,5.03,0,0,2.45.03,2.57-2.66s-1.31-2.75-1.55-2.61-1.48.12-1.49,2.72c0,2.6,2.37,2.55,2.37,2.55,2.94.37,7.51-.27,9.85-5.03s5.99-5.58,5.99-5.58"/>
      <path class="cls-35" d="M917.92,978.38c0,1,.9,4.33,2.01,4.33s2.01-3.33,2.01-4.33c0-1-.9-1.81-2.01-1.81s-2.01.81-2.01,1.81Z"/>
      <path class="cls-11" d="M914.97,977.49c0,1.97,2.22,8.51,4.96,8.51,2.74,0,4.96-6.55,4.96-8.51,0-1.97-2.22-3.56-4.96-3.56-2.74,0-4.96,1.59-4.96,3.56Z"/>
      <path class="cls-11" d="M922.16,974.28s3.66.82,5.99,5.58c2.34,4.76,6.9,5.4,9.85,5.03,0,0,2.45.03,2.57-2.66.12-2.68-1.31-2.75-1.55-2.61s-1.48.12-1.49,2.72c0,2.6,2.37,2.55,2.37,2.55,2.94.37,7.51-.27,9.85-5.03,2.34-4.76,5.99-5.58,5.99-5.58"/>
      <path class="cls-35" d="M880.1,978.38c0,1,.9,4.33,2.01,4.33s2.01-3.33,2.01-4.33c0-1-.9-1.81-2.01-1.81s-2.01.81-2.01,1.81Z"/>
      <path class="cls-11" d="M877.15,977.49c0,1.97,2.22,8.51,4.96,8.51,2.74,0,4.96-6.55,4.96-8.51,0-1.97-2.22-3.56-4.96-3.56-2.74,0-4.96,1.59-4.96,3.56Z"/>
      <path class="cls-11" d="M884.34,974.28s3.66.82,5.99,5.58c2.34,4.76,6.9,5.4,9.85,5.03,0,0,2.45.03,2.57-2.66.12-2.68-1.31-2.75-1.55-2.61s-1.48.12-1.49,2.72c0,2.6,2.37,2.55,2.37,2.55,2.94.37,7.51-.27,9.85-5.03,2.34-4.76,5.99-5.58,5.99-5.58"/>
      <path class="cls-11" d="M955.74,974.28s-3.66.82-5.99,5.58c-2.34,4.76-6.9,5.4-9.85,5.03"/>
      <path class="cls-35" d="M880.1,978.54c0,1,.9,4.33,2.01,4.33s2.01-3.33,2.01-4.33c0-1-.9-1.81-2.01-1.81s-2.01.81-2.01,1.81Z"/>
      <path class="cls-11" d="M877.15,977.65c0,1.97,2.22,8.51,4.96,8.51s4.96-6.55,4.96-8.51-2.22-3.56-4.96-3.56c-2.74,0-4.96,1.59-4.96,3.56Z"/>
      <path class="cls-35" d="M841.91,978.54c0,1,.9,4.33,2.01,4.33s2.01-3.33,2.01-4.33c0-1-.9-1.81-2.01-1.81s-2.01.81-2.01,1.81Z"/>
      <path class="cls-11" d="M838.96,977.65c0,1.97,2.22,8.51,4.96,8.51,2.74,0,4.96-6.55,4.96-8.51s-2.22-3.56-4.96-3.56-4.96,1.59-4.96,3.56Z"/>
      <path class="cls-11" d="M846.14,974.45s3.66.82,5.99,5.58c2.34,4.76,6.9,5.4,9.85,5.03,0,0,2.45.03,2.57-2.66.12-2.68-1.31-2.75-1.55-2.61s-1.48.12-1.49,2.72c0,2.6,2.37,2.55,2.37,2.55,2.94.37,7.51-.27,9.85-5.03,2.34-4.76,5.99-5.58,5.99-5.58"/>
      <path class="cls-35" d="M803.71,978.54c0,1,.9,4.33,2.01,4.33s2.01-3.33,2.01-4.33c0-1-.9-1.81-2.01-1.81s-2.01.81-2.01,1.81Z"/>
      <path class="cls-11" d="M800.76,977.65c0,1.97,2.22,8.51,4.96,8.51s4.96-6.55,4.96-8.51-2.22-3.56-4.96-3.56c-2.74,0-4.96,1.59-4.96,3.56Z"/>
      <path class="cls-11" d="M807.95,974.45s3.66.82,5.99,5.58c2.34,4.76,6.9,5.4,9.85,5.03,0,0,2.45.03,2.57-2.66s-1.31-2.75-1.55-2.61-1.48.12-1.49,2.72c0,2.6,2.37,2.55,2.37,2.55,2.94.37,7.51-.27,9.85-5.03,2.34-4.76,5.99-5.58,5.99-5.58"/>
      <path class="cls-35" d="M765.89,978.54c0,1,.9,4.33,2.01,4.33s2.01-3.33,2.01-4.33-.9-1.81-2.01-1.81c-1.11,0-2.01.81-2.01,1.81Z"/>
      <path class="cls-11" d="M762.94,977.65c0,1.97,2.22,8.51,4.96,8.51,2.74,0,4.96-6.55,4.96-8.51s-2.22-3.56-4.96-3.56c-2.74,0-4.96,1.59-4.96,3.56Z"/>
      <path class="cls-11" d="M770.13,974.45s3.66.82,5.99,5.58c2.34,4.76,6.9,5.4,9.85,5.03,0,0,2.45.03,2.57-2.66s-1.31-2.75-1.55-2.61-1.48.12-1.49,2.72c0,2.6,2.37,2.55,2.37,2.55,2.94.37,7.51-.27,9.85-5.03,2.34-4.76,5.99-5.58,5.99-5.58"/>
      <path class="cls-11" d="M841.53,974.45s-3.66.82-5.99,5.58c-2.34,4.76-6.9,5.4-9.85,5.03"/>
      <path class="cls-35" d="M728.08,978.54c0,1,.9,4.33,2.01,4.33,1.11,0,2.01-3.33,2.01-4.33,0-1-.9-1.81-2.01-1.81s-2.01.81-2.01,1.81Z"/>
      <path class="cls-11" d="M725.12,977.65c0,1.97,2.22,8.51,4.96,8.51,2.74,0,4.96-6.55,4.96-8.51,0-1.97-2.22-3.56-4.96-3.56-2.74,0-4.96,1.59-4.96,3.56Z"/>
      <path class="cls-11" d="M732.31,974.45s3.66.82,5.99,5.58c2.34,4.76,6.9,5.4,9.85,5.03,0,0,2.45.03,2.57-2.66.12-2.68-1.31-2.75-1.55-2.61s-1.48.12-1.49,2.72c0,2.6,2.37,2.55,2.37,2.55,2.94.37,7.51-.27,9.85-5.03,2.34-4.76,5.99-5.58,5.99-5.58"/>
      <path class="cls-35" d="M689.88,978.54c0,1,.9,4.33,2.01,4.33s2.01-3.33,2.01-4.33c0-1-.9-1.81-2.01-1.81s-2.01.81-2.01,1.81Z"/>
      <path class="cls-11" d="M686.93,977.65c0,1.97,2.22,8.51,4.96,8.51s4.96-6.55,4.96-8.51c0-1.97-2.22-3.56-4.96-3.56-2.74,0-4.96,1.59-4.96,3.56Z"/>
      <path class="cls-11" d="M694.12,974.45s3.66.82,5.99,5.58c2.34,4.76,6.9,5.4,9.85,5.03,0,0,2.45.03,2.57-2.66.12-2.68-1.31-2.75-1.55-2.61s-1.48.12-1.49,2.72c0,2.6,2.37,2.55,2.37,2.55,2.94.37,7.51-.27,9.85-5.03,2.34-4.76,5.99-5.58,5.99-5.58"/>
      <path class="cls-35" d="M652.06,978.54c0,1,.9,4.33,2.01,4.33s2.01-3.33,2.01-4.33c0-1-.9-1.81-2.01-1.81-1.11,0-2.01.81-2.01,1.81Z"/>
      <path class="cls-11" d="M649.11,977.65c0,1.97,2.22,8.51,4.96,8.51,2.74,0,4.96-6.55,4.96-8.51s-2.22-3.56-4.96-3.56c-2.74,0-4.96,1.59-4.96,3.56Z"/>
      <path class="cls-11" d="M656.3,974.45s3.66.82,5.99,5.58c2.34,4.76,6.9,5.4,9.85,5.03,0,0,2.45.03,2.57-2.66.12-2.68-1.31-2.75-1.55-2.61s-1.48.12-1.49,2.72c0,2.6,2.37,2.55,2.37,2.55,2.94.37,7.51-.27,9.85-5.03,2.34-4.76,5.99-5.58,5.99-5.58"/>
      <path class="cls-11" d="M727.7,974.45s-3.66.82-5.99,5.58c-2.34,4.76-6.9,5.4-9.85,5.03"/>
      <path class="cls-35" d="M614.24,978.54c0,1,.9,4.33,2.01,4.33s2.01-3.33,2.01-4.33c0-1-.9-1.81-2.01-1.81s-2.01.81-2.01,1.81Z"/>
      <path class="cls-11" d="M611.29,977.65c0,1.97,2.22,8.51,4.96,8.51,2.74,0,4.96-6.55,4.96-8.51s-2.22-3.56-4.96-3.56-4.96,1.59-4.96,3.56Z"/>
      <path class="cls-11" d="M618.48,974.45s3.66.82,5.99,5.58c2.34,4.76,6.9,5.4,9.85,5.03,0,0,2.45.03,2.57-2.66.12-2.68-1.31-2.75-1.55-2.61s-1.48.12-1.49,2.72c0,2.6,2.37,2.55,2.37,2.55,2.94.37,7.51-.27,9.85-5.03,2.34-4.76,5.99-5.58,5.99-5.58"/>
      <path class="cls-35" d="M576.05,978.54c0,1,.9,4.33,2.01,4.33s2.01-3.33,2.01-4.33c0-1-.9-1.81-2.01-1.81s-2.01.81-2.01,1.81Z"/>
      <path class="cls-11" d="M573.09,977.65c0,1.97,2.22,8.51,4.96,8.51s4.96-6.55,4.96-8.51-2.22-3.56-4.96-3.56c-2.74,0-4.96,1.59-4.96,3.56Z"/>
      <path class="cls-11" d="M580.28,974.45s3.66.82,5.99,5.58c2.34,4.76,6.9,5.4,9.85,5.03,0,0,2.45.03,2.57-2.66.12-2.68-1.31-2.75-1.55-2.61s-1.48.12-1.49,2.72,2.37,2.55,2.37,2.55c2.94.37,7.51-.27,9.85-5.03s5.99-5.58,5.99-5.58"/>
      <path class="cls-35" d="M538.23,978.54c0,1,.9,4.33,2.01,4.33s2.01-3.33,2.01-4.33c0-1-.9-1.81-2.01-1.81s-2.01.81-2.01,1.81Z"/>
      <path class="cls-11" d="M535.27,977.65c0,1.97,2.22,8.51,4.96,8.51,2.74,0,4.96-6.55,4.96-8.51s-2.22-3.56-4.96-3.56c-2.74,0-4.96,1.59-4.96,3.56Z"/>
      <path class="cls-11" d="M542.46,974.45s3.66.82,5.99,5.58c2.34,4.76,6.9,5.4,9.85,5.03,0,0,2.45.03,2.57-2.66s-1.31-2.75-1.55-2.61-1.48.12-1.49,2.72c0,2.6,2.37,2.55,2.37,2.55,2.94.37,7.51-.27,9.85-5.03,2.34-4.76,5.99-5.58,5.99-5.58"/>
      <path class="cls-11" d="M613.87,974.45s-3.66.82-5.99,5.58-6.9,5.4-9.85,5.03"/>
      <path class="cls-35" d="M500.41,978.21c0,1,.9,4.33,2.01,4.33s2.01-3.33,2.01-4.33c0-1-.9-1.81-2.01-1.81s-2.01.81-2.01,1.81Z"/>
      <path class="cls-11" d="M497.46,977.32c0,1.97,2.22,8.51,4.96,8.51,2.74,0,4.96-6.55,4.96-8.51s-2.22-3.56-4.96-3.56c-2.74,0-4.96,1.59-4.96,3.56Z"/>
      <path class="cls-11" d="M504.64,974.12s3.66.82,5.99,5.58c2.34,4.76,6.9,5.4,9.85,5.03,0,0,2.45.03,2.57-2.66.12-2.68-1.31-2.75-1.55-2.61s-1.48.12-1.49,2.72c0,2.6,2.37,2.55,2.37,2.55,2.94.37,7.51-.27,9.85-5.03,2.34-4.76,5.99-5.58,5.99-5.58"/>
      <path class="cls-35" d="M462.21,978.21c0,1,.9,4.33,2.01,4.33s2.01-3.33,2.01-4.33c0-1-.9-1.81-2.01-1.81s-2.01.81-2.01,1.81Z"/>
      <path class="cls-11" d="M459.26,977.32c0,1.97,2.22,8.51,4.96,8.51,2.74,0,4.96-6.55,4.96-8.51s-2.22-3.56-4.96-3.56-4.96,1.59-4.96,3.56Z"/>
      <path class="cls-11" d="M466.45,974.12s3.66.82,5.99,5.58c2.34,4.76,6.9,5.4,9.85,5.03,0,0,2.45.03,2.57-2.66.12-2.68-1.31-2.75-1.55-2.61s-1.48.12-1.49,2.72c0,2.6,2.37,2.55,2.37,2.55,2.94.37,7.51-.27,9.85-5.03,2.34-4.76,5.99-5.58,5.99-5.58"/>
      <path class="cls-35" d="M424.39,978.21c0,1,.9,4.33,2.01,4.33s2.01-3.33,2.01-4.33c0-1-.9-1.81-2.01-1.81s-2.01.81-2.01,1.81Z"/>
      <path class="cls-11" d="M421.44,977.32c0,1.97,2.22,8.51,4.96,8.51s4.96-6.55,4.96-8.51c0-1.97-2.22-3.56-4.96-3.56-2.74,0-4.96,1.59-4.96,3.56Z"/>
      <path class="cls-11" d="M428.63,974.12s3.66.82,5.99,5.58c2.34,4.76,6.9,5.4,9.85,5.03,0,0,2.45.03,2.57-2.66.12-2.68-1.31-2.75-1.55-2.61s-1.48.12-1.49,2.72c0,2.6,2.37,2.55,2.37,2.55,2.94.37,7.51-.27,9.85-5.03,2.34-4.76,5.99-5.58,5.99-5.58"/>
      <path class="cls-11" d="M500.03,974.12s-3.66.82-5.99,5.58c-2.34,4.76-6.9,5.4-9.85,5.03"/>
      <path class="cls-35" d="M386.57,978.54c0,1,.9,4.33,2.01,4.33s2.01-3.33,2.01-4.33c0-1-.9-1.81-2.01-1.81s-2.01.81-2.01,1.81Z"/>
      <path class="cls-11" d="M383.62,977.65c0,1.97,2.22,8.51,4.96,8.51,2.74,0,4.96-6.55,4.96-8.51s-2.22-3.56-4.96-3.56c-2.74,0-4.96,1.59-4.96,3.56Z"/>
      <path class="cls-11" d="M390.81,974.45s3.66.82,5.99,5.58c2.34,4.76,6.9,5.4,9.85,5.03,0,0,2.45.03,2.57-2.66.12-2.68-1.31-2.75-1.55-2.61s-1.48.12-1.49,2.72c0,2.6,2.37,2.55,2.37,2.55,2.94.37,7.51-.27,9.85-5.03,2.34-4.76,5.99-5.58,5.99-5.58"/>
      <path class="cls-35" d="M348.38,978.54c0,1,.9,4.33,2.01,4.33s2.01-3.33,2.01-4.33c0-1-.9-1.81-2.01-1.81s-2.01.81-2.01,1.81Z"/>
      <path class="cls-11" d="M345.43,977.65c0,1.97,2.22,8.51,4.96,8.51s4.96-6.55,4.96-8.51c0-1.97-2.22-3.56-4.96-3.56s-4.96,1.59-4.96,3.56Z"/>
      <path class="cls-11" d="M352.61,974.45s3.66.82,5.99,5.58c2.34,4.76,6.9,5.4,9.85,5.03,0,0,2.45.03,2.57-2.66.12-2.68-1.31-2.75-1.55-2.61s-1.48.12-1.49,2.72c0,2.6,2.37,2.55,2.37,2.55,2.94.37,7.51-.27,9.85-5.03s5.99-5.58,5.99-5.58"/>
      <path class="cls-35" d="M310.56,978.54c0,1,.9,4.33,2.01,4.33s2.01-3.33,2.01-4.33c0-1-.9-1.81-2.01-1.81s-2.01.81-2.01,1.81Z"/>
      <path class="cls-11" d="M307.61,977.65c0,1.97,2.22,8.51,4.96,8.51s4.96-6.55,4.96-8.51-2.22-3.56-4.96-3.56c-2.74,0-4.96,1.59-4.96,3.56Z"/>
      <path class="cls-11" d="M314.8,974.45s3.66.82,5.99,5.58c2.34,4.76,6.9,5.4,9.85,5.03,0,0,2.45.03,2.57-2.66.12-2.68-1.31-2.75-1.55-2.61s-1.48.12-1.49,2.72c0,2.6,2.37,2.55,2.37,2.55,2.94.37,7.51-.27,9.85-5.03s5.99-5.58,5.99-5.58"/>
      <path class="cls-11" d="M386.2,974.45s-3.66.82-5.99,5.58-6.9,5.4-9.85,5.03"/>
      <path class="cls-35" d="M272.74,978.54c0,1,.9,4.33,2.01,4.33s2.01-3.33,2.01-4.33c0-1-.9-1.81-2.01-1.81s-2.01.81-2.01,1.81Z"/>
      <path class="cls-11" d="M269.79,977.65c0,1.97,2.22,8.51,4.96,8.51s4.96-6.55,4.96-8.51c0-1.97-2.22-3.56-4.96-3.56-2.74,0-4.96,1.59-4.96,3.56Z"/>
      <path class="cls-11" d="M276.98,974.45s3.66.82,5.99,5.58c2.34,4.76,6.9,5.4,9.85,5.03,0,0,2.45.03,2.57-2.66.12-2.68-1.31-2.75-1.55-2.61s-1.48.12-1.49,2.72c0,2.6,2.37,2.55,2.37,2.55,2.94.37,7.51-.27,9.85-5.03,2.34-4.76,5.99-5.58,5.99-5.58"/>
      <path class="cls-35" d="M234.55,978.54c0,1,.9,4.33,2.01,4.33s2.01-3.33,2.01-4.33c0-1-.9-1.81-2.01-1.81s-2.01.81-2.01,1.81Z"/>
      <path class="cls-11" d="M231.59,977.65c0,1.97,2.22,8.51,4.96,8.51s4.96-6.55,4.96-8.51-2.22-3.56-4.96-3.56c-2.74,0-4.96,1.59-4.96,3.56Z"/>
      <path class="cls-11" d="M238.78,974.45s3.66.82,5.99,5.58c2.34,4.76,6.9,5.4,9.85,5.03,0,0,2.45.03,2.57-2.66.12-2.68-1.31-2.75-1.55-2.61s-1.48.12-1.49,2.72,2.37,2.55,2.37,2.55c2.94.37,7.51-.27,9.85-5.03s5.99-5.58,5.99-5.58"/>
      <path class="cls-35" d="M196.73,978.54c0,1,.9,4.33,2.01,4.33s2.01-3.33,2.01-4.33c0-1-.9-1.81-2.01-1.81s-2.01.81-2.01,1.81Z"/>
      <path class="cls-11" d="M193.77,977.65c0,1.97,2.22,8.51,4.96,8.51s4.96-6.55,4.96-8.51-2.22-3.56-4.96-3.56c-2.74,0-4.96,1.59-4.96,3.56Z"/>
      <path class="cls-11" d="M200.96,974.45s3.66.82,5.99,5.58c2.34,4.76,6.9,5.4,9.85,5.03,0,0,2.45.03,2.57-2.66.12-2.68-1.31-2.75-1.55-2.61s-1.48.12-1.49,2.72c0,2.6,2.37,2.55,2.37,2.55,2.94.37,7.51-.27,9.85-5.03,2.34-4.76,5.99-5.58,5.99-5.58"/>
      <path class="cls-11" d="M272.37,974.45s-3.66.82-5.99,5.58-6.9,5.4-9.85,5.03"/>
      <path class="cls-35" d="M158.44,979.04c0,1,.9,4.33,2.01,4.33s2.01-3.33,2.01-4.33c0-1-.9-1.81-2.01-1.81s-2.01.81-2.01,1.81Z"/>
      <path class="cls-11" d="M155.49,978.15c0,1.97,2.22,8.51,4.96,8.51,2.74,0,4.96-6.55,4.96-8.51s-2.22-3.56-4.96-3.56c-2.74,0-4.96,1.59-4.96,3.56Z"/>
      <path class="cls-11" d="M162.68,974.95s3.66.82,5.99,5.58c2.34,4.76,6.9,5.4,9.85,5.03,0,0,2.45.03,2.57-2.66.12-2.68-1.31-2.75-1.55-2.61s-1.48.12-1.49,2.72c0,2.6,2.37,2.55,2.37,2.55,2.94.37,7.51-.27,9.85-5.03s5.99-5.58,5.99-5.58"/>
      <path class="cls-35" d="M120.62,978.72c0,1,.9,4.33,2.01,4.33s2.01-3.33,2.01-4.33c0-1-.9-1.81-2.01-1.81s-2.01.81-2.01,1.81Z"/>
      <path class="cls-11" d="M117.67,977.83c0,1.97,2.22,8.51,4.96,8.51,2.74,0,4.96-6.55,4.96-8.51s-2.22-3.56-4.96-3.56c-2.74,0-4.96,1.59-4.96,3.56Z"/>
      <path class="cls-11" d="M124.86,974.63s3.66.82,5.99,5.58c2.34,4.76,6.9,5.4,9.85,5.03,0,0,2.45.03,2.57-2.66s-1.31-2.75-1.55-2.61-1.48.12-1.49,2.72c0,2.6,2.37,2.55,2.37,2.55,2.94.37,7.51-.27,9.85-5.03,2.34-4.76,5.99-5.58,5.99-5.58"/>
      <path class="cls-35" d="M82.43,978.72c0,1,.9,4.33,2.01,4.33s2.01-3.33,2.01-4.33c0-1-.9-1.81-2.01-1.81s-2.01.81-2.01,1.81Z"/>
      <path class="cls-11" d="M79.47,977.83c0,1.97,2.22,8.51,4.96,8.51,2.74,0,4.96-6.55,4.96-8.51s-2.22-3.56-4.96-3.56c-2.74,0-4.96,1.59-4.96,3.56Z"/>
      <path class="cls-11" d="M86.66,974.63s3.66.82,5.99,5.58c2.34,4.76,6.9,5.4,9.85,5.03,0,0,2.45.03,2.57-2.66.12-2.68-1.31-2.75-1.55-2.61s-1.48.12-1.49,2.72,2.37,2.55,2.37,2.55c2.94.37,7.51-.27,9.85-5.03,2.34-4.76,5.99-5.58,5.99-5.58"/>
      <path class="cls-35" d="M44.61,978.72c0,1,.9,4.33,2.01,4.33s2.01-3.33,2.01-4.33c0-1-.9-1.81-2.01-1.81s-2.01.81-2.01,1.81Z"/>
      <path class="cls-11" d="M41.65,977.83c0,1.97,2.22,8.51,4.96,8.51s4.96-6.55,4.96-8.51c0-1.97-2.22-3.56-4.96-3.56s-4.96,1.59-4.96,3.56Z"/>
      <path class="cls-11" d="M48.84,974.63s3.66.82,5.99,5.58,6.9,5.4,9.85,5.03c0,0,2.45.03,2.57-2.66.12-2.68-1.31-2.75-1.55-2.61s-1.48.12-1.49,2.72,2.37,2.55,2.37,2.55c2.94.37,7.51-.27,9.85-5.03,2.34-4.76,5.99-5.58,5.99-5.58"/>
      <path class="cls-11" d="M120.25,974.63s-3.66.82-5.99,5.58c-2.34,4.76-6.9,5.4-9.85,5.03"/>
      <path class="cls-35" d="M6.79,979.04c0,1,.9,4.33,2.01,4.33s2.01-3.33,2.01-4.33c0-1-.9-1.81-2.01-1.81-1.11,0-2.01.81-2.01,1.81Z"/>
      <path class="cls-11" d="M3.83,978.15c0,1.97,2.22,8.51,4.96,8.51,2.74,0,4.96-6.55,4.96-8.51,0-1.97-2.22-3.56-4.96-3.56-2.74,0-4.96,1.59-4.96,3.56Z"/>
      <path class="cls-11" d="M11.02,974.95s3.66.82,5.99,5.58c2.34,4.76,6.9,5.4,9.85,5.03,0,0,2.45.03,2.57-2.66.12-2.68-1.31-2.75-1.55-2.61s-1.48.12-1.49,2.72c0,2.6,2.37,2.55,2.37,2.55,2.94.37,7.51-.27,9.85-5.03,2.34-4.76,5.99-5.58,5.99-5.58"/>
      <path class="cls-11" d="M-27.17,974.95s3.66.82,5.99,5.58c2.34,4.76,6.9,5.4,9.85,5.03,0,0,2.45.03,2.57-2.66.12-2.68-1.31-2.75-1.55-2.61s-1.48.12-1.49,2.72c0,2.6,2.37,2.55,2.37,2.55,2.94.37,7.51-.27,9.85-5.03,2.34-4.76,5.99-5.58,5.99-5.58"/>
      <path class="cls-11" d="M6.41,974.95s-3.66.82-5.99,5.58c-2.34,4.76-6.9,5.4-9.85,5.03"/>
    </g>
    <g>
      <rect class="cls-35" x="701.4" y="82.63" width="128.16" height="142.22"/>
      <path class="cls-48" d="M830.13,224.04h-122.94c-1.6,0-3.42-.25-5,0-.07.01-.15,0-.22,0l.88.42V88.05c0-1.8.24-3.78,0-5.57-.01-.08,0-.16,0-.24l-2.02,1.19h122.94c1.6,0,3.42.25,5,0,.07-.01.15,0,.22,0l-.88-.42v140.08c0,.6-.11,1.31,0,1.9.01.08,0,.16,0,.24,0,.86,2.9.33,2.9-.78V84.38c0-.59.12-1.32,0-1.9-.01-.07,0-.17,0-.24,0-.34-.67-.42-.88-.42h-112.4c-5.18,0-10.37-.09-15.54,0-.07,0-.15,0-.22,0-.69,0-2.02.31-2.02,1.19v140.08c0,.59-.12,1.32,0,1.9.01.07,0,.17,0,.24,0,.34.67.42.88.42h112.4c5.18,0,10.37.09,15.54,0,.07,0,.15,0,.22,0,.58,0,1.62-.2,1.91-.78s-.24-.83-.78-.83Z"/>
    </g>
    <rect class="cls-40" x="731.83" y="107.02" width="66.81" height="90.28" transform="translate(1530.47 304.33) rotate(180)"/>
    <path class="cls-16" d="M798.89,168.23c-3.42-.2-6.8-1.03-9.83-2.49-8.2-3.94-13.6-11.98-22.29-14.94-6.62-2.26-14.18-1.13-20.57,1.63-5.17,2.23-9.73,5.44-14.12,8.8v38.76h66.81v-31.76Z"/>
    <g>
      <rect class="cls-35" x="539.72" y="82.63" width="128.16" height="142.22"/>
      <path class="cls-48" d="M668.44,224h-126.22c-.54,0-1.19-.1-1.72,0-.07.01-.15,0-.22,0l.89.67v-14.19c0-11.35,0-22.7,0-34.06,0-13.64,0-27.28,0-40.92v-47.24c0-1.79.25-3.79,0-5.57-.01-.08,0-.16,0-.24-.67.34-1.34.68-2.01,1.02h126.22c.54,0,1.19.1,1.72,0,.07-.01.15,0,.22,0l-.89-.67v14.19c0,11.35,0,22.7,0,34.06,0,13.64,0,27.28,0,40.92,0,11.86,0,23.72,0,35.58v11.66c0,1.85-.09,3.72,0,5.57,0,.08,0,.16,0,.24,0,1.23,2.9.63,2.9-.35v-89.17c0-11.86,0-23.72,0-35.58v-11.66c0-1.84.13-3.73,0-5.57,0-.08,0-.16,0-.24,0-.49-.44-.67-.89-.67h-112.4c-5.18,0-10.36-.07-15.54,0-.07,0-.15,0-.22,0-.47,0-2.01.27-2.01,1.02v89.17c0,11.86,0,23.72,0,35.58v11.66c0,1.84-.13,3.73,0,5.57,0,.08,0,.16,0,.24,0,.49.44.67.89.67h112.4c5.18,0,10.36.07,15.54,0,.07,0,.15,0,.22,0,.59,0,1.62-.19,1.91-.8s-.24-.89-.79-.89Z"/>
    </g>
    <rect class="cls-13" x="570.15" y="107.02" width="66.81" height="90.28" transform="translate(1207.12 304.33) rotate(180)"/>
    <path class="cls-39" d="M637.08,152.74s0-.04,0-.05c0,0-4.57-3.77-9.18-2.98-6.2,1.07-7.75,3.36-9.2,4.33-5.98,3.98-12.25,7.17-19.82,5.55-3.8-.81-10.01-5.64-13.56-6.43-4.12-.92-6.54-.79-10.39.57-1.13.4-3.8,2.32-4.63,3.12l.12,43.14c.08,0,66.81,0,66.81,0l-.13-47.25Z"/>
    <g>
      <rect class="cls-35" x="1024.4" y="82.63" width="128.16" height="142.22"/>
      <path class="cls-48" d="M1153.13,224.04h-122.94c-1.6,0-3.42-.25-5,0-.07.01-.15,0-.22,0l.88.42V88.05c0-1.8.24-3.78,0-5.57-.01-.08,0-.16,0-.24l-2.02,1.19h122.94c1.6,0,3.42.25,5,0,.07-.01.15,0,.22,0l-.88-.42v140.08c0,.6-.11,1.31,0,1.9.01.08,0,.16,0,.24,0,.86,2.9.33,2.9-.78V84.38c0-.59.12-1.32,0-1.9-.01-.07,0-.17,0-.24,0-.34-.67-.42-.88-.42h-112.4c-5.18,0-10.37-.09-15.54,0-.07,0-.15,0-.22,0-.69,0-2.02.31-2.02,1.19v140.08c0,.59-.12,1.32,0,1.9.01.07,0,.17,0,.24,0,.34.67.42.88.42h112.4c5.18,0,10.37.09,15.54,0,.07,0,.15,0,.22,0,.58,0,1.62-.2,1.91-.78s-.24-.83-.78-.83Z"/>
    </g>
    <rect class="cls-16" x="1054.83" y="107.02" width="66.81" height="90.28" transform="translate(2176.48 304.33) rotate(180)"/>
    <path class="cls-40" d="M1055.08,168.23c3.42-.2,6.8-1.03,9.83-2.49,8.2-3.94,13.6-11.98,22.29-14.94,6.62-2.26,14.18-1.13,20.57,1.63,5.17,2.23,9.73,5.44,14.12,8.8v38.76h-66.81v-31.76Z"/>
    <g>
      <rect class="cls-35" x="862.73" y="82.63" width="128.16" height="142.22"/>
      <path class="cls-48" d="M991.45,224h-126.22c-.54,0-1.19-.1-1.72,0-.07.01-.15,0-.22,0l.89.67c0-4.73,0-9.46,0-14.19v-34.06c0-13.64,0-27.28,0-40.92v-47.24c0-1.79.25-3.79,0-5.57-.01-.08,0-.16,0-.24l-2.01,1.02h126.22c.54,0,1.19.1,1.72,0,.07-.01.15,0,.22,0l-.89-.67v48.25c0,13.64,0,27.28,0,40.92,0,11.86,0,23.72,0,35.58v11.66c0,1.85-.09,3.72,0,5.57,0,.08,0,.16,0,.24,0,1.23,2.9.63,2.9-.35v-14.19c0-11.35,0-22.7,0-34.06v-88.16c0-1.84.13-3.73,0-5.57,0-.08,0-.16,0-.24,0-.49-.44-.67-.89-.67h-112.4c-5.18,0-10.36-.07-15.54,0-.07,0-.15,0-.22,0-.47,0-2.01.27-2.01,1.02,0,4.73,0,9.46,0,14.19v34.06c0,13.64,0,27.28,0,40.92v47.24c0,1.84-.13,3.73,0,5.57,0,.08,0,.16,0,.24,0,.49.44.67.89.67h112.4c5.18,0,10.36.07,15.54,0,.07,0,.15,0,.22,0,.59,0,1.62-.19,1.91-.8s-.24-.89-.79-.89Z"/>
    </g>
    <rect class="cls-39" x="893.16" y="107.02" width="66.81" height="90.28" transform="translate(1853.13 304.33) rotate(180)"/>
    <path class="cls-13" d="M960.08,152.74s0-.04,0-.05c0,0-4.57-3.77-9.18-2.98-6.2,1.07-7.75,3.36-9.2,4.33-5.98,3.98-12.25,7.17-19.82,5.55-3.8-.81-10.01-5.64-13.56-6.43-4.12-.92-6.54-.79-10.39.57-1.13.4-3.8,2.32-4.63,3.12l.12,43.14c.08,0,66.81,0,66.81,0l-.13-47.25Z"/>
    <rect class="cls-35" x="698.95" y="650.33" width="275.66" height="27.74"/>
    <rect class="cls-35" x="1064.72" y="646.89" width="275.66" height="27.74" transform="translate(2405.11 1321.52) rotate(-180)"/>
    <circle class="cls-36" cx="781.31" cy="127.05" r="6.98"/>
    <path class="cls-44" d="M1360.83,470.23h-145.23s-10.04,41.3-9.9,40.9c.14-.4,146.38-1.66,146.38-1.66l8.75-39.24Z"/>
    <path class="cls-46" d="M910.15,495.91c.46,0,1.57-.68.6-.68-.46,0-1.57.68-.6.68h0Z"/>
  </g>
  <g id="Layer_2" data-name="Layer 2">
    <path class="cls-17" d="M946.39,506.1c.44,27.73,11.8,41.12,41.21,49.16l31.49.19,33.16-.1c29.51-7.95,41.09-21.36,41.53-49.25"/>
    <path class="cls-51" d="M1020.09,497.87c40.69,0,73.69,3.68,73.69,8.23,0,4.55-32.98,8.23-73.69,8.23-40.71,0-73.7-3.68-73.7-8.23,0-4.55,33.01-8.23,73.7-8.23Z"/>
  </g>
  <g id="Layer_5" data-name="Layer 5">
    <g>
      <path class="cls-5" d="M1517.03,589.74h-895.94s.93-34.18.93-34.18h895.94"/>
      <polygon class="cls-44" points="640.32 620.81 1493.8 620.81 1501.09 588.86 633.03 588.86 640.32 620.81"/>
    </g>
    <polygon class="cls-44" points="650.65 934.65 632.96 934.65 641.04 616.96 687.69 616.96 650.65 934.65"/>
  </g>
  <g id="Layer_8" data-name="Layer 8">
    <path d="M362.36,923.97s2.5,3.18.8,8.46c-1.7,5.28-32.35.58-42.87,1.45-10.52.86-51.97,2.23-62.13-.83-10.16-3.06-.06-15.94-.06-15.94l104.26,6.86Z"/>
    <path class="cls-41" d="M247.13,886.99c1.24,5.18-1.18,16.5-2.86,22.13-1.93,6.49.85,11.62,8.27,14.8,6.24,2.67,9.5,2.71,16.42,2.73,9.04.02,18.73-1.04,27.77-1.01,7.75.02,32.13-.65,39.65,1.04,11.7,2.63,19.05,1.37,24.37-.13,1.47-.41,2.37-.29,3.1-1.31,1.88-2.63,1.82-5.65-1.94-8.15-4.74-3.16-10.82.53-15.21-3.12-.78-.65-1.5-1.37-2.42-1.86-1.79-.95-4.02-.87-6.1-.96-10.4-.45-9.4-4.69-22.85-8.74-3.95-1.19-29.07-15.43-32.69-17.26"/>
    <path class="cls-28" d="M318.4,912.79c.55,2.49,3.77,13.79,3.77,13.79l4.67.38c.87.11,4.48,0,5.34,0l4.21.67c-3.78-5.21-.92-14.36,1.31-18.25"/>
    <path class="cls-28" d="M317.8,926.45s1.65-6.74,15.29-14.51c2.81-1.6,4.6-2.56,4.6-2.56,0,0-8.31-6.75-19.96-7.25,0,0-20.81,1.23-19.26,24.83l19.33-.52Z"/>
    <path class="cls-41" d="M214.45,901.79l46.15,22.03c3.4,2.64-42.59,26.23-88.27-11.06l5.12-11.47,37,.5Z"/>
    <path d="M166.94,929.2s-2.09,2.2-1.79,9.59c.4,9.89,34.6,7.32,42.98,7.52,8.38.2,35.32,4.59,54.14,4.11,18.81-.48,39.3-7.44,38.74-18.69-.3-6.1-.92-8.43-5.04-9.7-4.11-1.28-117.17.55-117.17.55l-11.86,6.63Z"/>
    <path class="cls-41" d="M175.49,886.34c.92,6.14-2.93,13.03-6.73,25.61-1.92,6.35-3.57,17.15,2.95,20.78,7.76,4.32,24.85,1.35,29.86,2.18,10.55,1.75,19.31,1.53,29.5,4.1,10.32,2.6,12.29,1.84,11.33,1.77-1.54-.12,11.63.66,13.1.94,1.36.27,6.15-.32,7.02-.83,3.07-1.78,4.35.31,7.93-.37,1.58-.3,2.98-1.09,4.43-1.73,3.82-1.7,8.08-2.44,12.17-3.54,4.09-1.11,8.22-2.7,10.93-5.62,2.71-2.92,3.52-7.45.85-10.33-4.03-4.34-8.71-1.36-13.82-1.48-5.1-.12-7.06-.79-11.66-2.5-11.76-4.38-13.59-5.3-23.49-8.69-7.68-2.63-28.94-8.84-39.93-15.21l1.19-10.07"/>
    <path class="cls-10" d="M240,902.96s35.36,16.36,45.02,14.86l6.18-.4s3.71-1.33,5.86-.23"/>
    <path class="cls-43" d="M226.11,939.63s9.02-13.61,31.54-23.16c4.64-1.97,18.06-.5,18.06-.5,0,0-12.24-10.72-26.83-14.03,0,0-34.43-3.93-47.84,34.35l25.08,3.35Z"/>
    <path class="cls-28" d="M246.13,904.47c-12.54,11.89-15.35,35.79-15.35,35.79l6.28.73c1.04.36,4.68.67,5.77.87l7.7.04c-2.11-13.52,16.6-29.85,16.6-29.85,0,0-10.88-5.62-16.6-6.98s-4.39-.59-4.39-.59Z"/>
    <g>
      <path class="cls-1" d="M262.99,940.65c2.18-.73,2.45-3.66,1.39-5.4-1.21-2-3.65-3.03-5.75-3.8-1.32-.49-2.67-.89-4.01-1.33-.22-.07-.32.28-.1.35,2.63.88,5.46,1.56,7.76,3.17,1.06.73,2.01,1.75,2.27,3.05.27,1.37-.23,3.13-1.67,3.61-.22.07-.13.43.1.35h0Z"/>
      <path class="cls-1" d="M274.33,940.02c2.88-.22,2.91-3.72,2.42-5.86-.32-1.4-.94-2.48-2.07-3.41-1.57-1.29-3.53-1.93-5.47-2.44-2.26-.59-4.52-1.87-6.91-1.67-.23.02-.24.39,0,.37,1.92-.16,3.79.7,5.58,1.29,1.76.58,3.58.92,5.22,1.82,1.31.72,2.51,1.75,3.02,3.19.39,1.1.58,2.31.49,3.48-.11,1.39-.74,2.74-2.28,2.85-.23.02-.24.38,0,.37h0Z"/>
      <path class="cls-1" d="M282.36,937.02c2.84-1.18,3.23-5.08,1.76-7.45-1.63-2.63-4.84-4.03-7.66-4.96-1.79-.59-3.7-1.13-5.57-1.37-.23-.03-.23.34,0,.37,1.51.19,3.06.63,4.52,1.06s2.84.93,4.17,1.61c2.34,1.18,4.88,3.1,5.02,5.95.09,1.73-.64,3.73-2.35,4.44-.21.09-.12.44.1.35h0Z"/>
      <path class="cls-1" d="M290.45,935.04c1.78-.88,3.12-2.49,3.7-4.38.48-1.58.46-3.46-.54-4.84-.95-1.31-2.44-2.17-3.88-2.85-1.65-.77-3.38-1.33-5.13-1.81-.9-.25-1.8-.46-2.7-.69-1.09-.28-2.26-.8-3.41-.66-.23.03-.23.39,0,.37,1-.12,2.02.28,2.96.55.71.2,1.43.36,2.14.54,1.58.41,3.15.87,4.68,1.47s3.03,1.31,4.23,2.4c1.27,1.15,1.75,2.63,1.53,4.33-.28,2.26-1.74,4.26-3.77,5.26-.21.1-.03.42.18.32h0Z"/>
    </g>
    <path class="cls-28" d="M226.11,939.58s19.65-22.34,31.54-23.16c11.89-.82,18.06-.5,18.06-.5,0,0-18.93-15.34-28.74-14.67-9.81.67-34.62,4.56-45.93,34.99,0,0,16.69,4.32,25.08,3.35Z"/>
    <path class="cls-28" d="M233.79,704.87c-1.32,5.97-3.03,16.55-3.11,22.64-.23,16.48,1.04,40.64,2.37,48.99,2.26,14.14,5.39,53.75,6.35,58.71l4.63,57.96c13.15-.13,28.93,5.89,62.49-.66.38-26.72,13.29-146.6,16.59-197.55,2.63-40.67.64-83.51.64-83.51l-97.72-5.33,10.29,87.3-2.52,11.43Z"/>
    <path class="cls-28" d="M157.84,710.35c-1.32,5.97-3.03,16.55-3.11,22.64-.23,16.48,1.04,40.64,2.37,48.99,2.26,14.14,5.39,53.75,6.35,58.71l4.63,57.96c13.15-.13,34.57,5.89,68.14-.66.38-26.72,13.29-146.6,16.59-197.55,2.63-40.67-5-83.51-5-83.51l-97.72-5.33,10.29,87.3-2.52,11.43Z"/>
    <path class="cls-23" d="M346.28,454.78c-2.16-12.82-9.43-30.18-14.48-43.11-1.38-3.52-5.35-15.78-6.05-19.7-7.28,1.82-8.86,2.02-16.39,3.39-62.35,11.32-127.85,7.55-191.92,6.95-8.73,15.98-19.79,38.49-20.62,51.44-1.69,26.53-.62,251.49-.1,278.03.05,2.53,61.42,13.38,67.06,13.74,21.19,1.35,79.03,1.81,100.3,1.21,41.81-1.18,61.57-6.79,86.21-19.85.68-21.44,1.26-52.24,1.81-73.68,1.07-41.84,4.21-79.96,4.63-121.81.18-18.07-2.84-45.53-3.09-63.6-.16-11.25-5.5-2.15-7.34-13.02Z"/>
    <path class="cls-35" d="M490.95,538.28c-7.79-8.55-7.44-19.17-16.07-26.87l-104.93,16.92,3.23,13.48-3.75,16.62s90.82,7.34,132.27-7.93c-3.52-4.12-7.1-8.2-10.75-12.22Z"/>
    <path class="cls-14" d="M391.05,88c1.2,12.99-1.85,26.72-6.27,43.56-6.47,26.06-18.2,50.53-34.5,71.97l-28.57,9.77-3.94-12.97c22.69-15.87,39.5-21.48,47.57-47.72,1.86-6.04,13.49-31.82,13.57-32.67,1.54-16.87-6.31-14.3-14.43-25.31-6.64-8.94-23.52-12.79-32.16-12.95-7.62-.16-16.75-4.13-30.4,9.12-9.05,8.88-10.75,3.17-18.63,20.84l10.66-70.39,47.16,2.25,29.02,6.36c11.98,5.82,19.72,25.15,20.94,38.16Z"/>
    <path class="cls-23" d="M130.13,379.8c13.73,3.47,1.39,39.45,14.53,44.72,13.64,5.47,70.38-16.59,84.02-11.12,13.64,5.47,30.58-10.6,44.62-6.25,20.59,6.38,49.05,51.25,70.71,52.12-.41-4.02,5.73-8.7,5.66-12.63-.21-10.48-1.72-49.09,2.5-55.8,17.19-27.36,13.2-57.03,11.04-63.16l-15.19-105.12-24.9-10.94c.81,2.75,5.21,7.57-20.86,8.46-.02,0-17.32-1.45-13.07,2.65-31.4-8.61-37.93-36.9-37.93-36.9l-56.45,9.6-48.68,139.22s-8.79,33.96-15.99,45.16Z"/>
    <path class="cls-41" d="M380.68,122.31c1.1-5.38,1.33-10.92.09-16.31-2.73-11.94-7.2-19.39-22.47-27.01-8.66-3.15-17.69-4.85-27.28-3.71-13.61,1.63-26.64,7.79-36.81,16.91-.09.08-.18.13-.27.2-.92,1.53-1.64,3.17-2.04,4.93-.39,1.7-2.99.97-2.6-.72.28-1.24.75-2.42,1.28-3.56-.77-.24-1.45-.71-1.97-1.31-.45,4.28-.75,7.61-1.08,8.74-1.19,4.11-3.87,4.42-3.87,4.42-.63-1.89-3.59,2-3.68.06-.17-1.73.97-3.47.8-5.2-.88-4.12-5.87-4.69-9.15-3.47l-.67.55c-5.22,3.54-6.61,19.79-5.55,25.13-2.4,9.28,3.87,16.79,10.61,11.85l.02,3.95,6.88,22.07c5.88,12.42,19.57,31.61,34.1,35.99,5.21,1.57,11.43-.73,17.24-5.82,5.87-5.15,10.2-6.56,16.24-11.13,5.8-4.38,8.7-7.35,12.69-13.4,4.12-6.26,4.72-8.08,6.34-15.19.72-3.18,2.09-7.9,3.33-10.76,1.19-2.75,4.9-10.3,7.85-17.22Z"/>
    <path class="cls-14" d="M380.41,125.25c.15-.63.26-1.25.4-1.88,0,0-.01-.02-.02-.02,0,0-1.85-2.4-5.32-4.28-2.39-1.3-9.37-3.56-19.07-4.81-.32,1.28-.64,2.56-.96,3.84-.24.98-.48,1.95-.72,2.93,3.47,0,6.4.17,8.6.35,4.65.38,7.02.59,9.5,1.68,2.6,1.14,4.66,2.74,5.45,3.36.39.31.73.58,1.05.84.62-.55.86-1.08,1.08-2.02Z"/>
    <path class="cls-14" d="M339.84,106.19c-.53,1.2-1.07,2.41-1.6,3.62-.41.92-.82,1.84-1.23,2.75-3.01-2.25-5.66-4.01-7.68-5.29-4.27-2.71-6.47-4.08-9.31-4.83-2.98-.79-5.78-.87-6.86-.9-1.53-.03-2.55-.08-3.89.16-2.91.51-4.57,1.8-4.88,1.49-.28-.28.93-1.52,1.05-1.65,3.05-3.12,7.17-3.95,7.49-4.02,0,0,3.12-.68,7.33.1,2.9.53,10.38,3.28,19.59,8.58"/>
    <path class="cls-31" d="M282.59,120.76c-.36-3.19-.86-6.4-1.85-9.47-.48-1.49-1.08-3.01-2.01-4.28-.33-.45-.77-1.01-1.3-1.25s-1.06.42-1.41.78c-1.93,1.99-2.76,4.79-2.99,7.49-.03.29.55.22.57-.04.23-2.74,1.19-6.37,3.7-7.97l-.35.06c.42.14.95.77,1.26,1.19,1.35,1.84,2.03,4.17,2.57,6.35.59,2.4.96,4.85,1.23,7.3.03.26.59.12.56-.15h0Z"/>
    <path class="cls-31" d="M280.3,121.25c-3.35-1.29-3.25,4.36-3.92,6.18-.07.19-.2.61-.4.7-.27.12-.37-.3-.44-.56-.3-1.19-.15-2.55-.02-3.75.18-1.78.45-3.48,1.16-5.12.77-1.78,2.15-4.53,4.36-4.72.18-.02.6-.31.23-.28-1.98.17-3.34,1.73-4.28,3.35-.69,1.19-1.32,2.52-1.58,3.88-.31,1.61-.54,3.24-.57,4.88-.01.64-.15,2.18.52,2.6.42.26.99-.09,1.25-.42.43-.54.55-1.34.68-1.99.21-1.03.35-2.08.67-3.08.31-.94.77-1.86,1.89-1.43.15.06.66-.17.45-.25h0Z"/>
    <path class="cls-23" d="M201.24,268.5l25.86-85.85s-32.34-11.55-67.11,19.4c-32.74,41.26-61.66,112.78-67.54,135.46-6.48,25.02-9.7,90.03-12.11,129.25l58.54,7.58,13.79-119.08,48.57-86.76Z"/>
    <path class="cls-23" d="M357.08,221.04l-26.28-15.66s-27.69,21.14-24.54,46.88c10.09,51.7,45.95,143.77,62.02,160.83,18.31,19.44,60.85,35.7,104.43,58.07l43.13-38.92-98.32-70.2-25.14-91.43c-5.48-18.59-15.27-39.14-35.31-49.57Z"/>
    <path class="cls-14" d="M360.81,221.49s1.84-3.53-13.1-25.33l2.5-6.54s-15.14,11.55-40.05-.68c-18.12-8.9-22.02-21.18-24.29-39.01-3.92-30.76,12.69-68.79,31.71-86.54,17.83-16.65,60.56,12.5,69.76,9.62,0,0-7.45-35.64-52.91-45.04-14.32-2.96-28.57-2.87-41.33,4.66-18.06,10.66-33.71,30.79-41.63,49.49-2.09,4.94-3.92,9.99-5.5,15.12-6.44,20.96-8.61,48.02-1.94,69.48l-5.89.51s-30.7,3.34-36.55,14.1h0c9.77,2.21,18.6,11.1,25.09,18.74,10.65,12.54,31.35,31.41,61.42,34.71,42.12,3.15,44.78-25.03,72.51-12.56"/>
    <path class="cls-2" d="M287.78,193.35c-3.02-4.18-6.45-8.01-9.32-12.31-2.65-3.98-5.08-8.13-7.2-12.42-4.03-8.15-6.98-16.82-8.77-25.73-3.65-18.12-2.51-37.11,3.21-54.68,1.65-5.09,3.7-10.05,6.04-14.86,1.25-2.56,2.59-5.08,4.03-7.54s3.06-4.8,4.41-7.32c.04-.07-.26,0-.3.04-.36.37-.66.74-.93,1.17-.02.04.26.02.31-.05.27-.42.56-.79.91-1.14l-.3.04c-1.21,2.25-2.65,4.33-3.95,6.52s-2.52,4.42-3.67,6.68c-2.19,4.32-4.14,8.77-5.77,13.32-3.09,8.6-5.1,17.59-5.95,26.69-1.7,18.24,1.29,36.86,8.82,53.57,2.16,4.79,4.7,9.4,7.52,13.84,1.59,2.49,3.28,4.92,5.06,7.28,1.8,2.37,3.79,4.57,5.53,6.99.06.08.34-.05.31-.08h0Z"/>
    <path class="cls-2" d="M243.88,166.77c1.02,2.67,2.44,5.23,3.9,7.69,3.44,5.77,7.69,11.09,12.66,15.62,6.84,6.23,14.87,10.52,23.75,13.05,10.53,3,21.34,4.33,32.2,5.48,9.87,1.05,20.01,2.2,28.71,7.36.12.07.39-.09.24-.18-7.3-4.33-15.64-5.87-23.95-6.86-10.43-1.25-20.88-2.08-31.14-4.48-5.32-1.24-10.62-2.72-15.57-5.07-3.96-1.88-7.68-4.24-11.1-6.98-5.66-4.54-10.48-10.1-14.38-16.21-1.91-2.99-3.74-6.16-5.01-9.48-.05-.14-.37-.05-.31.08h0Z"/>
    <path class="cls-2" d="M300.04,86.3c2.13-5.9,5.77-11.51,9.83-16.23,3.78-4.4,8.31-8.2,13.52-10.79,6.46-3.21,13.71-4.32,20.85-3.53,11.55,1.26,22.26,6.84,31.71,13.33.09.06.37-.07.29-.12-14.32-9.83-32.74-17.86-50.02-11.1-10.2,3.99-18.05,12.4-23.31,21.81-1.2,2.14-2.35,4.37-3.19,6.68-.03.1.28.06.31-.04h0Z"/>
    <path class="cls-26" d="M303.61,109.41v4.9c-.31,3.7.82,11.51,1.38,13.77.8,3.15,18.88,10.54,23.21,9.72,4.33-.81,9.88-10.45,11.66-12.51l7.23,2.96c-.4,3.33-1.45,13.94-.51,15.75.94,1.81,9.48,4.51,10.44,4.81.8.24,1.92.58,3.16.91,3.27.88,7.33,1.7,8.92.95,2.36-1.1,6.55-7,10.34-12.64l.61-.88c.14-.21.27-.35.3-.42h0l.68-1.02c-8.91-8.65-23.12-12.67-33.66-9.51l.03.13-7.04-2.93c-6.3-8.11-19.36-15.87-30.71-15.54h0l-30.73-1.95-1.02,2.68,25.72.79ZM347.8,143.3c-.59-1.13-.07-8.64.52-14.42,9.11-2.6,21.91,1.04,30.06,8.24l-.05.14c-2.04,3.02-7.45,11.06-9.77,12.15-2.74,1.28-19.68-4.28-20.77-6.08v-.03ZM307.43,128.1c-1.59-4.98-1.86-12.13-1.58-18.03,10.3-.88,25.91,7.1,32.12,14.87-2.75,3.88-6.93,10.88-10.04,11.45-4.46.84-20.02-6.31-20.51-8.3h0Z"/>
    <path class="cls-26" d="M273.44,204.38s8.56,43.11-4.04,81.25c-7.86,23.77-13.76,46.6-17.09,60.43-1.36,5.65-13.93,5.94-17.83,1.63l-10.82-11.99c-8.43-9.35-11.54-22.34-8.21-34.48,4.4-16.05,10.25-39.51,13.06-59.89,4.82-35.02-9.84-56.44-9.84-56.44l54.77,19.5Z"/>
    <path class="cls-14" d="M295.9,224.05s4.86,100.73-6.28,146.3c-11.14,45.57-17.51,426.98-17.51,426.98l12.96-1.49s16.28-416.79,20.73-434.64c6.9-27.7,4.93-115.61,3.34-134.97l-13.24-2.19Z"/>
    <path class="cls-14" d="M143.26,443.74s67.61,12.38,117.31,14.06c49.7,1.68,89.38-11.08,89.38-11.08l1.13,6.32s-21.35,14.09-76.33,16.47c-54.98,2.37-133.26-12.14-133.26-12.14l1.78-13.63Z"/>
    <path class="cls-42" d="M207.8,208.85c3.78,5.52,4.48,12.88,4.44,19.38-.05,7.88-1.29,15.75-3.93,23.18-5.11,14.34-12.62,27.84-19.82,41.2-3.8,7.04-7.54,14.05-11.65,20.91-5.38,9-10.77,17.99-16.15,26.99-1.8,3-3.59,6-5.39,9.01-.47.78-.61,1.13-.73,2.01-.69,5.32-1.39,10.65-2.08,15.97-1.26,9.64-2.51,19.28-3.77,28.92-1.44,11.04-2.87,22.07-4.31,33.11-1.24,9.51-2.48,19.03-3.72,28.54-.66,5.07-1.32,10.14-1.98,15.21-.03.23-.06.46-.09.69l1.32-.47c-12.66-1.4-25.33-2.81-37.99-4.21l-5.46-.61c-.34-.04-1.55.51-1.19.55,12.66,1.4,25.33,2.81,37.99,4.21,1.82.2,3.64.4,5.46.61.3.03,1.27-.06,1.32-.47.46-3.55.92-7.1,1.39-10.65,1.13-8.7,2.27-17.41,3.4-26.11,1.42-10.94,2.85-21.87,4.27-32.81,1.33-10.25,2.67-20.5,4-30.75.86-6.64,1.73-13.28,2.59-19.92.13-.98.09-2.22.41-3.17.04-.13.55-.87.72-1.17.75-1.25,1.5-2.5,2.25-3.75,5.28-8.82,10.56-17.64,15.84-26.46,3.63-6.06,7.23-12.09,10.57-18.31,7.17-13.34,14.6-26.6,20.67-40.49,2.58-5.9,5.02-11.98,6.15-18.34,1.49-8.36,2.17-17.31.11-25.64-.66-2.67-1.64-5.29-3.2-7.58-.23-.34-1.55.24-1.45.39h0Z"/>
    <path class="cls-26" d="M165.2,455.08s-4.08,23.96-1.08,30.59c2.99,6.64,60.48,9.08,68.96,7.75s6.44-31.71,6.44-31.71l-74.31-6.64Z"/>
    <path class="cls-42" d="M348.7,510.74c.41,0,.56-.51.07-.51-.41,0-.56.51-.07.51h0Z"/>
    <path class="cls-42" d="M375.84,275.05c-1.25,3.53-2.48,7.07-3.69,10.61-.75,2.21-1.51,4.42-2.19,6.65-.31,1-.33,1.66-.22,2.69,1.14,11.12,2.9,22.15,3.75,33.3.53,6.96,1.04,14.03-.25,20.93-1.46,7.8-4.47,15.4-8.58,22.18-3.28,5.4-7.66,10.02-11.01,15.37-1.7,2.71-3.05,5.61-3.96,8.68-.72,2.46-1.35,5.18-1.32,7.76.05,4.29.31,8.58.43,12.86.23,8.09.38,16.18.41,24.28,0,2.14,0,4.27,0,6.41,0,.73,1.46.5,1.46-.12.07-13.98-.25-27.96-.78-41.92-.18-4.85.98-9.72,3.08-14.1,2.71-5.66,7.03-10.27,10.62-15.36,4.3-6.09,7.52-12.92,9.64-20.07,1.11-3.74,1.9-7.59,2.18-11.48.24-3.31.07-6.65-.09-9.95-.62-12.17-2.28-24.25-3.8-36.33-.16-1.25-.44-2.57-.42-3.84.02-1.38.79-2.91,1.22-4.2,1.47-4.45,3.02-8.88,4.58-13.3.11-.3.21-.61.32-.91.27-.77-1.17-.72-1.38-.14h0Z"/>
    <ellipse class="cls-50" cx="303.49" cy="250.09" rx="3.87" ry="5.21" transform="translate(26.52 529.26) rotate(-84.72)"/>
    <ellipse class="cls-50" cx="301.01" cy="333.42" rx="3.87" ry="5.21" transform="translate(-58.71 602.45) rotate(-84.72)"/>
    <ellipse class="cls-50" cx="296.29" cy="376.48" rx="3.87" ry="5.21" transform="translate(-105.87 636.85) rotate(-84.72)"/>
    <ellipse class="cls-50" cx="294.26" cy="419.17" rx="3.87" ry="5.21" transform="translate(-150.22 673.58) rotate(-84.72)"/>
    <ellipse class="cls-50" cx="289.96" cy="465.72" rx="5.21" ry="3.87"/>
    <ellipse class="cls-50" cx="201.37" cy="476.27" rx="5.21" ry="3.87"/>
    <ellipse class="cls-50" cx="289.96" cy="519.66" rx="5.21" ry="3.87"/>
    <ellipse class="cls-50" cx="286.2" cy="574.49" rx="5.21" ry="3.87"/>
    <ellipse class="cls-50" cx="283.12" cy="636.95" rx="5.21" ry="3.87"/>
    <ellipse class="cls-50" cx="281.24" cy="700.55" rx="5.21" ry="3.87"/>
    <path class="cls-37" d="M329.48,159.06c-6.04-2.42-16.01-7.57-16.01-7.57,0,0-3.58,15.71,10.43,21.33,14.01,5.62,19.32-8.63,19.32-8.63,0,0-7.69-2.7-13.73-5.12Z"/>
    <path class="cls-4" d="M329.54,159.09c-2.87-1.15-13.61-5.54-13.61-5.54,0,0-.4,9.55,9.99,13.72,11.26,4.52,15.24-3.48,15.24-3.48l-11.61-4.7Z"/>
    <path class="cls-45" d="M329.49,159.57c-2.87-1.15-11.42-5.15-11.42-5.15,0,0,1.86,4.46,10.48,7.92,8.62,3.46,12.6,1.45,12.6,1.45l-11.66-4.22Z"/>
    <path class="cls-37" d="M343.95,164.02c-.27-.2-1.03-.25-2.26-1-2.21-1.36-2.94-2.67-4.56-3.48-2.76-1.38-5.05-.92-6.29-1.42-1.24-.5-2.58-2.41-5.53-3.32-1.73-.54-4.54-1-6.93-1.71-1.44-.43-4.59-2.34-4.92-2.38-.45-.06-.76,3.55,14.86,9.82,15.61,6.27,16.01,3.77,15.64,3.5Z"/>
    <path class="cls-9" d="M240.13,849.26s12.63-92,13.32-101.87"/>
    <path class="cls-35" d="M329.14,127.33s-10.45,1.31-16.38-4.65c-2.13-2.14-2.78-4.27-.9-6.47,3.73-4.39,9.96-.38,13.23,2.14,3.55,2.73,5.36,4.93,4.05,8.97Z"/>
    <g>
      <path class="cls-27" d="M328.34,122.66c-.27,3.51-3.05,4.92-6.72,4.42-3.67-.49-6.85-2.69-6.58-6.2.27-3.51,2.61-5.95,6.28-5.46,3.67.49,7.29,3.73,7.01,7.24Z"/>
      <path class="cls-29" d="M325.22,121.91c-.15,1.95-1.93,3.31-3.96,3.04-2.04-.27-3.56-2.07-3.41-4.02.15-1.95,1.93-3.31,3.96-3.04,2.04.27,3.56,2.07,3.41,4.02Z"/>
    </g>
    <path class="cls-35" d="M351.44,135.61s6.99,8.3,15.42,8.08c3.03-.08,4.98-1.17,5.16-4.05.36-5.73-6.11-6.79-10.23-7.21-4.47-.46-8.46-1.58-10.35,3.19Z"/>
    <g>
      <path class="cls-27" d="M357.93,133.9c-2.25,2.73-1.22,5.64,1.77,7.81,2.99,2.17,6.82,2.76,9.07.04,2.25-2.73,2.26-6.09-.73-8.26-2.99-2.17-7.86-2.32-10.11.41Z"/>
      <path class="cls-29" d="M360.7,135.5c-1.25,1.51-.91,3.71.75,4.91,1.66,1.2,4.02.95,5.27-.56,1.25-1.51.91-3.71-.75-4.91-1.66-1.2-4.02-.95-5.27.56Z"/>
    </g>
    <ellipse class="cls-35" cx="362.6" cy="135.72" rx=".68" ry=".73" transform="translate(113.58 432.18) rotate(-70.49)"/>
    <ellipse class="cls-35" cx="320.68" cy="119.76" rx=".68" ry=".73" transform="translate(100.71 382.05) rotate(-70.49)"/>
    <path class="cls-7" d="M329.73,125.64s-2.39-7.05-10.45-8.84c-8.07-1.79-8.72,2.79-8.72,2.79,0,0,.38-5.6,6.63-5.65,4.5-.03,12.67,2.22,12.54,11.7Z"/>
    <path class="cls-7" d="M351.65,134.72s6.43-3.92,14.08-.15c7.65,3.78,5.24,7.73,5.24,7.73,0,0,3.28-4.57-1.73-8.61-3.6-2.9-11.63-6.39-17.59,1.03Z"/>
    <path class="cls-7" d="M310.78,119.61s-3.95-2.4-3.84-5.52c0,0,2.41,3,7.59,1.3,0,0-3.11,2.34-3.43,3.28l-.32.94Z"/>
    <path class="cls-46" d="M347.61,128.45c-1.3,1.76-1.61,4.19-1.84,6.31-.31,2.9-.32,5.82-.26,8.73.05,2.46.19,4.92.31,7.38.03.58.18,1.33.05,1.91-.32,1.42-2.38,1.36-3.51,1.25-1.86-.18-3.67-.6-5.44-1.18-1.87-.61-3.91-1.34-5.38-2.7-.34-.32-1.7.23-1.35.55,1.31,1.2,3.06,1.92,4.71,2.52,1.83.66,3.75,1.2,5.68,1.45,1.38.18,2.8.3,4.16-.08.94-.26,2.32-.91,2.57-1.95.14-.6,0-1.38-.03-1.99-.05-1.18-.12-2.37-.18-3.55-.15-3.29-.25-6.59-.09-9.88.14-2.78.2-6.43,1.93-8.77.36-.48-1.08-.34-1.34,0h0Z"/>
    <path class="cls-46" d="M327.49,143.11c-1.17-.2-2.5.12-3.45.83-.47.35-.81.82-1.03,1.36-.21.51-.39,1.09-.3,1.64.19,1.18,1.34,1.89,2.33,2.37,1.13.54,2.32,1.04,3.58,1.19.34.04.7-.05,1.01-.19.1-.04.52-.32.18-.36-1.04-.12-2.01-.48-2.96-.92-.88-.4-1.87-.84-2.39-1.7s-.3-1.88.18-2.72c.2-.36.49-.69.85-.89.25-.14.52-.12.8-.07.33.06.71-.05,1.01-.19.11-.05.51-.3.18-.36h0Z"/>
    <path class="cls-49" d="M536.91,904.02c-.89,3.48.85,11.08,2.06,14.87,1.39,4.36-.61,7.81-5.96,9.94-4.5,1.79-6.85,1.82-11.84,1.83-6.52.02-13.51-.7-20.02-.68-5.58.02-23.17-.44-28.59.7-8.43,1.76-13.74.92-17.57-.09-1.06-.28-1.71-.2-2.23-.88-1.36-1.77-1.31-3.79,1.4-5.48,3.42-2.12,7.8.36,10.96-2.1.56-.44,1.08-.92,1.74-1.25,1.29-.64,2.89-.58,4.4-.64,7.5-.3,6.78-3.15,16.47-5.87,2.85-.8,20.96-10.36,23.57-11.59"/>
    <path class="cls-6" d="M544.62,931.69l-.65,2.81s-26.06,4.68-52.4,3.8c-26.34-.88-39.73-1.78-39.73-1.78l-.72-3.44s35.06,1.12,50.92,1c15.87-.12,42.57-2.39,42.57-2.39Z"/>
    <path class="cls-15" d="M545.06,925.31l-.34,5.65c-.03.47-.45.86-1.01.91-5.83.5-37.02,3.06-56.77,2.97-18.27-.08-31.22-1-34.98-1.3-.62-.05-1.07-.52-1.01-1.06l.19-1.62c.06-.5.55-.87,1.13-.86,4.79.08,25.26.36,39.11-.6,15.77-1.09,23.73-5.04,34.34-5.33,8.38-.23,15.61.09,18.28.23.61.03,1.08.48,1.05,1.01Z"/>
    <path class="cls-38" d="M475.34,934.86s-.82-6.99-3.24-9.27c-2.42-2.28-5.19-5.64-5.19-5.64,0,0,1.35-1.54,6.1-3.1,4.76-1.56,6.83-1.43,6.83-1.43,0,0,10.37,6.33,12.68,8.72,0,0,4.16.24,4.8-.57.65-.81-1.42-3.11-4.54-5.56-3.12-2.45-4.92-4.92-4.84-5.61s7.3-4.95,11.57-4.72c4.27.24,11.86,4.6,17.62,9.42,5.77,4.83,16.76,13.43,17.44,15.48,0,0-19.21,2.3-34.17,2.46-14.95.16-25.08-.19-25.08-.19Z"/>
    <path class="cls-6" d="M592.18,938.74l-.65,3.28s-26.06,5.46-52.4,4.43c-26.34-1.03-39.73-2.07-39.73-2.07l-.72-4.01s35.06,1.31,50.92,1.16c15.87-.14,42.57-2.79,42.57-2.79Z"/>
    <path class="cls-15" d="M592.62,931.3l-.34,6.58c-.03.55-.45,1-1.01,1.06-5.83.58-37.02,3.57-56.77,3.46-18.27-.1-31.22-1.17-34.98-1.52-.62-.06-1.07-.61-1.01-1.23l.19-1.89c.06-.58.55-1.02,1.13-1,4.79.1,25.26.42,39.11-.69,15.77-1.27,23.73-5.87,34.34-6.21,8.38-.27,15.61.1,18.28.27.61.04,1.08.56,1.05,1.17Z"/>
    <path class="cls-41" d="M559.66,913.39l-33.27,14.8c-2.45,1.77,30.7,17.62,63.64-7.43l-3.69-7.7-26.67.33Z"/>
    <path class="cls-49" d="M584.59,900.93c-.41,4.15-1.5,3.83,1.74,12.12,1.64,4.19,9.29,16.17,4.74,18.85-5.41,3.18-17.84,1.83-21.41,2.58-7.52,1.57-13.84,1.75-21.07,3.85-7.33,2.13-8.77,1.69-8.09,1.61,1.1-.13-8.35.87-9.4,1.12-.97.23-4.44.01-5.08-.29-2.28-1.08-3.12.37-5.72.05-1.15-.14-1.75.06-2.82-.31-2.82-1-6.35-2.02-9.34-2.61-2.99-.59-6.03-1.5-8.09-3.36-2.07-1.86-2.83-4.87-1.03-6.9,2.73-3.06,6.22-1.24,9.89-1.51,3.67-.27,5.05-.79,8.3-2.11,8.29-3.38,9.57-4.06,16.56-6.7,5.42-2.05,20.48-7.01,28.14-11.69l-1.26-6.71"/>
    <g>
      <path class="cls-1" d="M525.58,940.26c-.98-.25-1.46-1.33-1.32-2.28.13-.89.79-1.59,1.48-2.09,1.61-1.17,3.6-1.73,5.45-2.41.22-.08.12-.43-.1-.35-1.65.61-3.37,1.13-4.9,2.03-1.27.75-2.53,1.94-2.29,3.55.13.89.68,1.68,1.58,1.91.23.06.33-.29.1-.35h0Z"/>
      <path class="cls-1" d="M517.31,940.25c-1.94-.04-1.93-2.52-1.57-3.89.63-2.37,3.37-3.02,5.4-3.71,1.39-.48,2.8-1.24,4.31-1.2.24,0,.24-.36,0-.37-1.5-.04-2.89.68-4.27,1.17s-2.85.84-4.08,1.72c-.84.6-1.45,1.33-1.71,2.34-.22.86-.29,1.82-.05,2.68.26.97.96,1.61,1.98,1.63.24,0,.24-.36,0-.37h0Z"/>
      <path class="cls-1" d="M511.5,938.55c-1.34-.44-2.03-2.01-1.79-3.35.21-1.18,1.07-2.11,2.01-2.8,1.07-.78,2.29-1.34,3.53-1.8s2.61-.89,3.94-1.12c.23-.04.13-.39-.1-.35-1.22.21-2.46.61-3.63,1.01-1.09.38-2.16.83-3.15,1.43-1.65.99-3.27,2.56-2.97,4.66.17,1.2.89,2.29,2.07,2.68.22.07.32-.28.1-.35h0Z"/>
      <path class="cls-1" d="M505.62,937.53c-1.7-.68-3.03-2.38-2.93-4.27.07-1.39,1.18-2.27,2.3-2.92,1.27-.74,2.68-1.26,4.08-1.7.62-.2,1.24-.38,1.87-.56.83-.24,1.71-.67,2.58-.62.24.01.23-.35,0-.37-.74-.04-1.46.26-2.15.48-.58.19-1.18.34-1.77.52-1.23.37-2.46.79-3.63,1.33-1.07.49-2.19,1.1-2.95,2.03-.71.87-.84,1.98-.56,3.06.4,1.56,1.6,2.78,3.07,3.37.22.09.31-.27.1-.35h0Z"/>
    </g>
    <path class="cls-38" d="M522.9,942.43s-.82-8.14-3.24-10.79c-2.42-2.66-5.19-6.57-5.19-6.57,0,0,1.35-1.79,6.1-3.61,4.76-1.82,6.83-1.67,6.83-1.67,0,0,10.37,7.38,12.68,10.16,0,0,4.16.28,4.8-.67.65-.95-1.42-3.62-4.54-6.48s-4.92-5.73-4.84-6.54c.08-.81,7.3-5.77,11.57-5.49,4.27.28,11.86,5.36,17.62,10.98,5.77,5.62,16.76,15.65,17.44,18.04,0,0-19.21,2.68-34.17,2.87-14.95.19-25.08-.22-25.08-.22Z"/>
    <path class="cls-30" d="M554.74,918.91c1.61,1.41,3.21,2.85,4.79,4.3,1.18,1.09,2.36,2.18,3.49,3.32.7.7,1.67,1.48,2.13,2.38.32.63.77,1.76.45,2.44-.46.97-1.98,1.36-2.9,1.64-1.35.42-2.75.79-4.16.94-1.53.16-3.04-.08-4.25-1.09-1.06-.89-1.95-2.05-2.84-3.11-1.85-2.2-3.62-4.47-5.36-6.76-.16-.21-.86.05-.67.29,1.69,2.24,3.43,4.45,5.22,6.6,1.91,2.29,3.66,4.63,6.91,4.55,2.38-.06,5.15-.73,7.26-1.81,1.15-.59,1.9-1.41,1.47-2.72-.28-.86-.55-1.46-1.16-2.14-1.01-1.13-2.12-2.18-3.22-3.22-2.12-2.01-4.3-3.97-6.5-5.89-.2-.17-.88.11-.67.29h0Z"/>
    <path class="cls-30" d="M530.02,923.5c1.3,1.27,2.58,2.56,3.8,3.91,1.14,1.25,2.32,2.55,2.61,4.27.24,1.45-1.57,2.03-2.65,2.38-1.75.57-3.66,1.12-5.52,1.1-2.43-.03-3.9-1.68-5.38-3.39-1.48-1.71-2.88-3.48-4.24-5.28-.14-.19-.84.06-.67.28,1.32,1.75,2.68,3.47,4.11,5.13,1.53,1.78,3.04,3.5,5.53,3.65,1.77.11,3.58-.36,5.26-.84,1.31-.37,3.21-.79,4.03-2.01.84-1.24-.43-3.21-1.21-4.18-1.52-1.89-3.27-3.62-5-5.31-.18-.17-.86.1-.67.28h0Z"/>
    <path class="cls-25" d="M514.08,926.02s-.23-1.95,1.49-2.02c1.73-.07,2.87,1.98,6.01,1.7,3.15-.29,7.22-1.67,7.16-3.17-.06-1.5-.09-2.03-.09-2.03,0,0,1.11-.42,2.07.81.96,1.24-.39,3.19-1.93,4.08-1.54.89-3.31,1.79-7.21,1.96-3.9.17-7.5-1.33-7.5-1.33Z"/>
    <path class="cls-25" d="M539.65,919.28c2.93,2.84,4.7,4.47,9.47,3.99,4.77-.48,6.26-2.75,5.85-6.03-.42-3.28-6.12-6.72-6.12-6.72,0,0-2.45-.69-4.64-.76s-6.58,3.45-7.14,4.41c-.56.96-.34,2.27,2.59,5.11ZM538.34,915.73c.25-.88,9.54-4.66,9.54-4.66,0,0,4.85,2.97,4.7,6.07l-8.46,4.32s-6.03-4.85-5.78-5.73Z"/>
    <path class="cls-49" d="M485.51,349.38c.6-5.74,3.74-11.94,5.21-15.16.49-2.61,1.08-5.64,1.8-9.29.21-1.06.44-2.07.68-3.07.17-.5.29-1.02.38-1.54,4.47-17.58,12.35-25.56,12.35-25.56,10.05-10.09,24.68-14.06,38.43-10.44,16.26,3.93,28.81,17.1,34.3,28.78,2.73,5.79,3.23,12.38,1.41,18.51-1.55,5.24-4.1,10.95-6.81,16.42,5.76.99,10.91,4.27,6.52,14.33-6.06,13.88-16.4,16.32-19.92,11.36-1.05-.04-5.63,5.12-6.64,14.07-.67,5.92-5.42,11.64-3.68,17.34l2.84-1.17c-16.68,17.14-26.46,27.02-65.98,6.02l18.44-8.93,1.29-13.1c-3.15-.92-4.64-1.49-7.32-3.33-12.4-6.29-13.99-28.49-13.28-35.25Z"/>
    <path class="cls-21" d="M506.11,387.96s14.23,3.94,30.92-1.99c0,0-2.88,4.27-14.03,5.46s-17.19-.86-17.19-.86l.3-2.61Z"/>
    <path class="cls-3" d="M507.94,361.32c5.21,1.13,13.76,2.39,13.76,2.39,0,0-1.89,12.07-16.28,8.73-12.03-2.8-8.34-13.91-8.34-13.91,0,0,5.65,1.66,10.85,2.79Z"/>
    <path class="cls-19" d="M507.89,361.3c2.47.54,11.71,2.44,11.71,2.44,0,0-3.47,5.66-12.43,3.72-9.71-2.1-9.47-7.55-9.47-7.55l10.18,1.39Z"/>
    <path class="cls-45" d="M507.55,362.38c2.47.54,10.09,1.78,10.09,1.78,0,0-3.38,1.32-10.81-.29-7.42-1.61-9.12-3.95-9.12-3.95l9.84,2.46Z"/>
    <path class="cls-3" d="M495.66,358.25c.05-.26.62-.25,1.87-.09,2.08.28,2.9-.28,4.41-.06,2.57.37,3.98,1.64,5.08,1.88s2.91-.34,5.41.39c1.46.43,5.03,1.72,7.04,2.33,1.21.36,2.74.23,2.99.35.35.16-1.21,3.21-15.05.21-13.85-3-11.82-4.67-11.75-5.02Z"/>
    <g>
      <path class="cls-22" d="M528.31,325.13h0s.02-.1.02-.1h.26c6.96-.4,12.4.52,14.51,1.53,1.36.66,2.65,1.67,3.84,3,.32.35,3.19,3.48,3.43,4.64.08.41-.1.58-.22.64-.15.08-.59.32-2.41-1.33-.2-.13-.37-.26-.53-.38-.28-.21-.53-.4-.86-.55-.77-.34-1.52-.72-2.27-1.09-2.29-1.14-4.43-2.22-6.94-2.39-2.42-.18-5.86.62-8.63,1.27-.47.11-.91.21-1.34.31l-.47.1.08-.47c.12-.72.29-1.42.46-2.08.23-.91.44-1.77.54-2.7v-.02c.05-.31.36-.36.52-.38Z"/>
      <path class="cls-22" d="M493,321.65s-.02-.03-.03-.04c0,0,0,0,0,0-.02-.05-.03-.09-.04-.14-.02-.14-.02-.28-.02-.42.23-.48.46-.95.64-1.44.91-.38,1.72-.67,1.76-.69,1.4-.52,2.74-.77,3.99-.73,1.94.05,6.32,1.42,11.35,4.31l.22.13-.03.08c.11.08.31.26.22.53-.27.7-.43,1.39-.6,2.13-.13.55-.25,1.12-.44,1.69l-.14.45-.37-.3c-1.77-1.43-5.56-3.15-8.43-4.34-2.55-1.08-3.67-1.27-6.47-1.43-.3-.02-.54.03-.83.07-.17.03-.34.06-.48.07,0,0-.13.03-.31.07Z"/>
    </g>
    <path class="cls-22" d="M498.05,300.92c-.12.1-.21.16-.21.16,7.75-32.71,40.77-32.24,40.77-32.24,0,0,34.97,5.54,44.89,20.81,5.09,7.84,5.95,15.67,5.95,15.67l1.74,2.48c1.87,2.65,4.89,5.77,5.24,8.99,2.88,25.94-12.1,34.68-14.5,35.9h0c-.38.67-1.67.14-1.77-.52-.35-2.39-3.11-2.53-5.18-2.68-2.53-.19-4.16.8-6.15,2.26-1.88,1.38-2.46,3.25-3.78,5.03-.48.64-.52.93-1.16,1.03-.06.02-.13.03-.21.04,0,0,0,0,0,0,0,0,0,0,0,0-.07,0-.13.02-.21,0-1.72-.23-4.6-2.29-3.72-4.29.24-.55.99-.78,1.39-1.18,1.12-1.14,1.26-2.29,1.63-3.86.59-2.49,1.22-5.02,2.21-7.39,1.23-2.96,2.84-5.59,3.24-8.85.34-2.81-.16-5.64-.38-8.44-.18-2.37-.43-4.39-1.25-6.65-1.74-4.79-4.94-9.21-9.07-12.23-4.12-3.01-8.44-3.05-13.32-2.8-4.42.23-8.73.1-13.05-.94-3.87-.94-7.57-2.67-11.47-3.46-7.83-1.58-17.53,4.1-21.54,10.73-.43.71-1.87.06-1.78-.7.3-2.45.9-4.73,1.71-6.88Z"/>
    <path class="cls-46" d="M516.77,351.14c-.15-.03.06.04,0,0s.06.04.07.05c.05.04,0,0-.01-.01.02.02.05.04.06.07.03.04.07.09.09.13,0,0,.01,0,.04.09.02.05.03.1.05.15.03.12.05.25.07.37.05.46-.05,1.02-.19,1.49-.02.06-.04.12-.06.17,0,.03.01-.02-.02.06-.04.09-.07.18-.12.26s-.11.15-.18.22c-.09.09-.21.16-.28.19-.05.02-.09.04-.14.06.02,0,.09-.03,0,0-.08.02-.15.04-.23.06-.13.03.09-.01-.04,0-.04,0-.08.01-.12.02-.1.01-.19.02-.29.02-.25,0-.66-.01-.96-.06-.87-.16-1.56-.89-2.35-1.25-.33-.15-.73-.11-1.03.11-.2.14-.43.53-.1.68.89.4,1.62,1.13,2.58,1.35s2.13.21,3.09-.14c.75-.28,1.35-.82,1.62-1.58.22-.62.33-1.28.29-1.94-.02-.34-.1-.67-.29-.96-.23-.36-.61-.51-1.01-.58-.32-.06-.79.13-.95.43-.17.33.15.49.42.54h0Z"/>
    <path class="cls-35" d="M460.94,573.65c.26-4.79-13.07-16.23-10.26-35.54,2.18-16.57.8-80.55,5.78-99.35,3.66-13.81,27.8-27.66,34.99-30.92l13.37-6.78s2.9,1.85,17.46,4.01c15.03,2.23,6.6.87,16.63-2.74,0,0,10.1-2.14,11.31-7.42l2.78,1.39c7.19,3.6,14.69,6.53,21.96,9.96,6.75,3.18,15.07,7.01,20.52,12.18,3.99,3.49,10.05,8.38,12.2,13.41,7.14,20.06-12.41,100.18-12.41,113.38,0,39.93,3.88,27.03,11.56,86.04l.14,5.55c.06,19.59.08,33.88-5.38,53.08l-.34,94.02s-1.97,26.9,1.65,56.99c2.29,19.01.15,57.75-2.02,72.64-3.65,6.39-50.68,5.3-56.66,5.46-23.85.64-50.63-7.27-74.19-10.74l.97-27.49-1.23-60.22c-3.31-35.15-5.2-78.73-5.2-86.03l-2.74-98.82"/>
    <path class="cls-24" d="M461.28,633.44c.48,0,1.56-.72.59-.72-.48,0-1.56.72-.59.72h0Z"/>
    <path class="cls-24" d="M460.38,447.31c.74,5.72.81,11.54.87,17.3.09,8.11-.02,16.23-.19,24.34-.35,17.33-1.02,34.66-1.44,51.99-.16,6.65-.36,13.33-.16,19.98.01.36,1.46.11,1.45-.39-.41-13.9.37-27.87.79-41.76.53-17.31,1.13-34.64,1.03-51.96-.04-6.62-.05-13.32-.89-19.9-.05-.39-1.51-.08-1.45.39h0Z"/>
    <g>
      <path class="cls-35" d="M554.12,396.72c-.14-2.98-.45-5.96-.92-8.91-26.42,16.04-38.44,9.83-48.56,6.34-.16,2.5-.7,1.99-.86,4.49-.02.32-.32,2.63-.24,2.94.14.52.69.5,1.09.85,1.64,1.42,1.82,1.1,3.84,1.88,7.24,2.79,18.35,3.22,25.92,1.55,7.57-1.68,14.42-3.57,19.8-9.15"/>
      <path class="cls-24" d="M554.85,396.52c-.15-2.99-.45-5.96-.92-8.91-.05-.34-1.14.09-1.28.17-7.61,4.6-15.96,8.76-24.89,9.92-5.32.69-10.59.08-15.7-1.48-2.3-.7-4.55-1.57-6.82-2.35-.28-.1-1.29.1-1.32.47-.13,1.62-.72,3.12-.88,4.74-.07.74-.25,1.51-.22,2.26.03.9.63.96,1.29,1.47,1.39,1.08,2.93,1.5,4.58,2.07,2.1.73,4.28,1.23,6.48,1.58,9.05,1.44,18.09.44,26.79-2.31,4.83-1.53,9.33-3.85,12.9-7.49.3-.3-1.06-.14-1.31.11-3.13,3.19-6.96,5.34-11.18,6.76s-8.37,2.41-12.64,2.81-8.84.28-13.18-.4c-1.97-.31-3.94-.73-5.84-1.33-1.51-.48-3.38-.9-4.68-1.84-.63-.46-1.68-.93-1.77-1.72-.08-.72.14-1.54.21-2.26.17-1.66.76-3.18.89-4.84l-1.32.47c4.6,1.59,9.12,3.32,13.99,3.91,6.82.82,13.67-.47,20.08-2.8,5.48-1.99,10.66-4.71,15.64-7.72l-1.28.17c.47,2.95.77,5.92.92,8.91.01.25,1.47.01,1.45-.39h0Z"/>
    </g>
    <path class="cls-24" d="M518.69,398.19c1.08,2.62,2.15,5.25,3.23,7.87.13.32.3.64.4.97-.09-.31.05-.27-.08.09-.31.81-.53,1.67-.78,2.5-2.41,7.85-4.6,15.79-6.35,23.82-.98,4.48-1.85,9.01-2.25,13.58-.31,3.55-.26,7.15-.36,10.72-.24,8.95-.52,17.9-.8,26.86-.18,5.84-.37,11.68-.57,17.52l.8-.59c-2.92,0-5.84,0-8.76,0l.67.49c-.48-14.18-.84-28.4-.54-42.59.07-3.41.15-6.84.54-10.23.44-3.92,1.12-7.82,1.8-11.71,1.58-9.04,3.37-18.05,5.2-27.04.29-1.41.58-2.81.87-4.22.1-.48.3-1.02.26-1.51-.04-.55-.34-1.18-.49-1.71-.28-.97-.56-1.94-.83-2.91-.42-1.47-.84-2.95-1.27-4.42-.19-.68-1.64-.29-1.45.39.82,2.86,1.57,5.75,2.46,8.59.17.53.13.33-.01,1.03-.21,1.01-.42,2.01-.63,3.02-1.76,8.54-3.46,17.1-5.01,25.68-1.35,7.45-2.59,14.85-2.83,22.42-.29,9.04-.16,18.1,0,27.15.11,6.06.25,12.11.46,18.16.01.38.34.49.67.49,2.92,0,5.84,0,8.76,0,.3,0,.78-.25.8-.59.46-13.89.91-27.79,1.29-41.68.1-3.6.16-7.2.27-10.79.13-4.29.86-8.57,1.69-12.77,1.71-8.65,4.03-17.18,6.57-25.62.35-1.16.7-2.31,1.07-3.46.16-.51.3-.8.16-1.3-.44-1.64-1.34-3.28-1.99-4.85-.51-1.25-1.02-2.5-1.54-3.74-.27-.66-1.71-.25-1.45.39h0Z"/>
    <path class="cls-24" d="M508.16,429.33c.02,1.46.91,2.75,2.3,3.25,1.49.53,3.26.05,4.28-1.15.96-1.12,1.11-2.73.35-4-.8-1.33-2.41-1.86-3.89-1.59-1.66.31-3.03,1.77-3.05,3.49-.01.76,1.46.55,1.47-.11,0-.52.13-1.02.42-1.45s.66-.69,1.02-.82c.2-.07.38-.1.62-.11.19,0,.44.02.65.09.48.15.9.44,1.21.83.66.83.75,1.98.23,2.9-.11.2-.26.39-.43.54-.15.14-.36.27-.54.36-.16.07-.09.05-.26.09-.05.01-.1.03-.16.04-.25.06.07,0-.08.01-.29.03-.47.03-.76-.03-1.08-.23-1.91-1.32-1.93-2.45,0-.36-.35-.5-.67-.48-.28.02-.8.23-.8.59Z"/>
    <path class="cls-24" d="M512.09,402.03c.02,1.46.91,2.71,2.29,3.2,1.47.52,3.27.04,4.28-1.15.95-1.11,1.12-2.69.36-3.96-.8-1.33-2.41-1.83-3.88-1.55-1.65.31-3.03,1.74-3.06,3.45,0,.35.36.45.66.42.26-.02.8-.21.81-.56,0-.55.14-1.08.46-1.53.12-.17.29-.34.41-.45.1-.08.21-.16.32-.22-.07.04.04-.02.05-.02.04-.02.23-.1.2-.09.2-.07.38-.11.62-.11.18,0,.44.03.66.1.48.15.9.45,1.22.85.66.83.76,2.01.24,2.94-.12.21-.26.39-.43.55-.15.14-.38.3-.54.37-.32.15-.71.22-1.16.13-1.16-.23-2.01-1.35-2.03-2.52,0-.35-.35-.45-.66-.42-.25.02-.81.22-.81.56Z"/>
    <path class="cls-24" d="M508,461.1c1.49-.02,3-.94,3.54-2.36s.12-2.94-1.04-3.88-2.98-1.01-4.28-.25-2.08,2.2-1.81,3.71c.14.78.59,1.48,1.19,1.98.68.57,1.53.79,2.4.8.31,0,.76-.24.8-.58.04-.38-.39-.46-.67-.47-.4,0-.91-.2-1.29-.48s-.7-.71-.86-1.17c-.34-.96-.1-2.13.66-2.77.38-.32.74-.45,1.15-.48s.9.08,1.31.34c.89.56,1.34,1.62,1.17,2.65-.09.52-.37,1.05-.72,1.37-.25.23-.4.32-.7.43.11-.04-.05.01-.07.02-.09.03-.18.05-.27.07.04,0,.1,0-.04,0-.11,0-.22.02-.33.02-.31,0-.76.24-.8.58-.04.37.39.47.67.47Z"/>
    <path class="cls-24" d="M507.02,487.87c1.53-.02,3.09-.8,3.74-2.24.57-1.27.19-2.83-.89-3.7-2.37-1.93-6.71.01-6.22,3.23.25,1.66,1.77,2.69,3.38,2.71.31,0,.78-.11.96-.38s-.16-.37-.38-.37c-2.31-.03-3.36-3.16-1.74-4.7.14-.14.37-.3.48-.35.22-.11.33-.14.53-.15.44-.04.96.11,1.37.35.93.56,1.46,1.69,1.31,2.76-.08.59-.34,1.16-.77,1.57-.1.09-.21.18-.32.26-.09.06-.18.11-.25.14-.22.1-.34.12-.61.12-.31,0-.77.11-.96.38s.16.37.38.37Z"/>
    <path class="cls-24" d="M461.76,505.71c7.59,2.22,16.46,1.74,23.9-.96.14-.05.48-.16.48-.35,0-5.45,0-10.91,0-16.36,0-8.7,0-17.39,0-26.09,0-2,0-4,0-6,0-.16-.53-.08-.59-.07-3.19.49-6.39.97-9.58,1.46-4.64.7-10.09,1.16-14.21-1.5-.34-.22-1.55.37-1.37.49,4.16,2.68,9.84,2.36,14.53,1.65,3.45-.52,6.91-1.05,10.36-1.57l-.59-.07c0,5.45,0,10.91,0,16.36,0,8.7,0,17.39,0,26.09,0,2,0,4,0,6l.48-.35c-6.93,2.51-15.18,2.78-22.21.72-.33-.1-1.6.44-1.19.55h0Z"/>
    <path class="cls-24" d="M485.13,463.81c-1.38.64-3.35.93-5.02,1.15-5.84.74-11.82.28-17.62-.54-.46-.06-1.7.67-.89.78,6.04.85,12.24,1.32,18.31.55,1.91-.24,4.02-.53,5.79-1.35.91-.42.08-.89-.57-.59h0Z"/>
    <path class="cls-46" d="M575.72,361.83c1.02-1.78,1.75-3.8,1.61-5.88-.03-.46,0-1.12-.55-1.21-1.69-.29-3.57,1.12-4.78,2.07-2,1.56-3.72,3.47-5.36,5.41-.17.2.05.36.23.4.3.07.63-.05.89-.18-.37.19.26-.1.25-.09.21-.07.45-.14.66-.03.58.28.42,1.35.31,1.85-.16.7-.51,1.36-1.05,1.84-.73.64-1.66.71-2.59.62-.55-.05-1.54.72-.57.81,2.49.23,5.22-.97,5.7-3.65.16-.91.08-2.05-1-2.28-.87-.19-1.83.13-2.6.52l1.12.22c1.39-1.64,2.84-3.24,4.48-4.64.79-.67,1.81-1.44,2.63-1.81.15-.07.3-.13.46-.19-.2.07.16-.04.25-.07.17-.05-.1.02-.02,0,.04,0,.09,0,.12-.02.16-.06-.16,0,.06,0,.14,0-.13-.08.03,0-.47-.24-.24-.26-.24-.04,0,.17.07.35.09.51.25,2.02-.49,4.08-1.48,5.81-.33.58,1.11.43,1.35.02h0Z"/>
    <path class="cls-35" d="M525.04,340.83s7.16,5.61,14.35,4.48c2.58-.41,4.05-1.49,3.69-3.77-.73-4.54-6.56-6.21-10.17-6.08-3.92.14-7.12,1.41-7.87,5.37Z"/>
    <g>
      <path class="cls-27" d="M527.9,337.19c-1.43,2.39-.02,4.57,2.94,5.92,2.96,1.36,6.35,1.39,7.78-1,1.43-2.39.83-5.03-2.13-6.39-2.96-1.36-7.16-.92-8.59,1.47Z"/>
      <path class="cls-29" d="M530.57,338.14c-.8,1.33-.11,3.02,1.53,3.77,1.64.75,3.62.29,4.41-1.04.79-1.33.11-3.02-1.54-3.77-1.64-.75-3.62-.29-4.41,1.04Z"/>
    </g>
    <path class="cls-7" d="M525.81,338.52s5.06-3.46,11.9-.93c6.84,2.53,5.19,5.78,5.19,5.78,0,0,2.33-3.79-2.3-6.68-3.33-2.08-10.46-4.35-14.78,1.83Z"/>
    <ellipse class="cls-35" cx="535.08" cy="338.73" rx=".66" ry=".7" transform="translate(76.45 775.42) rotate(-75.93)"/>
    <path class="cls-35" d="M491.04,333.23s5.19,5.73,12.38,4.6c2.58-.41,4.05-1.49,3.69-3.77-.73-4.54-6.56-6.21-10.17-6.08-3.92.14-5.14,1.29-5.9,5.25Z"/>
    <g>
      <path class="cls-27" d="M493.47,329.96c-1.43,2.39-.02,4.57,2.94,5.92,2.96,1.36,6.35,1.39,7.78-1,1.43-2.39.83-5.03-2.13-6.39-2.96-1.36-7.16-.92-8.59,1.47Z"/>
      <path class="cls-29" d="M496.13,330.9c-.8,1.33-.11,3.02,1.53,3.77,1.64.75,3.62.29,4.41-1.04.79-1.33.11-3.02-1.54-3.77-1.64-.75-3.62-.29-4.41,1.04Z"/>
    </g>
    <path class="cls-7" d="M491.43,331.35s3.46-3.77,10.3-1.24c6.84,2.53,5.19,5.78,5.19,5.78,0,0,2.33-3.79-2.3-6.68-3.33-2.08-12.05-4.43-13.18,2.14Z"/>
    <ellipse class="cls-35" cx="500.65" cy="331.49" rx=".66" ry=".7" transform="translate(57.4 736.54) rotate(-75.93)"/>
    <path class="cls-46" d="M507.9,331.78c-.78,5.43-3.52,10.33-6.7,14.71-.45.61-.91,1.21-1.36,1.83-.19.26-.5.59-.59.91-.47,1.85,2.07,3.1,3.38,3.66,2.31.98,5.3,1.73,7.79,1.07.85-.22.71-.77-.15-.55-1.51.4-3.4-.13-4.85-.57-1.1-.33-2.24-.75-3.2-1.39-.75-.5-1.84-1.59-1.48-2.59.19-.52.75-1.05,1.07-1.48,3.51-4.71,6.68-9.92,7.52-15.83.06-.43-1.38-.17-1.44.23h0Z"/>
    <path class="cls-1" d="M528.12,920.11c1.93-.47,3.87-.94,5.8-1.41.23-.06.13-.41-.1-.35-1.93.47-3.87.94-5.8,1.41-.23.06-.13.41.1.35h0Z"/>
    <polygon class="cls-49" points="529.54 396.06 523.56 406.85 518.63 395.53 529.54 396.06"/>
    <path class="cls-24" d="M528.2,397.76l-4.99,8.7c-.34.59,1.11.45,1.35.03,1.66-2.9,3.32-5.8,4.99-8.7.34-.59-1.11-.45-1.35-.03h0Z"/>
    <path class="cls-1" d="M368.03,106.85s-10.91-2.18-19.53-4.65c-8.63-2.47-15.92-8.33-15.92-8.33,0,0,9.28,5.45,16.09,7.43,6.81,1.98,19.36,5.55,19.36,5.55Z"/>
    <path class="cls-1" d="M316.16,143.91s-8.55,2.79-11.82,14.57c0,0,2.35-14.36,11.82-14.57Z"/>
    <path class="cls-35" d="M574.88,418.95c11.25,1.45,28.21,8,32.79,12.91,6.2,19.04,14.6,112.32-.07,125.79-27.87,25.6-146.66,16-146.66,16l3.75-16.62-3.23-13.48,108.14-16.32s-10.72-88.59-7.19-94.24"/>
    <path class="cls-14" d="M203.52,264.68s39.53,11.99,88.28,21.77c48.76,9.77,81.22.58,81.22.58l-4,9.05s-10.51,10.88-65.15,4.24c-54.63-6.64-104.59-25.64-104.59-25.64l4.24-9.99Z"/>
    <path class="cls-26" d="M217.34,277.29s-6.22,10.58-4.33,15.36c1.89,4.78,51.72,14.68,59.26,15.03,7.53.35,9.12-15.32,9.12-15.32l-64.04-15.07Z"/>
    <path class="cls-26" d="M332.45,299.48s-2.02,9.49.16,12.53c2.18,3.04,34.25.57,38.12-2.35,3.87-2.92-1.01-15.04-1.01-15.04l-37.26,4.86Z"/>
    <ellipse class="cls-50" cx="303.56" cy="294.03" rx="3.87" ry="5.21" transform="translate(-36.12 545.48) rotate(-80.6)"/>
    <ellipse class="cls-50" cx="352.17" cy="303.76" rx="3.87" ry="5.21" transform="translate(-5.04 601.57) rotate(-80.6)"/>
    <path class="cls-44" d="M1384.47,396.88h-145.23s-10.04,41.3-9.9,40.9c.14-.4,146.38-1.66,146.38-1.66l8.75-39.24Z"/>
    <path class="cls-33" d="M390.78,493.08c0-1.38,9.2-2.49,20.54-2.49,11.34,0,20.54,1.12,20.54,2.49,0,.02,0,.04-.01.06h.01s-5.97,53.11-5.97,53.11h-.04c0,1.38-6.51,2.49-14.55,2.49-8.04,0-14.55-1.12-14.55-2.49l-5.97-53.11h.01s-.01-.04-.01-.06Z"/>
    <path class="cls-12" d="M390.78,493.08c0,1.38,9.2,2.49,20.54,2.49,11.34,0,20.54-1.12,20.54-2.49"/>
    <path class="cls-24" d="M569.76,527.74c4.01-.15,7.98,1.63,10.67,4.58.36.4,1.75-.14,1.34-.58-3.01-3.3-7.38-5.02-11.82-4.86-.26,0-.78.2-.82.51-.04.35.41.36.64.35h0Z"/>
    <path class="cls-24" d="M575.76,424.31c-4.64,1.93-8.26,5.38-10.2,10.04-1.21,2.92-1.81,6.15-1.77,9.32.07,5.26.15,10.51.4,15.78.45,9.18,1.05,18.36,1.68,27.53.61,8.84,1.25,17.68,1.92,26.52.23,3.08.47,6.15.71,9.22.08.97.15,1.95.23,2.92.03.44-.04,1.13.12,1.54.02.05.01.14.02.2l.85-.51c-3.92.58-7.83,1.17-11.75,1.75-9.11,1.36-18.22,2.71-27.32,4.07-10.3,1.53-20.61,3.07-30.91,4.6l-22.95,3.42c-4.54.68-9.06,1.45-13.59,2.24l-1.62.28c-.12.02-.96.22-.85.51,3.8,9.52,2.85,20.54-.52,30.02-.06.16.15.21.26.22,4.19.37,8.39.64,12.58.89,10.3.62,20.62,1.02,30.94,1.19,13.08.21,26.18.06,39.25-.73,12.6-.76,25.25-2.05,37.59-4.83,9.18-2.07,19.2-4.92,26.55-11.1,1.17-.98,1.98-2.12,2.79-3.41.15-.24-1.2-.16-1.44.23-.86,1.38-1.72,2.47-2.97,3.47-.78.62-1.59,1.2-2.42,1.75-1.8,1.18-3.72,2.19-5.67,3.09-4.63,2.12-9.53,3.61-14.46,4.83-11.97,2.95-24.32,4.29-36.6,5.12-12.87.88-25.79,1.1-38.69.96-10.54-.12-21.07-.49-31.6-1.09-3.33-.19-6.67-.4-10-.64-1.04-.08-2.08-.15-3.12-.24-.43-.03-1.18-.25-1.6-.13-.05.02-.14-.01-.2-.02l.26.22c3.38-9.52,4.35-20.62.53-30.18l-.85.51c4.52-.79,9.03-1.6,13.57-2.28,7.02-1.04,14.03-2.09,21.05-3.13,10.18-1.52,20.36-3.03,30.54-4.55,9.51-1.42,19.02-2.83,28.52-4.25,4.74-.71,9.53-1.26,14.24-2.12.07-.01.14-.02.21-.03.21-.03.87-.19.85-.51-.29-3.63-.57-7.25-.85-10.88-.64-8.29-1.25-16.59-1.83-24.88-.65-9.24-1.26-18.47-1.77-27.72-.34-6.3-.8-12.65-.63-18.96.05-2.05.05-4.04.45-6.07.87-4.45,3.02-8.69,6.66-11.49,1.21-.93,2.53-1.67,3.93-2.25.94-.39.06-.67-.53-.43h0Z"/>
    <path class="cls-24" d="M503.1,401.37c-12.39,6.4-24.92,12.33-35.47,21.66-3.68,3.25-7.21,6.9-9.71,11.15-1.89,3.21-2.75,6.65-3.35,10.29-1.66,10.11-2.03,20.46-2.44,30.68-.55,13.59-.75,27.19-1.12,40.79l.82-.5c-23.88,3.85-47.76,7.7-71.64,11.55-3.43.55-6.87,1.11-10.3,1.66-.23.04-.91.22-.82.6.62,2.58,1.24,5.17,1.86,7.75.45,1.87,1.43,4.39,1.26,6.11-.3,3.01-1.39,6.14-2.05,9.09-.53,2.35-1.06,4.69-1.59,7.04-.06.25.27.31.44.33,28.02,2.25,56.48,2.58,84.52.59l-.63-.21c2.47,5.42,7.12,10.37,7.2,16.48.07,4.95.14,9.91.21,14.86.19,13.16.38,26.33.56,39.49.24,17.12.87,34.25,1.34,51.37.54,19.65.97,39.3,1.61,58.94.66,20.21,1.88,40.42,3.41,60.59.55,7.3,1.56,14.63,1.71,21.94.11,5.18.21,10.36.32,15.53.26,12.87.52,25.74.79,38.62.18,8.66-.41,17.64-.72,26.54-.06,1.6-.11,3.2-.17,4.8,0,.18.11.28.28.31,25.27,3.77,49.84,10.93,75.57,10.74,13.99-.1,28.04.2,41.97-1.38,3.04-.34,6.12-.76,9.08-1.58,1.58-.44,3.86-1.01,4.95-2.37.71-.89.65-2.11.79-3.21.25-1.99.46-3.98.65-5.97.46-4.72.81-9.45,1.09-14.18.65-10.66,1.01-21.35.89-32.02-.13-11.13-1.63-22.05-2.38-33.14-.78-11.53-.97-23.11-.58-34.66.09-2.71.34-5.42.35-8.13.04-10.34.08-20.68.11-31.03.05-14.59.11-29.18.16-43.77.02-4.84.04-9.67.05-14.51,0-1.08-.08-2.2.01-3.27.06-.63,0-.35.27-1.35.94-3.53,1.82-7.07,2.51-10.67,2.51-13.02,2.64-26.25,2.6-39.46-.03-9.85-1.7-19.54-3.27-29.25-2.01-12.42-5.32-24.64-7.1-37.08-.37-2.61-.63-5.24-.82-7.87l-.44.5c5.39-2.28,11.72-5.21,14.61-10.61,1.99-3.72,2.95-7.99,3.68-12.11,2.19-12.28,2.28-24.97,2.06-37.41-.25-14.16-1.21-28.32-2.77-42.4-1.1-9.91-1.96-20.49-5-30.05-1.5-4.71-5.78-8.39-9.37-11.55-3.78-3.34-7.51-6.48-11.9-9.01-4.98-2.87-10.25-5.16-15.41-7.68-5.71-2.78-11.34-5.74-17.03-8.58-.43-.21-1.75.4-1.15.71,9.29,4.65,18.68,9.13,27.94,13.84,8.25,4.19,16.12,10.03,22.12,17.14,3.58,4.24,4.43,9.4,5.4,14.69.94,5.14,1.67,10.31,2.31,15.49,1.64,13.2,2.68,26.49,3.18,39.78.49,12.97.58,26.09-.93,39-.61,5.17-1.42,10.47-3.27,15.36-2.56,6.77-8.56,10.03-15.05,12.77-.21.09-.45.25-.44.5.76,10.42,3.38,20.45,5.38,30.67s3.49,19.94,4.86,29.96c1.41,10.3,1.14,20.8.72,31.18-.25,6.21-.8,12.41-1.83,18.54-.51,3.03-1.12,6.04-1.84,9.02-.45,1.88-1.26,3.89-1.5,5.81-.32,2.5-.02,5.25-.03,7.76-.05,12.79-.09,25.58-.14,38.37-.05,13-.09,26-.14,39-.02,6.79-.36,13.53-.5,20.31-.24,11.63.08,23.27,1.03,34.86.85,10.32,2.01,20.45,2.06,30.82.05,10.71-.36,21.43-1.06,32.12-.29,4.39-.63,8.77-1.08,13.14-.24,2.32.19,6.83-2.05,8.13s-5.01,1.65-7.43,2.04c-3.55.57-7.15.9-10.74,1.15-7.87.56-15.76.71-23.65.76-5.69.04-11.4.14-17.09.05-13.65-.21-27.17-2.73-40.53-5.35-6.43-1.26-12.84-2.59-19.29-3.76-1.49-.27-2.98-.54-4.47-.79-.88-.15-1.77-.29-2.66-.44-.32-.05-1.85-.07-2.05-.19-.59-.36.03.28-.28-.36-.13-.27.03-.97.04-1.26.23-6.5.46-12.99.69-19.49.27-7.71.04-15.39-.12-23.1-.27-13.14-.54-26.29-.8-39.43-.12-5.66-.75-11.27-1.21-16.92-.99-12.22-1.81-24.46-2.5-36.7-1.25-22.01-1.79-44.02-2.4-66.06-.64-22.96-1.38-45.93-1.91-68.89-.47-20.25-.58-40.52-.87-60.77-.01-.91.05-1.88-.16-2.78-.39-1.66-1.42-3.18-2.26-4.63-1.69-2.92-3.38-5.81-4.78-8.89-.11-.23-.41-.23-.63-.21-23.9,1.7-47.96,1.43-71.88.17-3-.16-6-.34-9-.54-.76-.05-1.54-.16-2.3-.16-1.27,0-.45-.22-.52.23.77-5.36,2.82-10.55,3.59-15.91.27-1.83-.55-3.75-.98-5.54-.7-2.91-1.4-5.82-2.09-8.74l-.82.6c23.88-3.85,47.76-7.7,71.64-11.55,3.43-.55,6.87-1.11,10.3-1.66.22-.04.81-.18.82-.5.6-22.32.24-44.92,2.95-67.12.44-3.6.86-7.4,2.13-10.83,1.73-4.69,5.17-8.71,8.7-12.16,6.56-6.41,14.39-11.86,22.55-16.05,5.07-2.6,10.16-5.19,15.22-7.8.86-.45-.42-.69-.9-.44h0Z"/>
    <path class="cls-24" d="M451.16,515.67c.83.04,1.55.6,2.15,1.13.67.6,1.36,1.25,1.89,1.98,1.04,1.44,1.3,3.29,1.52,5.01.06.45,1.51.13,1.45-.39-.24-1.9-.57-3.87-1.8-5.41-.59-.75-1.32-1.45-2.07-2.05s-1.58-1.01-2.56-1.06c-.3-.01-.79.11-.96.39-.18.29.15.38.38.4h0Z"/>
    <path class="cls-42" d="M352.4,390.85c.46-.74.9-1.48,1.34-2.23l-1.44.31c3.59,7.3,7.33,14.72,12.15,21.3,3.6,4.91,8.42,8.88,13.31,12.45,13.32,9.74,28.41,17.05,43.2,24.24,10.13,4.92,20.32,9.72,30.46,14.63.39.19,1.58-.41,1.36-.51-17.09-8.28-34.41-16.13-51.15-25.11-6.86-3.68-13.63-7.56-20.03-12-5.08-3.52-10.24-7.42-14.22-12.19-2.44-2.93-4.46-6.21-6.38-9.49-2.61-4.46-4.98-9.06-7.26-13.7-.2-.4-1.28.04-1.44.31-.44.75-.88,1.49-1.34,2.23-.13.21,1.2.14,1.43-.24h0Z"/>
    <path class="cls-42" d="M201.74,181.1c-10.83,1.65-21.13,5.73-30.36,11.62-5.46,3.48-10.91,7.36-14.86,12.53-3.4,4.46-6.62,9.05-9.72,13.72-13.45,20.32-24.68,42.12-34.71,64.31-7.53,16.66-14.79,33.73-19.93,51.3-5.03,17.2-6.19,35.7-7.72,53.46-2.28,26.31-3.66,52.69-5.28,79.05,0,.09.22.12.26.12l9.4,1.22,5.16.67c.18.02,1.24.02,1.36.18-.02-.03-.19,1.76-.2,2.1-.11,6.99-.18,13.97-.23,20.96-.14,18.85-.18,37.71-.19,56.57-.02,42.22.11,84.45.34,126.67.08,14.69.17,29.38.31,44.07.02,2.36.05,4.71.08,7.07.02,1.53-.21,3.29.07,4.79.23,1.26.92,1.38,2.17,1.82,2.56.9,5.25,1.5,7.89,2.12,16.18,3.8,32.63,6.72,49.04,9.37s32.31,2.15,48.38,2.39c21.14.31,42.34.63,63.48-.1,23.99-.83,47.85-3.62,70.04-13.28,4.67-2.03,9.23-4.29,13.73-6.67.13-.07.29-.15.3-.32,1.18-37.71,1.53-75.43,3.32-113.12,1-21.18,2.16-42.35,2.75-63.54.27-9.7.55-19.41.19-29.11-.32-8.87-.96-17.72-1.56-26.58-.63-9.36-.8-18.75-1.42-28.09-.16-2.35-.53-4.39-2.84-5.3-3.42-1.35-3.96-3.78-4.62-7.31-.07-.35-1.52,0-1.45.39.47,2.49.85,5.7,3.38,6.98,1.71.87,3.05.82,3.69,2.97,1.04,3.51.52,7.78.67,11.41.18,4.18.43,8.35.69,12.52,1.16,18.12,2.39,36.1,2.01,54.27-.85,41.6-3.83,83.12-4.79,124.71-.42,18.17-.79,36.35-1.31,54.52-.04,1.43.44,4.53-.5,5.7-.89,1.1-3.7,1.91-4.98,2.55-3.06,1.52-6.16,2.96-9.31,4.29-6.18,2.62-12.54,4.8-19.04,6.48-28.45,7.36-58.71,6.37-87.88,6.23-14.84-.07-29.68-.25-44.52-.66-8.3-.23-16.64-.26-24.85-1.54-10.2-1.58-20.36-3.44-30.49-5.39-9.25-1.78-18.73-3.35-27.74-6.13-.69-.21-2.19-.46-2.7-1.04-.43-.5-.3-1.11-.31-1.79-.04-2.35-.07-4.71-.09-7.06-.08-7.7-.14-15.4-.2-23.09-.17-23.31-.28-46.62-.36-69.93-.1-27.22-.15-54.43-.14-81.65.01-22.68.05-45.35.29-68.03.04-3.9.09-7.81.16-11.71,0-.09-.22-.12-.26-.12l-9.12-1.18-5.26-.68c-.28-.04-1.2,0-1.41-.18-.17-.15.19-2.37.23-3,.73-12.13,1.43-24.26,2.2-36.38,1.56-24.53,3.05-49.19,6.64-73.53,2.43-16.46,7.73-31.77,13.89-47.18,9.18-22.99,19.78-45.5,32.02-67.03,7.12-12.52,14.83-24.78,23.71-36.15,2.79-3.58,7.08-6.38,10.8-8.92,3.53-2.41,7.24-4.58,11.1-6.43,6.44-3.08,13.28-5.22,20.34-6.3.61-.09,1.27-.75.25-.6h0Z"/>
    <path class="cls-42" d="M485.39,410.24c-3.34-2.38-6.67-4.76-10.01-7.14-7.47-5.33-14.93-10.66-22.4-16-7.67-5.47-15.33-10.95-23-16.42-2.71-1.94-5.42-3.87-8.13-5.81-1.27-.9-2.84-1.74-3.96-2.83-.23-.22-.06.03-.19-.3-.19-.48-.28-1.03-.42-1.53l-1.89-6.86c-2.19-7.96-4.38-15.92-6.56-23.88-2.63-9.57-5.26-19.14-7.9-28.71-2.11-7.67-4.22-15.34-6.32-23-1.36-4.93-2.7-9.84-4.31-14.69-4.45-13.41-10.75-26.74-21.79-35.98-2.85-2.38-5.95-4.43-9.23-6.16-.39-.2-1.59.39-1.36.51,13.3,6.99,21.94,19.24,27.56,32.87,2.75,6.67,4.86,13.56,6.77,20.51,1.85,6.74,3.71,13.49,5.56,20.23,2.6,9.45,5.2,18.9,7.79,28.34,2.38,8.66,4.76,17.33,7.15,25.99l2.39,8.71.74,2.7c.12.44.18,1.02.39,1.43.3.59,1.13.97,1.67,1.36,2.09,1.49,4.18,2.99,6.28,4.48,7.13,5.09,14.27,10.19,21.4,15.28,7.85,5.61,15.7,11.21,23.56,16.82,4.72,3.37,9.44,6.74,14.16,10.11.23.16.45.32.68.49.35.25,1.62-.33,1.36-.51h0Z"/>
    <path class="cls-41" d="M89.12,468.42l-10.56,32.52,4.62,16.66,7.56,15.89,23.21,22.29s4.36-.28.87-7.23c-3.48-6.15-7.48-12.14-11.96-17.92l-1.04-17.56,5.27-7.02,5.19,1.51s-5.12,20.95-1.94,25.75c3.18,4.8,5.37,5.48,5.37,5.48l5.04-3.59,3.87-32.05s-.88-14.43-1.6-17.9c-1.13-3.48-3.15-9.56-4.91-12.93"/>
    <path class="cls-26" d="M308.27,461.55s1.72,17.57,4.29,21.84c2.56,4.27,35.34-1.65,39.64-6.53,4.31-4.87-1.73-27.37-1.73-27.37l-42.2,12.06Z"/>
    <ellipse class="cls-50" cx="342.15" cy="466.97" rx="5.21" ry="3.87"/>
    <path class="cls-42" d="M417.9,362.35c-3.64-.22-7.35-.38-10.89.67-3.1.92-5.76,2.75-7.51,5.49-.14.21.52.13.57.12.26-.04.7-.14.85-.38,1.58-2.47,3.95-4.25,6.8-4.98,3.01-.77,6.17-.54,9.23-.35.27.02.84-.06,1.02-.27.15-.17.27-.27-.08-.29h0Z"/>
  </g>
  <g id="Layer_9" data-name="Layer 9">
    <path class="cls-49" d="M373.04,554.44c1-3.53.93-7.44.85-11.03-.05-2.26,0-4.59-.26-6.84-.15-1.33-.57-2.61-.74-3.92l-4.29.88-33.02-3.2-19.05,8.76-5.52,14.23s1.12,3.26,2.95,2.07c1.38-1.09,2.54-2.44,3.4-3.97l3.09,8.19s4.2,2.48,5.02-1.72l4.15,5.57s3.19,1.98,4-1.37l5.51,6.22c1.35-.82,2.31-2.17,2.65-3.71.2-1.36-.08-2.75-.8-3.92,0,0,10.37-1.6,14.81-1.74,3.51-.11,13.29-3.2,17.26-4.49Z"/>
    <polygon class="cls-32" points="433.11 555.26 416.62 562.91 330.25 562.91 314.38 554.67 433.11 555.26"/>
    <rect class="cls-32" x="311.41" y="552.91" width="124.15" height="2.34" transform="translate(746.97 1108.17) rotate(-180)"/>
    <polygon class="cls-32" points="433.11 545.84 416.62 553.5 330.25 553.5 314.38 545.25 433.11 545.84"/>
    <rect class="cls-32" x="311.41" y="543.5" width="124.15" height="2.34" transform="translate(746.97 1089.34) rotate(-180)"/>
    <path class="cls-49" d="M462.38,566.88c1-3.53.93-7.28.85-10.87-.05-2.26-.6-5.99-.85-8.24-.15-1.33-.73-1.38-.91-2.7l-4.29.88-33.02-3.2-19.05,8.76-5.52,14.23s1.12,3.26,2.95,2.07c1.38-1.09,2.54-2.44,3.4-3.97l3.09,8.19s4.2,2.48,5.02-1.72l4.15,5.57s3.19,1.98,4-1.37l5.51,6.22c1.35-.82,2.31-2.17,2.65-3.71.2-1.36-.08-2.75-.8-3.92,0,0,10.37-1.6,14.81-1.74,3.51-.11,14.05-3.18,18.02-4.47Z"/>
    <path class="cls-46" d="M406.8,564.3c.19-.16.09-.53.07-.74-.06-.72-.14-1.44-.2-2.16-.07-.95-.29-2.11-.07-3.05s1.1-1.61,1.77-2.23c1.5-1.38,3.16-2.55,4.87-3.65,1.56-1.01,3.11-2.1,4.76-2.94.85-.43-.5-.33-.83-.16-1.67.86-3.24,1.93-4.82,2.94-1.7,1.09-3.38,2.24-4.9,3.58-.65.57-1.4,1.18-1.91,1.89-.57.8-.47,1.75-.42,2.67s.12,1.8.2,2.69c.03.31.07.61.09.92,0,.13-.02.42.06.35-.25.21.23.22.34.21.31-.01.73-.13.97-.34h0Z"/>
    <path class="cls-46" d="M414.64,570.35c-.12-1.23-1.05-2.26-1.32-3.46-.21-.91-.24-1.86-.1-2.79.12-.8.19-1.92.7-2.58.54-.7,1.5-1.13,2.25-1.57s1.48-.85,2.24-1.25c1.37-.74,2.77-1.46,4.08-2.3.82-.53-.46-.59-.87-.33-1.42.92-2.94,1.68-4.43,2.49-.88.48-1.75.98-2.61,1.5-.72.43-1.43.86-1.99,1.49s-.62,1.7-.76,2.5c-.15.9-.19,1.8-.05,2.7.13.84.43,1.59.82,2.35.26.51.55,1.05.6,1.63.04.39,1.5.09,1.45-.39h0Z"/>
    <path class="cls-46" d="M423.12,574.51c.17-.27-.08-.53-.25-.74-.35-.46-.71-.92-1.02-1.41-.74-1.16-1.27-2.57-.44-3.84.7-1.08,2.17-1.53,3.34-1.87.58-.17,1.15-.37,1.73-.55.87-.28,1.72-.63,2.6-.89.22-.06.71-.26.62-.57s-.62-.24-.82-.18c-1.45.43-2.87,1-4.32,1.44-1.35.41-2.85.9-3.91,1.88-1,.92-1.34,2.25-.96,3.54.22.77.69,1.45,1.15,2.1.2.29.42.56.63.84.06.08.11.18.18.24.12.11,0,.16.11-.03-.18.29.16.43.4.44.31.02.78-.12.96-.4h0Z"/>
    <path class="cls-33" d="M346.16,493.08c0-1.38,9.2-2.49,20.54-2.49,11.34,0,20.54,1.12,20.54,2.49,0,.02,0,.04-.01.06h.01s-5.97,53.11-5.97,53.11h-.04c0,1.38-6.51,2.49-14.55,2.49-8.04,0-14.55-1.12-14.55-2.49l-5.97-53.11h.01s-.01-.04-.01-.06Z"/>
    <path class="cls-12" d="M346.16,493.08c0,1.38,9.2,2.49,20.54,2.49,11.34,0,20.54-1.12,20.54-2.49"/>
    <path class="cls-34" d="M329.69,554.32c8.13,0,16.26,0,24.39,0,12.95,0,25.9,0,38.85,0,2.96,0,5.93,0,8.89,0,.58,0,1.62-.2,1.91-.79s-.24-.84-.78-.84c-8.13,0-16.26,0-24.39,0-12.95,0-25.9,0-38.85,0-2.96,0-5.93,0-8.89,0-.58,0-1.62.2-1.91.79s.24.84.78.84h0Z"/>
  </g>
</svg>