<?xml version="1.0" encoding="UTF-8"?>
<svg xmlns="http://www.w3.org/2000/svg" xmlns:xlink="http://www.w3.org/1999/xlink" viewBox="0 0 1334 1000">
  <defs>
    <style>
      .cls-1 {
        fill: #7f7f7e;
      }

      .cls-2 {
        mask: url(#mask);
      }

      .cls-3 {
        filter: url(#luminosity-noclip);
      }

      .cls-4 {
        fill: #828282;
      }

      .cls-5 {
        filter: url(#luminosity-noclip-13);
      }

      .cls-6 {
        filter: url(#luminosity-noclip-11);
      }

      .cls-7 {
        filter: url(#luminosity-noclip-3);
      }

      .cls-8 {
        filter: url(#luminosity-noclip-9);
      }

      .cls-9 {
        filter: url(#luminosity-noclip-7);
      }

      .cls-10 {
        filter: url(#luminosity-noclip-5);
      }

      .cls-11 {
        fill: #010101;
      }

      .cls-12 {
        fill: url(#linear-gradient-2);
      }

      .cls-13 {
        fill: #e8b48f;
      }

      .cls-14 {
        fill: url(#linear-gradient-4);
      }

      .cls-14, .cls-15, .cls-16, .cls-17, .cls-18, .cls-19, .cls-20, .cls-21, .cls-22, .cls-23, .cls-24, .cls-25, .cls-26, .cls-27 {
        mix-blend-mode: multiply;
      }

      .cls-15 {
        fill: url(#linear-gradient-9);
      }

      .cls-16 {
        fill: url(#linear-gradient-6);
      }

      .cls-17 {
        fill: url(#linear-gradient-5);
      }

      .cls-18 {
        fill: url(#linear-gradient-7);
      }

      .cls-19 {
        fill: url(#linear-gradient-8);
      }

      .cls-28 {
        fill: #6e472d;
      }

      .cls-29 {
        fill: #3c2a17;
      }

      .cls-30 {
        fill: url(#linear-gradient);
      }

      .cls-31 {
        fill: #f2eef7;
      }

      .cls-32 {
        fill: #dddbda;
      }

      .cls-33 {
        fill: #914a3b;
      }

      .cls-34 {
        fill: #804840;
      }

      .cls-35 {
        isolation: isolate;
      }

      .cls-36 {
        mask: url(#mask-2);
      }

      .cls-37 {
        mask: url(#mask-3);
      }

      .cls-38 {
        mask: url(#mask-4);
      }

      .cls-39 {
        mask: url(#mask-5);
      }

      .cls-40 {
        mask: url(#mask-7);
      }

      .cls-41 {
        mask: url(#mask-6);
      }

      .cls-42 {
        mask: url(#mask-1);
      }

      .cls-43 {
        mask: url(#mask-9);
      }

      .cls-44 {
        mask: url(#mask-8);
      }

      .cls-20 {
        fill: url(#linear-gradient-10);
      }

      .cls-21 {
        fill: url(#linear-gradient-11);
      }

      .cls-22 {
        fill: url(#linear-gradient-13);
      }

      .cls-23 {
        fill: url(#linear-gradient-12);
      }

      .cls-24 {
        fill: url(#linear-gradient-14);
      }

      .cls-25 {
        fill: url(#linear-gradient-16);
      }

      .cls-26 {
        fill: url(#linear-gradient-15);
      }

      .cls-45 {
        fill: #060606;
      }

      .cls-46 {
        fill: #568272;
        stroke: #345e50;
        stroke-miterlimit: 10;
      }

      .cls-47 {
        fill: #d9d0c0;
      }

      .cls-48 {
        fill: #4a2b12;
      }

      .cls-49 {
        fill: #050505;
      }

      .cls-50 {
        fill: #fff;
      }

      .cls-51 {
        fill: #0a0808;
      }

      .cls-52 {
        fill: #858280;
      }

      .cls-53 {
        fill: url(#linear-gradient-17);
      }

      .cls-54 {
        fill: #e9dbb0;
      }

      .cls-55 {
        fill: #552d23;
      }

      .cls-56 {
        fill: url(#linear-gradient-3);
        mix-blend-mode: screen;
        opacity: .13;
      }

      .cls-57 {
        fill: #f2ebd1;
      }

      .cls-58 {
        mask: url(#mask-10);
      }

      .cls-59 {
        mask: url(#mask-11);
      }

      .cls-60 {
        mask: url(#mask-13);
      }

      .cls-61 {
        mask: url(#mask-12);
      }

      .cls-62 {
        fill: #ae745b;
      }
    </style>
    <linearGradient id="linear-gradient" x1="6326.07" y1="-7965.16" x2="7917.81" y2="-7965.16" gradientTransform="translate(-7086.89 -6519.06) rotate(90)" gradientUnits="userSpaceOnUse">
      <stop offset=".21" stop-color="#f1ebe1"/>
      <stop offset=".62" stop-color="#e8dcca"/>
      <stop offset=".98" stop-color="#e2d2bb"/>
    </linearGradient>
    <linearGradient id="linear-gradient-2" x1="13666.46" y1="-7792.39" x2="13666.46" y2="-6638.96" gradientTransform="translate(13833.34 -7163.42) rotate(-180)" gradientUnits="userSpaceOnUse">
      <stop offset=".21" stop-color="#c5e8f2"/>
      <stop offset=".22" stop-color="#c3e6f0"/>
      <stop offset=".47" stop-color="#89bbd1"/>
      <stop offset=".66" stop-color="#65a1be"/>
      <stop offset=".75" stop-color="#5897b7"/>
    </linearGradient>
    <linearGradient id="linear-gradient-3" x1="-9572.34" y1="-6830.07" x2="-8776.99" y2="-7398.18" gradientTransform="translate(9302.12 -7163.42) scale(1 -1)" gradientUnits="userSpaceOnUse">
      <stop offset="0" stop-color="#fff"/>
      <stop offset="1" stop-color="#4a82c3"/>
    </linearGradient>
    <filter id="luminosity-noclip" x="385.87" y="-228.97" width="403.52" height="529.53" color-interpolation-filters="sRGB" filterUnits="userSpaceOnUse">
      <feFlood flood-color="#fff" result="bg"/>
      <feBlend in="SourceGraphic" in2="bg"/>
    </filter>
    <filter id="luminosity-noclip-2" x="385.87" y="-5878.17" width="403.52" height="32766" color-interpolation-filters="sRGB" filterUnits="userSpaceOnUse">
      <feFlood flood-color="#fff" result="bg"/>
      <feBlend in="SourceGraphic" in2="bg"/>
    </filter>
    <mask id="mask-1" x="385.87" y="-5878.17" width="403.52" height="32766" maskUnits="userSpaceOnUse"/>
    <linearGradient id="linear-gradient-4" x1="3943.59" y1="-11.18" x2="3943.59" y2="-363.27" gradientTransform="translate(4531.22) rotate(-180) scale(1 -1)" gradientUnits="userSpaceOnUse">
      <stop offset=".16" stop-color="#000"/>
      <stop offset="1" stop-color="#fff"/>
    </linearGradient>
    <mask id="mask" x="385.87" y="-228.97" width="403.52" height="529.53" maskUnits="userSpaceOnUse">
      <g class="cls-3">
        <g class="cls-42">
          <path class="cls-14" d="M782.28-120.51c-8.95-7.06-9.84-47.24-14.55-67.78-4.55-19.79-13.28-18.15-16.39,4.8-3.34,24.66-3.04,55.05-3.36,81.49-.55,45.45.61,92.84-3.62,136.89-4.94-34.1-4.35-72.97-5.64-109.55-1.25-35.53-4.6-75.04-14.74-95.6-5.39-10.93-10.53-7.71-14.55,8.08-.95,3.71-1.77,7.94-3.53,6.34-1.72-1.57-3.17-4-4.5-7.81-1.62-4.63-3.22-10.39-5.27-13.13-4.89-6.54-8.72,5.7-10.53,19.17-2.75,20.53-4.68,42.19-5.83,64.19-2.39,45.62-2.21,92.04-3.96,137.88-1.54-45.26-.81-92.93-6.35-135.49-5.29-40.66-19.77-84.79-34.72-65.24-9.34,12.22-14.14,44.61-16.85,73.49-3.15,33.64-4.8,68.98-6.43,103.78-.48-10.56-1-21.11-1.54-31.64-1.14-21.98-2.13-44.13-3.81-65.78-1.54-19.87-3.48-40.19-6.82-57.86-2.06-10.88-5.07-25.48-9.08-29.92-5.65-6.26-8.3,18.61-10.48,30.18-1.45,7.71-3.68,18.21-7,15.73-5.47-4.08-7.7-23.62-10.35-37.27-1.9-9.78-4.97-23.38-9.15-21.63-3.17,1.32-3.9,15.19-4.19,23.13-.66,18.23-.67,36.98-.85,55.28-.28,27.64-.38,55.3-.41,82.95-.05,55.16.23,110.38-.35,165.52-.53,50.3-.11,101.02-2.55,150.86-3.6-82.9-2.84-167.27-3.08-250.74-.21-71.47-3-152.2-20.59-203.73-3.72-10.9-8.3-20.85-13.5-22.23-4.78-1.27-9.32,4.3-12.86,14.46-10.24,29.4-13.86,77.39-15.7,119.02-.51,11.4-.95,22.83-1.35,34.28-.25-7.41-.53-14.81-.84-22.21-.84-20.6-1.67-42.58-4.39-61.68-2.32-16.32-5.92-28.09-11.3-34.22-5.08-5.79-10.87-7.22-15.9.08-12.65,18.39-14.57,72.06-17.29,110.05-1.89,26.38-4.3,52.35-6.25,78.69-1.95,26.41-3.63,53.13-5,79.92-2.29,44.88-3.79,90.09-5.47,135.23-.7-45.54-3.06-90.63-3.64-136.24-.62-47.87-1.23-94.74-4.44-141.69-3.34-48.89-8-103.96-17.41-146.63v-68.05c9.16-3.75,11.59-13.86,24.71-13.86,16.1,0,16.1,15.24,32.2,15.24s16.1-15.24,32.19-15.24,16.1,15.24,32.19,15.24,16.1-15.24,32.19-15.24,16.1,15.24,32.19,15.24,16.1-15.24,32.19-15.24,16.09,15.24,32.19,15.24,16.09-15.24,32.18-15.24,16.1,15.24,32.19,15.24,16.1-15.24,32.19-15.24,16.1,15.24,32.19,15.24c13.12,0,15.54-10.11,24.7-13.86v97.24c-1.85,7.45-4.13,12.19-7.11,9.84Z"/>
        </g>
      </g>
    </mask>
    <filter id="luminosity-noclip-3" x="674.78" y="-227.52" width="33.92" height="1662.52" color-interpolation-filters="sRGB" filterUnits="userSpaceOnUse">
      <feFlood flood-color="#fff" result="bg"/>
      <feBlend in="SourceGraphic" in2="bg"/>
    </filter>
    <filter id="luminosity-noclip-4" x="674.78" y="-5878.17" width="33.92" height="32766" color-interpolation-filters="sRGB" filterUnits="userSpaceOnUse">
      <feFlood flood-color="#fff" result="bg"/>
      <feBlend in="SourceGraphic" in2="bg"/>
    </filter>
    <mask id="mask-3" x="674.78" y="-5878.17" width="33.92" height="32766" maskUnits="userSpaceOnUse"/>
    <linearGradient id="linear-gradient-5" x1="3796.18" y1="603.74" x2="3855.55" y2="603.74" xlink:href="#linear-gradient-4"/>
    <mask id="mask-2" x="674.78" y="-227.52" width="33.92" height="1662.52" maskUnits="userSpaceOnUse">
      <g class="cls-7">
        <g class="cls-37">
          <path class="cls-17" d="M700.31-213.86c3.43,0,6.12-.69,8.4-1.77l-1.01,1639.32c-2.33-1.15-5.1-1.89-8.68-1.89-12.87,0-15.33,9.56-24.22,13.21l1.03-1662.52c8.99,3.78,11.48,13.66,24.49,13.66Z"/>
        </g>
      </g>
    </mask>
    <linearGradient id="linear-gradient-6" x1="3796.18" y1="603.74" x2="3855.55" y2="603.74" gradientTransform="translate(4531.22) rotate(-180) scale(1 -1)" gradientUnits="userSpaceOnUse">
      <stop offset=".16" stop-color="#fff"/>
      <stop offset="1" stop-color="#999"/>
    </linearGradient>
    <filter id="luminosity-noclip-5" x="740.58" y="-226.84" width="33.92" height="1660.78" color-interpolation-filters="sRGB" filterUnits="userSpaceOnUse">
      <feFlood flood-color="#fff" result="bg"/>
      <feBlend in="SourceGraphic" in2="bg"/>
    </filter>
    <filter id="luminosity-noclip-6" x="740.58" y="-5878.17" width="33.92" height="32766" color-interpolation-filters="sRGB" filterUnits="userSpaceOnUse">
      <feFlood flood-color="#fff" result="bg"/>
      <feBlend in="SourceGraphic" in2="bg"/>
    </filter>
    <mask id="mask-5" x="740.58" y="-5878.17" width="33.92" height="32766" maskUnits="userSpaceOnUse"/>
    <linearGradient id="linear-gradient-7" x1="3752.23" y1="603.55" x2="3795.03" y2="603.55" xlink:href="#linear-gradient-4"/>
    <mask id="mask-4" x="740.58" y="-226.84" width="33.92" height="1660.78" maskUnits="userSpaceOnUse">
      <g class="cls-10">
        <g class="cls-39">
          <path class="cls-18" d="M764.68-213.86c4.17,0,7.25-1.01,9.82-2.52l-1.01,1641.3c-2.76-1.83-6.09-3.13-10.85-3.13-11.76,0-14.83,7.98-22.06,12.14l1.03-1660.78c7.87,4.16,10.77,12.98,23.07,12.98Z"/>
        </g>
      </g>
    </mask>
    <linearGradient id="linear-gradient-8" x1="3752.23" y1="603.55" x2="3795.03" y2="603.55" xlink:href="#linear-gradient-6"/>
    <filter id="luminosity-noclip-7" x="608.98" y="-228.05" width="33.92" height="1663.78" color-interpolation-filters="sRGB" filterUnits="userSpaceOnUse">
      <feFlood flood-color="#fff" result="bg"/>
      <feBlend in="SourceGraphic" in2="bg"/>
    </filter>
    <filter id="luminosity-noclip-8" x="608.98" y="-5878.17" width="33.92" height="32766" color-interpolation-filters="sRGB" filterUnits="userSpaceOnUse">
      <feFlood flood-color="#fff" result="bg"/>
      <feBlend in="SourceGraphic" in2="bg"/>
    </filter>
    <mask id="mask-7" x="608.98" y="-5878.17" width="33.92" height="32766" maskUnits="userSpaceOnUse"/>
    <linearGradient id="linear-gradient-9" x1="3867.17" y1="603.84" x2="3932.3" y2="603.84" xlink:href="#linear-gradient-4"/>
    <mask id="mask-6" x="608.98" y="-228.05" width="33.92" height="1663.78" maskUnits="userSpaceOnUse">
      <g class="cls-9">
        <g class="cls-40">
          <path class="cls-15" d="M635.93-213.86c2.74,0,5.01-.45,6.97-1.17l-1.01,1637.83c-1.86-.62-3.98-1-6.52-1-13.86,0-15.65,11.08-26.39,13.94l1.03-1663.78c10.18,3.28,12.24,14.19,25.92,14.19Z"/>
        </g>
      </g>
    </mask>
    <linearGradient id="linear-gradient-10" x1="3867.17" y1="603.84" x2="3932.3" y2="603.84" xlink:href="#linear-gradient-6"/>
    <filter id="luminosity-noclip-9" x="411.58" y="-228.88" width="33.92" height="1665.28" color-interpolation-filters="sRGB" filterUnits="userSpaceOnUse">
      <feFlood flood-color="#fff" result="bg"/>
      <feBlend in="SourceGraphic" in2="bg"/>
    </filter>
    <filter id="luminosity-noclip-10" x="411.58" y="-5878.17" width="33.92" height="32766" color-interpolation-filters="sRGB" filterUnits="userSpaceOnUse">
      <feFlood flood-color="#fff" result="bg"/>
      <feBlend in="SourceGraphic" in2="bg"/>
    </filter>
    <mask id="mask-9" x="411.58" y="-5878.17" width="33.92" height="32766" maskUnits="userSpaceOnUse"/>
    <linearGradient id="linear-gradient-11" x1="4064.13" y1="603.76" x2="4128.41" y2="603.76" xlink:href="#linear-gradient-4"/>
    <mask id="mask-8" x="411.58" y="-228.88" width="33.92" height="1665.28" maskUnits="userSpaceOnUse">
      <g class="cls-8">
        <g class="cls-43">
          <path class="cls-21" d="M442.78-213.86c.96,0,1.86-.06,2.72-.16l-1.01,1635.82h-.04c-15.91,0-15.91,14.61-31.83,14.61-.36,0-.7-.02-1.04-.03l1.03-1665.25c14.09,1.22,14.78,15.02,30.17,15.02Z"/>
        </g>
      </g>
    </mask>
    <linearGradient id="linear-gradient-12" x1="4064.13" y1="603.76" x2="4128.41" y2="603.76" xlink:href="#linear-gradient-6"/>
    <filter id="luminosity-noclip-11" x="543.18" y="-228.43" width="33.92" height="1664.6" color-interpolation-filters="sRGB" filterUnits="userSpaceOnUse">
      <feFlood flood-color="#fff" result="bg"/>
      <feBlend in="SourceGraphic" in2="bg"/>
    </filter>
    <filter id="luminosity-noclip-12" x="543.18" y="-5878.17" width="33.92" height="32766" color-interpolation-filters="sRGB" filterUnits="userSpaceOnUse">
      <feFlood flood-color="#fff" result="bg"/>
      <feBlend in="SourceGraphic" in2="bg"/>
    </filter>
    <mask id="mask-11" x="543.18" y="-5878.17" width="33.92" height="32766" maskUnits="userSpaceOnUse"/>
    <linearGradient id="linear-gradient-13" x1="3941.9" y1="603.87" x2="3994.21" y2="603.87" xlink:href="#linear-gradient-4"/>
    <mask id="mask-10" x="543.18" y="-228.43" width="33.92" height="1664.6" maskUnits="userSpaceOnUse">
      <g class="cls-6">
        <g class="cls-59">
          <path class="cls-22" d="M571.56-213.86c2.1,0,3.92-.26,5.55-.71l-1.01,1636.79c-1.31-.27-2.75-.42-4.35-.42-14.74,0-15.83,12.52-28.56,14.37l1.03-1664.6c11.44,2.67,13.05,14.57,27.34,14.57Z"/>
        </g>
      </g>
    </mask>
    <linearGradient id="linear-gradient-14" x1="3941.9" y1="603.87" x2="3994.21" y2="603.87" xlink:href="#linear-gradient-6"/>
    <filter id="luminosity-noclip-13" x="477.38" y="-228.71" width="33.92" height="1665.08" color-interpolation-filters="sRGB" filterUnits="userSpaceOnUse">
      <feFlood flood-color="#fff" result="bg"/>
      <feBlend in="SourceGraphic" in2="bg"/>
    </filter>
    <filter id="luminosity-noclip-14" x="477.38" y="-5878.17" width="33.92" height="32766" color-interpolation-filters="sRGB" filterUnits="userSpaceOnUse">
      <feFlood flood-color="#fff" result="bg"/>
      <feBlend in="SourceGraphic" in2="bg"/>
    </filter>
    <mask id="mask-13" x="477.38" y="-5878.17" width="33.92" height="32766" maskUnits="userSpaceOnUse"/>
    <linearGradient id="linear-gradient-15" x1="4005.42" y1="603.83" x2="4065.54" y2="603.83" xlink:href="#linear-gradient-4"/>
    <mask id="mask-12" x="477.38" y="-228.71" width="33.92" height="1665.08" maskUnits="userSpaceOnUse">
      <g class="cls-5">
        <g class="cls-60">
          <path class="cls-26" d="M507.17-213.86c1.51,0,2.88-.14,4.13-.38l-1.01,1636.14c-.7-.06-1.42-.11-2.2-.11-15.53,0-15.91,13.9-30.71,14.57l1.03-1665.08c12.75,1.98,13.9,14.85,28.76,14.85Z"/>
        </g>
      </g>
    </mask>
    <linearGradient id="linear-gradient-16" x1="4005.42" y1="603.83" x2="4065.54" y2="603.83" xlink:href="#linear-gradient-6"/>
    <linearGradient id="linear-gradient-17" x1="642.4" y1="-246.11" x2="675.2" y2="1764.32" gradientUnits="userSpaceOnUse">
      <stop offset=".47" stop-color="#d8d8d8"/>
      <stop offset=".58" stop-color="#d4d4d4"/>
      <stop offset=".67" stop-color="#cacaca"/>
      <stop offset=".75" stop-color="#b9b9b9"/>
      <stop offset=".83" stop-color="#a1a1a1"/>
      <stop offset=".9" stop-color="#828282"/>
      <stop offset=".97" stop-color="#5c5c5c"/>
      <stop offset=".98" stop-color="#565656"/>
    </linearGradient>
  </defs>
  <g class="cls-35">
    <g id="Layer_3" data-name="Layer 3">
      <polyline class="cls-30" points="-206.63 1398.75 1963.18 1398.75 1963.18 -193 -206.63 -193"/>
      <rect class="cls-50" x="-583.5" y="-361.23" width="1231.67" height="989.82"/>
      <g>
        <rect class="cls-12" x="-81.06" y="-328.59" width="495.88" height="915.54"/>
        <polygon class="cls-56" points="424.07 437.02 -71.73 -290.97 -71.73 -382.63 44.98 -382.63 424.07 173.91 424.07 437.02"/>
      </g>
      <g>
        <g>
          <g>
            <path class="cls-47" d="M410.59-228.97c16.1,0,16.1,15.24,32.2,15.24s16.1-15.24,32.19-15.24,16.1,15.24,32.19,15.24,16.1-15.24,32.19-15.24,16.1,15.24,32.19,15.24,16.1-15.24,32.19-15.24,16.09,15.24,32.19,15.24,16.09-15.24,32.18-15.24,16.1,15.24,32.19,15.24,16.1-15.24,32.19-15.24,16.1,15.24,32.19,15.24c13.12,0,15.54-10.11,24.7-13.86v1655.61c-11.06-2.73-12.74-14.14-26.74-14.14-15.91,0-15.91,14.73-31.82,14.73s-15.91-14.73-31.82-14.73-15.91,14.73-31.82,14.73-15.9-14.73-31.81-14.73-15.91,14.73-31.82,14.73-15.91-14.73-31.82-14.73-15.91,14.73-31.82,14.73-15.91-14.73-31.83-14.73-15.91,14.73-31.82,14.73-15.91-14.73-31.82-14.73-15.91,14.73-31.83,14.73c-14.01,0-46.08-11.41-57.14-14.14V-215.11c9.16-3.75,41.98-13.86,55.1-13.86Z"/>
            <path class="cls-47" d="M396.56,1422.86c-2.95-2.73-6-5.55-10.73-6.72-.28-.07-.49-.81-.49-1.69V-215.11c0-.85.2-1.57.46-1.68,3.5-1.43,6.06-3.85,8.53-6.19,3.99-3.78,8.13-7.69,16.25-7.69s12.26,3.91,16.25,7.69c3.92,3.71,7.98,7.55,15.95,7.55s12.02-3.84,15.94-7.55c3.99-3.78,8.12-7.69,16.25-7.69s12.26,3.91,16.25,7.69c3.92,3.71,7.97,7.55,15.94,7.55s12.02-3.84,15.95-7.55c3.99-3.78,8.12-7.69,16.25-7.69s12.25,3.91,16.25,7.69c3.92,3.71,7.97,7.55,15.94,7.55s12.02-3.84,15.94-7.55c3.99-3.78,8.12-7.69,16.25-7.69s12.25,3.91,16.25,7.69c3.92,3.71,7.97,7.55,15.94,7.55s12.02-3.84,15.94-7.55c3.99-3.78,8.12-7.69,16.24-7.69s12.25,3.91,16.25,7.69c3.92,3.71,7.97,7.55,15.94,7.55s12.02-3.84,15.94-7.55c3.99-3.78,8.12-7.69,16.25-7.69s12.25,3.91,16.25,7.69c3.92,3.71,7.97,7.55,15.94,7.55s12.03-3.83,15.94-7.54c2.51-2.38,5.11-4.84,8.69-6.3.14-.05.3.08.42.41.12.32.18.79.18,1.27v1655.61c0,.47-.06.92-.17,1.24-.11.32-.25.5-.41.45-4.83-1.2-7.94-4.07-10.94-6.84-3.88-3.58-7.89-7.29-15.76-7.29s-11.89,3.71-15.76,7.3c-3.95,3.65-8.03,7.43-16.06,7.43s-12.11-3.78-16.06-7.43c-3.88-3.59-7.88-7.3-15.76-7.3s-11.89,3.71-15.76,7.3c-3.95,3.65-8.03,7.43-16.06,7.43s-12.11-3.78-16.05-7.43c-3.87-3.59-7.88-7.3-15.76-7.3s-11.89,3.71-15.76,7.3c-3.95,3.65-8.03,7.43-16.06,7.43s-12.11-3.78-16.06-7.43c-3.88-3.59-7.88-7.3-15.76-7.3s-11.89,3.71-15.76,7.3c-3.95,3.65-8.03,7.43-16.06,7.43s-12.11-3.78-16.06-7.43c-3.88-3.59-7.88-7.3-15.76-7.3s-11.88,3.71-15.76,7.3c-3.95,3.65-8.03,7.43-16.06,7.43s-12.11-3.78-16.06-7.43c-3.87-3.59-7.88-7.3-15.76-7.3s-11.89,3.71-15.76,7.3c-3.95,3.65-8.03,7.43-16.06,7.43s-12.12-3.77-16.07-7.43ZM460.51,1419.61c3.87,3.59,7.88,7.29,15.76,7.29s11.89-3.71,15.76-7.29c3.95-3.65,8.03-7.43,16.06-7.43s12.12,3.78,16.06,7.43c3.87,3.59,7.88,7.29,15.76,7.29s11.89-3.71,15.76-7.29c3.95-3.65,8.03-7.43,16.06-7.43s12.11,3.78,16.06,7.43c3.87,3.59,7.88,7.29,15.76,7.29s11.89-3.71,15.76-7.29c3.95-3.65,8.03-7.43,16.06-7.43s12.11,3.78,16.06,7.43c3.87,3.59,7.88,7.29,15.75,7.29s11.89-3.71,15.76-7.29c3.95-3.65,8.03-7.43,16.06-7.43s12.11,3.78,16.06,7.43c3.87,3.59,7.88,7.29,15.76,7.29s11.89-3.71,15.76-7.29c3.95-3.65,8.03-7.43,16.06-7.43s12.11,3.77,16.06,7.43c2.83,2.61,5.75,5.32,10.15,6.56V-225.66c-3.19,1.45-5.59,3.73-7.92,5.93-3.99,3.78-8.12,7.68-16.25,7.68s-12.25-3.91-16.25-7.69c-3.92-3.71-7.97-7.55-15.94-7.55s-12.02,3.84-15.94,7.55c-3.99,3.78-8.12,7.69-16.25,7.69s-12.25-3.91-16.25-7.69c-3.92-3.71-7.97-7.55-15.94-7.55s-12.02,3.84-15.94,7.55c-3.99,3.78-8.12,7.69-16.25,7.69s-12.25-3.91-16.25-7.69c-3.92-3.71-7.97-7.55-15.94-7.55s-12.02,3.84-15.94,7.55c-3.99,3.78-8.12,7.69-16.25,7.69s-12.25-3.91-16.25-7.69c-3.92-3.71-7.97-7.55-15.94-7.55s-12.02,3.84-15.94,7.55c-3.99,3.78-8.12,7.69-16.25,7.69s-12.26-3.91-16.25-7.69c-3.92-3.71-7.97-7.55-15.95-7.55s-12.02,3.84-15.94,7.55c-3.99,3.78-8.12,7.69-16.25,7.69s-12.26-3.91-16.25-7.69c-3.92-3.71-7.98-7.55-15.95-7.55s-12.03,3.84-15.95,7.55c-2.4,2.28-4.88,4.62-8.23,6.1v1626.53c4.56,1.26,7.55,4.03,10.45,6.71,3.88,3.59,7.89,7.29,15.77,7.29s11.89-3.71,15.76-7.29c3.95-3.65,8.03-7.43,16.06-7.43s12.11,3.78,16.06,7.43Z"/>
          </g>
          <g class="cls-27">
            <g class="cls-2">
              <path class="cls-47" d="M782.28-120.51c-8.95-7.06-9.84-47.24-14.55-67.78-4.55-19.79-13.28-18.15-16.39,4.8-3.34,24.66-3.04,55.05-3.36,81.49-.55,45.45.61,92.84-3.62,136.89-4.94-34.1-4.35-72.97-5.64-109.55-1.25-35.53-4.6-75.04-14.74-95.6-5.39-10.93-10.53-7.71-14.55,8.08-.95,3.71-1.77,7.94-3.53,6.34-1.72-1.57-3.17-4-4.5-7.81-1.62-4.63-3.22-10.39-5.27-13.13-4.89-6.54-8.72,5.7-10.53,19.17-2.75,20.53-4.68,42.19-5.83,64.19-2.39,45.62-2.21,92.04-3.96,137.88-1.54-45.26-.81-92.93-6.35-135.49-5.29-40.66-19.77-84.79-34.72-65.24-9.34,12.22-14.14,44.61-16.85,73.49-3.15,33.64-4.8,68.98-6.43,103.78-.48-10.56-1-21.11-1.54-31.64-1.14-21.98-2.13-44.13-3.81-65.78-1.54-19.87-3.48-40.19-6.82-57.86-2.06-10.88-5.07-25.48-9.08-29.92-5.65-6.26-8.3,18.61-10.48,30.18-1.45,7.71-3.68,18.21-7,15.73-5.47-4.08-7.7-23.62-10.35-37.27-1.9-9.78-4.97-23.38-9.15-21.63-3.17,1.32-3.9,15.19-4.19,23.13-.66,18.23-.67,36.98-.85,55.28-.28,27.64-.38,55.3-.41,82.95-.05,55.16.23,110.38-.35,165.52-.53,50.3-.11,101.02-2.55,150.86-3.6-82.9-2.84-167.27-3.08-250.74-.21-71.47-3-152.2-20.59-203.73-3.72-10.9-8.3-20.85-13.5-22.23-4.78-1.27-9.32,4.3-12.86,14.46-10.24,29.4-13.86,77.39-15.7,119.02-.51,11.4-.95,22.83-1.35,34.28-.25-7.41-.53-14.81-.84-22.21-.84-20.6-1.67-42.58-4.39-61.68-2.32-16.32-5.92-28.09-11.3-34.22-5.08-5.79-10.87-7.22-15.9.08-12.65,18.39-14.57,72.06-17.29,110.05-1.89,26.38-4.3,52.35-6.25,78.69-1.95,26.41-3.63,53.13-5,79.92-2.29,44.88-3.79,90.09-5.47,135.23-.7-45.54-3.06-90.63-3.64-136.24-.62-47.87-1.23-94.74-4.44-141.69-3.34-48.89-8-103.96-17.41-146.63v-68.05c9.16-3.75,11.59-13.86,24.71-13.86,16.1,0,16.1,15.24,32.2,15.24s16.1-15.24,32.19-15.24,16.1,15.24,32.19,15.24,16.1-15.24,32.19-15.24,16.1,15.24,32.19,15.24,16.1-15.24,32.19-15.24,16.09,15.24,32.19,15.24,16.09-15.24,32.18-15.24,16.1,15.24,32.19,15.24,16.1-15.24,32.19-15.24,16.1,15.24,32.19,15.24c13.12,0,15.54-10.11,24.7-13.86v97.24c-1.85,7.45-4.13,12.19-7.11,9.84Z"/>
            </g>
          </g>
        </g>
        <g class="cls-36">
          <path class="cls-16" d="M700.31-213.86c3.43,0,6.12-.69,8.4-1.77l-1.01,1639.32c-2.33-1.15-5.1-1.89-8.68-1.89-12.87,0-15.33,9.56-24.22,13.21l1.03-1662.52c8.99,3.78,11.48,13.66,24.49,13.66Z"/>
        </g>
        <g class="cls-38">
          <path class="cls-19" d="M764.68-213.86c4.17,0,7.25-1.01,9.82-2.52l-1.01,1641.3c-2.76-1.83-6.09-3.13-10.85-3.13-11.76,0-14.83,7.98-22.06,12.14l1.03-1660.78c7.87,4.16,10.77,12.98,23.07,12.98Z"/>
        </g>
        <g class="cls-41">
          <path class="cls-20" d="M635.93-213.86c2.74,0,5.01-.45,6.97-1.17l-1.01,1637.83c-1.86-.62-3.98-1-6.52-1-13.86,0-15.65,11.08-26.39,13.94l1.03-1663.78c10.18,3.28,12.24,14.19,25.92,14.19Z"/>
        </g>
        <g class="cls-44">
          <path class="cls-23" d="M442.78-213.86c.96,0,1.86-.06,2.72-.16l-1.01,1635.82h-.04c-15.91,0-15.91,14.61-31.83,14.61-.36,0-.7-.02-1.04-.03l1.03-1665.25c14.09,1.22,14.78,15.02,30.17,15.02Z"/>
        </g>
        <g class="cls-58">
          <path class="cls-24" d="M571.56-213.86c2.1,0,3.92-.26,5.55-.71l-1.01,1636.79c-1.31-.27-2.75-.42-4.35-.42-14.74,0-15.83,12.52-28.56,14.37l1.03-1664.6c11.44,2.67,13.05,14.57,27.34,14.57Z"/>
        </g>
        <g class="cls-61">
          <path class="cls-25" d="M507.17-213.86c1.51,0,2.88-.14,4.13-.38l-1.01,1636.14c-.7-.06-1.42-.11-2.2-.11-15.53,0-15.91,13.9-30.71,14.57l1.03-1665.08c12.75,1.98,13.9,14.85,28.76,14.85Z"/>
        </g>
      </g>
    </g>
    <g id="Layer_1" data-name="Layer 1">
      <g>
        <path class="cls-53" d="M670.24,1379.83l971.2-.96-16.36-226.56c18.98-6.67,32.17-28.72,32.27-53.94v-75.03c-.04-27.8-13.76-56.48-31.48-72.53-12.13-10.98-27.24-17.45-43.04-18.99-7.57-29.18-7.94-79.98-1.35-109.08,31.71-17.55,53.41-53.05,53.41-94.01,0-58.38-44.04-105.71-98.36-105.71-.06,0-.11,0-.17,0-.77-.12-1.53-.26-2.31-.35-33.43,0-146.51-1.66-157.77,7.64-3.12-159.36,12.17-281.2-112.24-281.23l-57.78.07-542.54,1.65-542.54-1.65-57.78-.07c-124.41.02-109.12,121.86-112.24,281.23-11.26-9.3-124.34-7.64-157.77-7.64-.78.08-1.54.23-2.31.35-.06,0-.11,0-.17,0-54.32,0-98.36,47.33-98.36,105.71,0,40.97,21.7,76.47,53.41,94.01,6.59,29.1,6.22,83-1.35,112.18-15.79,1.55-30.91,8.01-43.04,18.99-17.72,16.05-31.44,36.94-31.48,64.74v78.1c.1,25.22,13.29,47.27,32.27,53.94l-16.36,228.17"/>
        <path class="cls-4" d="M669.31,1380.44c32.28-.03,64.57-.06,96.85-.1,77.5-.08,154.99-.15,232.49-.23,93.36-.09,186.72-.18,280.07-.28,80.7-.08,161.4-.16,242.11-.24,26.77-.03,53.54-.05,80.31-.08,12.41-.01,25.27.96,37.65-.04.57-.05,1.15,0,1.72,0,.5,0,2.44-.22,2.38-1-3.62-50.07-7.23-100.14-10.85-150.21-1.74-24.03-3.47-48.06-5.21-72.09-.05-.74-.73-3.58-.31-4.24.79-1.21,6.88-2.94,8.64-4.13,4.41-2.99,8.23-6.81,11.41-11.06,10.02-13.42,12.22-29.26,12.22-45.48v-46.18c0-13.77.78-27.81-2.09-41.36-5.3-25.01-19.88-49.95-42.51-62.88-5.11-2.92-10.57-5.22-16.21-6.88-6.87-2.02-12.67-.98-15.07-8.42-3.63-11.24-3.7-24.74-4.26-36.44-.63-13.11-.51-26.28.47-39.38.51-6.75,1.24-13.49,2.39-20.16,1.36-7.86,6.51-9.68,12.48-14.17,18.03-13.57,31.2-33.04,37.65-54.63,13.29-44.53-2.56-95.92-41.62-122.2-30.6-20.59-68.22-16.71-103.32-16.61-19.6.05-39.21.25-58.8,1.03-14.55.58-29.7.83-43.97,4.03-2.98.67-6.25,1.38-8.76,3.23.85-.11,1.71-.22,2.56-.33-1.04-54.91,1.37-110.41-4.71-165.09-3.97-35.69-12.5-76.88-43.64-99.11-28.04-20.02-63.59-17.25-96.25-17.21-13.36.02-26.72.03-40.08.07-55.79.17-111.57.34-167.36.51-76.76.23-153.52.47-230.28.7-43.17.13-86.34.35-129.51.39-31.45.03-62.91-.18-94.36-.28-74.54-.23-149.08-.45-223.63-.68-63.94-.19-127.89-.39-191.83-.58-11.3-.03-22.6-.08-33.89-.1-27.32-.06-56.19-2.57-83.27,1.85-34.19,5.57-59.47,26.2-72.01,58.47-16.45,42.36-15.77,91.14-16.35,135.84-.37,28.67-.33,57.34-.87,86,.94-.3,1.87-.59,2.81-.89-7.56-5.58-21.83-5.02-30.65-5.68-20.14-1.52-40.38-1.85-60.58-2.05-18.57-.19-37.15-.12-55.72-.05-15.1.06-30.1.54-44.57,5.44-41.77,14.14-68.84,55.32-69.87,98.78-.6,25.17,7.17,50.29,22.58,70.28,7.48,9.71,16.41,16.79,26.2,23.95,8.85,6.47,7.85,22.23,8.53,32.51.87,13.13.94,26.34.31,39.48-.58,12.1-.33,26.88-4.55,38.36-1.8,4.89-4.16,3.99-9.11,5.12-5.39,1.24-10.67,3.03-15.68,5.36-10.99,5.11-20.25,12.85-28.29,21.85-14.29,16-22.32,35.41-22.49,56.91-.11,13.33,0,26.67,0,40.01,0,12.29-.22,24.61,0,36.9.21,11.48,2.68,22.83,8.37,32.88,2.46,4.33,5.46,8.4,9.04,11.88,3.79,3.68,9.07,5.29,12.78,8.62,2.54,2.28,1.72.66,1.82,4.4.09,3.54-.52,7.23-.77,10.75-.88,12.23-1.75,24.47-2.63,36.7-4.14,57.69-8.93,115.36-12.41,173.09-.08,1.32-.19,2.64-.28,3.96-.03.44,2.83.11,2.9-.78,4.78-66.66,9.56-133.32,14.34-199.98.67-9.4,1.35-18.79,2.02-28.19-.05-.11-.14-.17-.26-.19-39.98-15.59-32.01-68.4-32.01-102.63,0-14.18-1.27-29.4,1.29-43.43,6.27-34.36,36.37-64.39,71.15-68.54.43-.05,1.9-.26,2.05-.85,4.55-18.31,5.81-37.45,6-56.26.1-9.67-.16-19.34-.89-28.98-.51-6.71.07-21.32-3.78-27.13-1.82-2.75-8.65-5.35-11.44-7.45-3.64-2.74-7.09-5.73-10.32-8.93-7.87-7.79-14.44-16.87-19.48-26.72-9.76-19.06-13.68-40.89-11.56-62.18,4.26-42.77,34.55-82.82,77.85-91.61,13.38-2.72,27.4-2.13,40.99-2.18,15.74-.06,31.49-.07,47.23.1,18.17.2,36.37.54,54.51,1.7,9.86.63,26.25-.41,34.67,5.8.53.39,2.8-.1,2.81-.89,1.02-54.16-1.23-108.83,4.46-162.79,3.89-36.82,12.42-80.26,45.56-102.29,30.72-20.42,71.97-15.14,107.07-15.1,10.1.01,20.2.04,30.3.07,57.07.17,114.15.35,171.22.52,75.03.23,150.06.46,225.09.68,41.77.13,83.55.34,125.32.38,30.4.03,60.8-.18,91.19-.27,72.62-.22,145.23-.44,217.85-.66,64.39-.2,128.78-.39,193.16-.59,36.11-.11,72.73-1.9,108.74.06,40,2.18,70.98,22.08,85.39,59.92,16.21,42.58,15.47,91.36,16.02,136.23.35,28.2.32,56.4.85,84.6.01.67,2.31-.14,2.56-.33,7.92-5.84,24.06-4.77,33.36-5.37,15.76-1.01,31.57-1.38,47.36-1.61,28.59-.42,58.23-2.17,86.72.7,39.94,4.03,72.24,34.46,83.75,72.12,12.51,40.92.28,88.03-32.75,115.82-2.02,1.7-4.11,3.32-6.26,4.85-2.34,1.66-7.56,3.58-9.2,5.79s-1.69,7.16-2.12,9.9c-1.62,10.34-2.39,20.83-2.71,31.29-.7,22.75.35,46.17,5.85,68.34.05.19.39.21.51.22,34.82,4.15,59.32,30.15,69.44,62.68,4.95,15.9,4.56,31.72,4.56,48.08v49.46c0,23.59-7,49.82-31.33,59.31-.28.11-.97.34-.94.74,4.77,66.09,9.54,132.18,14.32,198.27.68,9.43,1.36,18.86,2.04,28.29l2.38-1c-32.28.03-64.57.06-96.85.1-77.5.08-154.99.15-232.49.23-93.36.09-186.72.18-280.07.28-80.7.08-161.4.16-242.11.24-26.77.03-53.54.05-80.31.08-12.41.01-25.27-.96-37.65.04-.57.05-1.15,0-1.72,0-.64,0-3.29,1.22-1.87,1.22h0Z"/>
      </g>
      <path class="cls-1" d="M-301.28,936.58c16.41-.03,32.81-.05,49.22-.08,44.25-.07,88.5-.14,132.75-.21,65.86-.11,131.73-.21,197.59-.32,79.81-.13,159.61-.26,239.42-.38,88.01-.14,176.01-.28,264.02-.42,88.23-.14,176.47-.28,264.7-.43,82.83-.13,165.66-.27,248.5-.4,69.53-.11,139.06-.22,208.59-.34l151.02-.24c23.68-.04,47.41.38,71.08-.11,1.03-.02,2.07,0,3.11,0,1.61,0,2.26-2.01.29-2-16.41.03-32.81.05-49.22.08-44.25.07-88.5.14-132.75.21-65.86.11-131.73.21-197.59.32-79.81.13-159.61.26-239.42.38-88.01.14-176.01.28-264.02.42-88.23.14-176.47.28-264.7.43-82.83.13-165.66.27-248.5.4-69.53.11-139.06.22-208.59.34-50.34.08-100.68.16-151.02.24-23.68.04-47.41-.38-71.08.11-1.03.02-2.07,0-3.11,0-1.61,0-2.26,2.01-.29,2h0Z"/>
      <g>
        <rect class="cls-50" x="1094.45" y="42.65" width="193.57" height="205.58"/>
        <path class="cls-48" d="M1094.33,43.75h185.71c2.47,0,5.06.22,7.53,0,.11,0,.22,0,.33,0-.45-.34-.9-.67-1.35-1.01v197.2c0,2.63-.26,5.41,0,8.03.01.11,0,.23,0,.35.53-.4,1.06-.8,1.59-1.2h-169.78c-5.31,0-10.62,0-15.93,0-2.47,0-5.06-.22-7.53,0-.11,0-.22,0-.33,0l1.35,1.01V50.93c0-2.67.04-5.35,0-8.03,0-.12,0-.23,0-.35,0-1.56-2.94-1.17-2.94.2v197.2c0,2.67-.04,5.35,0,8.03,0,.12,0,.23,0,.35,0,.76.7,1.01,1.35,1.01h185.71c2.5,0,5.02.08,7.53,0,.11,0,.22,0,.33,0,.59,0,1.59-.51,1.59-1.2V50.93c0-2.67.04-5.35,0-8.03,0-.12,0-.23,0-.35,0-.76-.7-1.01-1.35-1.01h-185.71c-2.5,0-5.02-.08-7.53,0-.11,0-.22,0-.33,0-1.69,0-2.2,2.21-.23,2.21Z"/>
      </g>
      <rect class="cls-57" x="1141.15" y="82.46" width="100.91" height="130.5"/>
      <path class="cls-54" d="M1140.78,124.48c5.17.29,10.27,1.49,14.85,3.59,12.39,5.7,20.54,17.31,33.66,21.6,10,3.27,21.42,1.63,31.07-2.35,7.82-3.22,14.69-7.86,21.33-12.73v-56.02h-100.91v45.91Z"/>
      <path class="cls-52" d="M75.94,506.43c.63,0,1.5-.95.53-.95-.63,0-1.5.95-.53.95h0Z"/>
      <path class="cls-46" d="M393.64,760.29c-3.38-8.24-24.93-9.1-24.93-9.1-23.44-1.19-244.3-3-267.71-1.3-30.46,2.21-60.48-.43-74.95,18.05-12.16,15.53-2.81,38.01-1.43,60.15,1.33,21.38,4.06,42.68,8.51,63.64,2.6,12.26.56,29.6,10.12,37.71,7.5,6.37,23.03,6.24,32.86,6.07,58.79-1.01,265.44-1.01,319.87-2.94,6.24-.22,10.7-6.36,11.52-12.56,7.18-53.99,7.5-107.64-13.86-159.75Z"/>
      <path class="cls-50" d="M900.94,578.5c-6.13-6.36-7.68-11.48-12.13-19.27-3.55-6.24-7.27-17.51-9.26-24.47-.35-.96-3.41-16-3.81-17.67-1.6.61-19.81-7.92-19.81-7.92l-155.06,73.35s-22.24-6.2-23.98-9.91c-5.99,4.34-38.87-6.34-43.09.03-12.89,19.45-18.47,20.78-18.73,44.94-.16,14.66,26.59,29.63,30.26,44.32,12.62,14.25,40.41,23.04,53.46,18.42,78.43-27.78,148.11-58.07,201.26-97.6,0,0,2.82-.93.89-4.2Z"/>
      <path class="cls-50" d="M591.34,564c10.49-.37,20.95-1.01,31.4-1.85.88-.84,5.64,47.59,18.18,47.82,17.5.32,48.59,22.35,71.35-10.16-8.44-60.27-32.27-168.67-40.01-194.73-12.81-43.15-112.85-72.62-119.83-74.99,0,0,10.99,158.55,34.47,219.08,1.6,4.12,3.07,9.13,4.45,14.83Z"/>
    </g>
    <g id="Layer_5" data-name="Layer 5">
      <path class="cls-50" d="M765.35,689.75c-.09-.21-.17-2.42-.26-2.63-4.08-9.82-9.89-18.87-16.46-27.2-6.7-8.49-14.27-16.47-22.8-23.15-5.1-3.99-10.97-8.23-17.32-10.27l-84.18,15.98-49.37,2.66s-6.92,38.5-16.48,67.25c0,0,155.85,9.59,206.87-22.64Z"/>
      <path class="cls-50" d="M823.87,463.64c-26.56,11.31-43.45,41.72-43.45,41.72-8.93,15.29-35.28,71.95-50.37,101.53l-3.85,6.01c5.01,5.1,8.76,11.49,11.85,17.87,5.2,10.74,8.91,22.23,11.33,33.9,1.96,9.45,3.69,20.74,3.22,31.66,2.53-.73,4.86-1.67,6.95-2.84,30.27-17.01,45.53-47.99,45.53-47.99,13.18-21.71,34.23-59.07,44.66-79.83l-25.87-102.02Z"/>
      <g>
        <path class="cls-50" d="M923.49,651.9c.78,0,1.56,0,2.34,0-.82-6.22-1.64-4.37-2.34,0Z"/>
        <path class="cls-50" d="M923.49,651.9c-.97,0-1.95,0-2.92,0,.69,6.22,1.04,11.87.96,16.73-.1,5.91.76-9.18,1.97-16.74Z"/>
      </g>
    </g>
    <g id="Layer_2" data-name="Layer 2">
      <path class="cls-13" d="M843.2,365.73c1.13-10.11,6.74-21.01,9.38-26.67.9-4.6,1.97-9.93,3.29-16.36.38-1.87.81-3.64,1.23-5.4.31-.88.53-1.79.69-2.71,8.1-30.95,22.09-44.92,22.09-44.92,17.84-17.67,43.69-24.5,67.9-17.94,28.63,7.12,50.6,30.5,60.14,51.17,4.74,10.24,5.55,21.87,2.25,32.66-2.8,9.23-7.37,19.27-12.21,28.88,10.15,1.82,19.18,7.66,11.32,25.35-10.85,24.4-29.12,28.58-35.27,19.8-1.86-.09-7.17,6.84-8.8,12.07-3.12,10.03-12.78,33.13-9.78,43.19l5.02-2.03c-29.62,30.03-46.98,47.34-116.43,9.82l29.78-18.38,2.57-21.89c-5.54-1.67-5.45-1.04-10.17-4.32-21.79-11.25-24.33-50.41-22.99-62.33Z"/>
      <path class="cls-33" d="M876.36,432.37s27.76,8.78,57.27-1.48c0,0-5.13,7.5-24.81,9.46-19.68,1.97-33.58-3.55-33.58-3.55l1.12-4.43Z"/>
      <path class="cls-62" d="M882.62,387.06c9.17,2.05,24.25,4.38,24.25,4.38,0,0-4.16,24.43-29.5,18.35-21.18-5.08-13.86-27.79-13.86-27.79,0,0,9.94,3,19.11,5.06Z"/>
      <path class="cls-51" d="M882.53,387.04c4.36.98,20.63,4.44,20.63,4.44,0,0-6.88,13.1-22.64,9.57-17.09-3.82-15.93-16.58-15.93-16.58l17.94,2.57Z"/>
      <path class="cls-31" d="M881.91,388.93c4.36.98,17.77,3.26,17.77,3.26,0,0-5.99,2.28-19.06-.64-13.07-2.93-16.04-7.08-16.04-7.08l17.33,4.46Z"/>
      <path class="cls-62" d="M862.51,382.1c.1-.45,1.09-.44,3.29-.13,3.67.52,3.62-1.05,6.28-.65,4.53.68,7,2.95,8.94,3.38,1.94.43,5.14-.56,9.53.75,2.57.77,8.84,3.1,12.39,4.19,2.13.66,4.84.44,5.28.65.61.29-2.17,5.65-26.55.2-24.39-5.46-19.29-7.78-19.16-8.4Z"/>
      <g>
        <path class="cls-29" d="M919.18,326.31h0s.04-.18.04-.18h.45c12.29-.32,21.82,1.58,25.49,3.48,2.35,1.23,4.58,3.08,6.62,5.5.55.64,5.44,6.3,5.79,8.37.12.72-.21,1.02-.41,1.12-.27.14-1.06.54-4.17-2.48-.34-.24-.63-.47-.91-.7-.49-.39-.91-.73-1.48-1.01-1.34-.65-2.64-1.35-3.95-2.04-3.98-2.13-7.69-4.14-12.1-4.58-4.26-.45-10.37.79-15.28,1.77-.83.16-1.62.33-2.38.47l-.83.16.17-.83c.25-1.27.6-2.48.93-3.65.45-1.59.88-3.1,1.09-4.73v-.03c.1-.54.66-.61.93-.65Z"/>
        <path class="cls-29" d="M856.76,316.92s-.03-.05-.05-.07c0,0,0,0-.01-.01-.03-.08-.05-.17-.08-.25-.03-.24-.03-.49-.03-.73.41-.84.81-1.67,1.14-2.53,1.61-.66,3.04-1.17,3.12-1.19,2.47-.9,4.84-1.32,7.05-1.25,3.43.11,11.13,2.58,19.97,7.73l.39.23-.05.15c.2.14.55.46.38.94-.49,1.23-.77,2.45-1.08,3.75-.23.97-.46,1.97-.79,2.98l-.26.79-.64-.53c-3.1-2.55-9.76-5.62-14.81-7.76-4.48-1.93-6.45-2.28-11.4-2.59-.52-.03-.96.04-1.47.12-.3.05-.6.1-.85.11,0,0-.23.06-.54.12Z"/>
      </g>
      <path class="cls-29" d="M865.9,280.43c-.22.17-.36.29-.36.29,14.07-57.6,72.29-56.37,72.29-56.37,0,0,61.6,10.19,78.91,37.25,8.89,13.9,10.3,27.7,10.3,27.7l3.04,4.39c3.26,4.7,8.55,10.24,9.14,15.93,4.77,45.78-21.77,61.01-26,63.14h0c-.68,1.17-2.95.23-3.11-.93-.58-4.21-5.45-4.49-9.1-4.78-4.46-.36-7.35,1.36-10.87,3.91-3.33,2.41-4.37,5.71-6.74,8.82-.86,1.13-.93,1.63-2.07,1.81-.1.04-.23.06-.38.07,0,0,0,0-.01,0,0,0,0,0-.01,0-.12,0-.22.03-.38,0-3.04-.43-8.09-4.1-6.51-7.61.43-.96,1.76-1.36,2.46-2.06,1.99-1.99,2.25-4.03,2.93-6.8,1.07-4.39,2.22-8.84,3.98-13,2.21-5.2,5.07-9.82,5.81-15.56.64-4.95-.22-9.95-.56-14.89-.29-4.18-.71-7.75-2.13-11.74-3.02-8.48-8.61-16.3-15.85-21.67-7.23-5.35-14.84-5.49-23.45-5.1-7.79.35-15.4.08-23.01-1.82-6.82-1.7-13.33-4.8-20.19-6.23-13.79-2.89-30.97,7.02-38.12,18.66-.76,1.24-3.31.09-3.13-1.26.56-4.31,1.64-8.33,3.1-12.12Z"/>
      <path class="cls-34" d="M898.14,369.04c.37.07.47.12.69.46.18.28.27.74.31,1.12.09.88-.09,1.82-.33,2.67-.21.7-.55,1.42-1.3,1.76-.9.41-2.29.36-3.35.15-1.55-.31-2.76-1.6-4.17-2.24-.5-.23-1.1-.15-1.55.16-.3.21-.65.78-.15,1,1.55.71,2.82,2,4.51,2.4s3.63.39,5.25-.21c1.24-.45,2.27-1.33,2.73-2.57.4-1.07.62-2.21.57-3.36-.06-1.22-.58-2.45-1.91-2.69-.53-.1-1.15,0-1.54.41-.3.32-.25.84.25.93h0Z"/>
      <path class="cls-50" d="M1052.05,681.54c11.85-59.75,18.05-99.14,17.58-158.61-.12-15.44-18.98-33.85-32.41-41.81-13.08-7.74-62.32-33.36-76.54-38.51-8.67-3.15,9.03,2,0,0l-5.01-2.21c-1.67,9.4-19.29,14.02-19.29,14.02-17.35,7.19-2.39,8.89-29.06,6.22-25.83-2.58-32.08-13.46-32.08-13.46l-25.73,7.28c-17.79,3.89-39.96,11.93-45.23,36.57-7.18,33.53-10.86,201.82-14.92,225.4-9.33,54.25-75.18,92.89-75.23,101.35l80.29-4.79c31.14-1.02,62.3-1.26,93.46-1.28,42.85-.03,85.71.35,128.56-.36"/>
      <g>
        <path class="cls-50" d="M962.72,443.24c-.5-5.25,1.97-10.46.89-15.62-45.18,30.5-71.49,19.33-89.61,14.04-.07,4.42-2.1,8.98-2.17,13.4,0,0,3.95,3.61,11.14,5.43,13.26,3.36,32.59,4.13,45.8.54,13.2-3.59,25.1-7.5,34.11-17.79"/>
        <path class="cls-52" d="M963.81,442.94c-.41-5.26,1.9-10.35.89-15.62-.15-.77-1.4-.45-1.8-.18-13.38,9.01-28.29,16.69-44.38,19.25-10.34,1.64-20.73.89-30.85-1.67-4.39-1.11-8.69-2.51-13.03-3.78-.53-.16-1.71.07-1.73.8-.07,2.28-.57,4.49-1.08,6.7-.26,1.12-.52,2.23-.72,3.36-.17.98-.55,2.35-.36,3.34.1.51.55.78.96,1.09.88.67,1.82,1.27,2.78,1.81,6.48,3.66,14.3,4.76,21.6,5.5,8.04.82,16.24.89,24.26-.14,7.53-.98,14.99-3.21,22.09-5.87,8.11-3.04,15.58-7.47,21.35-14.01.9-1.02-1.18-1.32-1.81-.6-8.91,10.08-22.02,14.64-34.76,17.73-6.46,1.57-13.2,2.01-19.83,1.95-6.81-.06-13.66-.7-20.35-2.06-5.01-1.01-10.46-2.59-14.35-6.11l.26.52c.14-4.56,2.03-8.84,2.17-13.4l-1.73.8c8.61,2.52,17.1,5.25,26.08,6.13,12.8,1.25,25.55-1.08,37.5-5.7,9.69-3.75,18.78-8.92,27.38-14.71l-1.8-.18c1,5.22-1.3,10.37-.89,15.62.07.95,2.25.44,2.17-.58h0Z"/>
      </g>
      <path class="cls-52" d="M900.6,448.72c2.1,4.49,4.2,8.98,6.29,13.46.25.54.73,1.22.85,1.82-.06-.32-.1.2-.15.39-.38,1.41-.74,2.83-1.11,4.25-3.59,14.07-6.79,28.27-9.2,42.59-1.33,7.89-2.47,15.86-2.8,23.86-.26,6.24.02,12.49-.2,18.73-.57,15.76-1.86,31.5-3.25,47.2-.58,6.6-1.2,13.19-1.86,19.79-.34,3.41-.91,6.88-1.05,10.31,0,.16-.03.32-.05.49l1.22-.78c-5.15.25-10.29.49-15.44.74l.96.55c.27-8.86.56-17.72.86-26.58.54-16.05,1.1-32.09,1.81-48.14.26-5.93.51-11.87.92-17.79.48-7.03,1.35-14.05,2.23-21.04,2-15.85,4.36-31.66,6.8-47.45.35-2.28.71-4.56,1.07-6.84.15-.94.49-2.03.47-2.98,0-.4-.19-.78-.32-1.17l-1.29-3.81c-1.04-3.07-2.08-6.14-3.12-9.21-.2-.6-.41-1.2-.61-1.79-.28-.84-2.45-.22-2.17.58,1.67,4.94,3.35,9.88,5.02,14.81.09.28.23.57.29.86.05.25.02-.23.01,0,0,.34-.12.72-.17,1.06-.28,1.74-.55,3.47-.82,5.21-2.35,15-4.59,30.02-6.59,45.07-1.01,7.59-1.97,15.19-2.66,22.81-.51,5.65-.76,11.32-1.03,16.98-.74,15.87-1.3,31.75-1.85,47.64-.36,10.5-.71,21.01-1.03,31.51,0,.17-.01.34-.02.5-.02.52.56.57.96.55,5.15-.25,10.29-.49,15.44-.74.39-.02,1.17-.31,1.22-.78.9-8.43,1.71-16.86,2.48-25.3,1.45-15.8,2.77-31.63,3.52-47.49.3-6.4.42-12.78.34-19.18-.1-7.6.85-15.22,1.97-22.72,2.28-15.24,5.62-30.33,9.35-45.28.49-1.96.99-3.91,1.5-5.86.16-.59.59-1.49.5-2.12-.09-.58-.6-1.29-.85-1.81-.59-1.27-1.19-2.54-1.78-3.82-1.26-2.71-2.53-5.41-3.79-8.12-.24-.51-.48-1.02-.72-1.53-.38-.82-2.52-.15-2.17.58h0Z"/>
      <path class="cls-52" d="M884.71,504.71c.15,2.4,1.86,4.4,4.2,4.97,2.51.61,5.64-.37,7.28-2.39,1.51-1.86,1.6-4.62.17-6.55-1.58-2.13-4.25-2.61-6.71-1.97-2.8.72-5.04,2.91-4.93,5.93.01.32,2.19-.01,2.17-.58-.06-1.83.89-3.91,2.66-4.66,1.48-.62,3.59.52,4.55,1.75,1.22,1.55,1.46,3.73.58,5.5-.42.84-1.07,1.59-1.91,2.04-.6.32-1.28.3-2.01.13-2.22-.51-3.75-2.53-3.89-4.76-.02-.33-2.21.02-2.17.58Z"/>
      <path class="cls-52" d="M889.33,456.27c.15,2.47,1.94,4.52,4.3,5.17,2.61.71,5.57-.29,7.21-2.43,1.5-1.96,1.55-4.72.13-6.74-1.51-2.15-4.33-2.88-6.79-2.24-2.88.74-4.95,3.24-4.85,6.24.02.49.98.39,1.25.32.44-.12.94-.4.92-.9-.06-1.78.93-3.64,2.62-4.32,1.57-.62,3.49.12,4.59,1.45,1.21,1.47,1.47,3.63.57,5.32-.81,1.52-2.32,2.42-4,2.1-2.19-.41-3.65-2.4-3.78-4.56-.03-.49-.97-.4-1.25-.32-.43.11-.95.4-.92.9Z"/>
      <path class="cls-52" d="M886.54,560.14c2.58-.16,5.2-1.51,6.18-4.02.88-2.27.11-4.93-1.85-6.37-4.19-3.08-11.47.48-10.37,5.96.57,2.85,3.25,4.52,6.04,4.42.44-.02,1.17-.16,1.45-.55s-.24-.47-.54-.46c-1.9.07-3.68-1.2-4.43-2.92-.8-1.82-.49-3.99.88-5.45,1.21-1.29,2.87-1.43,4.43-.56,1.7.95,2.73,2.86,2.58,4.8s-1.54,4-3.46,4.12c-.44.03-1.17.15-1.45.55s.24.48.54.46Z"/>
      <path class="cls-52" d="M883.02,607.36c2.57-.16,5.04-1.78,5.88-4.28.81-2.43,0-5.12-2.09-6.64-2.18-1.61-5.22-1.52-7.46-.09-2.13,1.35-3.26,3.96-2.7,6.43.67,2.92,3.47,4.68,6.37,4.58.48-.02,1.14-.35,1.2-.88.06-.56-.58-.73-1.01-.72-1.78.06-3.45-1.12-4.13-2.75-.72-1.74-.38-3.86,1.04-5.15,1.22-1.12,3.01-1.31,4.5-.49,1.65.91,2.58,2.78,2.36,4.64-.24,2.03-1.82,3.63-3.77,3.75-.48.03-1.14.35-1.2.88s.57.75,1.01.72Z"/>
      <path class="cls-52" d="M792.33,642.76c8.89,2.08,18.24,1.88,27.27,1.01,7.42-.71,14.8-1.97,22.07-3.64,1.43-.33,2.85-.66,4.26-1.05.25-.07.94-.32.94-.68.1-9.21.21-18.42.31-27.63l.5-43.87c.04-3.35.08-6.7.11-10.05,0-.46-.57-.53-.94-.46-5.79,1.13-11.58,2.26-17.37,3.39-2.04.4-4.09.87-6.16,1.12-4.73.58-9.54.72-14.3.61-2.75-.06-5.5-.21-8.22-.61-2.03-.3-4.18-.66-5.99-1.69-.61-.34-2.61.55-1.73,1.05,3.6,2.03,8.45,2.17,12.46,2.37,5.06.26,10.16.14,15.21-.31,6-.54,11.94-2.05,17.85-3.2,2.65-.52,5.31-1.03,7.96-1.55l-.94-.46c-.1,9.21-.21,18.42-.31,27.63l-.5,43.87c-.04,3.35-.08,6.7-.11,10.05l.94-.68c-3.84,1.05-7.77,1.86-11.68,2.58-8.32,1.53-16.79,2.56-25.26,2.55-5.05,0-10.12-.4-15.04-1.55-.69-.16-2.55.89-1.33,1.17h0Z"/>
      <path class="cls-52" d="M847.01,569.12c-3.42,1.42-7.02,2.46-10.6,3.37-8.22,2.09-16.76,3.22-25.25,2.83-5.56-.25-11.07-1.2-16.34-3-.51-.17-2.45.64-1.78.87,16.29,5.56,34.7,3.25,50.76-2.08,1.33-.44,2.67-.9,3.97-1.44,1.42-.59.08-.89-.76-.54h0Z"/>
      <path class="cls-34" d="M1001.99,388.82c1.81-3.12,3.1-6.66,2.89-10.31-.05-.94,0-2.07-1.1-2.19-2.76-.32-5.73,1.84-7.76,3.4-3.56,2.74-6.65,6.06-9.57,9.47-.75.88.78,1,1.33.72s1.43-.67,2.06-.41c1.08.45.82,2.32.62,3.22-.28,1.24-.9,2.42-1.87,3.27-1.37,1.2-3.15,1.36-4.89,1.19-.9-.09-2.28,1.19-.82,1.33,4.32.42,8.89-1.6,9.79-6.2.3-1.54.23-3.59-1.58-4.09-1.35-.37-2.98.08-4.2.69l1.33.72c3.47-4.06,7.33-8.52,12.1-11.11.45-.25,1-.5,1.52-.68-.26.09.26-.07.35-.1.09-.03.18-.04.27-.06-.36.08-.08.02,0,0,.1-.02.59-.08.15-.03.04,0,.23-.02.27,0,.13.11-.26-.08-.02,0l-.43-.34c1.18,3.72-.65,8.27-2.48,11.42-.54.93,1.65.78,2.04.1h0Z"/>
      <path class="cls-34" d="M883.09,334.91c-1.37,9.32-6.12,17.75-11.6,25.26-.83,1.14-1.69,2.26-2.54,3.39-.41.54-1.01,1.16-1.24,1.81-.49,1.39.58,3.18,1.53,4.13,1.08,1.08,2.52,1.81,3.9,2.44,2.23,1.02,4.66,1.72,7.07,2.17,2.25.42,4.67.68,6.92.08,1.3-.35,1.01-1.48-.3-1.13-1.91.51-4.1.1-6-.3-2.08-.44-4.17-1.05-6.1-1.95-1.27-.6-2.59-1.25-3.57-2.27-.64-.67-1.1-1.46-1.27-2.38-.12-.62-.12-.78.05-1.09.4-.74,1.02-1.41,1.53-2.08.83-1.09,1.65-2.18,2.45-3.28,2.37-3.28,4.55-6.7,6.4-10.3,2.38-4.64,4.21-9.58,4.97-14.76.13-.88-2.06-.5-2.18.26h0Z"/>
      <path class="cls-52" d="M831.62,861.23c-6.8-.07-13.59-.14-20.39-.21-.57,0-1.53.85-.55.86,6.8.07,13.59.14,20.39.21.57,0,1.53-.85.55-.86h0Z"/>
      <polygon class="cls-13" points="919.83 443.9 910.2 463.42 900.56 443.89 919.83 443.9"/>
      <path class="cls-52" d="M918.49,447.13c-2.68,5.25-5.37,10.5-8.05,15.75-.5.99,1.68.83,2.04.12,2.68-5.25,5.37-10.5,8.05-15.75.5-.99-1.68-.83-2.04-.12h0Z"/>
      <path class="cls-52" d="M811.93,880.89c-9.83,1.15-19.78-.17-28.98-3.82-.57-.23-1.69.6-.85.93,9.4,3.74,19.63,5.07,29.68,3.89.78-.09,1.14-1.12.15-1h0Z"/>
      <path class="cls-50" d="M926.28,808.29c73.41-16.74,62.8-74.18,62.8-74.18l49.33-24.16c.48,27.24,21.05,86.21,20.2,152.9-.18,14.08-9.21,40.06-20.19,50.72-1.68,1.64-2.72,4.11-6.97,6.99-17.11,11.56-14.32,13.1-35.53,12.91l-9-.08-70.62-.07c7.6,11.75,12.24,24.66,13.63,37.95,2.69,25.75,4.02,57.51,2.05,78.23l-8.95,156.4-28.61,3.9c-19.94,4.96-77,7.68-97.49,4.65l-43.8-7.63c-11.18-.83-22.25-2.74-32.98-5.74v-12.76s-35.8-246.27-38.66-265.38c-2.52-17.42-2.36-35.41,1.71-52.67,3.5-14.82,11.6-27.73,28.57-35.43,15.01-6.81,22.94-23.03,51.02-42.58l43.54-25.36"/>
      <path class="cls-52" d="M542.65,626.67c1.68-.04,3.36-.08,5.04-.12.24,0,.48-.01.73-.02.33,0,.72-.22.81-.55.15-.55.16-1.18-.34-1.55s-1.17-.35-1.73-.29c-1.34.16-2.64.7-3.87,1.25-.29.13-.59.27-.87.42-.23.12-.58.4-.36.68.21.26.72.2.97.07.67-.35,1.36-.65,2.07-.92.07-.03.14-.05.21-.08.05-.02.29-.1.07-.03.16-.05.32-.11.47-.16.28-.09.56-.17.84-.23.04,0,.26-.05.13-.03s.08-.01.12-.02c.13-.02.26,0,.39-.03.09-.02-.18-.01-.05,0,.02,0,.05,0,.07,0,.05,0,.11.01.16.01.14,0-.14-.05.01,0,.05.02.1.03.15.05-.26-.07.04.02.02.02,0,0,.1.07.02,0-.07-.06,0,0,.02.02.03.04.06.07.08.11-.05-.06,0-.02.02.06.02.05.02.11.03.16.01.08,0,0,0-.02,0,.04,0,.08,0,.11-.01.17-.05.33-.09.5l.81-.55c-1.68.04-3.36.08-5.04.12-.24,0-.48.01-.73.02-.3,0-.76.22-.81.55-.05.36.4.42.65.41Z"/>
      <g>
        <path class="cls-52" d="M553.21,623.77c1.68-.04,3.36-.08,5.04-.12.24,0,.48-.01.73-.02.44-.01,1.37-.19,1.52-.73s.19-1.15-.27-1.52c-.57-.44-1.41-.4-2.08-.31-1.4.17-2.76.72-4.04,1.3-.38.17-.75.35-1.12.54-.29.15-.65.58-.21.79s1.11,0,1.53-.22c.05-.03.11-.06.16-.08.03-.01.06-.03.09-.04.16-.08-.28.13-.12.06.09-.04.18-.08.27-.13.48-.23.97-.44,1.47-.63.13-.05.26-.1.4-.15.07-.03.14-.05.21-.07-.38.15-.1.03,0,0,.29-.09.57-.16.86-.23.14-.03-.32.06-.14.03.03,0,.06-.01.09-.02.06-.01.13-.02.19-.03.06,0,.13,0,.19-.02,0,0-.3.01-.15.01.04,0,.08,0,.12,0,.05,0,.1,0,.15,0,.1,0-.27-.05-.03,0,.02,0,.12.04.13.03-.07.06-.2-.08-.09-.02.02.01.05.02.07.03.02,0,.04.02.07.03.11.03-.05-.05-.05-.03s.08.07.1.09c.02.02.03.04.04.05.06.06-.04-.12-.02-.03.01.05.04.09.05.14.02.05.02.11.03.16s0,.21,0,.08c-.01.17-.05.33-.09.5l1.52-.73c-1.68.04-3.36.08-5.04.12-.24,0-.48.01-.73.02-.48.01-1.14.16-1.44.58s.25.59.57.58Z"/>
        <path class="cls-52" d="M871.71,448.59c-13.1,3.17-25.84,6.34-38.54,10.93-10.15,3.67-19.2,8.04-27.92,14.37-8.12,5.89-14.65,13.6-20.13,21.95-6.74,10.25-11.66,21.66-17.25,32.55-10.25,19.97-19.52,40.43-29.35,60.6-3.66,7.5-7.06,15.08-11.78,21.97l-5.91,8.61c-.46.67-.91,1.36-1.39,2.02.4-.55,1.26-.4.38-.35-3.21.18-6.7,1.47-9.82,2.16-6.21,1.37-12.42,2.73-18.64,4.1-14.26,3.13-28.51,6.27-42.77,9.4l-13.66,3c-.84.18-1.75.51-2.61.57,1.34-.1-.01-.19-.79-.41-22.89-6.35-46.24-11.35-69.31-17.02-.71-.17-1.42-.35-2.12-.52-.45-.11-1.63.14-1.76.69-.67,2.79-.6,5.94-.86,8.78-.6,6.62-1.21,13.23-1.87,19.85-1.57,15.6-3.16,31.3-6.2,46.69-.87,4.41-1.52,11.18-4.74,14.65-.36.39.32.53.56.54,25.06.73,50.17.57,75.22-.08,21.11-.55,42.22-1.54,63.26-3.44,18.65-1.69,37.52-3.87,55.66-8.69,22.24-5.91,41.42-18.75,54.64-37.68l-2.08.17c-.69,15.75-1.22,31.6-2.93,47.28-1.37,12.64-5.69,24.63-11.94,35.67-12.58,22.22-31.48,39.65-50.34,56.44-3.14,2.79-6.33,5.56-9.24,8.6-1.31,1.37-3.45,3.32-3.56,5.37-.02.34.36.42.64.4,6.66-.4,13.32-.79,19.98-1.19l-.56-.54c-4.88,4.86-9.67,9.98-15.28,14.03-4.81,3.46-10.45,5.43-15.34,8.78-8.29,5.69-14.44,13.76-18,23.14-7.47,19.7-6.78,42.6-3.75,63.09,2.77,18.71,5.48,37.42,8.21,56.14,4.43,30.39,8.85,60.78,13.28,91.17,4.03,27.73,8.07,55.45,12.1,83.18,1.77,12.15,4.72,24.66,4.72,36.97v8.27c.04.1.11.17.21.2,15.05,4.13,30.57,5.34,45.9,8.01,10.35,1.8,20.68,3.8,31.06,5.41,15.06,2.34,30.95,1.47,46.1.83,16.31-.69,33-1.54,49.03-4.83,10.37-2.13,21.01-3.12,31.5-4.55.3-.04,1.22-.27,1.25-.69,1.54-26.96,3.09-53.93,4.63-80.89,1.58-27.6,3.34-55.2,4.86-82.8,1-18.14.24-36.41-1.11-54.52-.71-9.49-1.24-19.15-3.6-28.4s-6.41-18.1-11.58-26.22l-1.45.96c24.1.02,48.21-.13,72.32.09,8.33.07,17.58,1.2,25.6-1.46,3.21-1.06,6-2.95,8.74-4.9,4.81-3.42,10.52-6.53,14.38-11.02,3.43-3.99,6.9-7.82,9.62-12.36,3.22-5.36,5.79-11.11,7.9-16.99s3.82-11.99,4.72-18.19c.95-6.5.64-13.17.5-19.72-.65-29.84-5-59.37-11.45-88.48-1.27-5.71-2.6-11.4-3.95-17.09-1.14-4.78-2.8-9.72-3.44-14.6-.34-2.59.98-5.63,1.64-8.14.79-2.99,1.56-5.99,2.31-8.99,1.5-5.95,2.94-11.91,4.32-17.88,6.48-27.95,11.89-56.17,15.8-84.6,3.72-27,6.32-54.41,5.29-81.69-.23-6.01-.43-11.77-2.88-17.36s-6.32-10.9-10.47-15.55c-7.31-8.2-15.95-14.88-25.61-20.06-18.75-10.04-38.23-18.99-57.79-27.33-3.47-1.48-6.96-2.95-10.51-4.25-.59-.22-2.56.68-1.75.98,18.77,6.87,36.96,15.92,54.88,24.74,19.37,9.54,39.95,21.26,49.08,42.05,2.45,5.58,2.66,11.36,2.88,17.36s.26,12.33.13,18.49c-.29,14.09-1.35,28.16-2.85,42.17-3.02,28.14-7.79,56.09-13.59,83.78-2.6,12.39-5.41,24.73-8.47,37.01-1.36,5.47-2.77,10.93-4.24,16.38-1.16,4.31,1.05,9.39,2.07,13.69,5.9,24.79,11.32,49.66,14.12,75.03,1.76,15.92,2.85,32.12,2.39,48.14-.35,12.07-4.51,24.42-9.79,35.17-2.68,5.46-5.87,10.52-10.02,14.97-1.99,2.13-3.63,4.47-5.94,6.3-2.64,2.09-5.56,3.87-8.29,5.84-3.28,2.37-6.59,5.1-10.51,6.32-5.25,1.64-11.2,1.22-16.62,1.18-25.56-.19-51.11-.12-76.67-.15-.98,0-1.97,0-2.95,0-.39,0-1.85.34-1.45.96,5,7.85,8.89,16.34,11.27,25.35,2.16,8.21,2.78,16.7,3.46,25.13,1.34,16.53,2.11,33.15,1.74,49.73-.25,11.15-1.23,22.35-1.87,33.49-2.06,35.91-4.11,71.81-6.17,107.72-.59,10.31-1.18,20.61-1.77,30.92l1.25-.69c-8.28,1.13-16.55,2.26-24.83,3.39-8.82,1.2-17.49,3.05-26.38,3.96-14.61,1.49-29.33,2.24-44.01,2.43-10.25.13-20.81.32-30.96-1.33-17.33-2.82-34.52-6.21-51.93-8.39-4.82-.61-9.62-1.42-14.37-2.43-2.62-.56-5.84-.89-8.29-2-1.48-.67-1.19-.42-1.19-2.04,0-3.61.28-7.34,0-10.93-.16-2.07-.6-4.16-.9-6.21-4.89-33.6-9.77-67.21-14.66-100.81-6.09-41.87-12.19-83.75-18.3-125.62-1.55-10.58-3.1-21.16-4.65-31.75-2.66-18.19-2.72-37.12,1.94-55.01,1.93-7.4,5.16-14.46,10.07-20.36,2.62-3.15,5.67-5.91,9.03-8.25,4.02-2.81,8.57-4.52,12.72-7.05,7.08-4.32,12.81-10.57,18.64-16.37.37-.37-.32-.56-.56-.54-4.7.28-9.4.56-14.1.84-1.28.08-4.54.9-5.72.34.67.32.91-1.05,1.57-1.99,2.15-3.08,5.26-5.6,8.02-8.1,4.31-3.9,8.7-7.72,13-11.64,22.48-20.48,45.22-44.97,51.7-75.69,1.42-6.72,1.83-13.64,2.31-20.47.82-11.68,1.37-23.37,1.89-35.07.04-.84-1.82-.21-2.08.17-12.33,17.66-29.99,30.26-50.74,36.12-17.47,4.93-35.75,7.11-53.78,8.83-38.35,3.68-77.02,4.42-115.53,4.18-8.62-.05-17.24-.14-25.85-.39l.56.54c2.61-2.82,3.34-7.77,4.14-11.35,1.6-7.11,2.66-14.34,3.64-21.55,2.08-15.35,3.57-30.77,4.97-46.19.33-3.62.22-7.63,1.08-11.17l-1.76.69c22.15,5.44,44.3,10.88,66.45,16.31,2.27.56,4.93,1.69,7.28,1.52s4.62-1.02,6.8-1.5c12.91-2.84,25.82-5.68,38.73-8.51l37.34-8.21c1.75-.39,4.61-.45,6.07-1.63s2.69-3.92,3.77-5.5l5.73-8.36c5.08-7.41,8.49-16.42,12.39-24.49,5.23-10.81,10.37-21.67,15.57-32.5,6.13-12.76,12.83-25.24,18.82-38.04,8.22-17.55,20.02-34.13,37.07-44.01,15.7-9.1,33.9-13.52,51.4-17.75,1.93-.47,3.86-.93,5.79-1.4,1.3-.31,1.05-1.26-.25-.94h0Z"/>
      </g>
      <path class="cls-52" d="M711.41,578.06c-2.24-.71-4.45,1.34-6.1,2.54-2.04,1.5-4.02,3.07-5.81,4.87-1.67,1.68-3.11,3.48-4.19,5.6-1.23,2.42-2.15,4.99-2.78,7.63-.11.45,2.01.15,2.14-.39.98-4.08,2.57-8.32,5.38-11.51,1.35-1.54,2.86-2.95,4.45-4.24.85-.7,1.73-1.36,2.62-2.01.45-.33.89-.65,1.34-.97.24-.17.48-.35.73-.52.22-.15.3-.21.43-.16.45.14,1.11-.08,1.52-.28.21-.1.73-.41.27-.55h0Z"/>
      <path class="cls-52" d="M720.38,622.67c2.36-.51,4.7,2.83,5.95,4.39,1.6,1.98,3.08,4.06,4.43,6.21s2.61,4.37,3.66,6.68,1.08,4.75,1.95,7.06c.38,1.01,2.55.41,2.17-.58-.98-2.6-1.1-5.32-2.32-7.85-1.31-2.7-2.79-5.3-4.46-7.79-1.59-2.38-3.3-4.75-5.27-6.83-1.75-1.85-3.87-3.41-6.54-2.84-1.37.29-.94,1.84.41,1.55h0Z"/>
    </g>
    <g id="Layer_4" data-name="Layer 4">
      <path class="cls-32" d="M528.98,73.92c-9.97-5.08-15.3-9.43-25.81-13.41-.91-.34-9.37,2.31-10.24,2.59-.72.23-1.15.84-1.53,1.42-9.09,13.73-13.44,29.38-19.25,44.62-2.47,6.49-4.66,13.18-4.82,20.2-.15,6.33-2.23,13.16-.74,19.5,1.31,5.55,2.61,11.11,3.92,16.66.49,2.07,1.01,4.23,2.46,6,4.24,5.2,13.19,4.03,18.87.97,12.2-6.55,19.4-18.35,23.24-30.65,3.84-12.3,4.76-25.36,7.07-38.06,1.6-8.77,3.86-17.39,6.77-25.78"/>
      <path class="cls-13" d="M485.55,189.84s-13.1,64.71-29.29,88.46c-2.89,4.23-29.77,27.95-29.77,27.95l9.69,86.92c21.32,14.38,66.78,8.28,92.49,8.74l64.78-41.44s-29.82-34.97-28.87-40.94c.95-5.97,18.98-45.68,18.98-45.68"/>
      <path class="cls-13" d="M682.06,126.2c-.67-11.32-5.13-4.22-5.12-4.26-1.78.89-7.64-11.45-9.28-13.06-17.24-16.98-24.51-28.85-48.28-33.33-12.41-2.34-27.43,5.61-40.03,4.75-12.09-.82-20.91-12.26-32.61-15.63-4.05-1.17-9.22,11.49-7.01,9.11-4.81-2.56-8.46-5.25-8.46-5.25-16.16,5.37-18.64,62.86-20.87,70.05-2.23,7.2-7.69,17.89-7.69,17.89-1.04-3.35-2.51-6.05-2.61-9.47-.23-3.05-1.26-6.82-1.49-9.87-1.39-7.29-11.12-9.87-16.91-7.81l-3.38,2.48c-9.26,6.1-9.07,34.58-7.4,44.02-4.53,16.28,6.18,29.68,18.14,21.16l-.11,6.96,11.26,39.06c9.85,22.05,35.24,50.23,60.52,58.34,9.06,2.91,24.87,9.19,35.21.38,10.45-8.91,17.29-10.2,24.85-18.6,8.55-9.49,16.79-16.53,23.97-27.08,7.43-10.92,8.55-14.1,11.63-26.58,1.37-5.58-.75-13.65,1.52-18.67,2.61-5.79,15.63-28.9,19.73-42.97,7.5-25.74,4.43-41.64,4.43-41.64Z"/>
      <path class="cls-34" d="M494.44,165.49c-.62-5.52-1.48-11.08-3.18-16.38-.85-2.64-1.91-5.34-3.56-7.6-.61-.83-1.39-1.78-2.34-2.25-1.3-.64-2.51.6-3.35,1.45-3.47,3.48-5.02,8.42-5.43,13.22-.08.97,2.11.6,2.18-.23.4-4.66,2.14-11,6.26-13.57l-1.34.26c-.23-.08-.15-.11-.02,0,.14.12.34.2.49.32.39.28,1.13,1.11,1.55,1.69,2.31,3.16,3.49,7.17,4.41,10.92,1.04,4.19,1.68,8.47,2.16,12.75.09.83,2.28.33,2.17-.58h0Z"/>
      <path class="cls-34" d="M490.3,166.16c-6.72-2.62-6.51,7.27-7.9,11.03-.08.22-.61.9-.61,1.08,0,.01.69.04.73-.08.01-.04-.14-.11-.14-.17,0-.23-.25-.63-.31-.89-.46-2.05-.21-4.32.01-6.38.34-3.16.82-6.12,2.12-9.01s3.48-7.21,6.98-7.48c1.09-.09,1.79-1.37.28-1.25-3.73.29-6.37,3.29-8.11,6.34-1.31,2.28-2.33,4.7-2.8,7.29-.52,2.82-.91,5.71-.88,8.58.01,1.15-.09,3.25,1.03,3.99,1.06.7,2.61-.12,3.26-1.03.74-1.03.97-2.44,1.22-3.66.36-1.76.6-3.57,1.18-5.28.22-.64.49-1.38.96-1.88.41-.43.67-.35,1.25-.12.48.19,1.12.11,1.54-.19.25-.18.69-.68.18-.88h0Z"/>
      <path class="cls-55" d="M656.75,144.74s-18.24-3.21-32.69-6.97c-14.45-3.77-26.82-13.24-26.82-13.24,0,0,15.65,8.71,27.07,11.74,11.42,3.03,32.44,8.48,32.44,8.48Z"/>
      <path class="cls-32" d="M608.73,155.12c.16-.37-.96-.86-.8-1.24-16.01-11.96-29.42-17.65-34.78-18.49-4.07-.64-8.36-.32-12.69.72,0,0-11.88,2.65-13.97,4.74-2.09,2.09,8.83,1.56,8.83,1.56,1.7.05,2.95-.21,4.6.1,9.02,1.68,15.02,3.35,23.03,7.98,6.87,3.91,15.45,10.73,21.25,16.68,1.73-4.07,2.54-8.13,4.52-12.04Z"/>
      <path class="cls-32" d="M671.27,186.27h0s.07-.08.11-.12c.13-.15.26-.3.38-.46.24-.31.47-.64.67-.98.04-.07.13-.19.2-.26-.03.03-.05.06-.12.15.12-.14.19-.37.27-.54.66-1.35,1.15-2.77,1.68-4.17-.5-.46-.93-.94-1.48-1.39-4.28-3.45-17.52-9.51-37.13-13.44-2.45,4.6-3.17,5.94-5.64,10.53,8.73.26,14.29,1.52,22.16,4.06,5.38,1.73,12.15,4.38,17.9,7.43.35-.25.67-.53,1-.81Z"/>
      <path class="cls-34" d="M587.35,214.4c-1.83-.29-3.81.31-5.15,1.59-.72.68-1.17,1.57-1.47,2.51s-.47,1.84-.17,2.75c.6,1.81,2.33,2.83,3.96,3.58,1.9.87,3.85,1.64,5.95,1.85.49.05,1.19-.17,1.42-.65s-.2-.8-.64-.84c-1.62-.16-3.15-.74-4.64-1.38-1.36-.59-2.81-1.25-3.62-2.56-.78-1.26-.28-3.03.53-4.17.71-1,1.86-1.38,3.04-1.2.48.08,1.2-.18,1.42-.65.24-.5-.21-.77-.64-.84h0Z"/>
      <path class="cls-31" d="M589.28,248.08c-5.43-1.77-21.65-8.09-21.65-8.09,0,0,3.99,7.95,20.28,13.26,16.29,5.31,23.37,1.17,23.37,1.17l-21.99-6.34Z"/>
      <path class="cls-62" d="M590.03,247.5c-11.81-3.44-30.47-10.63-30.47-10.63,0,0-5.67,32.12,21.7,40.09,27.37,7.97,34.58-21.99,34.58-21.99,0,0-14.01-4.03-25.82-7.47Z"/>
      <path class="cls-11" d="M590.74,247.7c-5.58-1.62-24.5-8.2-24.5-8.2,0,0-1.32,19.32,18.87,25.2,21.88,6.37,28.99-10.18,28.99-10.18l-23.35-6.82Z"/>
      <path class="cls-31" d="M591.56,249.02c-5.72-1.66-22.79-7.84-22.79-7.84,0,0,4.17,9.02,21.32,14.01,17.15,4.99,24.63-.41,24.63-.41l-23.16-5.76Z"/>
      <path class="cls-62" d="M620.6,254.18c-.56-.35-.57-.71-3.33-1.82-4.59-1.84-7.14-4.14-10.48-5.44-5.7-2.22-10.19-.65-12.73-1.39-2.54-.74-5.49-4.48-11.49-5.66-3.52-.7-12.42-1.73-17.28-2.64-2.92-.55-5.88-2.78-6.54-2.79-.91,0-1.35,7.6,30.63,16.91,31.98,9.31,31.99,3.32,31.22,2.83Z"/>
      <path class="cls-32" d="M595.83,235.93l-2.4,5.54c-.37.85-1.23,1.37-2.15,1.29-6.32-.53-34.51-8.84-35.05-3.21-.07.79-1.77,5.31-1.9,5.25l-1-2.01c-.93-4.11,3.15-12.65,5.29-12.98,6.53-1,12.27-1.43,15.77-1.46,4.37-.04,14.95,3.4,19.96,4.59,1.32.31,2.02,1.75,1.47,2.99Z"/>
      <path class="cls-32" d="M601.1,236.65l-1.3,5.9c-.2.91.04,1.8.59,2.22,3.8,2.93,23.2,10.38,20.81,15.36-.33.69-.73,3.89-.63,3.91l1.31-.42c1.53.32,4.45-9.89,3.41-11.3-3.19-4.31-6.2-7.74-8.16-9.63-2.44-2.36-10.4-6.07-13.78-7.75-.89-.44-1.97.38-2.25,1.71Z"/>
      <path class="cls-13" d="M523.32,74.88c.17.33.26.65.28.96l158.34,65.36s7.01-41.51-19.04-66.57c-24.73-23.8-73.77-35.76-104.83-36-28.18-.22-46.28,13.33-54.9,21.89,8.4,1.79,16.14,6.76,20.15,14.37Z"/>
      <path class="cls-45" d="M546.63,156.53l.11,8.43c-.41,6.38,1.73,19.8,2.75,23.66,1.45,5.41,32.79,17.65,40.22,16.13,7.43-1.52,16.74-18.25,19.76-21.84l12.53,4.91c-.61,5.74-2.13,24.04-.46,27.13,1.67,3.09,16.45,7.51,18.11,8.01,1.39.4,3.32.96,5.47,1.48,5.66,1.43,12.66,2.73,15.38,1.41,4.04-1.96,11.09-12.23,17.47-22.03l1.02-1.53c.23-.37.46-.61.5-.73h0l1.15-1.77c-15.58-14.66-40.15-21.2-58.21-15.48l.05.23-12.21-4.85c-11.07-13.8-33.76-26.81-53.29-25.94h0l-52.97-2.54-1.69,4.64,44.3.69ZM623.61,213.72c-1.05-1.93-.35-14.87.52-24.84,15.62-4.71,37.75,1.22,51.98,13.4l-.09.24c-3.42,5.26-12.53,19.24-16.49,21.17-4.69,2.27-34-6.85-35.93-9.92l.02-.05ZM553.69,188.6c-2.88-8.54-3.52-20.84-3.19-31,17.71-1.79,44.79,11.53,55.7,24.76-4.63,6.75-11.65,18.92-16.98,19.99-7.66,1.56-34.64-10.33-35.54-13.75h0Z"/>
      <path class="cls-50" d="M587.44,184.84s-16.05.39-26.97-7.8c-4.02-3.01-7.94-6.91-4.98-10.18,5.89-6.51,19.9-2.82,25.36,1.16,5.93,4.32,9.57,9.69,6.59,16.81Z"/>
      <g>
        <path class="cls-28" d="M586.97,177.7c-.29,5.33-4.75,7.34-10.77,6.43-6.02-.91-11.31-4.4-11.03-9.73.29-5.33,3.99-8.94,10.01-8.02,6.02.91,12.08,5.99,11.79,11.33Z"/>
        <path class="cls-49" d="M581.84,176.43c-.16,2.96-2.99,4.95-6.33,4.44-3.34-.51-5.92-3.31-5.76-6.27.16-2.96,2.99-4.95,6.33-4.44,3.34.51,5.92,3.31,5.76,6.27Z"/>
      </g>
      <path class="cls-11" d="M588.66,180.33s-4.22-10.82-17.48-13.91c-13.25-3.08-16.57,1.9-16.57,1.9,0,0,2.83-6.55,13.04-6.34,7.34.15,20.79,3.94,21.01,18.35Z"/>
      <ellipse class="cls-50" cx="574.27" cy="172.32" rx="1.24" ry="1.32" transform="translate(235.75 667.17) rotate(-72.33)"/>
      <path class="cls-50" d="M657.9,210.8s-14.23.97-25.15-7.21c-4.02-3.01-7.94-6.91-4.98-10.18,5.89-6.51,19.9-2.82,25.36,1.16,5.93,4.32,7.75,9.11,4.77,16.23Z"/>
      <g>
        <path class="cls-28" d="M658.83,203.78c-.29,5.33-4.75,7.34-10.77,6.43-6.02-.91-11.31-4.4-11.03-9.73.29-5.33,3.99-8.94,10.01-8.02,6.02.91,12.08,5.99,11.79,11.33Z"/>
        <path class="cls-49" d="M653.71,202.5c-.16,2.96-2.99,4.95-6.33,4.44-3.34-.51-5.92-3.31-5.76-6.27.16-2.96,2.99-4.95,6.33-4.44,3.34.51,5.92,3.31,5.76,6.27Z"/>
      </g>
      <path class="cls-11" d="M659.11,206.77s-2.39-10.72-15.65-13.8c-13.25-3.08-16.57,1.9-16.57,1.9,0,0,2.83-6.55,13.04-6.34,7.34.15,22.84,5.62,19.18,18.24Z"/>
      <ellipse class="cls-50" cx="646.13" cy="198.39" rx="1.24" ry="1.32" transform="translate(260.95 753.81) rotate(-72.33)"/>
      <path class="cls-34" d="M619.95,191.53c-.98,4.33-1.13,8.87-1.22,13.29-.1,4.91,0,9.83.16,14.74.11,3.37.35,6.76.28,10.14,0,.3,0,.62-.05.91-.06.26.25-.2-.17.3-.48.58-1,1.04-1.71,1.33-1.77.73-3.79.48-5.64.3-2.98-.29-5.93-1.03-8.78-1.95-2.69-.87-5.73-1.91-7.88-3.84-.66-.59-2.71.28-2,.92,1.87,1.68,4.26,2.7,6.58,3.58,2.85,1.07,5.81,1.87,8.81,2.4,2.08.37,4.26.62,6.37.5,2.26-.14,5.43-1.03,6.47-3.33.31-.69.19-1.62.18-2.35-.02-1.76-.09-3.52-.15-5.28-.18-5.14-.34-10.27-.33-15.41.02-5.45.05-11.1,1.26-16.44.22-.97-1.99-.67-2.19.21h0Z"/>
      <path class="cls-52" d="M595.87,850.09c13.02,1.54,26.28-.24,38.46-5.09.93-.37.09-.96-.6-.69-11.82,4.71-24.69,6.37-37.32,4.87-.62-.07-1.52.79-.54.91h0Z"/>
      <path class="cls-50" d="M500.62,709.48c-94.83-23.43-208.78-79.03-208.78-79.03l-13.58,23.82c-15.55,39.23-50.04,89.97-48.94,183.33.23,19.71,6.89,49.56,21.08,64.49,7.25,7.63,24.02,34.61,55.36,34.7l44.61-.43,99.05,2.18c-9.82,16.45-15.81,34.52-17.61,53.12-3.48,36.05-5.19,80.51-2.65,109.52l-8.15,192.58,36.96,5.46c25.76,6.95,99.47,10.76,125.94,6.51l56.58-10.68c14.44-1.17,28.74-3.84,42.6-8.04v-21.21s73.85-315.05,77.55-341.8c3.25-24.39,3.05-49.58-2.21-73.73-4.52-20.75-14.98-38.81-36.91-49.6-19.39-9.54-88.89-56.3-102.69-65.61l-17.85-17.14"/>
      <path class="cls-50" d="M664.46,397.08c-4.21-30.58-61.54-60.95-77.81-72.81l-19.49-11.75s14.33,9.99-23.23,7.66c-38.78-2.4-37.11-6.31-60.99-34,0,0-9.5-8.95-9.75-22.64l-7.58,7.05c-11.55.64,28.9-7.08-11.52,2.4-11.57,2.17-81.99,22.34-97.15,29.27-3.45,1.49-15.97,6.73-18.58,8.31-6.92,3.84-13.98,6.36-22.1,15.61-5.66,5.95-9.72,12.81-12.77,19.23-2.16,6.94-8.14,30.17-9.23,37.35-1.9,12.54,7.95,33.39,10.77,67.7,2.67,32.43,1.06,40.26,1.45,72.92.38,31.99-4.14,58.03-13.77,88.15-8.83,27.63-44.18,101.36-50.3,129.7,79.99,15.6,180.35-33.04,260.11-16.35,42.39,8.87,73.55,6.33,115.68,16.35,4.9-25.69,15.29-98.28,16.56-118.71,3.18-42.17,38.44-161.84,29.69-225.45Z"/>
      <path class="cls-52" d="M663.16,467.74c-3.69,12.77-6.36,25.83-8.9,38.87-3.28,16.87-6.16,33.82-8.91,50.79-2.98,18.39-5.8,36.81-8.56,55.23-2.61,17.38-5.17,34.78-7.81,52.16-2.09,13.74-4.19,27.49-6.61,41.18-.23,1.3-.47,2.61-.71,3.91-.18.95,2.03.63,2.19-.22,2.41-13.1,4.44-26.28,6.46-39.44,2.61-17.02,5.12-34.06,7.67-51.09,2.76-18.43,5.55-36.85,8.49-55.25,2.77-17.33,5.66-34.65,8.92-51.89,2.57-13.62,5.29-27.25,8.9-40.64.34-1.28.7-2.55,1.07-3.82.26-.89-1.95-.61-2.19.22h0Z"/>
      <g>
        <path class="cls-50" d="M454.09,273.01c3.48-6.8,9.18-16.55,13.41-22.92,42.56,56.74,83.88,53.18,111.13,55.76-2.27,5.99-.64,6.17-2.91,12.17-.29.77-1.14,7.86-1.66,8.51-.86,1.06-5.37,1.7-6.68,2.09-5.32,1.59-20.95-.02-26.49-.35-19.8-1.15-35.55-6.08-51.41-17.99-15.86-11.91-28.75-18.57-35.38-37.27"/>
        <path class="cls-52" d="M455.16,272.83c4.03-7.86,8.53-15.55,13.41-22.92-.7.19-1.4.37-2.1.56,13.09,17.41,29.03,33.16,48.71,42.93,13.42,6.66,27.94,9.99,42.79,11.39,6.64.63,13.31.9,19.96,1.53l-.38-.29c-.89,2.39-1.25,4.68-1.58,7.17-.28,2.08-1.19,3.96-1.55,6-.35,1.98-.59,3.98-.99,5.96-.09.45-.15,1.19-.47,1.54-.59.63-2.27.78-3.08.96-1.74.39-3.47.87-5.26,1.02-2.29.2-4.61.18-6.91.12-4.78-.13-9.54-.53-14.31-.87-5.86-.42-11.67-.89-17.44-2.02-5.92-1.17-11.73-2.91-17.28-5.3-5.83-2.51-11.33-5.73-16.48-9.44-4.78-3.44-9.55-6.91-14.28-10.42-4.71-3.49-9.32-7.19-13.21-11.61-4.24-4.81-7.37-10.38-9.53-16.41-.2-.56-2.35.09-2.17.58,1.98,5.51,4.77,10.66,8.49,15.2,3.49,4.26,7.67,7.87,12.03,11.22,4.79,3.67,9.77,7.09,14.61,10.7,5.29,3.95,10.88,7.46,16.88,10.21,11.45,5.26,23.64,7.33,36.13,8.17,4.84.33,9.67.76,14.53.91,2.41.08,4.84.11,7.25-.04,1.89-.12,3.64-.5,5.48-.91,1.25-.28,2.52-.52,3.75-.89.92-.28,2.27-.62,2.9-1.42.44-.55.5-1.45.62-2.12.23-1.22.42-2.45.61-3.68.13-.85.22-1.74.44-2.58.37-1.42.96-2.75,1.24-4.19.22-1.15.28-2.32.45-3.48.24-1.63.73-3.2,1.3-4.74.09-.23-.23-.28-.38-.29-12.58-1.18-25.18-1.45-37.57-4.18-16.83-3.7-32.3-11.42-45.67-22.26-10.44-8.47-19.5-18.51-27.56-29.23-.36-.48-1.85.19-2.1.56-4.87,7.37-9.37,15.06-13.41,22.92-.19.37,1.85.22,2.15-.36h0Z"/>
      </g>
      <path class="cls-52" d="M545.83,299.94c-3.52,5.76-7.04,11.51-10.55,17.27l-5.28,8.63c-.23.38-.47.67-.5,1.11-.04.49.1,1.05.15,1.53.69,7.22,1.22,14.46,1.65,21.7.72,12.13,1.15,24.29,1.07,36.45-.08,12.36-.56,24.83-2.6,37.05-1.47,8.83-3.27,17.62-4.87,26.43-1.99,10.9-3.95,21.8-5.91,32.7-1.99,11.1-3.98,22.2-5.95,33.31-1.59,8.95-3.18,17.9-4.77,26.85-.82,4.61-1.63,9.22-2.45,13.83-.04.21-.07.42-.11.63-.05.27.19.4.42.45,6.4,1.35,12.79,2.7,19.19,4.05.91.19,1.83.38,2.74.58.52.11,1.6-.11,1.75-.73.8-3.24,1.58-6.48,2.37-9.72,1.97-8.16,3.91-16.33,5.82-24.51,2.51-10.76,4.98-21.53,7.36-32.32,2.44-11.03,4.8-22.08,6.99-33.16,1.77-8.97,3.47-17.97,4.69-27.03,1.28-9.51,1.67-19.14,2.06-28.72.5-12.54.75-25.08.89-37.63.12-10.04.17-20.07.15-30.11,0-2.56-.01-5.12-.02-7.67,0-.37-.04-.77,0-1.14-.05.52.03.14.21-.15l.82-1.33c4.39-7.11,8.79-14.23,13.18-21.34.37-.59.73-1.19,1.1-1.78.53-.85-1.65-.65-2.02-.04-3.84,6.22-7.68,12.43-11.51,18.65-.95,1.53-1.89,3.06-2.84,4.6-.35.56-.96,1.25-1.1,1.9-.26,1.19.01,2.74.02,3.94.03,8.62.01,17.24-.05,25.86-.09,12.39-.28,24.78-.65,37.16-.33,11.05-.71,22.14-1.8,33.15-.81,8.2-2.31,16.34-3.83,24.43-2.02,10.8-4.27,21.56-6.6,32.29-2.41,11.13-4.92,22.23-7.48,33.32-2.09,9.03-4.21,18.04-6.37,27.05-1.12,4.66-2.24,9.31-3.38,13.96-.05.21-.1.42-.15.63l1.75-.73c-6.4-1.35-12.79-2.7-19.19-4.05-.91-.19-1.83-.38-2.74-.58l.42.45c.56-3.2,1.13-6.39,1.69-9.59,1.43-8.09,2.87-16.18,4.3-24.27,1.92-10.79,3.84-21.59,5.78-32.38,2-11.15,4-22.29,6.02-33.44,1.69-9.3,3.39-18.61,5.13-27.9,2.08-11.09,3.18-22.2,3.55-33.48.41-12.53.17-25.07-.41-37.59-.42-9-1.01-18-1.79-26.98-.14-1.65-.1-3.5-.48-5.12-.07-.31-.14.26-.05.12.15-.23.28-.46.42-.69l2.11-3.45c4.24-6.94,8.49-13.89,12.73-20.83.32-.53.64-1.05.96-1.58.52-.86-1.65-.65-2.02-.04h0Z"/>
      <path class="cls-52" d="M551.55,376.8c-.59,2.61-2.74,4.82-5.46,5.11-2.81.3-5.52-1.32-6.73-3.85s-.76-5.66,1.15-7.72c1.85-2,4.78-2.47,7.22-1.35,2.97,1.36,4.43,4.7,3.81,7.83-.22,1.11,2.01.86,2.21-.15.67-3.41-.9-7.01-3.93-8.75-3.19-1.83-7.3-1.51-10.16.81-2.74,2.22-3.95,6.04-2.7,9.39s4.55,5.49,8.13,5.5c4.14.01,7.76-2.95,8.66-6.95.25-1.1-1.98-.86-2.21.15Z"/>
      <path class="cls-52" d="M558.67,319.4c-.74,2.28-2.65,4.63-5.17,4.54-2.88-.1-5.43-2.18-6.4-4.84-.99-2.72-.32-5.92,1.82-7.91.79-.74,1.71-1.3,2.74-1.36,1.39-.08,2.8.39,3.95,1.14,2.76,1.79,3.99,5.27,3.07,8.41-.15.52,2.64.19,2.85-.53.98-3.33-.25-6.95-3.19-8.86-3.17-2.06-7.59-1.54-10.69.41s-4.59,5.46-3.62,8.91c.95,3.4,4.11,5.63,7.59,5.75,4.14.14,8.59-2.11,9.91-6.21.15-.47-.95-.28-1.15-.24-.39.07-1.55.29-1.7.77Z"/>
      <path class="cls-52" d="M538.85,454.83c-2.8-.63-4.95-2.85-5.48-5.69s.71-5.81,3.19-7.25c2.36-1.37,5.41-.83,7.38.99,2.09,1.93,2.88,4.95,1.98,7.65-.99,2.96-3.96,4.91-7.07,4.3-.52-.1-1.16,0-1.54.41-.3.33-.26.81.24.91,3.55.7,7.27-.61,9.42-3.57,2.07-2.86,1.99-6.86-.15-9.64s-6.11-3.88-9.49-2.82-6.05,3.99-6.25,7.6c-.23,4.03,2.58,7.55,6.48,8.43.51.12,1.17-.01,1.54-.41.31-.34.25-.8-.24-.91Z"/>
      <path class="cls-52" d="M526.78,522.76c-2.87-.65-5.11-2.88-5.7-5.78-.56-2.8.58-5.86,2.99-7.44,2.4-1.57,5.53-.84,7.55,1.03,2.11,1.95,2.9,5.03,2.01,7.76-.49,1.49-1.45,2.82-2.77,3.68s-2.77,1.01-4.28.72c-.47-.09-1.17.11-1.54.41-.35.29-.27.52.16.61,3.42.67,7.35-.67,9.43-3.53s2.03-6.62-.05-9.4c-4.5-6.01-15.22-2.85-15.8,4.6-.3,3.92,2.42,7.43,6.23,8.29.5.11,1.08,0,1.53-.24.19-.11.75-.58.23-.69Z"/>
      <path class="cls-52" d="M637.76,594.69c-12.19,1.69-24.64.26-36.38-3.32-4.08-1.24-8.08-2.74-11.97-4.49-2.03-.91-3.96-2.14-6-3-.13-.05-.27-.14-.38-.22-.13-.09.06.35.04.16s.07-.42.09-.61c.16-1.03.32-2.06.48-3.1.64-4.17,1.28-8.34,1.92-12.5,2.07-13.51,4.15-27.02,6.22-40.54l6.56-42.71c.78-5.07,1.56-10.15,2.34-15.22l.74-4.82c.13-.84.36-1.73.4-2.58,0-.11.04-.23.05-.34l-1.96.64c6.04,1.89,12.07,3.77,18.11,5.66,7.3,2.28,14.51,4.6,21.99,6.24,7.09,1.55,15.44,3.01,22.31-.15,1.38-.63.1-1.11-.81-.7-6.01,2.76-13.54,1.23-19.73-.1-3.92-.84-7.84-1.81-11.67-3.01-7.2-2.25-14.39-4.5-21.59-6.75-2.28-.71-4.57-1.43-6.85-2.14-.43-.14-1.86.02-1.96.64-.63,4.07-1.25,8.15-1.88,12.22-1.5,9.74-2.99,19.48-4.49,29.21-1.81,11.82-3.63,23.63-5.44,35.45-1.56,10.18-3.12,20.35-4.69,30.53-.52,3.35-1.03,6.71-1.55,10.06-.24,1.54-.72,3.22-.73,4.78,0,.07-.02.14-.03.21-.03.09,0,.17.06.24,3.39,2.04,7.08,3.65,10.74,5.11,8.46,3.36,17.41,5.64,26.48,6.52,6.4.62,12.84.51,19.21-.37.96-.13,1.87-1.22.35-1.01h0Z"/>
      <path class="cls-52" d="M596.85,482.27c2.44,1.8,5.41,3.03,8.2,4.16,8.59,3.47,17.74,5.46,26.89,6.75,8.27,1.16,16.62,1.67,24.97,1.77.44,0,1.24-.14,1.43-.62.18-.45-.15-.73-.62-.74-13.01-.15-26.12-1.26-38.77-4.41-6.16-1.53-12.34-3.5-17.94-6.54-.83-.45-1.69-.92-2.45-1.49-.64-.47-2.62.45-1.71,1.12h0Z"/>
      <polygon class="cls-13" points="524.29 291.59 528.92 326.95 547.98 297.81 524.29 291.59"/>
      <g>
        <line class="cls-50" x1="524.29" y1="291.59" x2="528.92" y2="326.95"/>
        <path class="cls-52" d="M523.56,291.79c1.35,10.33,2.71,20.66,4.06,30.99.19,1.46.38,2.91.57,4.37.05.38,1.51.07,1.45-.39-1.35-10.33-2.71-20.66-4.06-30.99-.19-1.46-.38-2.91-.57-4.37-.05-.38-1.51-.07-1.45.39h0Z"/>
      </g>
      <path class="cls-32" d="M597.26,296.07c-.26-.11-6.14-2.41-6.31-2.62-3.35-3.98-1.56-9.69-3.45-10.77-.44-.25-.63-.49-2.03-1.12-5.63-2.54-2.43-3.65-21.08,1.76-.38.11-26.43-7.63-26.82-7.78l-9.16-8.15c-1.46-1.62-31.47-46.96-31.47-46.96-.27-1.3-5.14-11.42-5.11-12.58-.11-.1-.21-.21-.32-.29-.04-.03-.13-.11-.22-.18-.04.06-.09.15-.12.2-.21.44-.34.93-.45,1.39-.5,2.04-.67,4.14-.63,6.25.06,3.23-.29,6.42-.35,9.63-.02,1.14.01,2.27.09,3.4,3.71,4.16,13.32,53.43,37.5,68.97.99.6,4.08,2.53,12.84,5.92,16.46,6.36,31.93,12.57,49.95,12.58,4.7,0,7.65-5.02,10.57-8.55,8.33-10.07,14.98-17.9,23.91-28.38-7.51,8.63-8.35,8.16-17.45,14.81-4.07,2.98-9.31,2.46-9.88,2.46"/>
      <path class="cls-52" d="M791.91,538.21v124.03c0,.48-.14,1.23,0,1.69.02.06,0,.15,0,.21,0,.39,2.17.07,2.17-.58,0-4.2,0-8.39,0-12.59v-29.97c0-12.16,0-24.32,0-36.49,0-10.45,0-20.89,0-31.34v-13.65c0-.48.14-1.23,0-1.69-.02-.06,0-.15,0-.21,0-.39-2.17-.07-2.17.58h0Z"/>
      <path class="cls-52" d="M454.06,271.77c-18.13,3.51-36.03,9.72-53.65,15.14-18.2,5.6-36.17,11.44-53.64,19.03-10.72,4.66-22,9.79-30.25,18.28-5.71,5.88-10.65,12.6-14.14,20.04-2.33,4.97-2.93,10.94-3.89,16.31-1.76,9.82-4.4,20.21-3.69,30.25.94,13.3,4.21,26.45,6.08,39.63,4.46,31.44,3.54,62.75,3.78,94.38.24,32.97-5.53,65.84-17.19,96.71-17.38,45.98-40.27,89.67-51.63,137.75-3.81,16.14-6.28,32.59-7.48,49.13-1.14,15.72-1.79,31.77.75,47.38,2.29,14.09,6.49,28.67,14.56,40.61,5.09,7.52,11.87,14.98,18.26,21.43,8.2,8.29,18.06,15.09,29.47,18.01,7.55,1.93,15.11,1.64,22.81,1.57,12.58-.12,25.2-.56,37.78-.28,16.26.36,32.52.72,48.77,1.08,9.59.21,19.19.42,28.78.63,3.59.08,7.17.16,10.76.24,1.98.04,4.63-.36,6.55.14.22.06,1.09-.14,1.24.03-.59-.65-4.27,6.34-4.54,6.88-4.17,8.1-7.5,16.63-9.86,25.43-4.59,17.05-5.17,35.15-6.2,52.7-.98,16.72-1.53,33.48-1.36,50.23.1,9.38,1.22,18.82,1.14,28.18-.24,28.8-2.44,57.73-3.66,86.5-1.4,33.09-2.8,66.19-4.2,99.28-.08,1.92-.16,3.85-.24,5.77,0,.15.32.23.41.24,31.85,4.71,63.31,10.82,95.51,12.69,20.87,1.21,42.23,2.15,63.07-.09,12.8-1.38,25.52-4.54,38.15-6.92,7.38-1.39,14.74-2.98,22.15-4.18,5.24-.85,10.57-1.12,15.82-1.93,9.54-1.46,18.94-3.63,28.19-6.38.35-.1.96-.31.96-.76,0-9.59-.64-18.37,1.51-27.55,2.93-12.52,5.85-25.04,8.77-37.56,10.34-44.35,20.64-88.72,30.84-133.1,9.9-43.05,19.81-86.1,29.21-129.26,2.42-11.1,5.04-22.22,6.89-33.43,2.7-16.31,3.11-33.32,1.87-49.78-1.38-18.17-4.43-37.41-14.59-52.95-4.66-7.14-10.73-13.26-17.81-18.01-4.64-3.11-9.73-5.42-14.58-8.16-10.97-6.2-21.6-13.03-32.2-19.83-12.37-7.94-24.66-16.01-36.91-24.14-4.92-3.27-9.84-6.55-14.75-9.83-3.26-2.18-8.32-4.39-10.92-7.34-1.9-2.15-.03-7.01.43-9.82.91-5.5,1.78-11.01,2.63-16.52.11-.73-2.06-.34-2.16.31-1.33,8.6-2.7,17.2-4.2,25.77-.03.1,0,.18.07.25,19.57,13.2,39.22,26.27,59.05,39.07,10.69,6.9,21.4,13.76,32.36,20.23,11.08,6.54,22.71,11.63,31.41,21.5,12.34,13.99,16.76,32.27,19.03,50.33,2.41,19.22,2.26,39.16-.73,58.31-1.61,10.29-4.04,20.49-6.24,30.66-8.97,41.42-18.48,82.73-27.96,124.03-10.18,44.32-20.45,88.63-30.77,132.92-3.24,13.93-6.49,27.85-9.75,41.77-.77,3.28-1.63,6.55-2.31,9.85-.72,3.51-.36,7.13-.36,10.71v12.14l.96-.76c-10.64,3.16-21.48,5.53-32.49,6.95-4.01.52-8.06.7-12.04,1.45-8.52,1.61-17.05,3.22-25.57,4.83-16.25,3.07-32.05,6.49-48.62,7.01-27.4.87-55.17-.57-82.37-3.98-8.47-1.06-16.71-3.11-25.11-4.39-9.02-1.38-18.06-2.67-27.09-4.01-1.41-.21-6.94-.11-7.95-1.18.65.68.39-1.11.44-1.47.64-4.11.36-8.6.54-12.75.71-16.79,1.42-33.58,2.13-50.37,1.61-37.96,3.21-75.91,4.82-113.87.54-12.71-.34-25.01-.55-37.76-.32-18.95.34-37.91,1.52-56.82,1.14-18.24,1.97-36.79,7.51-54.33,3.02-9.57,7.21-18.69,12.29-27.34.25-.42-.21-.52-.56-.53-35.5-.78-71.09-2.46-106.6-2.11-11.73.11-23.46.27-35.19.34-16.43.11-30.58-6.87-42.19-18.2-10.24-9.99-20.54-22.01-26.1-35.2-8.2-19.48-9.89-40.22-9.21-61.12,1.22-37.77,9.17-75.14,22.69-110.39,12.2-31.8,27.23-62.53,38.73-94.59,7.34-20.46,12.29-42.07,14.39-63.7,2.1-21.6,1.25-43.52,1.33-65.2.08-21.66-1.52-43.33-4.88-64.73-2.4-15.31-6.62-30.55-4.21-46.06,1.3-8.35,2.62-16.71,4.34-24.99,2.2-10.58,8.23-19.58,15.67-27.34,10.91-11.38,27.36-17.53,41.77-23.33,26.34-10.6,54.38-18.15,81.75-25.6,4.08-1.11,8.19-2.3,12.35-3.1.96-.19,1.84-1.34.34-1.05h0Z"/>
      <g>
        <path class="cls-50" d="M393.15,589.81s-22.25-3.85-36.1,18.77"/>
        <path class="cls-52" d="M393.68,588.86c-2.93-.5-6.08-.31-9.01.09-6.76.91-13.27,3.56-18.65,7.77-4.16,3.25-7.57,7.28-10.34,11.76-.38.61.33,1,.84,1.06.68.07,1.53-.25,1.9-.85,4.22-6.83,10.12-12.51,17.59-15.61,4.35-1.8,9.34-2.7,13.84-2.55.92.03,1.86.08,2.77.23,1.3.22,2.99-1.57,1.06-1.9h0Z"/>
      </g>
      <path class="cls-13" d="M571.8,730.64l-23.21,22.03,8.19,17.87s33.88,28.97,44.58,31.39c10.7,2.42,35.05,11.16,35.05,11.16-2.29,2.48-3.63,5.67-3.79,9.02.08,3.87,1.76,7.53,4.65,10.15l16.29-12.31c.37,8.42,9.03,5.18,9.03,5.18l12.69-11.39c-.02,10.45,11.33,6.5,11.33,6.5l11.36-18.17c1.36,4.08,3.52,7.86,6.35,11.12,3.85,3.73,8.11-3.56,8.11-3.56l-6.64-36.7-41.98-29.99-81.49-7.92-10.54-4.37Z"/>
      <path class="cls-34" d="M676.65,761.24c3.71,2.61,7.08,5.6,10.42,8.67s6.41,6.12,9.16,9.57c2.64,3.3,6.06,7.22,5.02,11.71-.49,2.13-1.18,4.32-1.92,6.38-.73,2.02-1.81,3.89-3.12,5.6-.33.43.28.68.61.71.52.05,1.11-.2,1.43-.61,1.3-1.7,2.35-3.55,3.12-5.55.83-2.16,1.55-4.51,2.07-6.77,1.05-4.53-2.02-8.25-4.63-11.64-2.88-3.73-6.25-7.09-9.72-10.28s-6.9-6.21-10.71-8.89c-.63-.44-2.62.47-1.72,1.1h0Z"/>
      <path class="cls-34" d="M660.17,776.51c2.62,2.13,5.37,4.08,8.05,6.12,3.3,2.52,6.85,5.11,9.66,8.17,1.43,1.55,2.38,3.13,2.57,5.26.19,2.15.05,4.46-.29,6.59-.32,2.02-.96,4.09-1.99,5.86-1.09,1.87-2.79,3.52-4.34,5.01-.65.63.75.88,1.21.43,1.53-1.48,3.14-3.08,4.3-4.88s1.78-3.88,2.17-5.88c.44-2.22.57-4.64.44-6.89-.05-.87-.09-1.86-.38-2.68-.32-.9-1-1.79-1.58-2.54-1.22-1.57-2.81-2.84-4.3-4.14-1.73-1.51-3.51-2.95-5.32-4.36-3.01-2.33-6.12-4.51-9.07-6.91-.5-.41-1.76.31-1.12.84h0Z"/>
      <path class="cls-34" d="M643.58,788.79c1.61,1.3,3.36,2.17,5.16,3.15,2.7,1.47,5.32,3.58,7.4,5.83,1.43,1.55,2.38,3.13,2.57,5.26.19,2.15.05,4.46-.29,6.59-.32,2.02-.96,4.09-1.99,5.86-1.09,1.87-2.79,3.52-4.34,5.01-.65.63.75.88,1.21.43,1.53-1.48,3.14-3.08,4.3-4.88,1.11-1.72,1.78-3.88,2.17-5.88.44-2.22.57-4.64.44-6.89-.05-.87-.09-1.86-.38-2.68-.32-.9-1-1.79-1.58-2.54-1.18-1.51-2.69-2.76-4.15-3.99-1.15-.97-2.35-1.88-3.65-2.63-1.96-1.14-3.95-2.03-5.73-3.47-.5-.41-1.77.31-1.12.84h0Z"/>
      <g>
        <path class="cls-50" d="M299.19,363.11c-7.49,32.14-12.79,116.84-12.79,116.84,0,0-12.32,139.67-3.32,171.99,0,0,2.2,11.73,13.19,24.8-.03.03-.06.06-.09.09,7.78,10.74,19.97,22.19,39.03,32.41,81.85,39.52,167.3,70.9,238.4,83.54,0,0-1.72-17.31,2.59-33.62,3.99-15.1,14.05-29.29,14.05-29.29l-194.66-121.29s0,0,0,0c4.97-65.1,7.84-132.85,12.88-195.52,0,0,3.29-60.27-20.26-68.83"/>
        <path class="cls-52" d="M298.08,363.18c-2.77,11.97-4.28,24.26-5.72,36.46-1.68,14.17-3.02,28.37-4.23,42.58-1.12,13.26-1.88,26.54-3.01,39.79-1.45,17.08-2.67,34.18-3.72,51.29-1.58,25.91-2.86,51.9-2.71,77.87.06,10.2.27,20.47,1.44,30.61.94,8.16,2.92,15.82,6.79,23.13,2.33,4.4,5.17,8.5,8.35,12.33l.07-.86-.09.09c-.21.22-.25.6-.07.86,10.08,13.81,24.23,24.96,39.41,32.68,19.53,9.95,39.84,18.66,60.01,27.2,38.49,16.29,77.82,30.82,118.05,42.22,19.96,5.66,40.16,10.54,60.59,14.18.7.13,1.52-.37,1.45-1.13-1.09-11.16-.24-23.13,2.75-33.92,2.77-10.01,7.72-19.85,13.72-28.34.21-.3.28-.79-.09-1.02-4.2-2.62-8.4-5.24-12.6-7.85-10.61-6.61-21.22-13.22-31.83-19.83-14.15-8.82-28.3-17.63-42.45-26.45-14.87-9.27-29.75-18.54-44.62-27.8-12.59-7.85-25.19-15.69-37.78-23.54-7.51-4.68-15.01-9.35-22.52-14.03-.73-.46-1.47-1.04-2.25-1.4-.18-.08-.35-.21-.51-.32-.03-.02-.06-.04-.09-.06.81.54-.08.91.3.15.42-.83.19-2.48.26-3.43,1.28-17.13,2.42-34.27,3.49-51.42,2.13-34.06,4.01-68.13,6.3-102.18,1.22-18.12,3.55-36.27,2.76-54.45-.37-8.49-1.22-17.01-3.06-25.31-1.72-7.77-4.31-16.09-9.68-22.18-2.2-2.49-4.86-4.49-7.98-5.66-.99-.37-2.54,1.06-1.23,1.55,7.23,2.72,11.32,10.04,13.85,16.91,3.06,8.3,4.47,17.19,5.29,25.97.65,6.94.88,13.93.77,20.9-.13,7.97-1.05,15.93-1.63,23.88-2.47,33.85-4.38,67.73-6.43,101.6-1.03,17.06-2.09,34.11-3.27,51.16-.3,4.31-.6,8.62-.92,12.93-.15,2-.29,4.01-.44,6.01-.08,1.06-.81,3.76-.21,4.71.18.29.68.48.95.65,5.94,3.7,11.87,7.4,17.81,11.09,11.69,7.28,23.37,14.56,35.06,21.85,14.5,9.03,28.99,18.06,43.49,27.09,14.57,9.07,29.13,18.15,43.7,27.22,11.71,7.29,23.41,14.59,35.12,21.88,5.97,3.72,11.93,7.43,17.9,11.15.27.17.54.34.81.51l-.09-1.02c-6.24,8.84-11.38,19.05-14.17,29.5-2.91,10.91-3.73,22.82-2.63,34.07l1.45-1.13c-37.68-6.73-74.59-17.5-110.68-30.13-40.23-14.07-79.59-30.62-118.1-48.86-10.42-4.93-20.37-10.36-29.44-17.53-7-5.53-13.32-11.87-18.58-19.08l-.07.86.09-.09c.2-.21.27-.62.07-.86-7.22-8.69-12.34-18.69-14.23-29.83-1.58-9.32-1.86-18.89-2.05-28.32-.5-25.62.69-51.29,2.15-76.86,1.08-18.95,2.4-37.88,3.98-56.8.92-11.1,1.59-22.23,2.48-33.34,2.16-26.94,4.25-54.16,9.19-80.77.45-2.44.95-4.87,1.51-7.29.26-1.12-1.97-.89-2.21.14h0Z"/>
      </g>
      <g>
        <path class="cls-50" d="M395.59,608.58s-24.1-4.71-32.54,12.43"/>
        <path class="cls-52" d="M396.92,608.43c-3.47-.67-7.08-.84-10.6-.75-6.03.14-12.32,1.3-17.46,4.61-3.31,2.13-5.92,5.12-7.68,8.63,0-.02,3.35.98,3.74.2,2.86-5.71,7.97-9.61,14.05-11.41,2.5-.74,5.09-1.17,7.69-1.32,1.09-.06,2.01-.07,3.11-.05.39,0,.16,0,.07,0,.12,0,.25,0,.37.01.24.01.47.02.71.03.22.01.45.03.67.04-.43-.03.3.03.43.04.4.04.79.08,1.19.12.27.03-.34-.05.15.02.14.02.27.04.41.06.28.04,1.13.2.48.07.85.17,1.79.27,2.65.14.57-.09.74-.31.02-.44h0Z"/>
      </g>
      <path class="cls-52" d="M756.71,554.22c-5.31,2.77-10.62,5.55-15.93,8.32-8.43,4.4-16.86,8.8-25.28,13.21-1.95,1.02-3.91,2.04-5.86,3.06l1.72-.13c-4.05-23.79-8.96-47.44-14.08-71.02-4.86-22.39-9.98-44.73-15.25-67.03-1.88-7.97-3.78-15.93-5.69-23.89-.4-1.65-.71-3.31-1.15-4.95-.57-2.12-1.26-4.22-1.72-6.37-.89-4.15-2.76-7.73-5-11.33-2.85-4.57-6.06-8.91-9.35-13.17-3.05-3.93-6.16-7.81-9.61-11.39-8.19-8.5-17.61-15.79-27.24-22.58-8.67-6.12-17.64-11.77-26.55-17.52-2.81-1.81-5.51-3.8-8.33-5.59-2.65-1.68-5.44-3.17-8.15-4.76-.83-.48-1.66-.97-2.49-1.45-.55-.32-2.37.57-2.04.75,2.51,1.47,5.03,2.94,7.54,4.4,2.3,1.34,4.45,2.79,6.67,4.28,7.95,5.33,16.13,10.32,24.07,15.66,9.91,6.66,19.65,13.7,28.49,21.76,7.82,7.13,14.48,15.31,20.61,23.92,2.95,4.15,5.93,8.46,7.93,13.17.68,1.59.98,3.18,1.37,4.84.51,2.15,1.18,4.27,1.74,6.4,1.94,7.31,3.49,14.77,5.24,22.14,5.13,21.6,10.12,43.24,14.9,64.92,5.24,23.78,10.26,47.62,14.55,71.6.46,2.6.92,5.2,1.36,7.8.08.48,1.52-.02,1.72-.13,5.31-2.77,10.62-5.55,15.93-8.32,8.43-4.4,16.86-8.8,25.28-13.21,1.95-1.02,3.91-2.04,5.86-3.06,1.27-.67-.72-.61-1.26-.33h0Z"/>
    </g>
    <g id="Layer_6" data-name="Layer 6">
      <path class="cls-13" d="M830.4,767.52l16.41,19.06-7.82,13.32s-28.78,19.97-37.33,21.02c-8.55,1.05-28.29,5.95-28.29,5.95,1.59,2.12,2.39,4.72,2.25,7.35-.37,3.02-1.97,5.75-4.44,7.56l-11.76-10.91c-.95,6.56-7.47,3.34-7.47,3.34l-9.02-9.91c-.81,8.17-9.37,4.18-9.37,4.18l-7.45-15.1c-1.39,3.08-3.37,5.87-5.85,8.19-3.31,2.61-6.06-3.42-6.06-3.42l8.09-28.17,35.19-20.13,64.33.25,8.59-2.58Z"/>
      <path class="cls-34" d="M744.7,782.29c-3.34,1.88-6.43,4.12-9.49,6.43s-5.94,4.69-8.49,7.47c-2.13,2.31-4.59,4.81-4.28,8.19.17,1.87.61,3.84,1.08,5.65.44,1.69,1.17,3.27,2.08,4.76.41.67,2.52-.05,2.01-.88-1.76-2.88-2.52-6.34-2.94-9.66-.45-3.55,2.42-6.23,4.71-8.57,2.47-2.53,5.25-4.77,8.09-6.88s5.58-4.06,8.6-5.77c.39-.22.54-.63.17-.92-.4-.32-1.18-.02-1.54.18h0Z"/>
      <path class="cls-34" d="M755.53,795.11c-2.57,1.69-5.26,3.19-7.86,4.83-2.8,1.75-5.98,3.57-8.23,6.02-1.09,1.19-1.62,2.29-1.89,3.89-.29,1.68-.35,3.48-.24,5.18s.47,3.6,1.25,5.18,1.91,2.94,3.01,4.24c.64.76,2.7-.11,1.99-.96-2.17-2.57-3.76-5.18-4.05-8.6-.14-1.69-.05-3.53.24-5.21s1.15-2.88,2.44-3.97c4.51-3.77,9.89-6.39,14.78-9.6.42-.28.5-.8.12-1.13-.42-.36-1.16-.13-1.56.13h0Z"/>
      <path class="cls-34" d="M766.86,810.69c-3.05,1.04-6.38,1.88-9.18,3.47-2.47,1.4-4.69,3.24-5.47,6.08s.14,5.56,1.97,7.67c.99,1.14,2.24,2.14,3.53,2.93.57.35,1.4.91,2.12.82.48-.06,1.15-.34,1.19-.91.04-.53-.55-.84-1.02-.77.25-.03.43.14.17-.02-.14-.09-.3-.13-.45-.21-.48-.26-.94-.58-1.38-.9-1.32-.97-2.52-2.08-3.3-3.53-1.57-2.92-.95-6.38,1.69-8.44,3.04-2.38,6.97-3.34,10.57-4.57.44-.15,1.02-.53.87-1.09-.14-.51-.86-.65-1.3-.5h0Z"/>
      <g>
        <path class="cls-50" d="M1015.08,498.62c-15.49.84-24.65,30.13-24.65,30.13-3.4,17.38-13.07,88.12-17.61,121.01l-3.04,35.86"/>
        <path class="cls-52" d="M1015.55,498.18c-7.07.45-12.5,5.45-16.44,10.93-3.69,5.12-6.47,10.92-8.69,16.82-1.22,3.24-1.72,6.53-2.29,9.94-1.12,6.71-2.14,13.44-3.14,20.16-2.68,17.95-5.2,35.92-7.7,53.89-1.21,8.69-2.41,17.39-3.61,26.08-.72,5.26-1.63,10.52-2.08,15.8-.94,11.06-1.88,22.13-2.82,33.19l-.08.91c-.03.3,2.12.07,2.17-.58.86-10.18,1.73-20.36,2.59-30.54,1.04-12.29,3.09-24.5,4.78-36.72,2.5-18.07,5.03-36.14,7.67-54.19,1.09-7.43,2.19-14.86,3.36-22.27.44-2.77.89-5.55,1.36-8.32.28-1.62.47-3.33.92-4.92,1.22-4.29,3.24-8.52,5.3-12.46,3.12-5.94,7.3-12.64,13.52-15.72,1.34-.66,2.74-1.06,4.23-1.15.58-.04,2.36-.97.94-.88h0Z"/>
      </g>
      <g>
        <path class="cls-50" d="M1042.74,716.76s-6.89,18.91-12.98,26.99c-13.51,17.9-24.67,15.25-79.97,36.19l-112.08,31.09c1.91-30.23-20.27-46.64-20.27-46.64l128.78-70.31,23.58-10.47c17.19.56,21.95,6.62,24.65,16.97"/>
        <path class="cls-52" d="M1041.66,716.91c-1.16,3.2-2.45,6.35-3.78,9.48-2.35,5.51-4.84,11.11-8.21,16.08-3.59,5.29-8.27,9.86-13.84,13.03-6.62,3.77-14.07,6.02-21.27,8.38-12.79,4.19-25.56,8.4-38.2,13.05-2.63.97-5.21,2.1-7.91,2.85l-4.99,1.38c-6.29,1.74-12.57,3.49-18.86,5.23-8.65,2.4-17.3,4.8-25.95,7.2s-17.95,4.98-26.92,7.47c-7.38,2.05-14.76,4.1-22.14,6.14l-11.5,3.19-.53.15,1.22.35c.99-16.63-5.45-33.04-17.56-44.5-.89-.84-1.8-1.67-2.78-2.4l-.35.7c1.92-1.05,3.84-2.1,5.76-3.15,5.05-2.76,10.1-5.51,15.14-8.27,7.07-3.86,14.14-7.72,21.2-11.58,8.08-4.41,16.17-8.83,24.25-13.24,8-4.37,15.99-8.73,23.99-13.1,6.81-3.72,13.62-7.44,20.44-11.16l13.86-7.57,3.41-1.86c.22-.12.44-.24.67-.36.19-.1-.36.17-.12.06.3-.14.6-.27.9-.4,7.03-3.12,14.05-6.24,21.08-9.36.41-.18.83-.37,1.24-.55.08-.04.17-.09.26-.11-.26.07-.56.02-.19.19s1.05.05,1.44.07c3.26.2,6.57.65,9.68,1.71,4.38,1.5,7.88,4.33,9.97,8.5,1.01,2.03,1.71,4.2,2.28,6.38.18.7,2.36.12,2.17-.58-1.13-4.28-2.8-8.6-6.18-11.62-4.03-3.62-9.63-4.87-14.87-5.37-1.84-.18-3.91-.62-5.65.15l-3.8,1.69c-4.11,1.82-8.22,3.65-12.33,5.47-2.92,1.3-5.89,2.5-8.7,4.03-3.71,2.02-7.42,4.05-11.12,6.07-6.31,3.45-12.63,6.9-18.94,10.34-7.86,4.29-15.73,8.59-23.59,12.88-8.24,4.5-16.48,9-24.72,13.5-7.58,4.14-15.15,8.27-22.73,12.41-5.74,3.13-11.48,6.27-17.22,9.4-2.84,1.55-5.69,3.07-8.52,4.65-.13.07-.25.14-.38.21-.16.09-.64.48-.35.7,2.72,2.02,5.11,4.61,7.27,7.21,5.15,6.19,9.02,13.45,11.13,21.23,1.59,5.84,2.15,11.9,1.79,17.94-.03.57.89.44,1.22.35,2.71-.75,5.42-1.5,8.12-2.25,6.79-1.88,13.58-3.77,20.36-5.65,8.9-2.47,17.81-4.94,26.71-7.41,8.93-2.48,17.86-4.95,26.79-7.43,6.98-1.94,13.97-3.88,20.95-5.81,3.03-.84,6.1-1.6,9.11-2.53,3.2-.99,6.32-2.36,9.47-3.51,3.77-1.38,7.56-2.72,11.35-4.04,6.18-2.14,12.39-4.2,18.6-6.23,8.13-2.65,16.49-5.06,24.23-8.74,5.73-2.73,10.71-6.4,14.85-11.22,6.74-7.86,10.73-17.89,14.43-27.44.34-.89.69-1.78,1.01-2.67.24-.66-1.92-.39-2.17.3h0Z"/>
      </g>
      <path class="cls-50" d="M912.77,350.86s12.68,10.09,25.49,8.16c4.6-.69,7.23-2.59,6.61-6.66-1.24-8.08-11.59-11.14-18.01-10.95-6.97.21-12.69,2.42-14.08,9.44Z"/>
      <g>
        <path class="cls-28" d="M915.45,345.25c-2.58,4.24-.1,8.12,5.15,10.58,5.25,2.46,11.28,2.56,13.87-1.68,2.58-4.24,1.55-8.95-3.71-11.4-5.25-2.46-12.73-1.73-15.31,2.51Z"/>
        <path class="cls-49" d="M920.19,346.97c-1.43,2.35-.23,5.37,2.68,6.73,2.91,1.36,6.44.56,7.87-1.79,1.43-2.35.23-5.37-2.68-6.73-2.91-1.36-6.44-.56-7.87,1.79Z"/>
      </g>
      <path class="cls-11" d="M914.17,346.76s9.05-6.09,21.18-1.5c12.13,4.59,9.15,10.36,9.15,10.36,0,0,4.19-6.71-4.01-11.91-5.9-3.74-18.56-7.88-26.32,3.06Z"/>
      <ellipse class="cls-50" cx="928.22" cy="348.08" rx="1.17" ry="1.24" transform="translate(358.91 1159.64) rotate(-75.51)"/>
      <path class="cls-50" d="M852.61,337.72s9.15,10.27,21.96,8.35c4.6-.69,7.23-2.59,6.61-6.66-1.24-8.08-11.59-11.14-18.01-10.95-6.97.21-9.17,2.23-10.56,9.26Z"/>
      <g>
        <path class="cls-28" d="M854.51,332.76c-2.58,4.24-.1,8.12,5.15,10.58,5.25,2.46,11.28,2.56,13.87-1.68,2.58-4.24,1.55-8.95-3.71-11.4-5.25-2.46-12.73-1.73-15.31,2.51Z"/>
        <path class="cls-49" d="M859.24,334.47c-1.43,2.35-.23,5.37,2.68,6.73,2.91,1.36,6.44.56,7.87-1.79,1.43-2.35.23-5.37-2.68-6.73-2.91-1.36-6.44-.56-7.87,1.79Z"/>
      </g>
      <path class="cls-11" d="M853.33,334.37s6.21-6.66,18.35-2.07c12.13,4.59,9.15,10.36,9.15,10.36,0,0,4.19-6.71-4.01-11.91-5.9-3.74-21.39-8.04-23.49,3.63Z"/>
      <ellipse class="cls-50" cx="867.27" cy="335.58" rx="1.17" ry="1.24" transform="translate(325.32 1091.26) rotate(-75.51)"/>
    </g>
  </g>
</svg>